<?xml version="1.0" encoding="utf-8" standalone="no"?>
<!DOCTYPE svg PUBLIC "-//W3C//DTD SVG 1.1//EN"
  "http://www.w3.org/Graphics/SVG/1.1/DTD/svg11.dtd">
<!-- Created with matplotlib (http://matplotlib.org/) -->
<svg height="1187pt" version="1.1" viewBox="0 0 2304 1187" width="2304pt" xmlns="http://www.w3.org/2000/svg" xmlns:xlink="http://www.w3.org/1999/xlink">
 <defs>
  <style type="text/css">
*{stroke-linecap:butt;stroke-linejoin:round;stroke-miterlimit:100000;}
  </style>
 </defs>
 <g id="figure_1">
  <g id="patch_1">
   <path d="M 0 1187.1 
L 2304 1187.1 
L 2304 0 
L 0 0 
z
" style="fill:#ffffff;"/>
  </g>
  <g id="axes_1">
   <g id="patch_2">
    <path d="M 288 1068.39 
L 2073.6 1068.39 
L 2073.6 118.71 
L 288 118.71 
z
" style="fill:#ffffff;"/>
   </g>
   <g id="patch_3">
    <path clip-path="url(#p41c0c6ac88)" d="M 288 1068.39 
L 318.936704 1068.39 
L 318.936704 525.236461 
L 288 525.236461 
z
" style="fill:#804040;"/>
   </g>
   <g id="patch_4">
    <path clip-path="url(#p41c0c6ac88)" d="M 288 522.081378 
L 318.936704 522.081378 
L 318.936704 118.71 
L 288 118.71 
z
" style="fill:#802020;"/>
   </g>
   <g id="patch_5">
    <path clip-path="url(#p41c0c6ac88)" d="M 327.399264 1068.39 
L 538.571641 1068.39 
L 538.571641 674.480001 
L 327.399264 674.480001 
z
" style="fill:#805d40;"/>
   </g>
   <g id="patch_6">
    <path clip-path="url(#p41c0c6ac88)" d="M 327.399264 671.324918 
L 538.571641 671.324918 
L 538.571641 118.71 
L 327.399264 118.71 
z
" style="fill:#804c20;"/>
   </g>
   <g id="patch_7">
    <path clip-path="url(#p41c0c6ac88)" d="M 547.0342 1068.39 
L 893.570975 1068.39 
L 893.570975 614.603546 
L 547.0342 614.603546 
z
" style="fill:#807b40;"/>
   </g>
   <g id="patch_8">
    <path clip-path="url(#p41c0c6ac88)" d="M 547.0342 611.448463 
L 893.570975 611.448463 
L 893.570975 118.71 
L 547.0342 118.71 
z
" style="fill:#807820;"/>
   </g>
   <g id="patch_9">
    <path clip-path="url(#p41c0c6ac88)" d="M 902.033535 1068.39 
L 1171.68542 1068.39 
L 1171.68542 520.727453 
L 902.033535 520.727453 
z
" style="fill:#678040;"/>
   </g>
   <g id="patch_10">
    <path clip-path="url(#p41c0c6ac88)" d="M 902.033535 517.57237 
L 1171.68542 517.57237 
L 1171.68542 118.71 
L 902.033535 118.71 
z
" style="fill:#5b8020;"/>
   </g>
   <g id="patch_11">
    <path clip-path="url(#p41c0c6ac88)" d="M 1180.14798 1068.39 
L 1357.511891 1068.39 
L 1357.511891 564.215274 
L 1180.14798 564.215274 
z
" style="fill:#4a8040;"/>
   </g>
   <g id="patch_12">
    <path clip-path="url(#p41c0c6ac88)" d="M 1180.14798 561.060191 
L 1357.511891 561.060191 
L 1357.511891 118.71 
L 1180.14798 118.71 
z
" style="fill:#2f8020;"/>
   </g>
   <g id="patch_13">
    <path clip-path="url(#p41c0c6ac88)" d="M 1365.97445 1068.39 
L 1506.135995 1068.39 
L 1506.135995 447.80463 
L 1365.97445 447.80463 
z
" style="fill:#408053;"/>
   </g>
   <g id="patch_14">
    <path clip-path="url(#p41c0c6ac88)" d="M 1365.97445 444.649546 
L 1506.135995 444.649546 
L 1506.135995 118.71 
L 1365.97445 118.71 
z
" style="fill:#20803d;"/>
   </g>
   <g id="patch_15">
    <path clip-path="url(#p41c0c6ac88)" d="M 1514.598555 1068.39 
L 1602.448352 1068.39 
L 1602.448352 631.694626 
L 1514.598555 631.694626 
z
" style="fill:#408071;"/>
   </g>
   <g id="patch_16">
    <path clip-path="url(#p41c0c6ac88)" d="M 1514.598555 628.539543 
L 1602.448352 628.539543 
L 1602.448352 118.71 
L 1514.598555 118.71 
z
" style="fill:#208069;"/>
   </g>
   <g id="patch_17">
    <path clip-path="url(#p41c0c6ac88)" d="M 1610.910911 1068.39 
L 1611.400416 1068.39 
L 1611.400416 500.47505 
L 1610.910911 500.47505 
z
" style="fill:#407180;"/>
   </g>
   <g id="patch_18">
    <path clip-path="url(#p41c0c6ac88)" d="M 1610.910911 497.319967 
L 1611.400416 497.319967 
L 1611.400416 118.71 
L 1610.910911 118.71 
z
" style="fill:#206980;"/>
   </g>
   <g id="patch_19">
    <path clip-path="url(#p41c0c6ac88)" d="M 1619.862975 1068.39 
L 1623.844281 1068.39 
L 1623.844281 610.644343 
L 1619.862975 610.644343 
z
" style="fill:#405380;"/>
   </g>
   <g id="patch_20">
    <path clip-path="url(#p41c0c6ac88)" d="M 1619.862975 607.48926 
L 1623.844281 607.48926 
L 1623.844281 118.71 
L 1619.862975 118.71 
z
" style="fill:#203d80;"/>
   </g>
   <g id="patch_21">
    <path clip-path="url(#p41c0c6ac88)" d="M 1632.306841 1068.39 
L 1747.275205 1068.39 
L 1747.275205 581.828369 
L 1632.306841 581.828369 
z
" style="fill:#4a4080;"/>
   </g>
   <g id="patch_22">
    <path clip-path="url(#p41c0c6ac88)" d="M 1632.306841 578.673286 
L 1747.275205 578.673286 
L 1747.275205 118.71 
L 1632.306841 118.71 
z
" style="fill:#2f2080;"/>
   </g>
   <g id="patch_23">
    <path clip-path="url(#p41c0c6ac88)" d="M 1755.737764 1068.39 
L 2030.611034 1068.39 
L 2030.611034 538.210188 
L 1755.737764 538.210188 
z
" style="fill:#674080;"/>
   </g>
   <g id="patch_24">
    <path clip-path="url(#p41c0c6ac88)" d="M 1755.737764 535.055105 
L 2030.611034 535.055105 
L 2030.611034 118.71 
L 1755.737764 118.71 
z
" style="fill:#5b2080;"/>
   </g>
   <g id="patch_25">
    <path clip-path="url(#p41c0c6ac88)" d="M 2039.073594 1068.39 
L 2073.6 1068.39 
L 2073.6 355.365086 
L 2039.073594 355.365086 
z
" style="fill:#80407b;"/>
   </g>
   <g id="patch_26">
    <path clip-path="url(#p41c0c6ac88)" d="M 2039.073594 352.210003 
L 2073.6 352.210003 
L 2073.6 118.71 
L 2039.073594 118.71 
z
" style="fill:#802078;"/>
   </g>
   <g id="patch_27">
    <path d="M 288 118.71 
L 2073.6 118.71 
" style="fill:none;stroke:#000000;stroke-linecap:square;stroke-linejoin:miter;"/>
   </g>
   <g id="patch_28">
    <path d="M 288 1068.39 
L 288 118.71 
" style="fill:none;stroke:#000000;stroke-linecap:square;stroke-linejoin:miter;"/>
   </g>
   <g id="patch_29">
    <path d="M 2073.6 1068.39 
L 2073.6 118.71 
" style="fill:none;stroke:#000000;stroke-linecap:square;stroke-linejoin:miter;"/>
   </g>
   <g id="patch_30">
    <path d="M 288 1068.39 
L 2073.6 1068.39 
" style="fill:none;stroke:#000000;stroke-linecap:square;stroke-linejoin:miter;"/>
   </g>
   <g id="matplotlib.axis_1">
    <g id="xtick_1">
     <g id="line2d_1">
      <defs>
       <path d="M 0 0 
L 0 -4 
" id="m4a45906a9b" style="stroke:#000000;stroke-width:0.5;"/>
      </defs>
      <g>
       <use style="stroke:#000000;stroke-width:0.5;" x="720.302587665" xlink:href="#m4a45906a9b" y="1068.39"/>
      </g>
     </g>
     <g id="text_1">
      <!-- Business_Management_PublicAdministration -->
      <defs>
       <path d="M 48.6875 27.296875 
Q 48.6875 37.203125 44.609375 42.84375 
Q 40.53125 48.484375 33.40625 48.484375 
Q 26.265625 48.484375 22.1875 42.84375 
Q 18.109375 37.203125 18.109375 27.296875 
Q 18.109375 17.390625 22.1875 11.75 
Q 26.265625 6.109375 33.40625 6.109375 
Q 40.53125 6.109375 44.609375 11.75 
Q 48.6875 17.390625 48.6875 27.296875 
M 18.109375 46.390625 
Q 20.953125 51.265625 25.265625 53.625 
Q 29.59375 56 35.59375 56 
Q 45.5625 56 51.78125 48.09375 
Q 58.015625 40.1875 58.015625 27.296875 
Q 58.015625 14.40625 51.78125 6.484375 
Q 45.5625 -1.421875 35.59375 -1.421875 
Q 29.59375 -1.421875 25.265625 0.953125 
Q 20.953125 3.328125 18.109375 8.203125 
L 18.109375 0 
L 9.078125 0 
L 9.078125 75.984375 
L 18.109375 75.984375 
z
" id="BitstreamVeraSans-Roman-62"/>
       <path d="M 34.28125 27.484375 
Q 23.390625 27.484375 19.1875 25 
Q 14.984375 22.515625 14.984375 16.5 
Q 14.984375 11.71875 18.140625 8.90625 
Q 21.296875 6.109375 26.703125 6.109375 
Q 34.1875 6.109375 38.703125 11.40625 
Q 43.21875 16.703125 43.21875 25.484375 
L 43.21875 27.484375 
z
M 52.203125 31.203125 
L 52.203125 0 
L 43.21875 0 
L 43.21875 8.296875 
Q 40.140625 3.328125 35.546875 0.953125 
Q 30.953125 -1.421875 24.3125 -1.421875 
Q 15.921875 -1.421875 10.953125 3.296875 
Q 6 8.015625 6 15.921875 
Q 6 25.140625 12.171875 29.828125 
Q 18.359375 34.515625 30.609375 34.515625 
L 43.21875 34.515625 
L 43.21875 35.40625 
Q 43.21875 41.609375 39.140625 45 
Q 35.0625 48.390625 27.6875 48.390625 
Q 23 48.390625 18.546875 47.265625 
Q 14.109375 46.140625 10.015625 43.890625 
L 10.015625 52.203125 
Q 14.9375 54.109375 19.578125 55.046875 
Q 24.21875 56 28.609375 56 
Q 40.484375 56 46.34375 49.84375 
Q 52.203125 43.703125 52.203125 31.203125 
" id="BitstreamVeraSans-Roman-61"/>
       <path d="M 8.5 21.578125 
L 8.5 54.6875 
L 17.484375 54.6875 
L 17.484375 21.921875 
Q 17.484375 14.15625 20.5 10.265625 
Q 23.53125 6.390625 29.59375 6.390625 
Q 36.859375 6.390625 41.078125 11.03125 
Q 45.3125 15.671875 45.3125 23.6875 
L 45.3125 54.6875 
L 54.296875 54.6875 
L 54.296875 0 
L 45.3125 0 
L 45.3125 8.40625 
Q 42.046875 3.421875 37.71875 1 
Q 33.40625 -1.421875 27.6875 -1.421875 
Q 18.265625 -1.421875 13.375 4.4375 
Q 8.5 10.296875 8.5 21.578125 
" id="BitstreamVeraSans-Roman-75"/>
       <path d="M 9.421875 54.6875 
L 18.40625 54.6875 
L 18.40625 0 
L 9.421875 0 
z
M 9.421875 75.984375 
L 18.40625 75.984375 
L 18.40625 64.59375 
L 9.421875 64.59375 
z
" id="BitstreamVeraSans-Roman-69"/>
       <path d="M 34.1875 63.1875 
L 20.796875 26.90625 
L 47.609375 26.90625 
z
M 28.609375 72.90625 
L 39.796875 72.90625 
L 67.578125 0 
L 57.328125 0 
L 50.6875 18.703125 
L 17.828125 18.703125 
L 11.1875 0 
L 0.78125 0 
z
" id="BitstreamVeraSans-Roman-41"/>
       <path d="M 41.109375 46.296875 
Q 39.59375 47.171875 37.8125 47.578125 
Q 36.03125 48 33.890625 48 
Q 26.265625 48 22.1875 43.046875 
Q 18.109375 38.09375 18.109375 28.8125 
L 18.109375 0 
L 9.078125 0 
L 9.078125 54.6875 
L 18.109375 54.6875 
L 18.109375 46.1875 
Q 20.953125 51.171875 25.484375 53.578125 
Q 30.03125 56 36.53125 56 
Q 37.453125 56 38.578125 55.875 
Q 39.703125 55.765625 41.0625 55.515625 
z
" id="BitstreamVeraSans-Roman-72"/>
       <path d="M 45.40625 46.390625 
L 45.40625 75.984375 
L 54.390625 75.984375 
L 54.390625 0 
L 45.40625 0 
L 45.40625 8.203125 
Q 42.578125 3.328125 38.25 0.953125 
Q 33.9375 -1.421875 27.875 -1.421875 
Q 17.96875 -1.421875 11.734375 6.484375 
Q 5.515625 14.40625 5.515625 27.296875 
Q 5.515625 40.1875 11.734375 48.09375 
Q 17.96875 56 27.875 56 
Q 33.9375 56 38.25 53.625 
Q 42.578125 51.265625 45.40625 46.390625 
M 14.796875 27.296875 
Q 14.796875 17.390625 18.875 11.75 
Q 22.953125 6.109375 30.078125 6.109375 
Q 37.203125 6.109375 41.296875 11.75 
Q 45.40625 17.390625 45.40625 27.296875 
Q 45.40625 37.203125 41.296875 42.84375 
Q 37.203125 48.484375 30.078125 48.484375 
Q 22.953125 48.484375 18.875 42.84375 
Q 14.796875 37.203125 14.796875 27.296875 
" id="BitstreamVeraSans-Roman-64"/>
       <path d="M 56.203125 29.59375 
L 56.203125 25.203125 
L 14.890625 25.203125 
Q 15.484375 15.921875 20.484375 11.0625 
Q 25.484375 6.203125 34.421875 6.203125 
Q 39.59375 6.203125 44.453125 7.46875 
Q 49.3125 8.734375 54.109375 11.28125 
L 54.109375 2.78125 
Q 49.265625 0.734375 44.1875 -0.34375 
Q 39.109375 -1.421875 33.890625 -1.421875 
Q 20.796875 -1.421875 13.15625 6.1875 
Q 5.515625 13.8125 5.515625 26.8125 
Q 5.515625 40.234375 12.765625 48.109375 
Q 20.015625 56 32.328125 56 
Q 43.359375 56 49.78125 48.890625 
Q 56.203125 41.796875 56.203125 29.59375 
M 47.21875 32.234375 
Q 47.125 39.59375 43.09375 43.984375 
Q 39.0625 48.390625 32.421875 48.390625 
Q 24.90625 48.390625 20.390625 44.140625 
Q 15.875 39.890625 15.1875 32.171875 
z
" id="BitstreamVeraSans-Roman-65"/>
       <path d="M 18.3125 70.21875 
L 18.3125 54.6875 
L 36.8125 54.6875 
L 36.8125 47.703125 
L 18.3125 47.703125 
L 18.3125 18.015625 
Q 18.3125 11.328125 20.140625 9.421875 
Q 21.96875 7.515625 27.59375 7.515625 
L 36.8125 7.515625 
L 36.8125 0 
L 27.59375 0 
Q 17.1875 0 13.234375 3.875 
Q 9.28125 7.765625 9.28125 18.015625 
L 9.28125 47.703125 
L 2.6875 47.703125 
L 2.6875 54.6875 
L 9.28125 54.6875 
L 9.28125 70.21875 
z
" id="BitstreamVeraSans-Roman-74"/>
       <path d="M 19.671875 64.796875 
L 19.671875 37.40625 
L 32.078125 37.40625 
Q 38.96875 37.40625 42.71875 40.96875 
Q 46.484375 44.53125 46.484375 51.125 
Q 46.484375 57.671875 42.71875 61.234375 
Q 38.96875 64.796875 32.078125 64.796875 
z
M 9.8125 72.90625 
L 32.078125 72.90625 
Q 44.34375 72.90625 50.609375 67.359375 
Q 56.890625 61.8125 56.890625 51.125 
Q 56.890625 40.328125 50.609375 34.8125 
Q 44.34375 29.296875 32.078125 29.296875 
L 19.671875 29.296875 
L 19.671875 0 
L 9.8125 0 
z
" id="BitstreamVeraSans-Roman-50"/>
       <path d="M 52 44.1875 
Q 55.375 50.25 60.0625 53.125 
Q 64.75 56 71.09375 56 
Q 79.640625 56 84.28125 50.015625 
Q 88.921875 44.046875 88.921875 33.015625 
L 88.921875 0 
L 79.890625 0 
L 79.890625 32.71875 
Q 79.890625 40.578125 77.09375 44.375 
Q 74.3125 48.1875 68.609375 48.1875 
Q 61.625 48.1875 57.5625 43.546875 
Q 53.515625 38.921875 53.515625 30.90625 
L 53.515625 0 
L 44.484375 0 
L 44.484375 32.71875 
Q 44.484375 40.625 41.703125 44.40625 
Q 38.921875 48.1875 33.109375 48.1875 
Q 26.21875 48.1875 22.15625 43.53125 
Q 18.109375 38.875 18.109375 30.90625 
L 18.109375 0 
L 9.078125 0 
L 9.078125 54.6875 
L 18.109375 54.6875 
L 18.109375 46.1875 
Q 21.1875 51.21875 25.484375 53.609375 
Q 29.78125 56 35.6875 56 
Q 41.65625 56 45.828125 52.96875 
Q 50 49.953125 52 44.1875 
" id="BitstreamVeraSans-Roman-6d"/>
       <path d="M 9.8125 72.90625 
L 24.515625 72.90625 
L 43.109375 23.296875 
L 61.8125 72.90625 
L 76.515625 72.90625 
L 76.515625 0 
L 66.890625 0 
L 66.890625 64.015625 
L 48.09375 14.015625 
L 38.1875 14.015625 
L 19.390625 64.015625 
L 19.390625 0 
L 9.8125 0 
z
" id="BitstreamVeraSans-Roman-4d"/>
       <path d="M 30.609375 48.390625 
Q 23.390625 48.390625 19.1875 42.75 
Q 14.984375 37.109375 14.984375 27.296875 
Q 14.984375 17.484375 19.15625 11.84375 
Q 23.34375 6.203125 30.609375 6.203125 
Q 37.796875 6.203125 41.984375 11.859375 
Q 46.1875 17.53125 46.1875 27.296875 
Q 46.1875 37.015625 41.984375 42.703125 
Q 37.796875 48.390625 30.609375 48.390625 
M 30.609375 56 
Q 42.328125 56 49.015625 48.375 
Q 55.71875 40.765625 55.71875 27.296875 
Q 55.71875 13.875 49.015625 6.21875 
Q 42.328125 -1.421875 30.609375 -1.421875 
Q 18.84375 -1.421875 12.171875 6.21875 
Q 5.515625 13.875 5.515625 27.296875 
Q 5.515625 40.765625 12.171875 48.375 
Q 18.84375 56 30.609375 56 
" id="BitstreamVeraSans-Roman-6f"/>
       <path d="M 48.78125 52.59375 
L 48.78125 44.1875 
Q 44.96875 46.296875 41.140625 47.34375 
Q 37.3125 48.390625 33.40625 48.390625 
Q 24.65625 48.390625 19.8125 42.84375 
Q 14.984375 37.3125 14.984375 27.296875 
Q 14.984375 17.28125 19.8125 11.734375 
Q 24.65625 6.203125 33.40625 6.203125 
Q 37.3125 6.203125 41.140625 7.25 
Q 44.96875 8.296875 48.78125 10.40625 
L 48.78125 2.09375 
Q 45.015625 0.34375 40.984375 -0.53125 
Q 36.96875 -1.421875 32.421875 -1.421875 
Q 20.0625 -1.421875 12.78125 6.34375 
Q 5.515625 14.109375 5.515625 27.296875 
Q 5.515625 40.671875 12.859375 48.328125 
Q 20.21875 56 33.015625 56 
Q 37.15625 56 41.109375 55.140625 
Q 45.0625 54.296875 48.78125 52.59375 
" id="BitstreamVeraSans-Roman-63"/>
       <path d="M 50.984375 -16.609375 
L 50.984375 -23.578125 
L -0.984375 -23.578125 
L -0.984375 -16.609375 
z
" id="BitstreamVeraSans-Roman-5f"/>
       <path d="M 54.890625 33.015625 
L 54.890625 0 
L 45.90625 0 
L 45.90625 32.71875 
Q 45.90625 40.484375 42.875 44.328125 
Q 39.84375 48.1875 33.796875 48.1875 
Q 26.515625 48.1875 22.3125 43.546875 
Q 18.109375 38.921875 18.109375 30.90625 
L 18.109375 0 
L 9.078125 0 
L 9.078125 54.6875 
L 18.109375 54.6875 
L 18.109375 46.1875 
Q 21.34375 51.125 25.703125 53.5625 
Q 30.078125 56 35.796875 56 
Q 45.21875 56 50.046875 50.171875 
Q 54.890625 44.34375 54.890625 33.015625 
" id="BitstreamVeraSans-Roman-6e"/>
       <path d="M 45.40625 27.984375 
Q 45.40625 37.75 41.375 43.109375 
Q 37.359375 48.484375 30.078125 48.484375 
Q 22.859375 48.484375 18.828125 43.109375 
Q 14.796875 37.75 14.796875 27.984375 
Q 14.796875 18.265625 18.828125 12.890625 
Q 22.859375 7.515625 30.078125 7.515625 
Q 37.359375 7.515625 41.375 12.890625 
Q 45.40625 18.265625 45.40625 27.984375 
M 54.390625 6.78125 
Q 54.390625 -7.171875 48.1875 -13.984375 
Q 42 -20.796875 29.203125 -20.796875 
Q 24.46875 -20.796875 20.265625 -20.09375 
Q 16.0625 -19.390625 12.109375 -17.921875 
L 12.109375 -9.1875 
Q 16.0625 -11.328125 19.921875 -12.34375 
Q 23.78125 -13.375 27.78125 -13.375 
Q 36.625 -13.375 41.015625 -8.765625 
Q 45.40625 -4.15625 45.40625 5.171875 
L 45.40625 9.625 
Q 42.625 4.78125 38.28125 2.390625 
Q 33.9375 0 27.875 0 
Q 17.828125 0 11.671875 7.65625 
Q 5.515625 15.328125 5.515625 27.984375 
Q 5.515625 40.671875 11.671875 48.328125 
Q 17.828125 56 27.875 56 
Q 33.9375 56 38.28125 53.609375 
Q 42.625 51.21875 45.40625 46.390625 
L 45.40625 54.6875 
L 54.390625 54.6875 
z
" id="BitstreamVeraSans-Roman-67"/>
       <path d="M 44.28125 53.078125 
L 44.28125 44.578125 
Q 40.484375 46.53125 36.375 47.5 
Q 32.28125 48.484375 27.875 48.484375 
Q 21.1875 48.484375 17.84375 46.4375 
Q 14.5 44.390625 14.5 40.28125 
Q 14.5 37.15625 16.890625 35.375 
Q 19.28125 33.59375 26.515625 31.984375 
L 29.59375 31.296875 
Q 39.15625 29.25 43.1875 25.515625 
Q 47.21875 21.78125 47.21875 15.09375 
Q 47.21875 7.46875 41.1875 3.015625 
Q 35.15625 -1.421875 24.609375 -1.421875 
Q 20.21875 -1.421875 15.453125 -0.5625 
Q 10.6875 0.296875 5.421875 2 
L 5.421875 11.28125 
Q 10.40625 8.6875 15.234375 7.390625 
Q 20.0625 6.109375 24.8125 6.109375 
Q 31.15625 6.109375 34.5625 8.28125 
Q 37.984375 10.453125 37.984375 14.40625 
Q 37.984375 18.0625 35.515625 20.015625 
Q 33.0625 21.96875 24.703125 23.78125 
L 21.578125 24.515625 
Q 13.234375 26.265625 9.515625 29.90625 
Q 5.8125 33.546875 5.8125 39.890625 
Q 5.8125 47.609375 11.28125 51.796875 
Q 16.75 56 26.8125 56 
Q 31.78125 56 36.171875 55.265625 
Q 40.578125 54.546875 44.28125 53.078125 
" id="BitstreamVeraSans-Roman-73"/>
       <path d="M 19.671875 34.8125 
L 19.671875 8.109375 
L 35.5 8.109375 
Q 43.453125 8.109375 47.28125 11.40625 
Q 51.125 14.703125 51.125 21.484375 
Q 51.125 28.328125 47.28125 31.5625 
Q 43.453125 34.8125 35.5 34.8125 
z
M 19.671875 64.796875 
L 19.671875 42.828125 
L 34.28125 42.828125 
Q 41.5 42.828125 45.03125 45.53125 
Q 48.578125 48.25 48.578125 53.8125 
Q 48.578125 59.328125 45.03125 62.0625 
Q 41.5 64.796875 34.28125 64.796875 
z
M 9.8125 72.90625 
L 35.015625 72.90625 
Q 46.296875 72.90625 52.390625 68.21875 
Q 58.5 63.53125 58.5 54.890625 
Q 58.5 48.1875 55.375 44.234375 
Q 52.25 40.28125 46.1875 39.3125 
Q 53.46875 37.75 57.5 32.78125 
Q 61.53125 27.828125 61.53125 20.40625 
Q 61.53125 10.640625 54.890625 5.3125 
Q 48.25 0 35.984375 0 
L 9.8125 0 
z
" id="BitstreamVeraSans-Roman-42"/>
       <path d="M 9.421875 75.984375 
L 18.40625 75.984375 
L 18.40625 0 
L 9.421875 0 
z
" id="BitstreamVeraSans-Roman-6c"/>
      </defs>
      <g transform="translate(723.446962665 1340.09125)rotate(-90.0)scale(0.12 -0.12)">
       <use xlink:href="#BitstreamVeraSans-Roman-42"/>
       <use x="68.603515625" xlink:href="#BitstreamVeraSans-Roman-75"/>
       <use x="131.982421875" xlink:href="#BitstreamVeraSans-Roman-73"/>
       <use x="184.08203125" xlink:href="#BitstreamVeraSans-Roman-69"/>
       <use x="211.865234375" xlink:href="#BitstreamVeraSans-Roman-6e"/>
       <use x="275.244140625" xlink:href="#BitstreamVeraSans-Roman-65"/>
       <use x="336.767578125" xlink:href="#BitstreamVeraSans-Roman-73"/>
       <use x="388.8671875" xlink:href="#BitstreamVeraSans-Roman-73"/>
       <use x="440.966796875" xlink:href="#BitstreamVeraSans-Roman-5f"/>
       <use x="490.966796875" xlink:href="#BitstreamVeraSans-Roman-4d"/>
       <use x="577.24609375" xlink:href="#BitstreamVeraSans-Roman-61"/>
       <use x="638.525390625" xlink:href="#BitstreamVeraSans-Roman-6e"/>
       <use x="701.904296875" xlink:href="#BitstreamVeraSans-Roman-61"/>
       <use x="763.18359375" xlink:href="#BitstreamVeraSans-Roman-67"/>
       <use x="826.66015625" xlink:href="#BitstreamVeraSans-Roman-65"/>
       <use x="888.18359375" xlink:href="#BitstreamVeraSans-Roman-6d"/>
       <use x="985.595703125" xlink:href="#BitstreamVeraSans-Roman-65"/>
       <use x="1047.119140625" xlink:href="#BitstreamVeraSans-Roman-6e"/>
       <use x="1110.498046875" xlink:href="#BitstreamVeraSans-Roman-74"/>
       <use x="1149.70703125" xlink:href="#BitstreamVeraSans-Roman-5f"/>
       <use x="1199.70703125" xlink:href="#BitstreamVeraSans-Roman-50"/>
       <use x="1259.994140625" xlink:href="#BitstreamVeraSans-Roman-75"/>
       <use x="1323.373046875" xlink:href="#BitstreamVeraSans-Roman-62"/>
       <use x="1386.849609375" xlink:href="#BitstreamVeraSans-Roman-6c"/>
       <use x="1414.6328125" xlink:href="#BitstreamVeraSans-Roman-69"/>
       <use x="1442.416015625" xlink:href="#BitstreamVeraSans-Roman-63"/>
       <use x="1497.396484375" xlink:href="#BitstreamVeraSans-Roman-41"/>
       <use x="1565.7890625" xlink:href="#BitstreamVeraSans-Roman-64"/>
       <use x="1629.265625" xlink:href="#BitstreamVeraSans-Roman-6d"/>
       <use x="1726.677734375" xlink:href="#BitstreamVeraSans-Roman-69"/>
       <use x="1754.4609375" xlink:href="#BitstreamVeraSans-Roman-6e"/>
       <use x="1817.83984375" xlink:href="#BitstreamVeraSans-Roman-69"/>
       <use x="1845.623046875" xlink:href="#BitstreamVeraSans-Roman-73"/>
       <use x="1897.72265625" xlink:href="#BitstreamVeraSans-Roman-74"/>
       <use x="1936.931640625" xlink:href="#BitstreamVeraSans-Roman-72"/>
       <use x="1978.044921875" xlink:href="#BitstreamVeraSans-Roman-61"/>
       <use x="2039.32421875" xlink:href="#BitstreamVeraSans-Roman-74"/>
       <use x="2078.533203125" xlink:href="#BitstreamVeraSans-Roman-69"/>
       <use x="2106.31640625" xlink:href="#BitstreamVeraSans-Roman-6f"/>
       <use x="2167.498046875" xlink:href="#BitstreamVeraSans-Roman-6e"/>
      </g>
     </g>
    </g>
    <g id="xtick_2">
     <g id="line2d_2">
      <g>
       <use style="stroke:#000000;stroke-width:0.5;" x="303.468352154" xlink:href="#m4a45906a9b" y="1068.39"/>
      </g>
     </g>
     <g id="text_2">
      <!-- Agriculture_NatResources_Conservation -->
      <defs>
       <path d="M 64.40625 67.28125 
L 64.40625 56.890625 
Q 59.421875 61.53125 53.78125 63.8125 
Q 48.140625 66.109375 41.796875 66.109375 
Q 29.296875 66.109375 22.65625 58.46875 
Q 16.015625 50.828125 16.015625 36.375 
Q 16.015625 21.96875 22.65625 14.328125 
Q 29.296875 6.6875 41.796875 6.6875 
Q 48.140625 6.6875 53.78125 8.984375 
Q 59.421875 11.28125 64.40625 15.921875 
L 64.40625 5.609375 
Q 59.234375 2.09375 53.4375 0.328125 
Q 47.65625 -1.421875 41.21875 -1.421875 
Q 24.65625 -1.421875 15.125 8.703125 
Q 5.609375 18.84375 5.609375 36.375 
Q 5.609375 53.953125 15.125 64.078125 
Q 24.65625 74.21875 41.21875 74.21875 
Q 47.75 74.21875 53.53125 72.484375 
Q 59.328125 70.75 64.40625 67.28125 
" id="BitstreamVeraSans-Roman-43"/>
       <path d="M 9.8125 72.90625 
L 23.09375 72.90625 
L 55.421875 11.921875 
L 55.421875 72.90625 
L 64.984375 72.90625 
L 64.984375 0 
L 51.703125 0 
L 19.390625 60.984375 
L 19.390625 0 
L 9.8125 0 
z
" id="BitstreamVeraSans-Roman-4e"/>
       <path d="M 44.390625 34.1875 
Q 47.5625 33.109375 50.5625 29.59375 
Q 53.5625 26.078125 56.59375 19.921875 
L 66.609375 0 
L 56 0 
L 46.6875 18.703125 
Q 43.0625 26.03125 39.671875 28.421875 
Q 36.28125 30.8125 30.421875 30.8125 
L 19.671875 30.8125 
L 19.671875 0 
L 9.8125 0 
L 9.8125 72.90625 
L 32.078125 72.90625 
Q 44.578125 72.90625 50.734375 67.671875 
Q 56.890625 62.453125 56.890625 51.90625 
Q 56.890625 45.015625 53.6875 40.46875 
Q 50.484375 35.9375 44.390625 34.1875 
M 19.671875 64.796875 
L 19.671875 38.921875 
L 32.078125 38.921875 
Q 39.203125 38.921875 42.84375 42.21875 
Q 46.484375 45.515625 46.484375 51.90625 
Q 46.484375 58.296875 42.84375 61.546875 
Q 39.203125 64.796875 32.078125 64.796875 
z
" id="BitstreamVeraSans-Roman-52"/>
       <path d="M 2.984375 54.6875 
L 12.5 54.6875 
L 29.59375 8.796875 
L 46.6875 54.6875 
L 56.203125 54.6875 
L 35.6875 0 
L 23.484375 0 
z
" id="BitstreamVeraSans-Roman-76"/>
      </defs>
      <g transform="translate(306.612727154 1313.09125)rotate(-90.0)scale(0.12 -0.12)">
       <use xlink:href="#BitstreamVeraSans-Roman-41"/>
       <use x="68.408203125" xlink:href="#BitstreamVeraSans-Roman-67"/>
       <use x="131.884765625" xlink:href="#BitstreamVeraSans-Roman-72"/>
       <use x="172.998046875" xlink:href="#BitstreamVeraSans-Roman-69"/>
       <use x="200.78125" xlink:href="#BitstreamVeraSans-Roman-63"/>
       <use x="255.76171875" xlink:href="#BitstreamVeraSans-Roman-75"/>
       <use x="319.140625" xlink:href="#BitstreamVeraSans-Roman-6c"/>
       <use x="346.923828125" xlink:href="#BitstreamVeraSans-Roman-74"/>
       <use x="386.1328125" xlink:href="#BitstreamVeraSans-Roman-75"/>
       <use x="449.51171875" xlink:href="#BitstreamVeraSans-Roman-72"/>
       <use x="490.59375" xlink:href="#BitstreamVeraSans-Roman-65"/>
       <use x="552.1171875" xlink:href="#BitstreamVeraSans-Roman-5f"/>
       <use x="602.1171875" xlink:href="#BitstreamVeraSans-Roman-4e"/>
       <use x="676.921875" xlink:href="#BitstreamVeraSans-Roman-61"/>
       <use x="738.201171875" xlink:href="#BitstreamVeraSans-Roman-74"/>
       <use x="777.41015625" xlink:href="#BitstreamVeraSans-Roman-52"/>
       <use x="846.830078125" xlink:href="#BitstreamVeraSans-Roman-65"/>
       <use x="908.353515625" xlink:href="#BitstreamVeraSans-Roman-73"/>
       <use x="960.453125" xlink:href="#BitstreamVeraSans-Roman-6f"/>
       <use x="1021.634765625" xlink:href="#BitstreamVeraSans-Roman-75"/>
       <use x="1085.013671875" xlink:href="#BitstreamVeraSans-Roman-72"/>
       <use x="1126.095703125" xlink:href="#BitstreamVeraSans-Roman-63"/>
       <use x="1181.076171875" xlink:href="#BitstreamVeraSans-Roman-65"/>
       <use x="1242.599609375" xlink:href="#BitstreamVeraSans-Roman-73"/>
       <use x="1294.69921875" xlink:href="#BitstreamVeraSans-Roman-5f"/>
       <use x="1344.69921875" xlink:href="#BitstreamVeraSans-Roman-43"/>
       <use x="1414.5234375" xlink:href="#BitstreamVeraSans-Roman-6f"/>
       <use x="1475.705078125" xlink:href="#BitstreamVeraSans-Roman-6e"/>
       <use x="1539.083984375" xlink:href="#BitstreamVeraSans-Roman-73"/>
       <use x="1591.18359375" xlink:href="#BitstreamVeraSans-Roman-65"/>
       <use x="1652.70703125" xlink:href="#BitstreamVeraSans-Roman-72"/>
       <use x="1693.8203125" xlink:href="#BitstreamVeraSans-Roman-76"/>
       <use x="1753.0" xlink:href="#BitstreamVeraSans-Roman-61"/>
       <use x="1814.279296875" xlink:href="#BitstreamVeraSans-Roman-74"/>
       <use x="1853.48828125" xlink:href="#BitstreamVeraSans-Roman-69"/>
       <use x="1881.271484375" xlink:href="#BitstreamVeraSans-Roman-6f"/>
       <use x="1942.453125" xlink:href="#BitstreamVeraSans-Roman-6e"/>
      </g>
     </g>
    </g>
    <g id="xtick_3">
     <g id="line2d_3">
      <g>
       <use style="stroke:#000000;stroke-width:0.5;" x="1621.85362841" xlink:href="#m4a45906a9b" y="1068.39"/>
      </g>
     </g>
     <g id="text_3">
      <!-- Personal_Protective_TransportationServices -->
      <defs>
       <path d="M -0.296875 72.90625 
L 61.375 72.90625 
L 61.375 64.59375 
L 35.5 64.59375 
L 35.5 0 
L 25.59375 0 
L 25.59375 64.59375 
L -0.296875 64.59375 
z
" id="BitstreamVeraSans-Roman-54"/>
       <path d="M 53.515625 70.515625 
L 53.515625 60.890625 
Q 47.90625 63.578125 42.921875 64.890625 
Q 37.9375 66.21875 33.296875 66.21875 
Q 25.25 66.21875 20.875 63.09375 
Q 16.5 59.96875 16.5 54.203125 
Q 16.5 49.359375 19.40625 46.890625 
Q 22.3125 44.4375 30.421875 42.921875 
L 36.375 41.703125 
Q 47.40625 39.59375 52.65625 34.296875 
Q 57.90625 29 57.90625 20.125 
Q 57.90625 9.515625 50.796875 4.046875 
Q 43.703125 -1.421875 29.984375 -1.421875 
Q 24.8125 -1.421875 18.96875 -0.25 
Q 13.140625 0.921875 6.890625 3.21875 
L 6.890625 13.375 
Q 12.890625 10.015625 18.65625 8.296875 
Q 24.421875 6.59375 29.984375 6.59375 
Q 38.421875 6.59375 43.015625 9.90625 
Q 47.609375 13.234375 47.609375 19.390625 
Q 47.609375 24.75 44.3125 27.78125 
Q 41.015625 30.8125 33.5 32.328125 
L 27.484375 33.5 
Q 16.453125 35.6875 11.515625 40.375 
Q 6.59375 45.0625 6.59375 53.421875 
Q 6.59375 63.09375 13.40625 68.65625 
Q 20.21875 74.21875 32.171875 74.21875 
Q 37.3125 74.21875 42.625 73.28125 
Q 47.953125 72.359375 53.515625 70.515625 
" id="BitstreamVeraSans-Roman-53"/>
       <path d="M 18.109375 8.203125 
L 18.109375 -20.796875 
L 9.078125 -20.796875 
L 9.078125 54.6875 
L 18.109375 54.6875 
L 18.109375 46.390625 
Q 20.953125 51.265625 25.265625 53.625 
Q 29.59375 56 35.59375 56 
Q 45.5625 56 51.78125 48.09375 
Q 58.015625 40.1875 58.015625 27.296875 
Q 58.015625 14.40625 51.78125 6.484375 
Q 45.5625 -1.421875 35.59375 -1.421875 
Q 29.59375 -1.421875 25.265625 0.953125 
Q 20.953125 3.328125 18.109375 8.203125 
M 48.6875 27.296875 
Q 48.6875 37.203125 44.609375 42.84375 
Q 40.53125 48.484375 33.40625 48.484375 
Q 26.265625 48.484375 22.1875 42.84375 
Q 18.109375 37.203125 18.109375 27.296875 
Q 18.109375 17.390625 22.1875 11.75 
Q 26.265625 6.109375 33.40625 6.109375 
Q 40.53125 6.109375 44.609375 11.75 
Q 48.6875 17.390625 48.6875 27.296875 
" id="BitstreamVeraSans-Roman-70"/>
      </defs>
      <g transform="translate(1624.99800341 1335.5275)rotate(-90.0)scale(0.12 -0.12)">
       <use xlink:href="#BitstreamVeraSans-Roman-50"/>
       <use x="60.255859375" xlink:href="#BitstreamVeraSans-Roman-65"/>
       <use x="121.779296875" xlink:href="#BitstreamVeraSans-Roman-72"/>
       <use x="162.892578125" xlink:href="#BitstreamVeraSans-Roman-73"/>
       <use x="214.9921875" xlink:href="#BitstreamVeraSans-Roman-6f"/>
       <use x="276.173828125" xlink:href="#BitstreamVeraSans-Roman-6e"/>
       <use x="339.552734375" xlink:href="#BitstreamVeraSans-Roman-61"/>
       <use x="400.83203125" xlink:href="#BitstreamVeraSans-Roman-6c"/>
       <use x="428.615234375" xlink:href="#BitstreamVeraSans-Roman-5f"/>
       <use x="478.615234375" xlink:href="#BitstreamVeraSans-Roman-50"/>
       <use x="538.90234375" xlink:href="#BitstreamVeraSans-Roman-72"/>
       <use x="579.984375" xlink:href="#BitstreamVeraSans-Roman-6f"/>
       <use x="641.166015625" xlink:href="#BitstreamVeraSans-Roman-74"/>
       <use x="680.375" xlink:href="#BitstreamVeraSans-Roman-65"/>
       <use x="741.8984375" xlink:href="#BitstreamVeraSans-Roman-63"/>
       <use x="796.87890625" xlink:href="#BitstreamVeraSans-Roman-74"/>
       <use x="836.087890625" xlink:href="#BitstreamVeraSans-Roman-69"/>
       <use x="863.87109375" xlink:href="#BitstreamVeraSans-Roman-76"/>
       <use x="923.05078125" xlink:href="#BitstreamVeraSans-Roman-65"/>
       <use x="984.57421875" xlink:href="#BitstreamVeraSans-Roman-5f"/>
       <use x="1034.57421875" xlink:href="#BitstreamVeraSans-Roman-54"/>
       <use x="1095.439453125" xlink:href="#BitstreamVeraSans-Roman-72"/>
       <use x="1136.552734375" xlink:href="#BitstreamVeraSans-Roman-61"/>
       <use x="1197.83203125" xlink:href="#BitstreamVeraSans-Roman-6e"/>
       <use x="1261.2109375" xlink:href="#BitstreamVeraSans-Roman-73"/>
       <use x="1313.310546875" xlink:href="#BitstreamVeraSans-Roman-70"/>
       <use x="1376.787109375" xlink:href="#BitstreamVeraSans-Roman-6f"/>
       <use x="1437.96875" xlink:href="#BitstreamVeraSans-Roman-72"/>
       <use x="1479.08203125" xlink:href="#BitstreamVeraSans-Roman-74"/>
       <use x="1518.291015625" xlink:href="#BitstreamVeraSans-Roman-61"/>
       <use x="1579.5703125" xlink:href="#BitstreamVeraSans-Roman-74"/>
       <use x="1618.779296875" xlink:href="#BitstreamVeraSans-Roman-69"/>
       <use x="1646.5625" xlink:href="#BitstreamVeraSans-Roman-6f"/>
       <use x="1707.744140625" xlink:href="#BitstreamVeraSans-Roman-6e"/>
       <use x="1771.123046875" xlink:href="#BitstreamVeraSans-Roman-53"/>
       <use x="1834.599609375" xlink:href="#BitstreamVeraSans-Roman-65"/>
       <use x="1896.123046875" xlink:href="#BitstreamVeraSans-Roman-72"/>
       <use x="1937.236328125" xlink:href="#BitstreamVeraSans-Roman-76"/>
       <use x="1996.416015625" xlink:href="#BitstreamVeraSans-Roman-69"/>
       <use x="2024.19921875" xlink:href="#BitstreamVeraSans-Roman-63"/>
       <use x="2079.1796875" xlink:href="#BitstreamVeraSans-Roman-65"/>
       <use x="2140.703125" xlink:href="#BitstreamVeraSans-Roman-73"/>
      </g>
     </g>
    </g>
    <g id="xtick_4">
     <g id="line2d_4">
      <g>
       <use style="stroke:#000000;stroke-width:0.5;" x="1558.52345347" xlink:href="#m4a45906a9b" y="1068.39"/>
      </g>
     </g>
     <g id="text_4">
      <!-- Mathematics_Computer_InformationSciences -->
      <defs>
       <path d="M 54.890625 33.015625 
L 54.890625 0 
L 45.90625 0 
L 45.90625 32.71875 
Q 45.90625 40.484375 42.875 44.328125 
Q 39.84375 48.1875 33.796875 48.1875 
Q 26.515625 48.1875 22.3125 43.546875 
Q 18.109375 38.921875 18.109375 30.90625 
L 18.109375 0 
L 9.078125 0 
L 9.078125 75.984375 
L 18.109375 75.984375 
L 18.109375 46.1875 
Q 21.34375 51.125 25.703125 53.5625 
Q 30.078125 56 35.796875 56 
Q 45.21875 56 50.046875 50.171875 
Q 54.890625 44.34375 54.890625 33.015625 
" id="BitstreamVeraSans-Roman-68"/>
       <path d="M 9.8125 72.90625 
L 19.671875 72.90625 
L 19.671875 0 
L 9.8125 0 
z
" id="BitstreamVeraSans-Roman-49"/>
       <path d="M 37.109375 75.984375 
L 37.109375 68.5 
L 28.515625 68.5 
Q 23.6875 68.5 21.796875 66.546875 
Q 19.921875 64.59375 19.921875 59.515625 
L 19.921875 54.6875 
L 34.71875 54.6875 
L 34.71875 47.703125 
L 19.921875 47.703125 
L 19.921875 0 
L 10.890625 0 
L 10.890625 47.703125 
L 2.296875 47.703125 
L 2.296875 54.6875 
L 10.890625 54.6875 
L 10.890625 58.5 
Q 10.890625 67.625 15.140625 71.796875 
Q 19.390625 75.984375 28.609375 75.984375 
z
" id="BitstreamVeraSans-Roman-66"/>
      </defs>
      <g transform="translate(1561.66782847 1343.81875)rotate(-90.0)scale(0.12 -0.12)">
       <use xlink:href="#BitstreamVeraSans-Roman-4d"/>
       <use x="86.279296875" xlink:href="#BitstreamVeraSans-Roman-61"/>
       <use x="147.55859375" xlink:href="#BitstreamVeraSans-Roman-74"/>
       <use x="186.767578125" xlink:href="#BitstreamVeraSans-Roman-68"/>
       <use x="250.146484375" xlink:href="#BitstreamVeraSans-Roman-65"/>
       <use x="311.669921875" xlink:href="#BitstreamVeraSans-Roman-6d"/>
       <use x="409.08203125" xlink:href="#BitstreamVeraSans-Roman-61"/>
       <use x="470.361328125" xlink:href="#BitstreamVeraSans-Roman-74"/>
       <use x="509.5703125" xlink:href="#BitstreamVeraSans-Roman-69"/>
       <use x="537.353515625" xlink:href="#BitstreamVeraSans-Roman-63"/>
       <use x="592.333984375" xlink:href="#BitstreamVeraSans-Roman-73"/>
       <use x="644.43359375" xlink:href="#BitstreamVeraSans-Roman-5f"/>
       <use x="694.43359375" xlink:href="#BitstreamVeraSans-Roman-43"/>
       <use x="764.2578125" xlink:href="#BitstreamVeraSans-Roman-6f"/>
       <use x="825.439453125" xlink:href="#BitstreamVeraSans-Roman-6d"/>
       <use x="922.8515625" xlink:href="#BitstreamVeraSans-Roman-70"/>
       <use x="986.328125" xlink:href="#BitstreamVeraSans-Roman-75"/>
       <use x="1049.70703125" xlink:href="#BitstreamVeraSans-Roman-74"/>
       <use x="1088.916015625" xlink:href="#BitstreamVeraSans-Roman-65"/>
       <use x="1150.439453125" xlink:href="#BitstreamVeraSans-Roman-72"/>
       <use x="1191.552734375" xlink:href="#BitstreamVeraSans-Roman-5f"/>
       <use x="1241.552734375" xlink:href="#BitstreamVeraSans-Roman-49"/>
       <use x="1271.044921875" xlink:href="#BitstreamVeraSans-Roman-6e"/>
       <use x="1334.423828125" xlink:href="#BitstreamVeraSans-Roman-66"/>
       <use x="1369.62890625" xlink:href="#BitstreamVeraSans-Roman-6f"/>
       <use x="1430.810546875" xlink:href="#BitstreamVeraSans-Roman-72"/>
       <use x="1471.908203125" xlink:href="#BitstreamVeraSans-Roman-6d"/>
       <use x="1569.3203125" xlink:href="#BitstreamVeraSans-Roman-61"/>
       <use x="1630.599609375" xlink:href="#BitstreamVeraSans-Roman-74"/>
       <use x="1669.80859375" xlink:href="#BitstreamVeraSans-Roman-69"/>
       <use x="1697.591796875" xlink:href="#BitstreamVeraSans-Roman-6f"/>
       <use x="1758.7734375" xlink:href="#BitstreamVeraSans-Roman-6e"/>
       <use x="1822.15234375" xlink:href="#BitstreamVeraSans-Roman-53"/>
       <use x="1885.62890625" xlink:href="#BitstreamVeraSans-Roman-63"/>
       <use x="1940.609375" xlink:href="#BitstreamVeraSans-Roman-69"/>
       <use x="1968.392578125" xlink:href="#BitstreamVeraSans-Roman-65"/>
       <use x="2029.916015625" xlink:href="#BitstreamVeraSans-Roman-6e"/>
       <use x="2093.294921875" xlink:href="#BitstreamVeraSans-Roman-63"/>
       <use x="2148.275390625" xlink:href="#BitstreamVeraSans-Roman-65"/>
       <use x="2209.798828125" xlink:href="#BitstreamVeraSans-Roman-73"/>
      </g>
     </g>
    </g>
    <g id="xtick_5">
     <g id="line2d_5">
      <g>
       <use style="stroke:#000000;stroke-width:0.5;" x="432.985452145" xlink:href="#m4a45906a9b" y="1068.39"/>
      </g>
     </g>
     <g id="text_5">
      <!-- Architecture_Eingeering_andRelatedTechnologies -->
      <defs>
       <path d="M 9.8125 72.90625 
L 55.90625 72.90625 
L 55.90625 64.59375 
L 19.671875 64.59375 
L 19.671875 43.015625 
L 54.390625 43.015625 
L 54.390625 34.71875 
L 19.671875 34.71875 
L 19.671875 8.296875 
L 56.78125 8.296875 
L 56.78125 0 
L 9.8125 0 
z
" id="BitstreamVeraSans-Roman-45"/>
      </defs>
      <g transform="translate(436.129827145 1370.550625)rotate(-90.0)scale(0.12 -0.12)">
       <use xlink:href="#BitstreamVeraSans-Roman-41"/>
       <use x="68.408203125" xlink:href="#BitstreamVeraSans-Roman-72"/>
       <use x="109.490234375" xlink:href="#BitstreamVeraSans-Roman-63"/>
       <use x="164.470703125" xlink:href="#BitstreamVeraSans-Roman-68"/>
       <use x="227.849609375" xlink:href="#BitstreamVeraSans-Roman-69"/>
       <use x="255.6328125" xlink:href="#BitstreamVeraSans-Roman-74"/>
       <use x="294.841796875" xlink:href="#BitstreamVeraSans-Roman-65"/>
       <use x="356.365234375" xlink:href="#BitstreamVeraSans-Roman-63"/>
       <use x="411.345703125" xlink:href="#BitstreamVeraSans-Roman-74"/>
       <use x="450.5546875" xlink:href="#BitstreamVeraSans-Roman-75"/>
       <use x="513.93359375" xlink:href="#BitstreamVeraSans-Roman-72"/>
       <use x="555.015625" xlink:href="#BitstreamVeraSans-Roman-65"/>
       <use x="616.5390625" xlink:href="#BitstreamVeraSans-Roman-5f"/>
       <use x="666.5390625" xlink:href="#BitstreamVeraSans-Roman-45"/>
       <use x="729.72265625" xlink:href="#BitstreamVeraSans-Roman-69"/>
       <use x="757.505859375" xlink:href="#BitstreamVeraSans-Roman-6e"/>
       <use x="820.884765625" xlink:href="#BitstreamVeraSans-Roman-67"/>
       <use x="884.361328125" xlink:href="#BitstreamVeraSans-Roman-65"/>
       <use x="945.884765625" xlink:href="#BitstreamVeraSans-Roman-65"/>
       <use x="1007.408203125" xlink:href="#BitstreamVeraSans-Roman-72"/>
       <use x="1048.521484375" xlink:href="#BitstreamVeraSans-Roman-69"/>
       <use x="1076.3046875" xlink:href="#BitstreamVeraSans-Roman-6e"/>
       <use x="1139.68359375" xlink:href="#BitstreamVeraSans-Roman-67"/>
       <use x="1203.16015625" xlink:href="#BitstreamVeraSans-Roman-5f"/>
       <use x="1253.16015625" xlink:href="#BitstreamVeraSans-Roman-61"/>
       <use x="1314.439453125" xlink:href="#BitstreamVeraSans-Roman-6e"/>
       <use x="1377.818359375" xlink:href="#BitstreamVeraSans-Roman-64"/>
       <use x="1441.294921875" xlink:href="#BitstreamVeraSans-Roman-52"/>
       <use x="1510.71484375" xlink:href="#BitstreamVeraSans-Roman-65"/>
       <use x="1572.23828125" xlink:href="#BitstreamVeraSans-Roman-6c"/>
       <use x="1600.021484375" xlink:href="#BitstreamVeraSans-Roman-61"/>
       <use x="1661.30078125" xlink:href="#BitstreamVeraSans-Roman-74"/>
       <use x="1700.509765625" xlink:href="#BitstreamVeraSans-Roman-65"/>
       <use x="1762.033203125" xlink:href="#BitstreamVeraSans-Roman-64"/>
       <use x="1825.509765625" xlink:href="#BitstreamVeraSans-Roman-54"/>
       <use x="1886.328125" xlink:href="#BitstreamVeraSans-Roman-65"/>
       <use x="1947.8515625" xlink:href="#BitstreamVeraSans-Roman-63"/>
       <use x="2002.83203125" xlink:href="#BitstreamVeraSans-Roman-68"/>
       <use x="2066.2109375" xlink:href="#BitstreamVeraSans-Roman-6e"/>
       <use x="2129.58984375" xlink:href="#BitstreamVeraSans-Roman-6f"/>
       <use x="2190.771484375" xlink:href="#BitstreamVeraSans-Roman-6c"/>
       <use x="2218.5546875" xlink:href="#BitstreamVeraSans-Roman-6f"/>
       <use x="2279.736328125" xlink:href="#BitstreamVeraSans-Roman-67"/>
       <use x="2343.212890625" xlink:href="#BitstreamVeraSans-Roman-69"/>
       <use x="2370.99609375" xlink:href="#BitstreamVeraSans-Roman-65"/>
       <use x="2432.51953125" xlink:href="#BitstreamVeraSans-Roman-73"/>
      </g>
     </g>
    </g>
    <g id="xtick_6">
     <g id="line2d_6">
      <g>
       <use style="stroke:#000000;stroke-width:0.5;" x="1436.05522281" xlink:href="#m4a45906a9b" y="1068.39"/>
      </g>
     </g>
     <g id="text_6">
      <!-- Humanities -->
      <defs>
       <path d="M 9.8125 72.90625 
L 19.671875 72.90625 
L 19.671875 43.015625 
L 55.515625 43.015625 
L 55.515625 72.90625 
L 65.375 72.90625 
L 65.375 0 
L 55.515625 0 
L 55.515625 34.71875 
L 19.671875 34.71875 
L 19.671875 0 
L 9.8125 0 
z
" id="BitstreamVeraSans-Roman-48"/>
      </defs>
      <g transform="translate(1439.36647281 1140.67375)rotate(-90.0)scale(0.12 -0.12)">
       <use xlink:href="#BitstreamVeraSans-Roman-48"/>
       <use x="75.1953125" xlink:href="#BitstreamVeraSans-Roman-75"/>
       <use x="138.57421875" xlink:href="#BitstreamVeraSans-Roman-6d"/>
       <use x="235.986328125" xlink:href="#BitstreamVeraSans-Roman-61"/>
       <use x="297.265625" xlink:href="#BitstreamVeraSans-Roman-6e"/>
       <use x="360.64453125" xlink:href="#BitstreamVeraSans-Roman-69"/>
       <use x="388.427734375" xlink:href="#BitstreamVeraSans-Roman-74"/>
       <use x="427.63671875" xlink:href="#BitstreamVeraSans-Roman-69"/>
       <use x="455.419921875" xlink:href="#BitstreamVeraSans-Roman-65"/>
       <use x="516.943359375" xlink:href="#BitstreamVeraSans-Roman-73"/>
      </g>
     </g>
    </g>
    <g id="xtick_7">
     <g id="line2d_7">
      <g>
       <use style="stroke:#000000;stroke-width:0.5;" x="1893.17439925" xlink:href="#m4a45906a9b" y="1068.39"/>
      </g>
     </g>
     <g id="text_7">
      <!-- Social_BehaviouralSciences_Law -->
      <defs>
       <path d="M 4.203125 54.6875 
L 13.1875 54.6875 
L 24.421875 12.015625 
L 35.59375 54.6875 
L 46.1875 54.6875 
L 57.421875 12.015625 
L 68.609375 54.6875 
L 77.59375 54.6875 
L 63.28125 0 
L 52.6875 0 
L 40.921875 44.828125 
L 29.109375 0 
L 18.5 0 
z
" id="BitstreamVeraSans-Roman-77"/>
       <path d="M 9.8125 72.90625 
L 19.671875 72.90625 
L 19.671875 8.296875 
L 55.171875 8.296875 
L 55.171875 0 
L 9.8125 0 
z
" id="BitstreamVeraSans-Roman-4c"/>
      </defs>
      <g transform="translate(1896.31877425 1268.175625)rotate(-90.0)scale(0.12 -0.12)">
       <use xlink:href="#BitstreamVeraSans-Roman-53"/>
       <use x="63.4765625" xlink:href="#BitstreamVeraSans-Roman-6f"/>
       <use x="124.658203125" xlink:href="#BitstreamVeraSans-Roman-63"/>
       <use x="179.638671875" xlink:href="#BitstreamVeraSans-Roman-69"/>
       <use x="207.421875" xlink:href="#BitstreamVeraSans-Roman-61"/>
       <use x="268.701171875" xlink:href="#BitstreamVeraSans-Roman-6c"/>
       <use x="296.484375" xlink:href="#BitstreamVeraSans-Roman-5f"/>
       <use x="346.484375" xlink:href="#BitstreamVeraSans-Roman-42"/>
       <use x="415.087890625" xlink:href="#BitstreamVeraSans-Roman-65"/>
       <use x="476.611328125" xlink:href="#BitstreamVeraSans-Roman-68"/>
       <use x="539.990234375" xlink:href="#BitstreamVeraSans-Roman-61"/>
       <use x="601.26953125" xlink:href="#BitstreamVeraSans-Roman-76"/>
       <use x="660.44921875" xlink:href="#BitstreamVeraSans-Roman-69"/>
       <use x="688.232421875" xlink:href="#BitstreamVeraSans-Roman-6f"/>
       <use x="749.4140625" xlink:href="#BitstreamVeraSans-Roman-75"/>
       <use x="812.79296875" xlink:href="#BitstreamVeraSans-Roman-72"/>
       <use x="853.90625" xlink:href="#BitstreamVeraSans-Roman-61"/>
       <use x="915.185546875" xlink:href="#BitstreamVeraSans-Roman-6c"/>
       <use x="942.96875" xlink:href="#BitstreamVeraSans-Roman-53"/>
       <use x="1006.4453125" xlink:href="#BitstreamVeraSans-Roman-63"/>
       <use x="1061.42578125" xlink:href="#BitstreamVeraSans-Roman-69"/>
       <use x="1089.208984375" xlink:href="#BitstreamVeraSans-Roman-65"/>
       <use x="1150.732421875" xlink:href="#BitstreamVeraSans-Roman-6e"/>
       <use x="1214.111328125" xlink:href="#BitstreamVeraSans-Roman-63"/>
       <use x="1269.091796875" xlink:href="#BitstreamVeraSans-Roman-65"/>
       <use x="1330.615234375" xlink:href="#BitstreamVeraSans-Roman-73"/>
       <use x="1382.71484375" xlink:href="#BitstreamVeraSans-Roman-5f"/>
       <use x="1432.71484375" xlink:href="#BitstreamVeraSans-Roman-4c"/>
       <use x="1488.427734375" xlink:href="#BitstreamVeraSans-Roman-61"/>
       <use x="1549.70703125" xlink:href="#BitstreamVeraSans-Roman-77"/>
      </g>
     </g>
    </g>
    <g id="xtick_8">
     <g id="line2d_8">
      <g>
       <use style="stroke:#000000;stroke-width:0.5;" x="1036.85947747" xlink:href="#m4a45906a9b" y="1068.39"/>
      </g>
     </g>
     <g id="text_8">
      <!-- Education -->
      <g transform="translate(1040.17072747 1132.133125)rotate(-90.0)scale(0.12 -0.12)">
       <use xlink:href="#BitstreamVeraSans-Roman-45"/>
       <use x="63.18359375" xlink:href="#BitstreamVeraSans-Roman-64"/>
       <use x="126.66015625" xlink:href="#BitstreamVeraSans-Roman-75"/>
       <use x="190.0390625" xlink:href="#BitstreamVeraSans-Roman-63"/>
       <use x="245.01953125" xlink:href="#BitstreamVeraSans-Roman-61"/>
       <use x="306.298828125" xlink:href="#BitstreamVeraSans-Roman-74"/>
       <use x="345.5078125" xlink:href="#BitstreamVeraSans-Roman-69"/>
       <use x="373.291015625" xlink:href="#BitstreamVeraSans-Roman-6f"/>
       <use x="434.47265625" xlink:href="#BitstreamVeraSans-Roman-6e"/>
      </g>
     </g>
    </g>
    <g id="xtick_9">
     <g id="line2d_9">
      <g>
       <use style="stroke:#000000;stroke-width:0.5;" x="1268.82993524" xlink:href="#m4a45906a9b" y="1068.39"/>
      </g>
     </g>
     <g id="text_9">
      <!-- Health_Parks_Recreation_Fitness -->
      <defs>
       <path d="M 9.8125 72.90625 
L 51.703125 72.90625 
L 51.703125 64.59375 
L 19.671875 64.59375 
L 19.671875 43.109375 
L 48.578125 43.109375 
L 48.578125 34.8125 
L 19.671875 34.8125 
L 19.671875 0 
L 9.8125 0 
z
" id="BitstreamVeraSans-Roman-46"/>
       <path d="M 9.078125 75.984375 
L 18.109375 75.984375 
L 18.109375 31.109375 
L 44.921875 54.6875 
L 56.390625 54.6875 
L 27.390625 29.109375 
L 57.625 0 
L 45.90625 0 
L 18.109375 26.703125 
L 18.109375 0 
L 9.078125 0 
z
" id="BitstreamVeraSans-Roman-6b"/>
      </defs>
      <g transform="translate(1271.97431024 1269.893125)rotate(-90.0)scale(0.12 -0.12)">
       <use xlink:href="#BitstreamVeraSans-Roman-48"/>
       <use x="75.1953125" xlink:href="#BitstreamVeraSans-Roman-65"/>
       <use x="136.71875" xlink:href="#BitstreamVeraSans-Roman-61"/>
       <use x="197.998046875" xlink:href="#BitstreamVeraSans-Roman-6c"/>
       <use x="225.78125" xlink:href="#BitstreamVeraSans-Roman-74"/>
       <use x="264.990234375" xlink:href="#BitstreamVeraSans-Roman-68"/>
       <use x="328.369140625" xlink:href="#BitstreamVeraSans-Roman-5f"/>
       <use x="378.369140625" xlink:href="#BitstreamVeraSans-Roman-50"/>
       <use x="438.609375" xlink:href="#BitstreamVeraSans-Roman-61"/>
       <use x="499.888671875" xlink:href="#BitstreamVeraSans-Roman-72"/>
       <use x="541.001953125" xlink:href="#BitstreamVeraSans-Roman-6b"/>
       <use x="598.912109375" xlink:href="#BitstreamVeraSans-Roman-73"/>
       <use x="651.01171875" xlink:href="#BitstreamVeraSans-Roman-5f"/>
       <use x="701.01171875" xlink:href="#BitstreamVeraSans-Roman-52"/>
       <use x="770.431640625" xlink:href="#BitstreamVeraSans-Roman-65"/>
       <use x="831.955078125" xlink:href="#BitstreamVeraSans-Roman-63"/>
       <use x="886.935546875" xlink:href="#BitstreamVeraSans-Roman-72"/>
       <use x="928.017578125" xlink:href="#BitstreamVeraSans-Roman-65"/>
       <use x="989.541015625" xlink:href="#BitstreamVeraSans-Roman-61"/>
       <use x="1050.8203125" xlink:href="#BitstreamVeraSans-Roman-74"/>
       <use x="1090.029296875" xlink:href="#BitstreamVeraSans-Roman-69"/>
       <use x="1117.8125" xlink:href="#BitstreamVeraSans-Roman-6f"/>
       <use x="1178.994140625" xlink:href="#BitstreamVeraSans-Roman-6e"/>
       <use x="1242.373046875" xlink:href="#BitstreamVeraSans-Roman-5f"/>
       <use x="1292.373046875" xlink:href="#BitstreamVeraSans-Roman-46"/>
       <use x="1349.783203125" xlink:href="#BitstreamVeraSans-Roman-69"/>
       <use x="1377.56640625" xlink:href="#BitstreamVeraSans-Roman-74"/>
       <use x="1416.775390625" xlink:href="#BitstreamVeraSans-Roman-6e"/>
       <use x="1480.154296875" xlink:href="#BitstreamVeraSans-Roman-65"/>
       <use x="1541.677734375" xlink:href="#BitstreamVeraSans-Roman-73"/>
       <use x="1593.77734375" xlink:href="#BitstreamVeraSans-Roman-73"/>
      </g>
     </g>
    </g>
    <g id="xtick_10">
     <g id="line2d_10">
      <g>
       <use style="stroke:#000000;stroke-width:0.5;" x="1611.15566385" xlink:href="#m4a45906a9b" y="1068.39"/>
      </g>
     </g>
     <g id="text_10">
      <!-- Other -->
      <defs>
       <path d="M 39.40625 66.21875 
Q 28.65625 66.21875 22.328125 58.203125 
Q 16.015625 50.203125 16.015625 36.375 
Q 16.015625 22.609375 22.328125 14.59375 
Q 28.65625 6.59375 39.40625 6.59375 
Q 50.140625 6.59375 56.421875 14.59375 
Q 62.703125 22.609375 62.703125 36.375 
Q 62.703125 50.203125 56.421875 58.203125 
Q 50.140625 66.21875 39.40625 66.21875 
M 39.40625 74.21875 
Q 54.734375 74.21875 63.90625 63.9375 
Q 73.09375 53.65625 73.09375 36.375 
Q 73.09375 19.140625 63.90625 8.859375 
Q 54.734375 -1.421875 39.40625 -1.421875 
Q 24.03125 -1.421875 14.8125 8.828125 
Q 5.609375 19.09375 5.609375 36.375 
Q 5.609375 53.65625 14.8125 63.9375 
Q 24.03125 74.21875 39.40625 74.21875 
" id="BitstreamVeraSans-Roman-4f"/>
      </defs>
      <g transform="translate(1614.46691385 1106.4625)rotate(-90.0)scale(0.12 -0.12)">
       <use xlink:href="#BitstreamVeraSans-Roman-4f"/>
       <use x="78.7109375" xlink:href="#BitstreamVeraSans-Roman-74"/>
       <use x="117.919921875" xlink:href="#BitstreamVeraSans-Roman-68"/>
       <use x="181.298828125" xlink:href="#BitstreamVeraSans-Roman-65"/>
       <use x="242.822265625" xlink:href="#BitstreamVeraSans-Roman-72"/>
      </g>
     </g>
    </g>
    <g id="xtick_11">
     <g id="line2d_11">
      <g>
       <use style="stroke:#000000;stroke-width:0.5;" x="1689.79102267" xlink:href="#m4a45906a9b" y="1068.39"/>
      </g>
     </g>
     <g id="text_11">
      <!-- Physical_LifeSciences_Technologies -->
      <defs>
       <path d="M 32.171875 -5.078125 
Q 28.375 -14.84375 24.75 -17.8125 
Q 21.140625 -20.796875 15.09375 -20.796875 
L 7.90625 -20.796875 
L 7.90625 -13.28125 
L 13.1875 -13.28125 
Q 16.890625 -13.28125 18.9375 -11.515625 
Q 21 -9.765625 23.484375 -3.21875 
L 25.09375 0.875 
L 2.984375 54.6875 
L 12.5 54.6875 
L 29.59375 11.921875 
L 46.6875 54.6875 
L 56.203125 54.6875 
z
" id="BitstreamVeraSans-Roman-79"/>
      </defs>
      <g transform="translate(1692.93539767 1286.69875)rotate(-90.0)scale(0.12 -0.12)">
       <use xlink:href="#BitstreamVeraSans-Roman-50"/>
       <use x="60.302734375" xlink:href="#BitstreamVeraSans-Roman-68"/>
       <use x="123.681640625" xlink:href="#BitstreamVeraSans-Roman-79"/>
       <use x="182.861328125" xlink:href="#BitstreamVeraSans-Roman-73"/>
       <use x="234.9609375" xlink:href="#BitstreamVeraSans-Roman-69"/>
       <use x="262.744140625" xlink:href="#BitstreamVeraSans-Roman-63"/>
       <use x="317.724609375" xlink:href="#BitstreamVeraSans-Roman-61"/>
       <use x="379.00390625" xlink:href="#BitstreamVeraSans-Roman-6c"/>
       <use x="406.787109375" xlink:href="#BitstreamVeraSans-Roman-5f"/>
       <use x="456.787109375" xlink:href="#BitstreamVeraSans-Roman-4c"/>
       <use x="512.5" xlink:href="#BitstreamVeraSans-Roman-69"/>
       <use x="540.283203125" xlink:href="#BitstreamVeraSans-Roman-66"/>
       <use x="575.48828125" xlink:href="#BitstreamVeraSans-Roman-65"/>
       <use x="637.01171875" xlink:href="#BitstreamVeraSans-Roman-53"/>
       <use x="700.48828125" xlink:href="#BitstreamVeraSans-Roman-63"/>
       <use x="755.46875" xlink:href="#BitstreamVeraSans-Roman-69"/>
       <use x="783.251953125" xlink:href="#BitstreamVeraSans-Roman-65"/>
       <use x="844.775390625" xlink:href="#BitstreamVeraSans-Roman-6e"/>
       <use x="908.154296875" xlink:href="#BitstreamVeraSans-Roman-63"/>
       <use x="963.134765625" xlink:href="#BitstreamVeraSans-Roman-65"/>
       <use x="1024.658203125" xlink:href="#BitstreamVeraSans-Roman-73"/>
       <use x="1076.7578125" xlink:href="#BitstreamVeraSans-Roman-5f"/>
       <use x="1126.7578125" xlink:href="#BitstreamVeraSans-Roman-54"/>
       <use x="1187.576171875" xlink:href="#BitstreamVeraSans-Roman-65"/>
       <use x="1249.099609375" xlink:href="#BitstreamVeraSans-Roman-63"/>
       <use x="1304.080078125" xlink:href="#BitstreamVeraSans-Roman-68"/>
       <use x="1367.458984375" xlink:href="#BitstreamVeraSans-Roman-6e"/>
       <use x="1430.837890625" xlink:href="#BitstreamVeraSans-Roman-6f"/>
       <use x="1492.01953125" xlink:href="#BitstreamVeraSans-Roman-6c"/>
       <use x="1519.802734375" xlink:href="#BitstreamVeraSans-Roman-6f"/>
       <use x="1580.984375" xlink:href="#BitstreamVeraSans-Roman-67"/>
       <use x="1644.4609375" xlink:href="#BitstreamVeraSans-Roman-69"/>
       <use x="1672.244140625" xlink:href="#BitstreamVeraSans-Roman-65"/>
       <use x="1733.767578125" xlink:href="#BitstreamVeraSans-Roman-73"/>
      </g>
     </g>
    </g>
    <g id="xtick_12">
     <g id="line2d_12">
      <g>
       <use style="stroke:#000000;stroke-width:0.5;" x="2056.33679686" xlink:href="#m4a45906a9b" y="1068.39"/>
      </g>
     </g>
     <g id="text_12">
      <!-- Visual_PerformingArts_CommunicationsTechnologies -->
      <defs>
       <path d="M 28.609375 0 
L 0.78125 72.90625 
L 11.078125 72.90625 
L 34.1875 11.53125 
L 57.328125 72.90625 
L 67.578125 72.90625 
L 39.796875 0 
z
" id="BitstreamVeraSans-Roman-56"/>
      </defs>
      <g transform="translate(2059.48117186 1390.7875)rotate(-90.0)scale(0.12 -0.12)">
       <use xlink:href="#BitstreamVeraSans-Roman-56"/>
       <use x="68.376953125" xlink:href="#BitstreamVeraSans-Roman-69"/>
       <use x="96.16015625" xlink:href="#BitstreamVeraSans-Roman-73"/>
       <use x="148.259765625" xlink:href="#BitstreamVeraSans-Roman-75"/>
       <use x="211.638671875" xlink:href="#BitstreamVeraSans-Roman-61"/>
       <use x="272.91796875" xlink:href="#BitstreamVeraSans-Roman-6c"/>
       <use x="300.701171875" xlink:href="#BitstreamVeraSans-Roman-5f"/>
       <use x="350.701171875" xlink:href="#BitstreamVeraSans-Roman-50"/>
       <use x="410.95703125" xlink:href="#BitstreamVeraSans-Roman-65"/>
       <use x="472.48046875" xlink:href="#BitstreamVeraSans-Roman-72"/>
       <use x="513.59375" xlink:href="#BitstreamVeraSans-Roman-66"/>
       <use x="548.798828125" xlink:href="#BitstreamVeraSans-Roman-6f"/>
       <use x="609.98046875" xlink:href="#BitstreamVeraSans-Roman-72"/>
       <use x="651.078125" xlink:href="#BitstreamVeraSans-Roman-6d"/>
       <use x="748.490234375" xlink:href="#BitstreamVeraSans-Roman-69"/>
       <use x="776.2734375" xlink:href="#BitstreamVeraSans-Roman-6e"/>
       <use x="839.65234375" xlink:href="#BitstreamVeraSans-Roman-67"/>
       <use x="903.12890625" xlink:href="#BitstreamVeraSans-Roman-41"/>
       <use x="971.537109375" xlink:href="#BitstreamVeraSans-Roman-72"/>
       <use x="1012.650390625" xlink:href="#BitstreamVeraSans-Roman-74"/>
       <use x="1051.859375" xlink:href="#BitstreamVeraSans-Roman-73"/>
       <use x="1103.958984375" xlink:href="#BitstreamVeraSans-Roman-5f"/>
       <use x="1153.958984375" xlink:href="#BitstreamVeraSans-Roman-43"/>
       <use x="1223.783203125" xlink:href="#BitstreamVeraSans-Roman-6f"/>
       <use x="1284.96484375" xlink:href="#BitstreamVeraSans-Roman-6d"/>
       <use x="1382.376953125" xlink:href="#BitstreamVeraSans-Roman-6d"/>
       <use x="1479.7890625" xlink:href="#BitstreamVeraSans-Roman-75"/>
       <use x="1543.16796875" xlink:href="#BitstreamVeraSans-Roman-6e"/>
       <use x="1606.546875" xlink:href="#BitstreamVeraSans-Roman-69"/>
       <use x="1634.330078125" xlink:href="#BitstreamVeraSans-Roman-63"/>
       <use x="1689.310546875" xlink:href="#BitstreamVeraSans-Roman-61"/>
       <use x="1750.58984375" xlink:href="#BitstreamVeraSans-Roman-74"/>
       <use x="1789.798828125" xlink:href="#BitstreamVeraSans-Roman-69"/>
       <use x="1817.58203125" xlink:href="#BitstreamVeraSans-Roman-6f"/>
       <use x="1878.763671875" xlink:href="#BitstreamVeraSans-Roman-6e"/>
       <use x="1942.142578125" xlink:href="#BitstreamVeraSans-Roman-73"/>
       <use x="1994.2421875" xlink:href="#BitstreamVeraSans-Roman-54"/>
       <use x="2055.060546875" xlink:href="#BitstreamVeraSans-Roman-65"/>
       <use x="2116.583984375" xlink:href="#BitstreamVeraSans-Roman-63"/>
       <use x="2171.564453125" xlink:href="#BitstreamVeraSans-Roman-68"/>
       <use x="2234.943359375" xlink:href="#BitstreamVeraSans-Roman-6e"/>
       <use x="2298.322265625" xlink:href="#BitstreamVeraSans-Roman-6f"/>
       <use x="2359.50390625" xlink:href="#BitstreamVeraSans-Roman-6c"/>
       <use x="2387.287109375" xlink:href="#BitstreamVeraSans-Roman-6f"/>
       <use x="2448.46875" xlink:href="#BitstreamVeraSans-Roman-67"/>
       <use x="2511.9453125" xlink:href="#BitstreamVeraSans-Roman-69"/>
       <use x="2539.728515625" xlink:href="#BitstreamVeraSans-Roman-65"/>
       <use x="2601.251953125" xlink:href="#BitstreamVeraSans-Roman-73"/>
      </g>
     </g>
    </g>
   </g>
   <g id="matplotlib.axis_2">
    <g id="ytick_1">
     <g id="line2d_13">
      <defs>
       <path d="M 0 0 
L 4 0 
" id="m425964996e" style="stroke:#000000;stroke-width:0.5;"/>
      </defs>
      <g>
       <use style="stroke:#000000;stroke-width:0.5;" x="288.0" xlink:href="#m425964996e" y="796.813230582"/>
      </g>
     </g>
     <g id="text_13">
      <!-- False -->
      <g transform="translate(281.504375 812.416980582)rotate(-90.0)scale(0.12 -0.12)">
       <use xlink:href="#BitstreamVeraSans-Roman-46"/>
       <use x="57.37890625" xlink:href="#BitstreamVeraSans-Roman-61"/>
       <use x="118.658203125" xlink:href="#BitstreamVeraSans-Roman-6c"/>
       <use x="146.44140625" xlink:href="#BitstreamVeraSans-Roman-73"/>
       <use x="198.541015625" xlink:href="#BitstreamVeraSans-Roman-65"/>
      </g>
     </g>
    </g>
    <g id="ytick_2">
     <g id="line2d_14">
      <g>
       <use style="stroke:#000000;stroke-width:0.5;" x="288.0" xlink:href="#m425964996e" y="320.395689053"/>
      </g>
     </g>
     <g id="text_14">
      <!-- True -->
      <g transform="translate(281.504375 334.008189053)rotate(-90.0)scale(0.12 -0.12)">
       <use xlink:href="#BitstreamVeraSans-Roman-54"/>
       <use x="60.865234375" xlink:href="#BitstreamVeraSans-Roman-72"/>
       <use x="101.978515625" xlink:href="#BitstreamVeraSans-Roman-75"/>
       <use x="165.357421875" xlink:href="#BitstreamVeraSans-Roman-65"/>
      </g>
     </g>
    </g>
   </g>
   <g id="text_15">
    <!-- cip -->
    <g transform="translate(1170.27 113.71)scale(0.144 -0.144)">
     <use xlink:href="#BitstreamVeraSans-Roman-63"/>
     <use x="54.98046875" xlink:href="#BitstreamVeraSans-Roman-69"/>
     <use x="82.763671875" xlink:href="#BitstreamVeraSans-Roman-70"/>
    </g>
   </g>
  </g>
  <g id="axes_2">
   <g id="patch_31">
    <path d="M 288 118.71 
L 2073.6 118.71 
" style="fill:none;stroke:#000000;stroke-linecap:square;stroke-linejoin:miter;"/>
   </g>
   <g id="patch_32">
    <path d="M 288 1068.39 
L 288 118.71 
" style="fill:none;stroke:#000000;stroke-linecap:square;stroke-linejoin:miter;"/>
   </g>
   <g id="patch_33">
    <path d="M 2073.6 1068.39 
L 2073.6 118.71 
" style="fill:none;stroke:#000000;stroke-linecap:square;stroke-linejoin:miter;"/>
   </g>
   <g id="patch_34">
    <path d="M 288 1068.39 
L 2073.6 1068.39 
" style="fill:none;stroke:#000000;stroke-linecap:square;stroke-linejoin:miter;"/>
   </g>
   <g id="matplotlib.axis_3"/>
  </g>
  <g id="axes_3">
   <g id="patch_35">
    <path d="M 288 118.71 
L 2073.6 118.71 
" style="fill:none;stroke:#000000;stroke-linecap:square;stroke-linejoin:miter;"/>
   </g>
   <g id="patch_36">
    <path d="M 288 1068.39 
L 288 118.71 
" style="fill:none;stroke:#000000;stroke-linecap:square;stroke-linejoin:miter;"/>
   </g>
   <g id="patch_37">
    <path d="M 2073.6 1068.39 
L 2073.6 118.71 
" style="fill:none;stroke:#000000;stroke-linecap:square;stroke-linejoin:miter;"/>
   </g>
   <g id="patch_38">
    <path d="M 288 1068.39 
L 2073.6 1068.39 
" style="fill:none;stroke:#000000;stroke-linecap:square;stroke-linejoin:miter;"/>
   </g>
   <g id="matplotlib.axis_4"/>
  </g>
 </g>
 <defs>
  <clipPath id="p41c0c6ac88">
   <rect height="949.68" width="1785.6" x="288.0" y="118.71"/>
  </clipPath>
 </defs>
</svg>
