<?xml version="1.0" encoding="utf-8" standalone="no"?>
<!DOCTYPE svg PUBLIC "-//W3C//DTD SVG 1.1//EN"
  "http://www.w3.org/Graphics/SVG/1.1/DTD/svg11.dtd">
<!-- Created with matplotlib (http://matplotlib.org/) -->
<svg height="1187pt" version="1.1" viewBox="0 0 2304 1187" width="2304pt" xmlns="http://www.w3.org/2000/svg" xmlns:xlink="http://www.w3.org/1999/xlink">
 <defs>
  <style type="text/css">
*{stroke-linecap:butt;stroke-linejoin:round;stroke-miterlimit:100000;}
  </style>
 </defs>
 <g id="figure_1">
  <g id="patch_1">
   <path d="M 0 1187.1 
L 2304 1187.1 
L 2304 0 
L 0 0 
z
" style="fill:#ffffff;"/>
  </g>
  <g id="axes_1">
   <g id="patch_2">
    <path d="M 288 1068.39 
L 2073.6 1068.39 
L 2073.6 118.71 
L 288 118.71 
z
" style="fill:#ffffff;"/>
   </g>
   <g id="patch_3">
    <path clip-path="url(#p07d92224aa)" d="M 288 1068.39 
L 351.776299 1068.39 
L 351.776299 461.681419 
L 288 461.681419 
z
" style="fill:#804040;"/>
   </g>
   <g id="patch_4">
    <path clip-path="url(#p07d92224aa)" d="M 288 458.526335 
L 351.776299 458.526335 
L 351.776299 118.71 
L 288 118.71 
z
" style="fill:#802020;"/>
   </g>
   <g id="patch_5">
    <path clip-path="url(#p07d92224aa)" d="M 360.44426 1068.39 
L 435.251052 1068.39 
L 435.251052 522.805933 
L 360.44426 522.805933 
z
" style="fill:#807040;"/>
   </g>
   <g id="patch_6">
    <path clip-path="url(#p07d92224aa)" d="M 360.44426 519.65085 
L 435.251052 519.65085 
L 435.251052 118.71 
L 360.44426 118.71 
z
" style="fill:#806820;"/>
   </g>
   <g id="patch_7">
    <path clip-path="url(#p07d92224aa)" d="M 443.919013 1068.39 
L 738.466575 1068.39 
L 738.466575 573.10784 
L 443.919013 573.10784 
z
" style="fill:#608040;"/>
   </g>
   <g id="patch_8">
    <path clip-path="url(#p07d92224aa)" d="M 443.919013 569.952757 
L 738.466575 569.952757 
L 738.466575 118.71 
L 443.919013 118.71 
z
" style="fill:#508020;"/>
   </g>
   <g id="patch_9">
    <path clip-path="url(#p07d92224aa)" d="M 747.134536 1068.39 
L 1092.756618 1068.39 
L 1092.756618 602.725372 
L 747.134536 602.725372 
z
" style="fill:#408050;"/>
   </g>
   <g id="patch_10">
    <path clip-path="url(#p07d92224aa)" d="M 747.134536 599.570289 
L 1092.756618 599.570289 
L 1092.756618 118.71 
L 747.134536 118.71 
z
" style="fill:#208038;"/>
   </g>
   <g id="patch_11">
    <path clip-path="url(#p07d92224aa)" d="M 1101.42458 1068.39 
L 1123.318435 1068.39 
L 1123.318435 675.329271 
L 1101.42458 675.329271 
z
" style="fill:#408080;"/>
   </g>
   <g id="patch_12">
    <path clip-path="url(#p07d92224aa)" d="M 1101.42458 672.174188 
L 1123.318435 672.174188 
L 1123.318435 118.71 
L 1101.42458 118.71 
z
" style="fill:#208080;"/>
   </g>
   <g id="patch_13">
    <path clip-path="url(#p07d92224aa)" d="M 1131.986396 1068.39 
L 2052.865349 1068.39 
L 2052.865349 559.808935 
L 1131.986396 559.808935 
z
" style="fill:#405080;"/>
   </g>
   <g id="patch_14">
    <path clip-path="url(#p07d92224aa)" d="M 1131.986396 556.653852 
L 2052.865349 556.653852 
L 2052.865349 118.71 
L 1131.986396 118.71 
z
" style="fill:#203880;"/>
   </g>
   <g id="patch_15">
    <path clip-path="url(#p07d92224aa)" d="M 2061.53331 1068.39 
L 2073.6 1068.39 
L 2073.6 622.658045 
L 2061.53331 622.658045 
z
" style="fill:#604080;"/>
   </g>
   <g id="patch_16">
    <path clip-path="url(#p07d92224aa)" d="M 2061.53331 619.502962 
L 2073.6 619.502962 
L 2073.6 118.71 
L 2061.53331 118.71 
z
" style="fill:#502080;"/>
   </g>
   <g id="patch_17">
    <path d="M 288 118.71 
L 2073.6 118.71 
" style="fill:none;stroke:#000000;stroke-linecap:square;stroke-linejoin:miter;"/>
   </g>
   <g id="patch_18">
    <path d="M 288 1068.39 
L 288 118.71 
" style="fill:none;stroke:#000000;stroke-linecap:square;stroke-linejoin:miter;"/>
   </g>
   <g id="patch_19">
    <path d="M 2073.6 1068.39 
L 2073.6 118.71 
" style="fill:none;stroke:#000000;stroke-linecap:square;stroke-linejoin:miter;"/>
   </g>
   <g id="patch_20">
    <path d="M 288 1068.39 
L 2073.6 1068.39 
" style="fill:none;stroke:#000000;stroke-linecap:square;stroke-linejoin:miter;"/>
   </g>
   <g id="matplotlib.axis_1">
    <g id="xtick_1">
     <g id="line2d_1">
      <defs>
       <path d="M 0 0 
L 0 -4 
" id="mf3f0f5435b" style="stroke:#000000;stroke-width:0.5;"/>
      </defs>
      <g>
       <use style="stroke:#000000;stroke-width:0.5;" x="919.945577155" xlink:href="#mf3f0f5435b" y="1068.39"/>
      </g>
     </g>
     <g id="text_1">
      <!-- Worked_in_a_different_county -->
      <defs>
       <path d="M 32.171875 -5.078125 
Q 28.375 -14.84375 24.75 -17.8125 
Q 21.140625 -20.796875 15.09375 -20.796875 
L 7.90625 -20.796875 
L 7.90625 -13.28125 
L 13.1875 -13.28125 
Q 16.890625 -13.28125 18.9375 -11.515625 
Q 21 -9.765625 23.484375 -3.21875 
L 25.09375 0.875 
L 2.984375 54.6875 
L 12.5 54.6875 
L 29.59375 11.921875 
L 46.6875 54.6875 
L 56.203125 54.6875 
z
" id="BitstreamVeraSans-Roman-79"/>
       <path d="M 34.28125 27.484375 
Q 23.390625 27.484375 19.1875 25 
Q 14.984375 22.515625 14.984375 16.5 
Q 14.984375 11.71875 18.140625 8.90625 
Q 21.296875 6.109375 26.703125 6.109375 
Q 34.1875 6.109375 38.703125 11.40625 
Q 43.21875 16.703125 43.21875 25.484375 
L 43.21875 27.484375 
z
M 52.203125 31.203125 
L 52.203125 0 
L 43.21875 0 
L 43.21875 8.296875 
Q 40.140625 3.328125 35.546875 0.953125 
Q 30.953125 -1.421875 24.3125 -1.421875 
Q 15.921875 -1.421875 10.953125 3.296875 
Q 6 8.015625 6 15.921875 
Q 6 25.140625 12.171875 29.828125 
Q 18.359375 34.515625 30.609375 34.515625 
L 43.21875 34.515625 
L 43.21875 35.40625 
Q 43.21875 41.609375 39.140625 45 
Q 35.0625 48.390625 27.6875 48.390625 
Q 23 48.390625 18.546875 47.265625 
Q 14.109375 46.140625 10.015625 43.890625 
L 10.015625 52.203125 
Q 14.9375 54.109375 19.578125 55.046875 
Q 24.21875 56 28.609375 56 
Q 40.484375 56 46.34375 49.84375 
Q 52.203125 43.703125 52.203125 31.203125 
" id="BitstreamVeraSans-Roman-61"/>
       <path d="M 48.78125 52.59375 
L 48.78125 44.1875 
Q 44.96875 46.296875 41.140625 47.34375 
Q 37.3125 48.390625 33.40625 48.390625 
Q 24.65625 48.390625 19.8125 42.84375 
Q 14.984375 37.3125 14.984375 27.296875 
Q 14.984375 17.28125 19.8125 11.734375 
Q 24.65625 6.203125 33.40625 6.203125 
Q 37.3125 6.203125 41.140625 7.25 
Q 44.96875 8.296875 48.78125 10.40625 
L 48.78125 2.09375 
Q 45.015625 0.34375 40.984375 -0.53125 
Q 36.96875 -1.421875 32.421875 -1.421875 
Q 20.0625 -1.421875 12.78125 6.34375 
Q 5.515625 14.109375 5.515625 27.296875 
Q 5.515625 40.671875 12.859375 48.328125 
Q 20.21875 56 33.015625 56 
Q 37.15625 56 41.109375 55.140625 
Q 45.0625 54.296875 48.78125 52.59375 
" id="BitstreamVeraSans-Roman-63"/>
       <path d="M 9.421875 54.6875 
L 18.40625 54.6875 
L 18.40625 0 
L 9.421875 0 
z
M 9.421875 75.984375 
L 18.40625 75.984375 
L 18.40625 64.59375 
L 9.421875 64.59375 
z
" id="BitstreamVeraSans-Roman-69"/>
       <path d="M 41.109375 46.296875 
Q 39.59375 47.171875 37.8125 47.578125 
Q 36.03125 48 33.890625 48 
Q 26.265625 48 22.1875 43.046875 
Q 18.109375 38.09375 18.109375 28.8125 
L 18.109375 0 
L 9.078125 0 
L 9.078125 54.6875 
L 18.109375 54.6875 
L 18.109375 46.1875 
Q 20.953125 51.171875 25.484375 53.578125 
Q 30.03125 56 36.53125 56 
Q 37.453125 56 38.578125 55.875 
Q 39.703125 55.765625 41.0625 55.515625 
z
" id="BitstreamVeraSans-Roman-72"/>
       <path d="M 45.40625 46.390625 
L 45.40625 75.984375 
L 54.390625 75.984375 
L 54.390625 0 
L 45.40625 0 
L 45.40625 8.203125 
Q 42.578125 3.328125 38.25 0.953125 
Q 33.9375 -1.421875 27.875 -1.421875 
Q 17.96875 -1.421875 11.734375 6.484375 
Q 5.515625 14.40625 5.515625 27.296875 
Q 5.515625 40.1875 11.734375 48.09375 
Q 17.96875 56 27.875 56 
Q 33.9375 56 38.25 53.625 
Q 42.578125 51.265625 45.40625 46.390625 
M 14.796875 27.296875 
Q 14.796875 17.390625 18.875 11.75 
Q 22.953125 6.109375 30.078125 6.109375 
Q 37.203125 6.109375 41.296875 11.75 
Q 45.40625 17.390625 45.40625 27.296875 
Q 45.40625 37.203125 41.296875 42.84375 
Q 37.203125 48.484375 30.078125 48.484375 
Q 22.953125 48.484375 18.875 42.84375 
Q 14.796875 37.203125 14.796875 27.296875 
" id="BitstreamVeraSans-Roman-64"/>
       <path d="M 30.609375 48.390625 
Q 23.390625 48.390625 19.1875 42.75 
Q 14.984375 37.109375 14.984375 27.296875 
Q 14.984375 17.484375 19.15625 11.84375 
Q 23.34375 6.203125 30.609375 6.203125 
Q 37.796875 6.203125 41.984375 11.859375 
Q 46.1875 17.53125 46.1875 27.296875 
Q 46.1875 37.015625 41.984375 42.703125 
Q 37.796875 48.390625 30.609375 48.390625 
M 30.609375 56 
Q 42.328125 56 49.015625 48.375 
Q 55.71875 40.765625 55.71875 27.296875 
Q 55.71875 13.875 49.015625 6.21875 
Q 42.328125 -1.421875 30.609375 -1.421875 
Q 18.84375 -1.421875 12.171875 6.21875 
Q 5.515625 13.875 5.515625 27.296875 
Q 5.515625 40.765625 12.171875 48.375 
Q 18.84375 56 30.609375 56 
" id="BitstreamVeraSans-Roman-6f"/>
       <path d="M 18.3125 70.21875 
L 18.3125 54.6875 
L 36.8125 54.6875 
L 36.8125 47.703125 
L 18.3125 47.703125 
L 18.3125 18.015625 
Q 18.3125 11.328125 20.140625 9.421875 
Q 21.96875 7.515625 27.59375 7.515625 
L 36.8125 7.515625 
L 36.8125 0 
L 27.59375 0 
Q 17.1875 0 13.234375 3.875 
Q 9.28125 7.765625 9.28125 18.015625 
L 9.28125 47.703125 
L 2.6875 47.703125 
L 2.6875 54.6875 
L 9.28125 54.6875 
L 9.28125 70.21875 
z
" id="BitstreamVeraSans-Roman-74"/>
       <path d="M 37.109375 75.984375 
L 37.109375 68.5 
L 28.515625 68.5 
Q 23.6875 68.5 21.796875 66.546875 
Q 19.921875 64.59375 19.921875 59.515625 
L 19.921875 54.6875 
L 34.71875 54.6875 
L 34.71875 47.703125 
L 19.921875 47.703125 
L 19.921875 0 
L 10.890625 0 
L 10.890625 47.703125 
L 2.296875 47.703125 
L 2.296875 54.6875 
L 10.890625 54.6875 
L 10.890625 58.5 
Q 10.890625 67.625 15.140625 71.796875 
Q 19.390625 75.984375 28.609375 75.984375 
z
" id="BitstreamVeraSans-Roman-66"/>
       <path d="M 9.078125 75.984375 
L 18.109375 75.984375 
L 18.109375 31.109375 
L 44.921875 54.6875 
L 56.390625 54.6875 
L 27.390625 29.109375 
L 57.625 0 
L 45.90625 0 
L 18.109375 26.703125 
L 18.109375 0 
L 9.078125 0 
z
" id="BitstreamVeraSans-Roman-6b"/>
       <path d="M 50.984375 -16.609375 
L 50.984375 -23.578125 
L -0.984375 -23.578125 
L -0.984375 -16.609375 
z
" id="BitstreamVeraSans-Roman-5f"/>
       <path d="M 54.890625 33.015625 
L 54.890625 0 
L 45.90625 0 
L 45.90625 32.71875 
Q 45.90625 40.484375 42.875 44.328125 
Q 39.84375 48.1875 33.796875 48.1875 
Q 26.515625 48.1875 22.3125 43.546875 
Q 18.109375 38.921875 18.109375 30.90625 
L 18.109375 0 
L 9.078125 0 
L 9.078125 54.6875 
L 18.109375 54.6875 
L 18.109375 46.1875 
Q 21.34375 51.125 25.703125 53.5625 
Q 30.078125 56 35.796875 56 
Q 45.21875 56 50.046875 50.171875 
Q 54.890625 44.34375 54.890625 33.015625 
" id="BitstreamVeraSans-Roman-6e"/>
       <path d="M 3.328125 72.90625 
L 13.28125 72.90625 
L 28.609375 11.28125 
L 43.890625 72.90625 
L 54.984375 72.90625 
L 70.3125 11.28125 
L 85.59375 72.90625 
L 95.609375 72.90625 
L 77.296875 0 
L 64.890625 0 
L 49.515625 63.28125 
L 33.984375 0 
L 21.578125 0 
z
" id="BitstreamVeraSans-Roman-57"/>
       <path d="M 56.203125 29.59375 
L 56.203125 25.203125 
L 14.890625 25.203125 
Q 15.484375 15.921875 20.484375 11.0625 
Q 25.484375 6.203125 34.421875 6.203125 
Q 39.59375 6.203125 44.453125 7.46875 
Q 49.3125 8.734375 54.109375 11.28125 
L 54.109375 2.78125 
Q 49.265625 0.734375 44.1875 -0.34375 
Q 39.109375 -1.421875 33.890625 -1.421875 
Q 20.796875 -1.421875 13.15625 6.1875 
Q 5.515625 13.8125 5.515625 26.8125 
Q 5.515625 40.234375 12.765625 48.109375 
Q 20.015625 56 32.328125 56 
Q 43.359375 56 49.78125 48.890625 
Q 56.203125 41.796875 56.203125 29.59375 
M 47.21875 32.234375 
Q 47.125 39.59375 43.09375 43.984375 
Q 39.0625 48.390625 32.421875 48.390625 
Q 24.90625 48.390625 20.390625 44.140625 
Q 15.875 39.890625 15.1875 32.171875 
z
" id="BitstreamVeraSans-Roman-65"/>
       <path d="M 8.5 21.578125 
L 8.5 54.6875 
L 17.484375 54.6875 
L 17.484375 21.921875 
Q 17.484375 14.15625 20.5 10.265625 
Q 23.53125 6.390625 29.59375 6.390625 
Q 36.859375 6.390625 41.078125 11.03125 
Q 45.3125 15.671875 45.3125 23.6875 
L 45.3125 54.6875 
L 54.296875 54.6875 
L 54.296875 0 
L 45.3125 0 
L 45.3125 8.40625 
Q 42.046875 3.421875 37.71875 1 
Q 33.40625 -1.421875 27.6875 -1.421875 
Q 18.265625 -1.421875 13.375 4.4375 
Q 8.5 10.296875 8.5 21.578125 
" id="BitstreamVeraSans-Roman-75"/>
      </defs>
      <g transform="translate(923.089952155 1253.123125)rotate(-90.0)scale(0.12 -0.12)">
       <use xlink:href="#BitstreamVeraSans-Roman-57"/>
       <use x="98.798828125" xlink:href="#BitstreamVeraSans-Roman-6f"/>
       <use x="159.98046875" xlink:href="#BitstreamVeraSans-Roman-72"/>
       <use x="201.09375" xlink:href="#BitstreamVeraSans-Roman-6b"/>
       <use x="258.95703125" xlink:href="#BitstreamVeraSans-Roman-65"/>
       <use x="320.48046875" xlink:href="#BitstreamVeraSans-Roman-64"/>
       <use x="383.95703125" xlink:href="#BitstreamVeraSans-Roman-5f"/>
       <use x="433.95703125" xlink:href="#BitstreamVeraSans-Roman-69"/>
       <use x="461.740234375" xlink:href="#BitstreamVeraSans-Roman-6e"/>
       <use x="525.119140625" xlink:href="#BitstreamVeraSans-Roman-5f"/>
       <use x="575.119140625" xlink:href="#BitstreamVeraSans-Roman-61"/>
       <use x="636.3984375" xlink:href="#BitstreamVeraSans-Roman-5f"/>
       <use x="686.3984375" xlink:href="#BitstreamVeraSans-Roman-64"/>
       <use x="749.875" xlink:href="#BitstreamVeraSans-Roman-69"/>
       <use x="777.658203125" xlink:href="#BitstreamVeraSans-Roman-66"/>
       <use x="812.86328125" xlink:href="#BitstreamVeraSans-Roman-66"/>
       <use x="848.068359375" xlink:href="#BitstreamVeraSans-Roman-65"/>
       <use x="909.591796875" xlink:href="#BitstreamVeraSans-Roman-72"/>
       <use x="950.673828125" xlink:href="#BitstreamVeraSans-Roman-65"/>
       <use x="1012.197265625" xlink:href="#BitstreamVeraSans-Roman-6e"/>
       <use x="1075.576171875" xlink:href="#BitstreamVeraSans-Roman-74"/>
       <use x="1114.78515625" xlink:href="#BitstreamVeraSans-Roman-5f"/>
       <use x="1164.78515625" xlink:href="#BitstreamVeraSans-Roman-63"/>
       <use x="1219.765625" xlink:href="#BitstreamVeraSans-Roman-6f"/>
       <use x="1280.947265625" xlink:href="#BitstreamVeraSans-Roman-75"/>
       <use x="1344.326171875" xlink:href="#BitstreamVeraSans-Roman-6e"/>
       <use x="1407.705078125" xlink:href="#BitstreamVeraSans-Roman-74"/>
       <use x="1446.9140625" xlink:href="#BitstreamVeraSans-Roman-79"/>
      </g>
     </g>
    </g>
    <g id="xtick_2">
     <g id="line2d_2">
      <g>
       <use style="stroke:#000000;stroke-width:0.5;" x="319.888149589" xlink:href="#mf3f0f5435b" y="1068.39"/>
      </g>
     </g>
     <g id="text_2">
      <!-- No_fixed_address -->
      <defs>
       <path d="M 9.8125 72.90625 
L 23.09375 72.90625 
L 55.421875 11.921875 
L 55.421875 72.90625 
L 64.984375 72.90625 
L 64.984375 0 
L 51.703125 0 
L 19.390625 60.984375 
L 19.390625 0 
L 9.8125 0 
z
" id="BitstreamVeraSans-Roman-4e"/>
       <path d="M 44.28125 53.078125 
L 44.28125 44.578125 
Q 40.484375 46.53125 36.375 47.5 
Q 32.28125 48.484375 27.875 48.484375 
Q 21.1875 48.484375 17.84375 46.4375 
Q 14.5 44.390625 14.5 40.28125 
Q 14.5 37.15625 16.890625 35.375 
Q 19.28125 33.59375 26.515625 31.984375 
L 29.59375 31.296875 
Q 39.15625 29.25 43.1875 25.515625 
Q 47.21875 21.78125 47.21875 15.09375 
Q 47.21875 7.46875 41.1875 3.015625 
Q 35.15625 -1.421875 24.609375 -1.421875 
Q 20.21875 -1.421875 15.453125 -0.5625 
Q 10.6875 0.296875 5.421875 2 
L 5.421875 11.28125 
Q 10.40625 8.6875 15.234375 7.390625 
Q 20.0625 6.109375 24.8125 6.109375 
Q 31.15625 6.109375 34.5625 8.28125 
Q 37.984375 10.453125 37.984375 14.40625 
Q 37.984375 18.0625 35.515625 20.015625 
Q 33.0625 21.96875 24.703125 23.78125 
L 21.578125 24.515625 
Q 13.234375 26.265625 9.515625 29.90625 
Q 5.8125 33.546875 5.8125 39.890625 
Q 5.8125 47.609375 11.28125 51.796875 
Q 16.75 56 26.8125 56 
Q 31.78125 56 36.171875 55.265625 
Q 40.578125 54.546875 44.28125 53.078125 
" id="BitstreamVeraSans-Roman-73"/>
       <path d="M 54.890625 54.6875 
L 35.109375 28.078125 
L 55.90625 0 
L 45.3125 0 
L 29.390625 21.484375 
L 13.484375 0 
L 2.875 0 
L 24.125 28.609375 
L 4.6875 54.6875 
L 15.28125 54.6875 
L 29.78125 35.203125 
L 44.28125 54.6875 
z
" id="BitstreamVeraSans-Roman-78"/>
      </defs>
      <g transform="translate(323.032524589 1177.7725)rotate(-90.0)scale(0.12 -0.12)">
       <use xlink:href="#BitstreamVeraSans-Roman-4e"/>
       <use x="74.8046875" xlink:href="#BitstreamVeraSans-Roman-6f"/>
       <use x="135.986328125" xlink:href="#BitstreamVeraSans-Roman-5f"/>
       <use x="185.986328125" xlink:href="#BitstreamVeraSans-Roman-66"/>
       <use x="221.19140625" xlink:href="#BitstreamVeraSans-Roman-69"/>
       <use x="248.974609375" xlink:href="#BitstreamVeraSans-Roman-78"/>
       <use x="308.107421875" xlink:href="#BitstreamVeraSans-Roman-65"/>
       <use x="369.630859375" xlink:href="#BitstreamVeraSans-Roman-64"/>
       <use x="433.107421875" xlink:href="#BitstreamVeraSans-Roman-5f"/>
       <use x="483.107421875" xlink:href="#BitstreamVeraSans-Roman-61"/>
       <use x="544.38671875" xlink:href="#BitstreamVeraSans-Roman-64"/>
       <use x="607.86328125" xlink:href="#BitstreamVeraSans-Roman-64"/>
       <use x="671.33984375" xlink:href="#BitstreamVeraSans-Roman-72"/>
       <use x="712.421875" xlink:href="#BitstreamVeraSans-Roman-65"/>
       <use x="773.9453125" xlink:href="#BitstreamVeraSans-Roman-73"/>
       <use x="826.044921875" xlink:href="#BitstreamVeraSans-Roman-73"/>
      </g>
     </g>
    </g>
    <g id="xtick_3">
     <g id="line2d_3">
      <g>
       <use style="stroke:#000000;stroke-width:0.5;" x="2067.56665514" xlink:href="#mf3f0f5435b" y="1068.39"/>
      </g>
     </g>
     <g id="text_3">
      <!-- Worked_outside_Canada -->
      <defs>
       <path d="M 64.40625 67.28125 
L 64.40625 56.890625 
Q 59.421875 61.53125 53.78125 63.8125 
Q 48.140625 66.109375 41.796875 66.109375 
Q 29.296875 66.109375 22.65625 58.46875 
Q 16.015625 50.828125 16.015625 36.375 
Q 16.015625 21.96875 22.65625 14.328125 
Q 29.296875 6.6875 41.796875 6.6875 
Q 48.140625 6.6875 53.78125 8.984375 
Q 59.421875 11.28125 64.40625 15.921875 
L 64.40625 5.609375 
Q 59.234375 2.09375 53.4375 0.328125 
Q 47.65625 -1.421875 41.21875 -1.421875 
Q 24.65625 -1.421875 15.125 8.703125 
Q 5.609375 18.84375 5.609375 36.375 
Q 5.609375 53.953125 15.125 64.078125 
Q 24.65625 74.21875 41.21875 74.21875 
Q 47.75 74.21875 53.53125 72.484375 
Q 59.328125 70.75 64.40625 67.28125 
" id="BitstreamVeraSans-Roman-43"/>
      </defs>
      <g transform="translate(2070.71103014 1220.36875)rotate(-90.0)scale(0.12 -0.12)">
       <use xlink:href="#BitstreamVeraSans-Roman-57"/>
       <use x="98.798828125" xlink:href="#BitstreamVeraSans-Roman-6f"/>
       <use x="159.98046875" xlink:href="#BitstreamVeraSans-Roman-72"/>
       <use x="201.09375" xlink:href="#BitstreamVeraSans-Roman-6b"/>
       <use x="258.95703125" xlink:href="#BitstreamVeraSans-Roman-65"/>
       <use x="320.48046875" xlink:href="#BitstreamVeraSans-Roman-64"/>
       <use x="383.95703125" xlink:href="#BitstreamVeraSans-Roman-5f"/>
       <use x="433.95703125" xlink:href="#BitstreamVeraSans-Roman-6f"/>
       <use x="495.138671875" xlink:href="#BitstreamVeraSans-Roman-75"/>
       <use x="558.517578125" xlink:href="#BitstreamVeraSans-Roman-74"/>
       <use x="597.7265625" xlink:href="#BitstreamVeraSans-Roman-73"/>
       <use x="649.826171875" xlink:href="#BitstreamVeraSans-Roman-69"/>
       <use x="677.609375" xlink:href="#BitstreamVeraSans-Roman-64"/>
       <use x="741.0859375" xlink:href="#BitstreamVeraSans-Roman-65"/>
       <use x="802.609375" xlink:href="#BitstreamVeraSans-Roman-5f"/>
       <use x="852.609375" xlink:href="#BitstreamVeraSans-Roman-43"/>
       <use x="922.43359375" xlink:href="#BitstreamVeraSans-Roman-61"/>
       <use x="983.712890625" xlink:href="#BitstreamVeraSans-Roman-6e"/>
       <use x="1047.091796875" xlink:href="#BitstreamVeraSans-Roman-61"/>
       <use x="1108.37109375" xlink:href="#BitstreamVeraSans-Roman-64"/>
       <use x="1171.84765625" xlink:href="#BitstreamVeraSans-Roman-61"/>
      </g>
     </g>
    </g>
    <g id="xtick_4">
     <g id="line2d_4">
      <g>
       <use style="stroke:#000000;stroke-width:0.5;" x="1112.37150726" xlink:href="#mf3f0f5435b" y="1068.39"/>
      </g>
     </g>
     <g id="text_4">
      <!-- Worked_in_a_different_province -->
      <defs>
       <path d="M 18.109375 8.203125 
L 18.109375 -20.796875 
L 9.078125 -20.796875 
L 9.078125 54.6875 
L 18.109375 54.6875 
L 18.109375 46.390625 
Q 20.953125 51.265625 25.265625 53.625 
Q 29.59375 56 35.59375 56 
Q 45.5625 56 51.78125 48.09375 
Q 58.015625 40.1875 58.015625 27.296875 
Q 58.015625 14.40625 51.78125 6.484375 
Q 45.5625 -1.421875 35.59375 -1.421875 
Q 29.59375 -1.421875 25.265625 0.953125 
Q 20.953125 3.328125 18.109375 8.203125 
M 48.6875 27.296875 
Q 48.6875 37.203125 44.609375 42.84375 
Q 40.53125 48.484375 33.40625 48.484375 
Q 26.265625 48.484375 22.1875 42.84375 
Q 18.109375 37.203125 18.109375 27.296875 
Q 18.109375 17.390625 22.1875 11.75 
Q 26.265625 6.109375 33.40625 6.109375 
Q 40.53125 6.109375 44.609375 11.75 
Q 48.6875 17.390625 48.6875 27.296875 
" id="BitstreamVeraSans-Roman-70"/>
       <path d="M 2.984375 54.6875 
L 12.5 54.6875 
L 29.59375 8.796875 
L 46.6875 54.6875 
L 56.203125 54.6875 
L 35.6875 0 
L 23.484375 0 
z
" id="BitstreamVeraSans-Roman-76"/>
      </defs>
      <g transform="translate(1115.51588226 1264.07875)rotate(-90.0)scale(0.12 -0.12)">
       <use xlink:href="#BitstreamVeraSans-Roman-57"/>
       <use x="98.798828125" xlink:href="#BitstreamVeraSans-Roman-6f"/>
       <use x="159.98046875" xlink:href="#BitstreamVeraSans-Roman-72"/>
       <use x="201.09375" xlink:href="#BitstreamVeraSans-Roman-6b"/>
       <use x="258.95703125" xlink:href="#BitstreamVeraSans-Roman-65"/>
       <use x="320.48046875" xlink:href="#BitstreamVeraSans-Roman-64"/>
       <use x="383.95703125" xlink:href="#BitstreamVeraSans-Roman-5f"/>
       <use x="433.95703125" xlink:href="#BitstreamVeraSans-Roman-69"/>
       <use x="461.740234375" xlink:href="#BitstreamVeraSans-Roman-6e"/>
       <use x="525.119140625" xlink:href="#BitstreamVeraSans-Roman-5f"/>
       <use x="575.119140625" xlink:href="#BitstreamVeraSans-Roman-61"/>
       <use x="636.3984375" xlink:href="#BitstreamVeraSans-Roman-5f"/>
       <use x="686.3984375" xlink:href="#BitstreamVeraSans-Roman-64"/>
       <use x="749.875" xlink:href="#BitstreamVeraSans-Roman-69"/>
       <use x="777.658203125" xlink:href="#BitstreamVeraSans-Roman-66"/>
       <use x="812.86328125" xlink:href="#BitstreamVeraSans-Roman-66"/>
       <use x="848.068359375" xlink:href="#BitstreamVeraSans-Roman-65"/>
       <use x="909.591796875" xlink:href="#BitstreamVeraSans-Roman-72"/>
       <use x="950.673828125" xlink:href="#BitstreamVeraSans-Roman-65"/>
       <use x="1012.197265625" xlink:href="#BitstreamVeraSans-Roman-6e"/>
       <use x="1075.576171875" xlink:href="#BitstreamVeraSans-Roman-74"/>
       <use x="1114.78515625" xlink:href="#BitstreamVeraSans-Roman-5f"/>
       <use x="1164.78515625" xlink:href="#BitstreamVeraSans-Roman-70"/>
       <use x="1228.26171875" xlink:href="#BitstreamVeraSans-Roman-72"/>
       <use x="1269.34375" xlink:href="#BitstreamVeraSans-Roman-6f"/>
       <use x="1330.525390625" xlink:href="#BitstreamVeraSans-Roman-76"/>
       <use x="1389.705078125" xlink:href="#BitstreamVeraSans-Roman-69"/>
       <use x="1417.48828125" xlink:href="#BitstreamVeraSans-Roman-6e"/>
       <use x="1480.8671875" xlink:href="#BitstreamVeraSans-Roman-63"/>
       <use x="1535.84765625" xlink:href="#BitstreamVeraSans-Roman-65"/>
      </g>
     </g>
    </g>
    <g id="xtick_5">
     <g id="line2d_5">
      <g>
       <use style="stroke:#000000;stroke-width:0.5;" x="591.192793699" xlink:href="#mf3f0f5435b" y="1068.39"/>
      </g>
     </g>
     <g id="text_5">
      <!-- Worked_in_a_different_census_municipality_within -->
      <defs>
       <path d="M 4.203125 54.6875 
L 13.1875 54.6875 
L 24.421875 12.015625 
L 35.59375 54.6875 
L 46.1875 54.6875 
L 57.421875 12.015625 
L 68.609375 54.6875 
L 77.59375 54.6875 
L 63.28125 0 
L 52.6875 0 
L 40.921875 44.828125 
L 29.109375 0 
L 18.5 0 
z
" id="BitstreamVeraSans-Roman-77"/>
       <path d="M 54.890625 33.015625 
L 54.890625 0 
L 45.90625 0 
L 45.90625 32.71875 
Q 45.90625 40.484375 42.875 44.328125 
Q 39.84375 48.1875 33.796875 48.1875 
Q 26.515625 48.1875 22.3125 43.546875 
Q 18.109375 38.921875 18.109375 30.90625 
L 18.109375 0 
L 9.078125 0 
L 9.078125 75.984375 
L 18.109375 75.984375 
L 18.109375 46.1875 
Q 21.34375 51.125 25.703125 53.5625 
Q 30.078125 56 35.796875 56 
Q 45.21875 56 50.046875 50.171875 
Q 54.890625 44.34375 54.890625 33.015625 
" id="BitstreamVeraSans-Roman-68"/>
       <path d="M 52 44.1875 
Q 55.375 50.25 60.0625 53.125 
Q 64.75 56 71.09375 56 
Q 79.640625 56 84.28125 50.015625 
Q 88.921875 44.046875 88.921875 33.015625 
L 88.921875 0 
L 79.890625 0 
L 79.890625 32.71875 
Q 79.890625 40.578125 77.09375 44.375 
Q 74.3125 48.1875 68.609375 48.1875 
Q 61.625 48.1875 57.5625 43.546875 
Q 53.515625 38.921875 53.515625 30.90625 
L 53.515625 0 
L 44.484375 0 
L 44.484375 32.71875 
Q 44.484375 40.625 41.703125 44.40625 
Q 38.921875 48.1875 33.109375 48.1875 
Q 26.21875 48.1875 22.15625 43.53125 
Q 18.109375 38.875 18.109375 30.90625 
L 18.109375 0 
L 9.078125 0 
L 9.078125 54.6875 
L 18.109375 54.6875 
L 18.109375 46.1875 
Q 21.1875 51.21875 25.484375 53.609375 
Q 29.78125 56 35.6875 56 
Q 41.65625 56 45.828125 52.96875 
Q 50 49.953125 52 44.1875 
" id="BitstreamVeraSans-Roman-6d"/>
       <path d="M 9.421875 75.984375 
L 18.40625 75.984375 
L 18.40625 0 
L 9.421875 0 
z
" id="BitstreamVeraSans-Roman-6c"/>
      </defs>
      <g transform="translate(594.337168699 1375.86625)rotate(-90.0)scale(0.12 -0.12)">
       <use xlink:href="#BitstreamVeraSans-Roman-57"/>
       <use x="98.798828125" xlink:href="#BitstreamVeraSans-Roman-6f"/>
       <use x="159.98046875" xlink:href="#BitstreamVeraSans-Roman-72"/>
       <use x="201.09375" xlink:href="#BitstreamVeraSans-Roman-6b"/>
       <use x="258.95703125" xlink:href="#BitstreamVeraSans-Roman-65"/>
       <use x="320.48046875" xlink:href="#BitstreamVeraSans-Roman-64"/>
       <use x="383.95703125" xlink:href="#BitstreamVeraSans-Roman-5f"/>
       <use x="433.95703125" xlink:href="#BitstreamVeraSans-Roman-69"/>
       <use x="461.740234375" xlink:href="#BitstreamVeraSans-Roman-6e"/>
       <use x="525.119140625" xlink:href="#BitstreamVeraSans-Roman-5f"/>
       <use x="575.119140625" xlink:href="#BitstreamVeraSans-Roman-61"/>
       <use x="636.3984375" xlink:href="#BitstreamVeraSans-Roman-5f"/>
       <use x="686.3984375" xlink:href="#BitstreamVeraSans-Roman-64"/>
       <use x="749.875" xlink:href="#BitstreamVeraSans-Roman-69"/>
       <use x="777.658203125" xlink:href="#BitstreamVeraSans-Roman-66"/>
       <use x="812.86328125" xlink:href="#BitstreamVeraSans-Roman-66"/>
       <use x="848.068359375" xlink:href="#BitstreamVeraSans-Roman-65"/>
       <use x="909.591796875" xlink:href="#BitstreamVeraSans-Roman-72"/>
       <use x="950.673828125" xlink:href="#BitstreamVeraSans-Roman-65"/>
       <use x="1012.197265625" xlink:href="#BitstreamVeraSans-Roman-6e"/>
       <use x="1075.576171875" xlink:href="#BitstreamVeraSans-Roman-74"/>
       <use x="1114.78515625" xlink:href="#BitstreamVeraSans-Roman-5f"/>
       <use x="1164.78515625" xlink:href="#BitstreamVeraSans-Roman-63"/>
       <use x="1219.765625" xlink:href="#BitstreamVeraSans-Roman-65"/>
       <use x="1281.2890625" xlink:href="#BitstreamVeraSans-Roman-6e"/>
       <use x="1344.66796875" xlink:href="#BitstreamVeraSans-Roman-73"/>
       <use x="1396.767578125" xlink:href="#BitstreamVeraSans-Roman-75"/>
       <use x="1460.146484375" xlink:href="#BitstreamVeraSans-Roman-73"/>
       <use x="1512.24609375" xlink:href="#BitstreamVeraSans-Roman-5f"/>
       <use x="1562.24609375" xlink:href="#BitstreamVeraSans-Roman-6d"/>
       <use x="1659.658203125" xlink:href="#BitstreamVeraSans-Roman-75"/>
       <use x="1723.037109375" xlink:href="#BitstreamVeraSans-Roman-6e"/>
       <use x="1786.416015625" xlink:href="#BitstreamVeraSans-Roman-69"/>
       <use x="1814.19921875" xlink:href="#BitstreamVeraSans-Roman-63"/>
       <use x="1869.1796875" xlink:href="#BitstreamVeraSans-Roman-69"/>
       <use x="1896.962890625" xlink:href="#BitstreamVeraSans-Roman-70"/>
       <use x="1960.439453125" xlink:href="#BitstreamVeraSans-Roman-61"/>
       <use x="2021.71875" xlink:href="#BitstreamVeraSans-Roman-6c"/>
       <use x="2049.501953125" xlink:href="#BitstreamVeraSans-Roman-69"/>
       <use x="2077.28515625" xlink:href="#BitstreamVeraSans-Roman-74"/>
       <use x="2116.494140625" xlink:href="#BitstreamVeraSans-Roman-79"/>
       <use x="2175.673828125" xlink:href="#BitstreamVeraSans-Roman-5f"/>
       <use x="2225.673828125" xlink:href="#BitstreamVeraSans-Roman-77"/>
       <use x="2307.4609375" xlink:href="#BitstreamVeraSans-Roman-69"/>
       <use x="2335.244140625" xlink:href="#BitstreamVeraSans-Roman-74"/>
       <use x="2374.453125" xlink:href="#BitstreamVeraSans-Roman-68"/>
       <use x="2437.83203125" xlink:href="#BitstreamVeraSans-Roman-69"/>
       <use x="2465.615234375" xlink:href="#BitstreamVeraSans-Roman-6e"/>
      </g>
     </g>
    </g>
    <g id="xtick_6">
     <g id="line2d_6">
      <g>
       <use style="stroke:#000000;stroke-width:0.5;" x="397.847655931" xlink:href="#mf3f0f5435b" y="1068.39"/>
      </g>
     </g>
     <g id="text_6">
      <!-- Worked_at_home -->
      <g transform="translate(400.992030931 1176.544375)rotate(-90.0)scale(0.12 -0.12)">
       <use xlink:href="#BitstreamVeraSans-Roman-57"/>
       <use x="98.798828125" xlink:href="#BitstreamVeraSans-Roman-6f"/>
       <use x="159.98046875" xlink:href="#BitstreamVeraSans-Roman-72"/>
       <use x="201.09375" xlink:href="#BitstreamVeraSans-Roman-6b"/>
       <use x="258.95703125" xlink:href="#BitstreamVeraSans-Roman-65"/>
       <use x="320.48046875" xlink:href="#BitstreamVeraSans-Roman-64"/>
       <use x="383.95703125" xlink:href="#BitstreamVeraSans-Roman-5f"/>
       <use x="433.95703125" xlink:href="#BitstreamVeraSans-Roman-61"/>
       <use x="495.236328125" xlink:href="#BitstreamVeraSans-Roman-74"/>
       <use x="534.4453125" xlink:href="#BitstreamVeraSans-Roman-5f"/>
       <use x="584.4453125" xlink:href="#BitstreamVeraSans-Roman-68"/>
       <use x="647.82421875" xlink:href="#BitstreamVeraSans-Roman-6f"/>
       <use x="709.005859375" xlink:href="#BitstreamVeraSans-Roman-6d"/>
       <use x="806.41796875" xlink:href="#BitstreamVeraSans-Roman-65"/>
      </g>
     </g>
    </g>
    <g id="xtick_7">
     <g id="line2d_7">
      <g>
       <use style="stroke:#000000;stroke-width:0.5;" x="1592.4258726" xlink:href="#mf3f0f5435b" y="1068.39"/>
      </g>
     </g>
     <g id="text_7">
      <!-- Worked_in_census_municipality_of_residence -->
      <g transform="translate(1595.5702476 1344.76375)rotate(-90.0)scale(0.12 -0.12)">
       <use xlink:href="#BitstreamVeraSans-Roman-57"/>
       <use x="98.798828125" xlink:href="#BitstreamVeraSans-Roman-6f"/>
       <use x="159.98046875" xlink:href="#BitstreamVeraSans-Roman-72"/>
       <use x="201.09375" xlink:href="#BitstreamVeraSans-Roman-6b"/>
       <use x="258.95703125" xlink:href="#BitstreamVeraSans-Roman-65"/>
       <use x="320.48046875" xlink:href="#BitstreamVeraSans-Roman-64"/>
       <use x="383.95703125" xlink:href="#BitstreamVeraSans-Roman-5f"/>
       <use x="433.95703125" xlink:href="#BitstreamVeraSans-Roman-69"/>
       <use x="461.740234375" xlink:href="#BitstreamVeraSans-Roman-6e"/>
       <use x="525.119140625" xlink:href="#BitstreamVeraSans-Roman-5f"/>
       <use x="575.119140625" xlink:href="#BitstreamVeraSans-Roman-63"/>
       <use x="630.099609375" xlink:href="#BitstreamVeraSans-Roman-65"/>
       <use x="691.623046875" xlink:href="#BitstreamVeraSans-Roman-6e"/>
       <use x="755.001953125" xlink:href="#BitstreamVeraSans-Roman-73"/>
       <use x="807.1015625" xlink:href="#BitstreamVeraSans-Roman-75"/>
       <use x="870.48046875" xlink:href="#BitstreamVeraSans-Roman-73"/>
       <use x="922.580078125" xlink:href="#BitstreamVeraSans-Roman-5f"/>
       <use x="972.580078125" xlink:href="#BitstreamVeraSans-Roman-6d"/>
       <use x="1069.9921875" xlink:href="#BitstreamVeraSans-Roman-75"/>
       <use x="1133.37109375" xlink:href="#BitstreamVeraSans-Roman-6e"/>
       <use x="1196.75" xlink:href="#BitstreamVeraSans-Roman-69"/>
       <use x="1224.533203125" xlink:href="#BitstreamVeraSans-Roman-63"/>
       <use x="1279.513671875" xlink:href="#BitstreamVeraSans-Roman-69"/>
       <use x="1307.296875" xlink:href="#BitstreamVeraSans-Roman-70"/>
       <use x="1370.7734375" xlink:href="#BitstreamVeraSans-Roman-61"/>
       <use x="1432.052734375" xlink:href="#BitstreamVeraSans-Roman-6c"/>
       <use x="1459.8359375" xlink:href="#BitstreamVeraSans-Roman-69"/>
       <use x="1487.619140625" xlink:href="#BitstreamVeraSans-Roman-74"/>
       <use x="1526.828125" xlink:href="#BitstreamVeraSans-Roman-79"/>
       <use x="1586.0078125" xlink:href="#BitstreamVeraSans-Roman-5f"/>
       <use x="1636.0078125" xlink:href="#BitstreamVeraSans-Roman-6f"/>
       <use x="1697.189453125" xlink:href="#BitstreamVeraSans-Roman-66"/>
       <use x="1732.39453125" xlink:href="#BitstreamVeraSans-Roman-5f"/>
       <use x="1782.39453125" xlink:href="#BitstreamVeraSans-Roman-72"/>
       <use x="1823.4765625" xlink:href="#BitstreamVeraSans-Roman-65"/>
       <use x="1885.0" xlink:href="#BitstreamVeraSans-Roman-73"/>
       <use x="1937.099609375" xlink:href="#BitstreamVeraSans-Roman-69"/>
       <use x="1964.8828125" xlink:href="#BitstreamVeraSans-Roman-64"/>
       <use x="2028.359375" xlink:href="#BitstreamVeraSans-Roman-65"/>
       <use x="2089.8828125" xlink:href="#BitstreamVeraSans-Roman-6e"/>
       <use x="2153.26171875" xlink:href="#BitstreamVeraSans-Roman-63"/>
       <use x="2208.2421875" xlink:href="#BitstreamVeraSans-Roman-65"/>
      </g>
     </g>
    </g>
   </g>
   <g id="matplotlib.axis_2">
    <g id="ytick_1">
     <g id="line2d_8">
      <defs>
       <path d="M 0 0 
L 4 0 
" id="m066c4de989" style="stroke:#000000;stroke-width:0.5;"/>
      </defs>
      <g>
       <use style="stroke:#000000;stroke-width:0.5;" x="288.0" xlink:href="#m066c4de989" y="765.035709271"/>
      </g>
     </g>
     <g id="text_8">
      <!-- False -->
      <defs>
       <path d="M 9.8125 72.90625 
L 51.703125 72.90625 
L 51.703125 64.59375 
L 19.671875 64.59375 
L 19.671875 43.109375 
L 48.578125 43.109375 
L 48.578125 34.8125 
L 19.671875 34.8125 
L 19.671875 0 
L 9.8125 0 
z
" id="BitstreamVeraSans-Roman-46"/>
      </defs>
      <g transform="translate(281.504375 780.639459271)rotate(-90.0)scale(0.12 -0.12)">
       <use xlink:href="#BitstreamVeraSans-Roman-46"/>
       <use x="57.37890625" xlink:href="#BitstreamVeraSans-Roman-61"/>
       <use x="118.658203125" xlink:href="#BitstreamVeraSans-Roman-6c"/>
       <use x="146.44140625" xlink:href="#BitstreamVeraSans-Roman-73"/>
       <use x="198.541015625" xlink:href="#BitstreamVeraSans-Roman-65"/>
      </g>
     </g>
    </g>
    <g id="ytick_2">
     <g id="line2d_9">
      <g>
       <use style="stroke:#000000;stroke-width:0.5;" x="288.0" xlink:href="#m066c4de989" y="288.618167743"/>
      </g>
     </g>
     <g id="text_9">
      <!-- True -->
      <defs>
       <path d="M -0.296875 72.90625 
L 61.375 72.90625 
L 61.375 64.59375 
L 35.5 64.59375 
L 35.5 0 
L 25.59375 0 
L 25.59375 64.59375 
L -0.296875 64.59375 
z
" id="BitstreamVeraSans-Roman-54"/>
      </defs>
      <g transform="translate(281.504375 302.230667743)rotate(-90.0)scale(0.12 -0.12)">
       <use xlink:href="#BitstreamVeraSans-Roman-54"/>
       <use x="60.865234375" xlink:href="#BitstreamVeraSans-Roman-72"/>
       <use x="101.978515625" xlink:href="#BitstreamVeraSans-Roman-75"/>
       <use x="165.357421875" xlink:href="#BitstreamVeraSans-Roman-65"/>
      </g>
     </g>
    </g>
   </g>
   <g id="text_10">
    <!-- powst -->
    <g transform="translate(1159.362 113.71)scale(0.144 -0.144)">
     <use xlink:href="#BitstreamVeraSans-Roman-70"/>
     <use x="63.4765625" xlink:href="#BitstreamVeraSans-Roman-6f"/>
     <use x="124.658203125" xlink:href="#BitstreamVeraSans-Roman-77"/>
     <use x="206.4453125" xlink:href="#BitstreamVeraSans-Roman-73"/>
     <use x="258.544921875" xlink:href="#BitstreamVeraSans-Roman-74"/>
    </g>
   </g>
  </g>
  <g id="axes_2">
   <g id="patch_21">
    <path d="M 288 118.71 
L 2073.6 118.71 
" style="fill:none;stroke:#000000;stroke-linecap:square;stroke-linejoin:miter;"/>
   </g>
   <g id="patch_22">
    <path d="M 288 1068.39 
L 288 118.71 
" style="fill:none;stroke:#000000;stroke-linecap:square;stroke-linejoin:miter;"/>
   </g>
   <g id="patch_23">
    <path d="M 2073.6 1068.39 
L 2073.6 118.71 
" style="fill:none;stroke:#000000;stroke-linecap:square;stroke-linejoin:miter;"/>
   </g>
   <g id="patch_24">
    <path d="M 288 1068.39 
L 2073.6 1068.39 
" style="fill:none;stroke:#000000;stroke-linecap:square;stroke-linejoin:miter;"/>
   </g>
   <g id="matplotlib.axis_3"/>
  </g>
  <g id="axes_3">
   <g id="patch_25">
    <path d="M 288 118.71 
L 2073.6 118.71 
" style="fill:none;stroke:#000000;stroke-linecap:square;stroke-linejoin:miter;"/>
   </g>
   <g id="patch_26">
    <path d="M 288 1068.39 
L 288 118.71 
" style="fill:none;stroke:#000000;stroke-linecap:square;stroke-linejoin:miter;"/>
   </g>
   <g id="patch_27">
    <path d="M 2073.6 1068.39 
L 2073.6 118.71 
" style="fill:none;stroke:#000000;stroke-linecap:square;stroke-linejoin:miter;"/>
   </g>
   <g id="patch_28">
    <path d="M 288 1068.39 
L 2073.6 1068.39 
" style="fill:none;stroke:#000000;stroke-linecap:square;stroke-linejoin:miter;"/>
   </g>
   <g id="matplotlib.axis_4"/>
  </g>
 </g>
 <defs>
  <clipPath id="p07d92224aa">
   <rect height="949.68" width="1785.6" x="288.0" y="118.71"/>
  </clipPath>
 </defs>
</svg>
