<?xml version="1.0" encoding="utf-8" standalone="no"?>
<!DOCTYPE svg PUBLIC "-//W3C//DTD SVG 1.1//EN"
  "http://www.w3.org/Graphics/SVG/1.1/DTD/svg11.dtd">
<!-- Created with matplotlib (http://matplotlib.org/) -->
<svg height="1187pt" version="1.1" viewBox="0 0 2304 1187" width="2304pt" xmlns="http://www.w3.org/2000/svg" xmlns:xlink="http://www.w3.org/1999/xlink">
 <defs>
  <style type="text/css">
*{stroke-linecap:butt;stroke-linejoin:round;stroke-miterlimit:100000;}
  </style>
 </defs>
 <g id="figure_1">
  <g id="patch_1">
   <path d="M 0 1187.1 
L 2304 1187.1 
L 2304 0 
L 0 0 
z
" style="fill:#ffffff;"/>
  </g>
  <g id="axes_1">
   <g id="patch_2">
    <path d="M 288 1068.39 
L 2073.6 1068.39 
L 2073.6 118.71 
L 288 118.71 
z
" style="fill:#ffffff;"/>
   </g>
   <g id="patch_3">
    <path clip-path="url(#p75c18ff52c)" d="M 288 1068.39 
L 333.613571 1068.39 
L 333.613571 523.336624 
L 288 523.336624 
z
" style="fill:#804040;"/>
   </g>
   <g id="patch_4">
    <path clip-path="url(#p75c18ff52c)" d="M 288 520.181541 
L 333.613571 520.181541 
L 333.613571 118.71 
L 288 118.71 
z
" style="fill:#802020;"/>
   </g>
   <g id="patch_5">
    <path clip-path="url(#p75c18ff52c)" d="M 342.323815 1068.39 
L 361.771722 1068.39 
L 361.771722 654.796211 
L 342.323815 654.796211 
z
" style="fill:#807640;"/>
   </g>
   <g id="patch_6">
    <path clip-path="url(#p75c18ff52c)" d="M 342.323815 651.641128 
L 361.771722 651.641128 
L 361.771722 118.71 
L 342.323815 118.71 
z
" style="fill:#807220;"/>
   </g>
   <g id="patch_7">
    <path clip-path="url(#p75c18ff52c)" d="M 370.481966 1068.39 
L 2023.117399 1068.39 
L 2023.117399 623.656797 
L 370.481966 623.656797 
z
" style="fill:#528040;"/>
   </g>
   <g id="patch_8">
    <path clip-path="url(#p75c18ff52c)" d="M 370.481966 620.501714 
L 2023.117399 620.501714 
L 2023.117399 118.71 
L 370.481966 118.71 
z
" style="fill:#3b8020;"/>
   </g>
   <g id="patch_9">
    <path clip-path="url(#p75c18ff52c)" d="M 2031.827643 1068.39 
L 2040.930203 1068.39 
L 2040.930203 621.322881 
L 2031.827643 621.322881 
z
" style="fill:#408064;"/>
   </g>
   <g id="patch_10">
    <path clip-path="url(#p75c18ff52c)" d="M 2031.827643 618.167798 
L 2040.930203 618.167798 
L 2040.930203 118.71 
L 2031.827643 118.71 
z
" style="fill:#208057;"/>
   </g>
   <g id="patch_11">
    <path clip-path="url(#p75c18ff52c)" d="M 2049.640447 1068.39 
L 2064.419513 1068.39 
L 2064.419513 797.339683 
L 2049.640447 797.339683 
z
" style="fill:#406480;"/>
   </g>
   <g id="patch_12">
    <path clip-path="url(#p75c18ff52c)" d="M 2049.640447 794.1846 
L 2064.419513 794.1846 
L 2064.419513 118.71 
L 2049.640447 118.71 
z
" style="fill:#205780;"/>
   </g>
   <g id="patch_13">
    <path clip-path="url(#p75c18ff52c)" d="M 2073.129757 1068.39 
L 2073.6 1068.39 
L 2073.6 1000.781077 
L 2073.129757 1000.781077 
z
" style="fill:#524080;"/>
   </g>
   <g id="patch_14">
    <path clip-path="url(#p75c18ff52c)" d="M 2073.129757 997.625994 
L 2073.6 997.625994 
L 2073.6 118.71 
L 2073.129757 118.71 
z
" style="fill:#3b2080;"/>
   </g>
   <g id="patch_15">
    <path d="M 288 118.71 
L 2073.6 118.71 
" style="fill:none;stroke:#000000;stroke-linecap:square;stroke-linejoin:miter;"/>
   </g>
   <g id="patch_16">
    <path d="M 288 1068.39 
L 288 118.71 
" style="fill:none;stroke:#000000;stroke-linecap:square;stroke-linejoin:miter;"/>
   </g>
   <g id="patch_17">
    <path d="M 2073.6 1068.39 
L 2073.6 118.71 
" style="fill:none;stroke:#000000;stroke-linecap:square;stroke-linejoin:miter;"/>
   </g>
   <g id="patch_18">
    <path d="M 288 1068.39 
L 2073.6 1068.39 
" style="fill:none;stroke:#000000;stroke-linecap:square;stroke-linejoin:miter;"/>
   </g>
   <g id="matplotlib.axis_1">
    <g id="xtick_1">
     <g id="line2d_1">
      <defs>
       <path d="M 0 0 
L 0 -4 
" id="m18037b00fc" style="stroke:#000000;stroke-width:0.5;"/>
      </defs>
      <g>
       <use style="stroke:#000000;stroke-width:0.5;" x="352.04776831" xlink:href="#m18037b00fc" y="1068.39"/>
      </g>
     </g>
     <g id="text_1">
      <!-- Paid_worker_Originally_self_employed_without_paid_help__incorporated -->
      <defs>
       <path d="M 39.40625 66.21875 
Q 28.65625 66.21875 22.328125 58.203125 
Q 16.015625 50.203125 16.015625 36.375 
Q 16.015625 22.609375 22.328125 14.59375 
Q 28.65625 6.59375 39.40625 6.59375 
Q 50.140625 6.59375 56.421875 14.59375 
Q 62.703125 22.609375 62.703125 36.375 
Q 62.703125 50.203125 56.421875 58.203125 
Q 50.140625 66.21875 39.40625 66.21875 
M 39.40625 74.21875 
Q 54.734375 74.21875 63.90625 63.9375 
Q 73.09375 53.65625 73.09375 36.375 
Q 73.09375 19.140625 63.90625 8.859375 
Q 54.734375 -1.421875 39.40625 -1.421875 
Q 24.03125 -1.421875 14.8125 8.828125 
Q 5.609375 19.09375 5.609375 36.375 
Q 5.609375 53.65625 14.8125 63.9375 
Q 24.03125 74.21875 39.40625 74.21875 
" id="BitstreamVeraSans-Roman-4f"/>
       <path d="M 34.28125 27.484375 
Q 23.390625 27.484375 19.1875 25 
Q 14.984375 22.515625 14.984375 16.5 
Q 14.984375 11.71875 18.140625 8.90625 
Q 21.296875 6.109375 26.703125 6.109375 
Q 34.1875 6.109375 38.703125 11.40625 
Q 43.21875 16.703125 43.21875 25.484375 
L 43.21875 27.484375 
z
M 52.203125 31.203125 
L 52.203125 0 
L 43.21875 0 
L 43.21875 8.296875 
Q 40.140625 3.328125 35.546875 0.953125 
Q 30.953125 -1.421875 24.3125 -1.421875 
Q 15.921875 -1.421875 10.953125 3.296875 
Q 6 8.015625 6 15.921875 
Q 6 25.140625 12.171875 29.828125 
Q 18.359375 34.515625 30.609375 34.515625 
L 43.21875 34.515625 
L 43.21875 35.40625 
Q 43.21875 41.609375 39.140625 45 
Q 35.0625 48.390625 27.6875 48.390625 
Q 23 48.390625 18.546875 47.265625 
Q 14.109375 46.140625 10.015625 43.890625 
L 10.015625 52.203125 
Q 14.9375 54.109375 19.578125 55.046875 
Q 24.21875 56 28.609375 56 
Q 40.484375 56 46.34375 49.84375 
Q 52.203125 43.703125 52.203125 31.203125 
" id="BitstreamVeraSans-Roman-61"/>
       <path d="M 48.78125 52.59375 
L 48.78125 44.1875 
Q 44.96875 46.296875 41.140625 47.34375 
Q 37.3125 48.390625 33.40625 48.390625 
Q 24.65625 48.390625 19.8125 42.84375 
Q 14.984375 37.3125 14.984375 27.296875 
Q 14.984375 17.28125 19.8125 11.734375 
Q 24.65625 6.203125 33.40625 6.203125 
Q 37.3125 6.203125 41.140625 7.25 
Q 44.96875 8.296875 48.78125 10.40625 
L 48.78125 2.09375 
Q 45.015625 0.34375 40.984375 -0.53125 
Q 36.96875 -1.421875 32.421875 -1.421875 
Q 20.0625 -1.421875 12.78125 6.34375 
Q 5.515625 14.109375 5.515625 27.296875 
Q 5.515625 40.671875 12.859375 48.328125 
Q 20.21875 56 33.015625 56 
Q 37.15625 56 41.109375 55.140625 
Q 45.0625 54.296875 48.78125 52.59375 
" id="BitstreamVeraSans-Roman-63"/>
       <path d="M 9.421875 54.6875 
L 18.40625 54.6875 
L 18.40625 0 
L 9.421875 0 
z
M 9.421875 75.984375 
L 18.40625 75.984375 
L 18.40625 64.59375 
L 9.421875 64.59375 
z
" id="BitstreamVeraSans-Roman-69"/>
       <path d="M 4.203125 54.6875 
L 13.1875 54.6875 
L 24.421875 12.015625 
L 35.59375 54.6875 
L 46.1875 54.6875 
L 57.421875 12.015625 
L 68.609375 54.6875 
L 77.59375 54.6875 
L 63.28125 0 
L 52.6875 0 
L 40.921875 44.828125 
L 29.109375 0 
L 18.5 0 
z
" id="BitstreamVeraSans-Roman-77"/>
       <path d="M 56.203125 29.59375 
L 56.203125 25.203125 
L 14.890625 25.203125 
Q 15.484375 15.921875 20.484375 11.0625 
Q 25.484375 6.203125 34.421875 6.203125 
Q 39.59375 6.203125 44.453125 7.46875 
Q 49.3125 8.734375 54.109375 11.28125 
L 54.109375 2.78125 
Q 49.265625 0.734375 44.1875 -0.34375 
Q 39.109375 -1.421875 33.890625 -1.421875 
Q 20.796875 -1.421875 13.15625 6.1875 
Q 5.515625 13.8125 5.515625 26.8125 
Q 5.515625 40.234375 12.765625 48.109375 
Q 20.015625 56 32.328125 56 
Q 43.359375 56 49.78125 48.890625 
Q 56.203125 41.796875 56.203125 29.59375 
M 47.21875 32.234375 
Q 47.125 39.59375 43.09375 43.984375 
Q 39.0625 48.390625 32.421875 48.390625 
Q 24.90625 48.390625 20.390625 44.140625 
Q 15.875 39.890625 15.1875 32.171875 
z
" id="BitstreamVeraSans-Roman-65"/>
       <path d="M 18.3125 70.21875 
L 18.3125 54.6875 
L 36.8125 54.6875 
L 36.8125 47.703125 
L 18.3125 47.703125 
L 18.3125 18.015625 
Q 18.3125 11.328125 20.140625 9.421875 
Q 21.96875 7.515625 27.59375 7.515625 
L 36.8125 7.515625 
L 36.8125 0 
L 27.59375 0 
Q 17.1875 0 13.234375 3.875 
Q 9.28125 7.765625 9.28125 18.015625 
L 9.28125 47.703125 
L 2.6875 47.703125 
L 2.6875 54.6875 
L 9.28125 54.6875 
L 9.28125 70.21875 
z
" id="BitstreamVeraSans-Roman-74"/>
       <path d="M 37.109375 75.984375 
L 37.109375 68.5 
L 28.515625 68.5 
Q 23.6875 68.5 21.796875 66.546875 
Q 19.921875 64.59375 19.921875 59.515625 
L 19.921875 54.6875 
L 34.71875 54.6875 
L 34.71875 47.703125 
L 19.921875 47.703125 
L 19.921875 0 
L 10.890625 0 
L 10.890625 47.703125 
L 2.296875 47.703125 
L 2.296875 54.6875 
L 10.890625 54.6875 
L 10.890625 58.5 
Q 10.890625 67.625 15.140625 71.796875 
Q 19.390625 75.984375 28.609375 75.984375 
z
" id="BitstreamVeraSans-Roman-66"/>
       <path d="M 52 44.1875 
Q 55.375 50.25 60.0625 53.125 
Q 64.75 56 71.09375 56 
Q 79.640625 56 84.28125 50.015625 
Q 88.921875 44.046875 88.921875 33.015625 
L 88.921875 0 
L 79.890625 0 
L 79.890625 32.71875 
Q 79.890625 40.578125 77.09375 44.375 
Q 74.3125 48.1875 68.609375 48.1875 
Q 61.625 48.1875 57.5625 43.546875 
Q 53.515625 38.921875 53.515625 30.90625 
L 53.515625 0 
L 44.484375 0 
L 44.484375 32.71875 
Q 44.484375 40.625 41.703125 44.40625 
Q 38.921875 48.1875 33.109375 48.1875 
Q 26.21875 48.1875 22.15625 43.53125 
Q 18.109375 38.875 18.109375 30.90625 
L 18.109375 0 
L 9.078125 0 
L 9.078125 54.6875 
L 18.109375 54.6875 
L 18.109375 46.1875 
Q 21.1875 51.21875 25.484375 53.609375 
Q 29.78125 56 35.6875 56 
Q 41.65625 56 45.828125 52.96875 
Q 50 49.953125 52 44.1875 
" id="BitstreamVeraSans-Roman-6d"/>
       <path d="M 54.890625 33.015625 
L 54.890625 0 
L 45.90625 0 
L 45.90625 32.71875 
Q 45.90625 40.484375 42.875 44.328125 
Q 39.84375 48.1875 33.796875 48.1875 
Q 26.515625 48.1875 22.3125 43.546875 
Q 18.109375 38.921875 18.109375 30.90625 
L 18.109375 0 
L 9.078125 0 
L 9.078125 54.6875 
L 18.109375 54.6875 
L 18.109375 46.1875 
Q 21.34375 51.125 25.703125 53.5625 
Q 30.078125 56 35.796875 56 
Q 45.21875 56 50.046875 50.171875 
Q 54.890625 44.34375 54.890625 33.015625 
" id="BitstreamVeraSans-Roman-6e"/>
       <path d="M 45.40625 27.984375 
Q 45.40625 37.75 41.375 43.109375 
Q 37.359375 48.484375 30.078125 48.484375 
Q 22.859375 48.484375 18.828125 43.109375 
Q 14.796875 37.75 14.796875 27.984375 
Q 14.796875 18.265625 18.828125 12.890625 
Q 22.859375 7.515625 30.078125 7.515625 
Q 37.359375 7.515625 41.375 12.890625 
Q 45.40625 18.265625 45.40625 27.984375 
M 54.390625 6.78125 
Q 54.390625 -7.171875 48.1875 -13.984375 
Q 42 -20.796875 29.203125 -20.796875 
Q 24.46875 -20.796875 20.265625 -20.09375 
Q 16.0625 -19.390625 12.109375 -17.921875 
L 12.109375 -9.1875 
Q 16.0625 -11.328125 19.921875 -12.34375 
Q 23.78125 -13.375 27.78125 -13.375 
Q 36.625 -13.375 41.015625 -8.765625 
Q 45.40625 -4.15625 45.40625 5.171875 
L 45.40625 9.625 
Q 42.625 4.78125 38.28125 2.390625 
Q 33.9375 0 27.875 0 
Q 17.828125 0 11.671875 7.65625 
Q 5.515625 15.328125 5.515625 27.984375 
Q 5.515625 40.671875 11.671875 48.328125 
Q 17.828125 56 27.875 56 
Q 33.9375 56 38.28125 53.609375 
Q 42.625 51.21875 45.40625 46.390625 
L 45.40625 54.6875 
L 54.390625 54.6875 
z
" id="BitstreamVeraSans-Roman-67"/>
       <path d="M 9.421875 75.984375 
L 18.40625 75.984375 
L 18.40625 0 
L 9.421875 0 
z
" id="BitstreamVeraSans-Roman-6c"/>
       <path d="M 8.5 21.578125 
L 8.5 54.6875 
L 17.484375 54.6875 
L 17.484375 21.921875 
Q 17.484375 14.15625 20.5 10.265625 
Q 23.53125 6.390625 29.59375 6.390625 
Q 36.859375 6.390625 41.078125 11.03125 
Q 45.3125 15.671875 45.3125 23.6875 
L 45.3125 54.6875 
L 54.296875 54.6875 
L 54.296875 0 
L 45.3125 0 
L 45.3125 8.40625 
Q 42.046875 3.421875 37.71875 1 
Q 33.40625 -1.421875 27.6875 -1.421875 
Q 18.265625 -1.421875 13.375 4.4375 
Q 8.5 10.296875 8.5 21.578125 
" id="BitstreamVeraSans-Roman-75"/>
       <path d="M 41.109375 46.296875 
Q 39.59375 47.171875 37.8125 47.578125 
Q 36.03125 48 33.890625 48 
Q 26.265625 48 22.1875 43.046875 
Q 18.109375 38.09375 18.109375 28.8125 
L 18.109375 0 
L 9.078125 0 
L 9.078125 54.6875 
L 18.109375 54.6875 
L 18.109375 46.1875 
Q 20.953125 51.171875 25.484375 53.578125 
Q 30.03125 56 36.53125 56 
Q 37.453125 56 38.578125 55.875 
Q 39.703125 55.765625 41.0625 55.515625 
z
" id="BitstreamVeraSans-Roman-72"/>
       <path d="M 45.40625 46.390625 
L 45.40625 75.984375 
L 54.390625 75.984375 
L 54.390625 0 
L 45.40625 0 
L 45.40625 8.203125 
Q 42.578125 3.328125 38.25 0.953125 
Q 33.9375 -1.421875 27.875 -1.421875 
Q 17.96875 -1.421875 11.734375 6.484375 
Q 5.515625 14.40625 5.515625 27.296875 
Q 5.515625 40.1875 11.734375 48.09375 
Q 17.96875 56 27.875 56 
Q 33.9375 56 38.25 53.625 
Q 42.578125 51.265625 45.40625 46.390625 
M 14.796875 27.296875 
Q 14.796875 17.390625 18.875 11.75 
Q 22.953125 6.109375 30.078125 6.109375 
Q 37.203125 6.109375 41.296875 11.75 
Q 45.40625 17.390625 45.40625 27.296875 
Q 45.40625 37.203125 41.296875 42.84375 
Q 37.203125 48.484375 30.078125 48.484375 
Q 22.953125 48.484375 18.875 42.84375 
Q 14.796875 37.203125 14.796875 27.296875 
" id="BitstreamVeraSans-Roman-64"/>
       <path d="M 30.609375 48.390625 
Q 23.390625 48.390625 19.1875 42.75 
Q 14.984375 37.109375 14.984375 27.296875 
Q 14.984375 17.484375 19.15625 11.84375 
Q 23.34375 6.203125 30.609375 6.203125 
Q 37.796875 6.203125 41.984375 11.859375 
Q 46.1875 17.53125 46.1875 27.296875 
Q 46.1875 37.015625 41.984375 42.703125 
Q 37.796875 48.390625 30.609375 48.390625 
M 30.609375 56 
Q 42.328125 56 49.015625 48.375 
Q 55.71875 40.765625 55.71875 27.296875 
Q 55.71875 13.875 49.015625 6.21875 
Q 42.328125 -1.421875 30.609375 -1.421875 
Q 18.84375 -1.421875 12.171875 6.21875 
Q 5.515625 13.875 5.515625 27.296875 
Q 5.515625 40.765625 12.171875 48.375 
Q 18.84375 56 30.609375 56 
" id="BitstreamVeraSans-Roman-6f"/>
       <path d="M 19.671875 64.796875 
L 19.671875 37.40625 
L 32.078125 37.40625 
Q 38.96875 37.40625 42.71875 40.96875 
Q 46.484375 44.53125 46.484375 51.125 
Q 46.484375 57.671875 42.71875 61.234375 
Q 38.96875 64.796875 32.078125 64.796875 
z
M 9.8125 72.90625 
L 32.078125 72.90625 
Q 44.34375 72.90625 50.609375 67.359375 
Q 56.890625 61.8125 56.890625 51.125 
Q 56.890625 40.328125 50.609375 34.8125 
Q 44.34375 29.296875 32.078125 29.296875 
L 19.671875 29.296875 
L 19.671875 0 
L 9.8125 0 
z
" id="BitstreamVeraSans-Roman-50"/>
       <path d="M 9.078125 75.984375 
L 18.109375 75.984375 
L 18.109375 31.109375 
L 44.921875 54.6875 
L 56.390625 54.6875 
L 27.390625 29.109375 
L 57.625 0 
L 45.90625 0 
L 18.109375 26.703125 
L 18.109375 0 
L 9.078125 0 
z
" id="BitstreamVeraSans-Roman-6b"/>
       <path d="M 50.984375 -16.609375 
L 50.984375 -23.578125 
L -0.984375 -23.578125 
L -0.984375 -16.609375 
z
" id="BitstreamVeraSans-Roman-5f"/>
       <path d="M 18.109375 8.203125 
L 18.109375 -20.796875 
L 9.078125 -20.796875 
L 9.078125 54.6875 
L 18.109375 54.6875 
L 18.109375 46.390625 
Q 20.953125 51.265625 25.265625 53.625 
Q 29.59375 56 35.59375 56 
Q 45.5625 56 51.78125 48.09375 
Q 58.015625 40.1875 58.015625 27.296875 
Q 58.015625 14.40625 51.78125 6.484375 
Q 45.5625 -1.421875 35.59375 -1.421875 
Q 29.59375 -1.421875 25.265625 0.953125 
Q 20.953125 3.328125 18.109375 8.203125 
M 48.6875 27.296875 
Q 48.6875 37.203125 44.609375 42.84375 
Q 40.53125 48.484375 33.40625 48.484375 
Q 26.265625 48.484375 22.1875 42.84375 
Q 18.109375 37.203125 18.109375 27.296875 
Q 18.109375 17.390625 22.1875 11.75 
Q 26.265625 6.109375 33.40625 6.109375 
Q 40.53125 6.109375 44.609375 11.75 
Q 48.6875 17.390625 48.6875 27.296875 
" id="BitstreamVeraSans-Roman-70"/>
       <path d="M 54.890625 33.015625 
L 54.890625 0 
L 45.90625 0 
L 45.90625 32.71875 
Q 45.90625 40.484375 42.875 44.328125 
Q 39.84375 48.1875 33.796875 48.1875 
Q 26.515625 48.1875 22.3125 43.546875 
Q 18.109375 38.921875 18.109375 30.90625 
L 18.109375 0 
L 9.078125 0 
L 9.078125 75.984375 
L 18.109375 75.984375 
L 18.109375 46.1875 
Q 21.34375 51.125 25.703125 53.5625 
Q 30.078125 56 35.796875 56 
Q 45.21875 56 50.046875 50.171875 
Q 54.890625 44.34375 54.890625 33.015625 
" id="BitstreamVeraSans-Roman-68"/>
       <path d="M 44.28125 53.078125 
L 44.28125 44.578125 
Q 40.484375 46.53125 36.375 47.5 
Q 32.28125 48.484375 27.875 48.484375 
Q 21.1875 48.484375 17.84375 46.4375 
Q 14.5 44.390625 14.5 40.28125 
Q 14.5 37.15625 16.890625 35.375 
Q 19.28125 33.59375 26.515625 31.984375 
L 29.59375 31.296875 
Q 39.15625 29.25 43.1875 25.515625 
Q 47.21875 21.78125 47.21875 15.09375 
Q 47.21875 7.46875 41.1875 3.015625 
Q 35.15625 -1.421875 24.609375 -1.421875 
Q 20.21875 -1.421875 15.453125 -0.5625 
Q 10.6875 0.296875 5.421875 2 
L 5.421875 11.28125 
Q 10.40625 8.6875 15.234375 7.390625 
Q 20.0625 6.109375 24.8125 6.109375 
Q 31.15625 6.109375 34.5625 8.28125 
Q 37.984375 10.453125 37.984375 14.40625 
Q 37.984375 18.0625 35.515625 20.015625 
Q 33.0625 21.96875 24.703125 23.78125 
L 21.578125 24.515625 
Q 13.234375 26.265625 9.515625 29.90625 
Q 5.8125 33.546875 5.8125 39.890625 
Q 5.8125 47.609375 11.28125 51.796875 
Q 16.75 56 26.8125 56 
Q 31.78125 56 36.171875 55.265625 
Q 40.578125 54.546875 44.28125 53.078125 
" id="BitstreamVeraSans-Roman-73"/>
       <path d="M 32.171875 -5.078125 
Q 28.375 -14.84375 24.75 -17.8125 
Q 21.140625 -20.796875 15.09375 -20.796875 
L 7.90625 -20.796875 
L 7.90625 -13.28125 
L 13.1875 -13.28125 
Q 16.890625 -13.28125 18.9375 -11.515625 
Q 21 -9.765625 23.484375 -3.21875 
L 25.09375 0.875 
L 2.984375 54.6875 
L 12.5 54.6875 
L 29.59375 11.921875 
L 46.6875 54.6875 
L 56.203125 54.6875 
z
" id="BitstreamVeraSans-Roman-79"/>
      </defs>
      <g transform="translate(355.19214331 1505.070625)rotate(-90.0)scale(0.12 -0.12)">
       <use xlink:href="#BitstreamVeraSans-Roman-50"/>
       <use x="60.240234375" xlink:href="#BitstreamVeraSans-Roman-61"/>
       <use x="121.51953125" xlink:href="#BitstreamVeraSans-Roman-69"/>
       <use x="149.302734375" xlink:href="#BitstreamVeraSans-Roman-64"/>
       <use x="212.779296875" xlink:href="#BitstreamVeraSans-Roman-5f"/>
       <use x="262.779296875" xlink:href="#BitstreamVeraSans-Roman-77"/>
       <use x="344.56640625" xlink:href="#BitstreamVeraSans-Roman-6f"/>
       <use x="405.748046875" xlink:href="#BitstreamVeraSans-Roman-72"/>
       <use x="446.861328125" xlink:href="#BitstreamVeraSans-Roman-6b"/>
       <use x="504.724609375" xlink:href="#BitstreamVeraSans-Roman-65"/>
       <use x="566.248046875" xlink:href="#BitstreamVeraSans-Roman-72"/>
       <use x="607.361328125" xlink:href="#BitstreamVeraSans-Roman-5f"/>
       <use x="657.361328125" xlink:href="#BitstreamVeraSans-Roman-4f"/>
       <use x="736.072265625" xlink:href="#BitstreamVeraSans-Roman-72"/>
       <use x="777.185546875" xlink:href="#BitstreamVeraSans-Roman-69"/>
       <use x="804.96875" xlink:href="#BitstreamVeraSans-Roman-67"/>
       <use x="868.4453125" xlink:href="#BitstreamVeraSans-Roman-69"/>
       <use x="896.228515625" xlink:href="#BitstreamVeraSans-Roman-6e"/>
       <use x="959.607421875" xlink:href="#BitstreamVeraSans-Roman-61"/>
       <use x="1020.88671875" xlink:href="#BitstreamVeraSans-Roman-6c"/>
       <use x="1048.669921875" xlink:href="#BitstreamVeraSans-Roman-6c"/>
       <use x="1076.453125" xlink:href="#BitstreamVeraSans-Roman-79"/>
       <use x="1135.6328125" xlink:href="#BitstreamVeraSans-Roman-5f"/>
       <use x="1185.6328125" xlink:href="#BitstreamVeraSans-Roman-73"/>
       <use x="1237.732421875" xlink:href="#BitstreamVeraSans-Roman-65"/>
       <use x="1299.255859375" xlink:href="#BitstreamVeraSans-Roman-6c"/>
       <use x="1327.0390625" xlink:href="#BitstreamVeraSans-Roman-66"/>
       <use x="1362.244140625" xlink:href="#BitstreamVeraSans-Roman-5f"/>
       <use x="1412.244140625" xlink:href="#BitstreamVeraSans-Roman-65"/>
       <use x="1473.767578125" xlink:href="#BitstreamVeraSans-Roman-6d"/>
       <use x="1571.1796875" xlink:href="#BitstreamVeraSans-Roman-70"/>
       <use x="1634.65625" xlink:href="#BitstreamVeraSans-Roman-6c"/>
       <use x="1662.439453125" xlink:href="#BitstreamVeraSans-Roman-6f"/>
       <use x="1723.62109375" xlink:href="#BitstreamVeraSans-Roman-79"/>
       <use x="1782.80078125" xlink:href="#BitstreamVeraSans-Roman-65"/>
       <use x="1844.32421875" xlink:href="#BitstreamVeraSans-Roman-64"/>
       <use x="1907.80078125" xlink:href="#BitstreamVeraSans-Roman-5f"/>
       <use x="1957.80078125" xlink:href="#BitstreamVeraSans-Roman-77"/>
       <use x="2039.587890625" xlink:href="#BitstreamVeraSans-Roman-69"/>
       <use x="2067.37109375" xlink:href="#BitstreamVeraSans-Roman-74"/>
       <use x="2106.580078125" xlink:href="#BitstreamVeraSans-Roman-68"/>
       <use x="2169.958984375" xlink:href="#BitstreamVeraSans-Roman-6f"/>
       <use x="2231.140625" xlink:href="#BitstreamVeraSans-Roman-75"/>
       <use x="2294.51953125" xlink:href="#BitstreamVeraSans-Roman-74"/>
       <use x="2333.728515625" xlink:href="#BitstreamVeraSans-Roman-5f"/>
       <use x="2383.728515625" xlink:href="#BitstreamVeraSans-Roman-70"/>
       <use x="2447.205078125" xlink:href="#BitstreamVeraSans-Roman-61"/>
       <use x="2508.484375" xlink:href="#BitstreamVeraSans-Roman-69"/>
       <use x="2536.267578125" xlink:href="#BitstreamVeraSans-Roman-64"/>
       <use x="2599.744140625" xlink:href="#BitstreamVeraSans-Roman-5f"/>
       <use x="2649.744140625" xlink:href="#BitstreamVeraSans-Roman-68"/>
       <use x="2713.123046875" xlink:href="#BitstreamVeraSans-Roman-65"/>
       <use x="2774.646484375" xlink:href="#BitstreamVeraSans-Roman-6c"/>
       <use x="2802.4296875" xlink:href="#BitstreamVeraSans-Roman-70"/>
       <use x="2865.90625" xlink:href="#BitstreamVeraSans-Roman-5f"/>
       <use x="2915.90625" xlink:href="#BitstreamVeraSans-Roman-5f"/>
       <use x="2965.90625" xlink:href="#BitstreamVeraSans-Roman-69"/>
       <use x="2993.689453125" xlink:href="#BitstreamVeraSans-Roman-6e"/>
       <use x="3057.068359375" xlink:href="#BitstreamVeraSans-Roman-63"/>
       <use x="3112.048828125" xlink:href="#BitstreamVeraSans-Roman-6f"/>
       <use x="3173.23046875" xlink:href="#BitstreamVeraSans-Roman-72"/>
       <use x="3214.34375" xlink:href="#BitstreamVeraSans-Roman-70"/>
       <use x="3277.8203125" xlink:href="#BitstreamVeraSans-Roman-6f"/>
       <use x="3339.001953125" xlink:href="#BitstreamVeraSans-Roman-72"/>
       <use x="3380.115234375" xlink:href="#BitstreamVeraSans-Roman-61"/>
       <use x="3441.39453125" xlink:href="#BitstreamVeraSans-Roman-74"/>
       <use x="3480.603515625" xlink:href="#BitstreamVeraSans-Roman-65"/>
       <use x="3542.126953125" xlink:href="#BitstreamVeraSans-Roman-64"/>
      </g>
     </g>
    </g>
    <g id="xtick_2">
     <g id="line2d_2">
      <g>
       <use style="stroke:#000000;stroke-width:0.5;" x="2073.3648785" xlink:href="#m18037b00fc" y="1068.39"/>
      </g>
     </g>
     <g id="text_2">
      <!-- Unpaid_family_workers_in_a_family_business -->
      <defs>
       <path d="M 48.6875 27.296875 
Q 48.6875 37.203125 44.609375 42.84375 
Q 40.53125 48.484375 33.40625 48.484375 
Q 26.265625 48.484375 22.1875 42.84375 
Q 18.109375 37.203125 18.109375 27.296875 
Q 18.109375 17.390625 22.1875 11.75 
Q 26.265625 6.109375 33.40625 6.109375 
Q 40.53125 6.109375 44.609375 11.75 
Q 48.6875 17.390625 48.6875 27.296875 
M 18.109375 46.390625 
Q 20.953125 51.265625 25.265625 53.625 
Q 29.59375 56 35.59375 56 
Q 45.5625 56 51.78125 48.09375 
Q 58.015625 40.1875 58.015625 27.296875 
Q 58.015625 14.40625 51.78125 6.484375 
Q 45.5625 -1.421875 35.59375 -1.421875 
Q 29.59375 -1.421875 25.265625 0.953125 
Q 20.953125 3.328125 18.109375 8.203125 
L 18.109375 0 
L 9.078125 0 
L 9.078125 75.984375 
L 18.109375 75.984375 
z
" id="BitstreamVeraSans-Roman-62"/>
       <path d="M 8.6875 72.90625 
L 18.609375 72.90625 
L 18.609375 28.609375 
Q 18.609375 16.890625 22.84375 11.734375 
Q 27.09375 6.59375 36.625 6.59375 
Q 46.09375 6.59375 50.34375 11.734375 
Q 54.59375 16.890625 54.59375 28.609375 
L 54.59375 72.90625 
L 64.5 72.90625 
L 64.5 27.390625 
Q 64.5 13.140625 57.4375 5.859375 
Q 50.390625 -1.421875 36.625 -1.421875 
Q 22.796875 -1.421875 15.734375 5.859375 
Q 8.6875 13.140625 8.6875 27.390625 
z
" id="BitstreamVeraSans-Roman-55"/>
      </defs>
      <g transform="translate(2076.5092535 1342.9675)rotate(-90.0)scale(0.12 -0.12)">
       <use xlink:href="#BitstreamVeraSans-Roman-55"/>
       <use x="73.193359375" xlink:href="#BitstreamVeraSans-Roman-6e"/>
       <use x="136.572265625" xlink:href="#BitstreamVeraSans-Roman-70"/>
       <use x="200.048828125" xlink:href="#BitstreamVeraSans-Roman-61"/>
       <use x="261.328125" xlink:href="#BitstreamVeraSans-Roman-69"/>
       <use x="289.111328125" xlink:href="#BitstreamVeraSans-Roman-64"/>
       <use x="352.587890625" xlink:href="#BitstreamVeraSans-Roman-5f"/>
       <use x="402.587890625" xlink:href="#BitstreamVeraSans-Roman-66"/>
       <use x="437.79296875" xlink:href="#BitstreamVeraSans-Roman-61"/>
       <use x="499.072265625" xlink:href="#BitstreamVeraSans-Roman-6d"/>
       <use x="596.484375" xlink:href="#BitstreamVeraSans-Roman-69"/>
       <use x="624.267578125" xlink:href="#BitstreamVeraSans-Roman-6c"/>
       <use x="652.05078125" xlink:href="#BitstreamVeraSans-Roman-79"/>
       <use x="711.23046875" xlink:href="#BitstreamVeraSans-Roman-5f"/>
       <use x="761.23046875" xlink:href="#BitstreamVeraSans-Roman-77"/>
       <use x="843.017578125" xlink:href="#BitstreamVeraSans-Roman-6f"/>
       <use x="904.19921875" xlink:href="#BitstreamVeraSans-Roman-72"/>
       <use x="945.3125" xlink:href="#BitstreamVeraSans-Roman-6b"/>
       <use x="1003.17578125" xlink:href="#BitstreamVeraSans-Roman-65"/>
       <use x="1064.69921875" xlink:href="#BitstreamVeraSans-Roman-72"/>
       <use x="1105.8125" xlink:href="#BitstreamVeraSans-Roman-73"/>
       <use x="1157.912109375" xlink:href="#BitstreamVeraSans-Roman-5f"/>
       <use x="1207.912109375" xlink:href="#BitstreamVeraSans-Roman-69"/>
       <use x="1235.6953125" xlink:href="#BitstreamVeraSans-Roman-6e"/>
       <use x="1299.07421875" xlink:href="#BitstreamVeraSans-Roman-5f"/>
       <use x="1349.07421875" xlink:href="#BitstreamVeraSans-Roman-61"/>
       <use x="1410.353515625" xlink:href="#BitstreamVeraSans-Roman-5f"/>
       <use x="1460.353515625" xlink:href="#BitstreamVeraSans-Roman-66"/>
       <use x="1495.55859375" xlink:href="#BitstreamVeraSans-Roman-61"/>
       <use x="1556.837890625" xlink:href="#BitstreamVeraSans-Roman-6d"/>
       <use x="1654.25" xlink:href="#BitstreamVeraSans-Roman-69"/>
       <use x="1682.033203125" xlink:href="#BitstreamVeraSans-Roman-6c"/>
       <use x="1709.81640625" xlink:href="#BitstreamVeraSans-Roman-79"/>
       <use x="1768.99609375" xlink:href="#BitstreamVeraSans-Roman-5f"/>
       <use x="1818.99609375" xlink:href="#BitstreamVeraSans-Roman-62"/>
       <use x="1882.47265625" xlink:href="#BitstreamVeraSans-Roman-75"/>
       <use x="1945.8515625" xlink:href="#BitstreamVeraSans-Roman-73"/>
       <use x="1997.951171875" xlink:href="#BitstreamVeraSans-Roman-69"/>
       <use x="2025.734375" xlink:href="#BitstreamVeraSans-Roman-6e"/>
       <use x="2089.11328125" xlink:href="#BitstreamVeraSans-Roman-65"/>
       <use x="2150.63671875" xlink:href="#BitstreamVeraSans-Roman-73"/>
       <use x="2202.736328125" xlink:href="#BitstreamVeraSans-Roman-73"/>
      </g>
     </g>
    </g>
    <g id="xtick_3">
     <g id="line2d_3">
      <g>
       <use style="stroke:#000000;stroke-width:0.5;" x="310.806785476" xlink:href="#m18037b00fc" y="1068.39"/>
      </g>
     </g>
     <g id="text_3">
      <!-- Paid_worker_Originally_self_employed_with_paid_help__incorporated -->
      <g transform="translate(313.951160476 1485.41875)rotate(-90.0)scale(0.12 -0.12)">
       <use xlink:href="#BitstreamVeraSans-Roman-50"/>
       <use x="60.240234375" xlink:href="#BitstreamVeraSans-Roman-61"/>
       <use x="121.51953125" xlink:href="#BitstreamVeraSans-Roman-69"/>
       <use x="149.302734375" xlink:href="#BitstreamVeraSans-Roman-64"/>
       <use x="212.779296875" xlink:href="#BitstreamVeraSans-Roman-5f"/>
       <use x="262.779296875" xlink:href="#BitstreamVeraSans-Roman-77"/>
       <use x="344.56640625" xlink:href="#BitstreamVeraSans-Roman-6f"/>
       <use x="405.748046875" xlink:href="#BitstreamVeraSans-Roman-72"/>
       <use x="446.861328125" xlink:href="#BitstreamVeraSans-Roman-6b"/>
       <use x="504.724609375" xlink:href="#BitstreamVeraSans-Roman-65"/>
       <use x="566.248046875" xlink:href="#BitstreamVeraSans-Roman-72"/>
       <use x="607.361328125" xlink:href="#BitstreamVeraSans-Roman-5f"/>
       <use x="657.361328125" xlink:href="#BitstreamVeraSans-Roman-4f"/>
       <use x="736.072265625" xlink:href="#BitstreamVeraSans-Roman-72"/>
       <use x="777.185546875" xlink:href="#BitstreamVeraSans-Roman-69"/>
       <use x="804.96875" xlink:href="#BitstreamVeraSans-Roman-67"/>
       <use x="868.4453125" xlink:href="#BitstreamVeraSans-Roman-69"/>
       <use x="896.228515625" xlink:href="#BitstreamVeraSans-Roman-6e"/>
       <use x="959.607421875" xlink:href="#BitstreamVeraSans-Roman-61"/>
       <use x="1020.88671875" xlink:href="#BitstreamVeraSans-Roman-6c"/>
       <use x="1048.669921875" xlink:href="#BitstreamVeraSans-Roman-6c"/>
       <use x="1076.453125" xlink:href="#BitstreamVeraSans-Roman-79"/>
       <use x="1135.6328125" xlink:href="#BitstreamVeraSans-Roman-5f"/>
       <use x="1185.6328125" xlink:href="#BitstreamVeraSans-Roman-73"/>
       <use x="1237.732421875" xlink:href="#BitstreamVeraSans-Roman-65"/>
       <use x="1299.255859375" xlink:href="#BitstreamVeraSans-Roman-6c"/>
       <use x="1327.0390625" xlink:href="#BitstreamVeraSans-Roman-66"/>
       <use x="1362.244140625" xlink:href="#BitstreamVeraSans-Roman-5f"/>
       <use x="1412.244140625" xlink:href="#BitstreamVeraSans-Roman-65"/>
       <use x="1473.767578125" xlink:href="#BitstreamVeraSans-Roman-6d"/>
       <use x="1571.1796875" xlink:href="#BitstreamVeraSans-Roman-70"/>
       <use x="1634.65625" xlink:href="#BitstreamVeraSans-Roman-6c"/>
       <use x="1662.439453125" xlink:href="#BitstreamVeraSans-Roman-6f"/>
       <use x="1723.62109375" xlink:href="#BitstreamVeraSans-Roman-79"/>
       <use x="1782.80078125" xlink:href="#BitstreamVeraSans-Roman-65"/>
       <use x="1844.32421875" xlink:href="#BitstreamVeraSans-Roman-64"/>
       <use x="1907.80078125" xlink:href="#BitstreamVeraSans-Roman-5f"/>
       <use x="1957.80078125" xlink:href="#BitstreamVeraSans-Roman-77"/>
       <use x="2039.587890625" xlink:href="#BitstreamVeraSans-Roman-69"/>
       <use x="2067.37109375" xlink:href="#BitstreamVeraSans-Roman-74"/>
       <use x="2106.580078125" xlink:href="#BitstreamVeraSans-Roman-68"/>
       <use x="2169.958984375" xlink:href="#BitstreamVeraSans-Roman-5f"/>
       <use x="2219.958984375" xlink:href="#BitstreamVeraSans-Roman-70"/>
       <use x="2283.435546875" xlink:href="#BitstreamVeraSans-Roman-61"/>
       <use x="2344.71484375" xlink:href="#BitstreamVeraSans-Roman-69"/>
       <use x="2372.498046875" xlink:href="#BitstreamVeraSans-Roman-64"/>
       <use x="2435.974609375" xlink:href="#BitstreamVeraSans-Roman-5f"/>
       <use x="2485.974609375" xlink:href="#BitstreamVeraSans-Roman-68"/>
       <use x="2549.353515625" xlink:href="#BitstreamVeraSans-Roman-65"/>
       <use x="2610.876953125" xlink:href="#BitstreamVeraSans-Roman-6c"/>
       <use x="2638.66015625" xlink:href="#BitstreamVeraSans-Roman-70"/>
       <use x="2702.13671875" xlink:href="#BitstreamVeraSans-Roman-5f"/>
       <use x="2752.13671875" xlink:href="#BitstreamVeraSans-Roman-5f"/>
       <use x="2802.13671875" xlink:href="#BitstreamVeraSans-Roman-69"/>
       <use x="2829.919921875" xlink:href="#BitstreamVeraSans-Roman-6e"/>
       <use x="2893.298828125" xlink:href="#BitstreamVeraSans-Roman-63"/>
       <use x="2948.279296875" xlink:href="#BitstreamVeraSans-Roman-6f"/>
       <use x="3009.4609375" xlink:href="#BitstreamVeraSans-Roman-72"/>
       <use x="3050.57421875" xlink:href="#BitstreamVeraSans-Roman-70"/>
       <use x="3114.05078125" xlink:href="#BitstreamVeraSans-Roman-6f"/>
       <use x="3175.232421875" xlink:href="#BitstreamVeraSans-Roman-72"/>
       <use x="3216.345703125" xlink:href="#BitstreamVeraSans-Roman-61"/>
       <use x="3277.625" xlink:href="#BitstreamVeraSans-Roman-74"/>
       <use x="3316.833984375" xlink:href="#BitstreamVeraSans-Roman-65"/>
       <use x="3378.357421875" xlink:href="#BitstreamVeraSans-Roman-64"/>
      </g>
     </g>
    </g>
    <g id="xtick_4">
     <g id="line2d_4">
      <g>
       <use style="stroke:#000000;stroke-width:0.5;" x="1196.79968217" xlink:href="#m18037b00fc" y="1068.39"/>
      </g>
     </g>
     <g id="text_4">
      <!-- Paid_worker_Working_for_wages__salary__tips_or_commission -->
      <defs>
       <path d="M 3.328125 72.90625 
L 13.28125 72.90625 
L 28.609375 11.28125 
L 43.890625 72.90625 
L 54.984375 72.90625 
L 70.3125 11.28125 
L 85.59375 72.90625 
L 95.609375 72.90625 
L 77.296875 0 
L 64.890625 0 
L 49.515625 63.28125 
L 33.984375 0 
L 21.578125 0 
z
" id="BitstreamVeraSans-Roman-57"/>
      </defs>
      <g transform="translate(1199.94405717 1445.7775)rotate(-90.0)scale(0.12 -0.12)">
       <use xlink:href="#BitstreamVeraSans-Roman-50"/>
       <use x="60.240234375" xlink:href="#BitstreamVeraSans-Roman-61"/>
       <use x="121.51953125" xlink:href="#BitstreamVeraSans-Roman-69"/>
       <use x="149.302734375" xlink:href="#BitstreamVeraSans-Roman-64"/>
       <use x="212.779296875" xlink:href="#BitstreamVeraSans-Roman-5f"/>
       <use x="262.779296875" xlink:href="#BitstreamVeraSans-Roman-77"/>
       <use x="344.56640625" xlink:href="#BitstreamVeraSans-Roman-6f"/>
       <use x="405.748046875" xlink:href="#BitstreamVeraSans-Roman-72"/>
       <use x="446.861328125" xlink:href="#BitstreamVeraSans-Roman-6b"/>
       <use x="504.724609375" xlink:href="#BitstreamVeraSans-Roman-65"/>
       <use x="566.248046875" xlink:href="#BitstreamVeraSans-Roman-72"/>
       <use x="607.361328125" xlink:href="#BitstreamVeraSans-Roman-5f"/>
       <use x="657.361328125" xlink:href="#BitstreamVeraSans-Roman-57"/>
       <use x="756.16015625" xlink:href="#BitstreamVeraSans-Roman-6f"/>
       <use x="817.341796875" xlink:href="#BitstreamVeraSans-Roman-72"/>
       <use x="858.455078125" xlink:href="#BitstreamVeraSans-Roman-6b"/>
       <use x="916.365234375" xlink:href="#BitstreamVeraSans-Roman-69"/>
       <use x="944.1484375" xlink:href="#BitstreamVeraSans-Roman-6e"/>
       <use x="1007.52734375" xlink:href="#BitstreamVeraSans-Roman-67"/>
       <use x="1071.00390625" xlink:href="#BitstreamVeraSans-Roman-5f"/>
       <use x="1121.00390625" xlink:href="#BitstreamVeraSans-Roman-66"/>
       <use x="1156.208984375" xlink:href="#BitstreamVeraSans-Roman-6f"/>
       <use x="1217.390625" xlink:href="#BitstreamVeraSans-Roman-72"/>
       <use x="1258.50390625" xlink:href="#BitstreamVeraSans-Roman-5f"/>
       <use x="1308.50390625" xlink:href="#BitstreamVeraSans-Roman-77"/>
       <use x="1390.291015625" xlink:href="#BitstreamVeraSans-Roman-61"/>
       <use x="1451.5703125" xlink:href="#BitstreamVeraSans-Roman-67"/>
       <use x="1515.046875" xlink:href="#BitstreamVeraSans-Roman-65"/>
       <use x="1576.5703125" xlink:href="#BitstreamVeraSans-Roman-73"/>
       <use x="1628.669921875" xlink:href="#BitstreamVeraSans-Roman-5f"/>
       <use x="1678.669921875" xlink:href="#BitstreamVeraSans-Roman-5f"/>
       <use x="1728.669921875" xlink:href="#BitstreamVeraSans-Roman-73"/>
       <use x="1780.76953125" xlink:href="#BitstreamVeraSans-Roman-61"/>
       <use x="1842.048828125" xlink:href="#BitstreamVeraSans-Roman-6c"/>
       <use x="1869.83203125" xlink:href="#BitstreamVeraSans-Roman-61"/>
       <use x="1931.111328125" xlink:href="#BitstreamVeraSans-Roman-72"/>
       <use x="1972.224609375" xlink:href="#BitstreamVeraSans-Roman-79"/>
       <use x="2031.404296875" xlink:href="#BitstreamVeraSans-Roman-5f"/>
       <use x="2081.404296875" xlink:href="#BitstreamVeraSans-Roman-5f"/>
       <use x="2131.404296875" xlink:href="#BitstreamVeraSans-Roman-74"/>
       <use x="2170.61328125" xlink:href="#BitstreamVeraSans-Roman-69"/>
       <use x="2198.396484375" xlink:href="#BitstreamVeraSans-Roman-70"/>
       <use x="2261.873046875" xlink:href="#BitstreamVeraSans-Roman-73"/>
       <use x="2313.97265625" xlink:href="#BitstreamVeraSans-Roman-5f"/>
       <use x="2363.97265625" xlink:href="#BitstreamVeraSans-Roman-6f"/>
       <use x="2425.154296875" xlink:href="#BitstreamVeraSans-Roman-72"/>
       <use x="2466.267578125" xlink:href="#BitstreamVeraSans-Roman-5f"/>
       <use x="2516.267578125" xlink:href="#BitstreamVeraSans-Roman-63"/>
       <use x="2571.248046875" xlink:href="#BitstreamVeraSans-Roman-6f"/>
       <use x="2632.4296875" xlink:href="#BitstreamVeraSans-Roman-6d"/>
       <use x="2729.841796875" xlink:href="#BitstreamVeraSans-Roman-6d"/>
       <use x="2827.25390625" xlink:href="#BitstreamVeraSans-Roman-69"/>
       <use x="2855.037109375" xlink:href="#BitstreamVeraSans-Roman-73"/>
       <use x="2907.13671875" xlink:href="#BitstreamVeraSans-Roman-73"/>
       <use x="2959.236328125" xlink:href="#BitstreamVeraSans-Roman-69"/>
       <use x="2987.01953125" xlink:href="#BitstreamVeraSans-Roman-6f"/>
       <use x="3048.201171875" xlink:href="#BitstreamVeraSans-Roman-6e"/>
      </g>
     </g>
    </g>
    <g id="xtick_5">
     <g id="line2d_5">
      <g>
       <use style="stroke:#000000;stroke-width:0.5;" x="2036.37892304" xlink:href="#m18037b00fc" y="1068.39"/>
      </g>
     </g>
     <g id="text_5">
      <!-- Self_employed_with_paid_help__not_incorporated -->
      <defs>
       <path d="M 53.515625 70.515625 
L 53.515625 60.890625 
Q 47.90625 63.578125 42.921875 64.890625 
Q 37.9375 66.21875 33.296875 66.21875 
Q 25.25 66.21875 20.875 63.09375 
Q 16.5 59.96875 16.5 54.203125 
Q 16.5 49.359375 19.40625 46.890625 
Q 22.3125 44.4375 30.421875 42.921875 
L 36.375 41.703125 
Q 47.40625 39.59375 52.65625 34.296875 
Q 57.90625 29 57.90625 20.125 
Q 57.90625 9.515625 50.796875 4.046875 
Q 43.703125 -1.421875 29.984375 -1.421875 
Q 24.8125 -1.421875 18.96875 -0.25 
Q 13.140625 0.921875 6.890625 3.21875 
L 6.890625 13.375 
Q 12.890625 10.015625 18.65625 8.296875 
Q 24.421875 6.59375 29.984375 6.59375 
Q 38.421875 6.59375 43.015625 9.90625 
Q 47.609375 13.234375 47.609375 19.390625 
Q 47.609375 24.75 44.3125 27.78125 
Q 41.015625 30.8125 33.5 32.328125 
L 27.484375 33.5 
Q 16.453125 35.6875 11.515625 40.375 
Q 6.59375 45.0625 6.59375 53.421875 
Q 6.59375 63.09375 13.40625 68.65625 
Q 20.21875 74.21875 32.171875 74.21875 
Q 37.3125 74.21875 42.625 73.28125 
Q 47.953125 72.359375 53.515625 70.515625 
" id="BitstreamVeraSans-Roman-53"/>
      </defs>
      <g transform="translate(2039.52329804 1370.160625)rotate(-90.0)scale(0.12 -0.12)">
       <use xlink:href="#BitstreamVeraSans-Roman-53"/>
       <use x="63.4765625" xlink:href="#BitstreamVeraSans-Roman-65"/>
       <use x="125.0" xlink:href="#BitstreamVeraSans-Roman-6c"/>
       <use x="152.783203125" xlink:href="#BitstreamVeraSans-Roman-66"/>
       <use x="187.98828125" xlink:href="#BitstreamVeraSans-Roman-5f"/>
       <use x="237.98828125" xlink:href="#BitstreamVeraSans-Roman-65"/>
       <use x="299.51171875" xlink:href="#BitstreamVeraSans-Roman-6d"/>
       <use x="396.923828125" xlink:href="#BitstreamVeraSans-Roman-70"/>
       <use x="460.400390625" xlink:href="#BitstreamVeraSans-Roman-6c"/>
       <use x="488.18359375" xlink:href="#BitstreamVeraSans-Roman-6f"/>
       <use x="549.365234375" xlink:href="#BitstreamVeraSans-Roman-79"/>
       <use x="608.544921875" xlink:href="#BitstreamVeraSans-Roman-65"/>
       <use x="670.068359375" xlink:href="#BitstreamVeraSans-Roman-64"/>
       <use x="733.544921875" xlink:href="#BitstreamVeraSans-Roman-5f"/>
       <use x="783.544921875" xlink:href="#BitstreamVeraSans-Roman-77"/>
       <use x="865.33203125" xlink:href="#BitstreamVeraSans-Roman-69"/>
       <use x="893.115234375" xlink:href="#BitstreamVeraSans-Roman-74"/>
       <use x="932.32421875" xlink:href="#BitstreamVeraSans-Roman-68"/>
       <use x="995.703125" xlink:href="#BitstreamVeraSans-Roman-5f"/>
       <use x="1045.703125" xlink:href="#BitstreamVeraSans-Roman-70"/>
       <use x="1109.1796875" xlink:href="#BitstreamVeraSans-Roman-61"/>
       <use x="1170.458984375" xlink:href="#BitstreamVeraSans-Roman-69"/>
       <use x="1198.2421875" xlink:href="#BitstreamVeraSans-Roman-64"/>
       <use x="1261.71875" xlink:href="#BitstreamVeraSans-Roman-5f"/>
       <use x="1311.71875" xlink:href="#BitstreamVeraSans-Roman-68"/>
       <use x="1375.09765625" xlink:href="#BitstreamVeraSans-Roman-65"/>
       <use x="1436.62109375" xlink:href="#BitstreamVeraSans-Roman-6c"/>
       <use x="1464.404296875" xlink:href="#BitstreamVeraSans-Roman-70"/>
       <use x="1527.880859375" xlink:href="#BitstreamVeraSans-Roman-5f"/>
       <use x="1577.880859375" xlink:href="#BitstreamVeraSans-Roman-5f"/>
       <use x="1627.880859375" xlink:href="#BitstreamVeraSans-Roman-6e"/>
       <use x="1691.259765625" xlink:href="#BitstreamVeraSans-Roman-6f"/>
       <use x="1752.44140625" xlink:href="#BitstreamVeraSans-Roman-74"/>
       <use x="1791.650390625" xlink:href="#BitstreamVeraSans-Roman-5f"/>
       <use x="1841.650390625" xlink:href="#BitstreamVeraSans-Roman-69"/>
       <use x="1869.43359375" xlink:href="#BitstreamVeraSans-Roman-6e"/>
       <use x="1932.8125" xlink:href="#BitstreamVeraSans-Roman-63"/>
       <use x="1987.79296875" xlink:href="#BitstreamVeraSans-Roman-6f"/>
       <use x="2048.974609375" xlink:href="#BitstreamVeraSans-Roman-72"/>
       <use x="2090.087890625" xlink:href="#BitstreamVeraSans-Roman-70"/>
       <use x="2153.564453125" xlink:href="#BitstreamVeraSans-Roman-6f"/>
       <use x="2214.74609375" xlink:href="#BitstreamVeraSans-Roman-72"/>
       <use x="2255.859375" xlink:href="#BitstreamVeraSans-Roman-61"/>
       <use x="2317.138671875" xlink:href="#BitstreamVeraSans-Roman-74"/>
       <use x="2356.34765625" xlink:href="#BitstreamVeraSans-Roman-65"/>
       <use x="2417.87109375" xlink:href="#BitstreamVeraSans-Roman-64"/>
      </g>
     </g>
    </g>
    <g id="xtick_6">
     <g id="line2d_6">
      <g>
       <use style="stroke:#000000;stroke-width:0.5;" x="2057.02998025" xlink:href="#m18037b00fc" y="1068.39"/>
      </g>
     </g>
     <g id="text_6">
      <!-- Self_employed_without_paid_help__not_incorporated -->
      <g transform="translate(2060.17435525 1389.8125)rotate(-90.0)scale(0.12 -0.12)">
       <use xlink:href="#BitstreamVeraSans-Roman-53"/>
       <use x="63.4765625" xlink:href="#BitstreamVeraSans-Roman-65"/>
       <use x="125.0" xlink:href="#BitstreamVeraSans-Roman-6c"/>
       <use x="152.783203125" xlink:href="#BitstreamVeraSans-Roman-66"/>
       <use x="187.98828125" xlink:href="#BitstreamVeraSans-Roman-5f"/>
       <use x="237.98828125" xlink:href="#BitstreamVeraSans-Roman-65"/>
       <use x="299.51171875" xlink:href="#BitstreamVeraSans-Roman-6d"/>
       <use x="396.923828125" xlink:href="#BitstreamVeraSans-Roman-70"/>
       <use x="460.400390625" xlink:href="#BitstreamVeraSans-Roman-6c"/>
       <use x="488.18359375" xlink:href="#BitstreamVeraSans-Roman-6f"/>
       <use x="549.365234375" xlink:href="#BitstreamVeraSans-Roman-79"/>
       <use x="608.544921875" xlink:href="#BitstreamVeraSans-Roman-65"/>
       <use x="670.068359375" xlink:href="#BitstreamVeraSans-Roman-64"/>
       <use x="733.544921875" xlink:href="#BitstreamVeraSans-Roman-5f"/>
       <use x="783.544921875" xlink:href="#BitstreamVeraSans-Roman-77"/>
       <use x="865.33203125" xlink:href="#BitstreamVeraSans-Roman-69"/>
       <use x="893.115234375" xlink:href="#BitstreamVeraSans-Roman-74"/>
       <use x="932.32421875" xlink:href="#BitstreamVeraSans-Roman-68"/>
       <use x="995.703125" xlink:href="#BitstreamVeraSans-Roman-6f"/>
       <use x="1056.884765625" xlink:href="#BitstreamVeraSans-Roman-75"/>
       <use x="1120.263671875" xlink:href="#BitstreamVeraSans-Roman-74"/>
       <use x="1159.47265625" xlink:href="#BitstreamVeraSans-Roman-5f"/>
       <use x="1209.47265625" xlink:href="#BitstreamVeraSans-Roman-70"/>
       <use x="1272.94921875" xlink:href="#BitstreamVeraSans-Roman-61"/>
       <use x="1334.228515625" xlink:href="#BitstreamVeraSans-Roman-69"/>
       <use x="1362.01171875" xlink:href="#BitstreamVeraSans-Roman-64"/>
       <use x="1425.48828125" xlink:href="#BitstreamVeraSans-Roman-5f"/>
       <use x="1475.48828125" xlink:href="#BitstreamVeraSans-Roman-68"/>
       <use x="1538.8671875" xlink:href="#BitstreamVeraSans-Roman-65"/>
       <use x="1600.390625" xlink:href="#BitstreamVeraSans-Roman-6c"/>
       <use x="1628.173828125" xlink:href="#BitstreamVeraSans-Roman-70"/>
       <use x="1691.650390625" xlink:href="#BitstreamVeraSans-Roman-5f"/>
       <use x="1741.650390625" xlink:href="#BitstreamVeraSans-Roman-5f"/>
       <use x="1791.650390625" xlink:href="#BitstreamVeraSans-Roman-6e"/>
       <use x="1855.029296875" xlink:href="#BitstreamVeraSans-Roman-6f"/>
       <use x="1916.2109375" xlink:href="#BitstreamVeraSans-Roman-74"/>
       <use x="1955.419921875" xlink:href="#BitstreamVeraSans-Roman-5f"/>
       <use x="2005.419921875" xlink:href="#BitstreamVeraSans-Roman-69"/>
       <use x="2033.203125" xlink:href="#BitstreamVeraSans-Roman-6e"/>
       <use x="2096.58203125" xlink:href="#BitstreamVeraSans-Roman-63"/>
       <use x="2151.5625" xlink:href="#BitstreamVeraSans-Roman-6f"/>
       <use x="2212.744140625" xlink:href="#BitstreamVeraSans-Roman-72"/>
       <use x="2253.857421875" xlink:href="#BitstreamVeraSans-Roman-70"/>
       <use x="2317.333984375" xlink:href="#BitstreamVeraSans-Roman-6f"/>
       <use x="2378.515625" xlink:href="#BitstreamVeraSans-Roman-72"/>
       <use x="2419.62890625" xlink:href="#BitstreamVeraSans-Roman-61"/>
       <use x="2480.908203125" xlink:href="#BitstreamVeraSans-Roman-74"/>
       <use x="2520.1171875" xlink:href="#BitstreamVeraSans-Roman-65"/>
       <use x="2581.640625" xlink:href="#BitstreamVeraSans-Roman-64"/>
      </g>
     </g>
    </g>
   </g>
   <g id="matplotlib.axis_2">
    <g id="ytick_1">
     <g id="line2d_7">
      <defs>
       <path d="M 0 0 
L 4 0 
" id="mfde567507a" style="stroke:#000000;stroke-width:0.5;"/>
      </defs>
      <g>
       <use style="stroke:#000000;stroke-width:0.5;" x="288.0" xlink:href="#mfde567507a" y="319.445770309"/>
      </g>
     </g>
     <g id="text_7">
      <!-- False -->
      <defs>
       <path d="M 9.8125 72.90625 
L 51.703125 72.90625 
L 51.703125 64.59375 
L 19.671875 64.59375 
L 19.671875 43.109375 
L 48.578125 43.109375 
L 48.578125 34.8125 
L 19.671875 34.8125 
L 19.671875 0 
L 9.8125 0 
z
" id="BitstreamVeraSans-Roman-46"/>
      </defs>
      <g transform="translate(281.504375 335.049520309)rotate(-90.0)scale(0.12 -0.12)">
       <use xlink:href="#BitstreamVeraSans-Roman-46"/>
       <use x="57.37890625" xlink:href="#BitstreamVeraSans-Roman-61"/>
       <use x="118.658203125" xlink:href="#BitstreamVeraSans-Roman-6c"/>
       <use x="146.44140625" xlink:href="#BitstreamVeraSans-Roman-73"/>
       <use x="198.541015625" xlink:href="#BitstreamVeraSans-Roman-65"/>
      </g>
     </g>
    </g>
    <g id="ytick_2">
     <g id="line2d_8">
      <g>
       <use style="stroke:#000000;stroke-width:0.5;" x="288.0" xlink:href="#mfde567507a" y="795.863311837"/>
      </g>
     </g>
     <g id="text_8">
      <!-- True -->
      <defs>
       <path d="M -0.296875 72.90625 
L 61.375 72.90625 
L 61.375 64.59375 
L 35.5 64.59375 
L 35.5 0 
L 25.59375 0 
L 25.59375 64.59375 
L -0.296875 64.59375 
z
" id="BitstreamVeraSans-Roman-54"/>
      </defs>
      <g transform="translate(281.504375 809.475811837)rotate(-90.0)scale(0.12 -0.12)">
       <use xlink:href="#BitstreamVeraSans-Roman-54"/>
       <use x="60.865234375" xlink:href="#BitstreamVeraSans-Roman-72"/>
       <use x="101.978515625" xlink:href="#BitstreamVeraSans-Roman-75"/>
       <use x="165.357421875" xlink:href="#BitstreamVeraSans-Roman-65"/>
      </g>
     </g>
    </g>
   </g>
   <g id="text_9">
    <!-- cow -->
    <g transform="translate(1166.547375 113.71)scale(0.144 -0.144)">
     <use xlink:href="#BitstreamVeraSans-Roman-63"/>
     <use x="54.98046875" xlink:href="#BitstreamVeraSans-Roman-6f"/>
     <use x="116.162109375" xlink:href="#BitstreamVeraSans-Roman-77"/>
    </g>
   </g>
  </g>
  <g id="axes_2">
   <g id="patch_19">
    <path d="M 288 118.71 
L 2073.6 118.71 
" style="fill:none;stroke:#000000;stroke-linecap:square;stroke-linejoin:miter;"/>
   </g>
   <g id="patch_20">
    <path d="M 288 1068.39 
L 288 118.71 
" style="fill:none;stroke:#000000;stroke-linecap:square;stroke-linejoin:miter;"/>
   </g>
   <g id="patch_21">
    <path d="M 2073.6 1068.39 
L 2073.6 118.71 
" style="fill:none;stroke:#000000;stroke-linecap:square;stroke-linejoin:miter;"/>
   </g>
   <g id="patch_22">
    <path d="M 288 1068.39 
L 2073.6 1068.39 
" style="fill:none;stroke:#000000;stroke-linecap:square;stroke-linejoin:miter;"/>
   </g>
   <g id="matplotlib.axis_3"/>
  </g>
  <g id="axes_3">
   <g id="patch_23">
    <path d="M 288 118.71 
L 2073.6 118.71 
" style="fill:none;stroke:#000000;stroke-linecap:square;stroke-linejoin:miter;"/>
   </g>
   <g id="patch_24">
    <path d="M 288 1068.39 
L 288 118.71 
" style="fill:none;stroke:#000000;stroke-linecap:square;stroke-linejoin:miter;"/>
   </g>
   <g id="patch_25">
    <path d="M 2073.6 1068.39 
L 2073.6 118.71 
" style="fill:none;stroke:#000000;stroke-linecap:square;stroke-linejoin:miter;"/>
   </g>
   <g id="patch_26">
    <path d="M 288 1068.39 
L 2073.6 1068.39 
" style="fill:none;stroke:#000000;stroke-linecap:square;stroke-linejoin:miter;"/>
   </g>
   <g id="matplotlib.axis_4"/>
  </g>
 </g>
 <defs>
  <clipPath id="p75c18ff52c">
   <rect height="949.68" width="1785.6" x="288.0" y="118.71"/>
  </clipPath>
 </defs>
</svg>
