<?xml version="1.0" encoding="utf-8" standalone="no"?>
<!DOCTYPE svg PUBLIC "-//W3C//DTD SVG 1.1//EN"
  "http://www.w3.org/Graphics/SVG/1.1/DTD/svg11.dtd">
<!-- Created with matplotlib (http://matplotlib.org/) -->
<svg height="1187pt" version="1.1" viewBox="0 0 2304 1187" width="2304pt" xmlns="http://www.w3.org/2000/svg" xmlns:xlink="http://www.w3.org/1999/xlink">
 <defs>
  <style type="text/css">
*{stroke-linecap:butt;stroke-linejoin:round;stroke-miterlimit:100000;}
  </style>
 </defs>
 <g id="figure_1">
  <g id="patch_1">
   <path d="M 0 1187.1 
L 2304 1187.1 
L 2304 0 
L 0 0 
z
" style="fill:#ffffff;"/>
  </g>
  <g id="axes_1">
   <g id="patch_2">
    <path d="M 288 1068.39 
L 2073.6 1068.39 
L 2073.6 118.71 
L 288 118.71 
z
" style="fill:#ffffff;"/>
   </g>
   <g id="patch_3">
    <path clip-path="url(#p03d3f8493a)" d="M 288 1068.39 
L 359.989841 1068.39 
L 359.989841 408.911851 
L 288 408.911851 
z
" style="fill:#804040;"/>
   </g>
   <g id="patch_4">
    <path clip-path="url(#p03d3f8493a)" d="M 288 405.756768 
L 359.989841 405.756768 
L 359.989841 118.71 
L 288 118.71 
z
" style="fill:#802020;"/>
   </g>
   <g id="patch_5">
    <path clip-path="url(#p03d3f8493a)" d="M 368.452401 1068.39 
L 459.53293 1068.39 
L 459.53293 264.979922 
L 368.452401 264.979922 
z
" style="fill:#805d40;"/>
   </g>
   <g id="patch_6">
    <path clip-path="url(#p03d3f8493a)" d="M 368.452401 261.824839 
L 459.53293 261.824839 
L 459.53293 118.71 
L 368.452401 118.71 
z
" style="fill:#804c20;"/>
   </g>
   <g id="patch_7">
    <path clip-path="url(#p03d3f8493a)" d="M 467.995489 1068.39 
L 530.750006 1068.39 
L 530.750006 361.572641 
L 467.995489 361.572641 
z
" style="fill:#807b40;"/>
   </g>
   <g id="patch_8">
    <path clip-path="url(#p03d3f8493a)" d="M 467.995489 358.417558 
L 530.750006 358.417558 
L 530.750006 118.71 
L 467.995489 118.71 
z
" style="fill:#807820;"/>
   </g>
   <g id="patch_9">
    <path clip-path="url(#p03d3f8493a)" d="M 539.212566 1068.39 
L 839.899057 1068.39 
L 839.899057 781.782173 
L 539.212566 781.782173 
z
" style="fill:#678040;"/>
   </g>
   <g id="patch_10">
    <path clip-path="url(#p03d3f8493a)" d="M 539.212566 778.62709 
L 839.899057 778.62709 
L 839.899057 118.71 
L 539.212566 118.71 
z
" style="fill:#5b8020;"/>
   </g>
   <g id="patch_11">
    <path clip-path="url(#p03d3f8493a)" d="M 848.361616 1068.39 
L 854.300941 1068.39 
L 854.300941 220.678124 
L 848.361616 220.678124 
z
" style="fill:#4a8040;"/>
   </g>
   <g id="patch_12">
    <path clip-path="url(#p03d3f8493a)" d="M 848.361616 217.523041 
L 854.300941 217.523041 
L 854.300941 118.71 
L 848.361616 118.71 
z
" style="fill:#2f8020;"/>
   </g>
   <g id="patch_13">
    <path clip-path="url(#p03d3f8493a)" d="M 862.7635 1068.39 
L 877.67708 1068.39 
L 877.67708 202.640732 
L 862.7635 202.640732 
z
" style="fill:#408053;"/>
   </g>
   <g id="patch_14">
    <path clip-path="url(#p03d3f8493a)" d="M 862.7635 199.485649 
L 877.67708 199.485649 
L 877.67708 118.71 
L 862.7635 118.71 
z
" style="fill:#20803d;"/>
   </g>
   <g id="patch_15">
    <path clip-path="url(#p03d3f8493a)" d="M 886.13964 1068.39 
L 1807.452969 1068.39 
L 1807.452969 597.977308 
L 886.13964 597.977308 
z
" style="fill:#408071;"/>
   </g>
   <g id="patch_16">
    <path clip-path="url(#p03d3f8493a)" d="M 886.13964 594.822225 
L 1807.452969 594.822225 
L 1807.452969 118.71 
L 886.13964 118.71 
z
" style="fill:#208069;"/>
   </g>
   <g id="patch_17">
    <path clip-path="url(#p03d3f8493a)" d="M 1815.915528 1068.39 
L 1931.601833 1068.39 
L 1931.601833 358.162559 
L 1815.915528 358.162559 
z
" style="fill:#407180;"/>
   </g>
   <g id="patch_18">
    <path clip-path="url(#p03d3f8493a)" d="M 1815.915528 355.007476 
L 1931.601833 355.007476 
L 1931.601833 118.71 
L 1815.915528 118.71 
z
" style="fill:#206980;"/>
   </g>
   <g id="patch_19">
    <path clip-path="url(#p03d3f8493a)" d="M 1940.064392 1068.39 
L 1969.402047 1068.39 
L 1969.402047 269.266071 
L 1940.064392 269.266071 
z
" style="fill:#405380;"/>
   </g>
   <g id="patch_20">
    <path clip-path="url(#p03d3f8493a)" d="M 1940.064392 266.110988 
L 1969.402047 266.110988 
L 1969.402047 118.71 
L 1940.064392 118.71 
z
" style="fill:#203d80;"/>
   </g>
   <g id="patch_21">
    <path clip-path="url(#p03d3f8493a)" d="M 1977.864606 1068.39 
L 1994.86674 1068.39 
L 1994.86674 427.078492 
L 1977.864606 427.078492 
z
" style="fill:#4a4080;"/>
   </g>
   <g id="patch_22">
    <path clip-path="url(#p03d3f8493a)" d="M 1977.864606 423.923409 
L 1994.86674 423.923409 
L 1994.86674 118.71 
L 1977.864606 118.71 
z
" style="fill:#2f2080;"/>
   </g>
   <g id="patch_23">
    <path clip-path="url(#p03d3f8493a)" d="M 2003.329299 1068.39 
L 2040.107428 1068.39 
L 2040.107428 689.612061 
L 2003.329299 689.612061 
z
" style="fill:#674080;"/>
   </g>
   <g id="patch_24">
    <path clip-path="url(#p03d3f8493a)" d="M 2003.329299 686.456978 
L 2040.107428 686.456978 
L 2040.107428 118.71 
L 2003.329299 118.71 
z
" style="fill:#5b2080;"/>
   </g>
   <g id="patch_25">
    <path clip-path="url(#p03d3f8493a)" d="M 2048.569987 1068.39 
L 2073.6 1068.39 
L 2073.6 464.934088 
L 2048.569987 464.934088 
z
" style="fill:#80407b;"/>
   </g>
   <g id="patch_26">
    <path clip-path="url(#p03d3f8493a)" d="M 2048.569987 461.779005 
L 2073.6 461.779005 
L 2073.6 118.71 
L 2048.569987 118.71 
z
" style="fill:#802078;"/>
   </g>
   <g id="patch_27">
    <path d="M 288 118.71 
L 2073.6 118.71 
" style="fill:none;stroke:#000000;stroke-linecap:square;stroke-linejoin:miter;"/>
   </g>
   <g id="patch_28">
    <path d="M 288 1068.39 
L 288 118.71 
" style="fill:none;stroke:#000000;stroke-linecap:square;stroke-linejoin:miter;"/>
   </g>
   <g id="patch_29">
    <path d="M 2073.6 1068.39 
L 2073.6 118.71 
" style="fill:none;stroke:#000000;stroke-linecap:square;stroke-linejoin:miter;"/>
   </g>
   <g id="patch_30">
    <path d="M 288 1068.39 
L 2073.6 1068.39 
" style="fill:none;stroke:#000000;stroke-linecap:square;stroke-linejoin:miter;"/>
   </g>
   <g id="matplotlib.axis_1">
    <g id="xtick_1">
     <g id="line2d_1">
      <defs>
       <path d="M 0 0 
L 0 -4 
" id="m3cbae9036f" style="stroke:#000000;stroke-width:0.5;"/>
      </defs>
      <g>
       <use style="stroke:#000000;stroke-width:0.5;" x="2061.08499356" xlink:href="#m3cbae9036f" y="1068.39"/>
      </g>
     </g>
     <g id="text_1">
      <!-- Supervisors -->
      <defs>
       <path d="M 2.984375 54.6875 
L 12.5 54.6875 
L 29.59375 8.796875 
L 46.6875 54.6875 
L 56.203125 54.6875 
L 35.6875 0 
L 23.484375 0 
z
" id="BitstreamVeraSans-Roman-76"/>
       <path d="M 56.203125 29.59375 
L 56.203125 25.203125 
L 14.890625 25.203125 
Q 15.484375 15.921875 20.484375 11.0625 
Q 25.484375 6.203125 34.421875 6.203125 
Q 39.59375 6.203125 44.453125 7.46875 
Q 49.3125 8.734375 54.109375 11.28125 
L 54.109375 2.78125 
Q 49.265625 0.734375 44.1875 -0.34375 
Q 39.109375 -1.421875 33.890625 -1.421875 
Q 20.796875 -1.421875 13.15625 6.1875 
Q 5.515625 13.8125 5.515625 26.8125 
Q 5.515625 40.234375 12.765625 48.109375 
Q 20.015625 56 32.328125 56 
Q 43.359375 56 49.78125 48.890625 
Q 56.203125 41.796875 56.203125 29.59375 
M 47.21875 32.234375 
Q 47.125 39.59375 43.09375 43.984375 
Q 39.0625 48.390625 32.421875 48.390625 
Q 24.90625 48.390625 20.390625 44.140625 
Q 15.875 39.890625 15.1875 32.171875 
z
" id="BitstreamVeraSans-Roman-65"/>
       <path d="M 30.609375 48.390625 
Q 23.390625 48.390625 19.1875 42.75 
Q 14.984375 37.109375 14.984375 27.296875 
Q 14.984375 17.484375 19.15625 11.84375 
Q 23.34375 6.203125 30.609375 6.203125 
Q 37.796875 6.203125 41.984375 11.859375 
Q 46.1875 17.53125 46.1875 27.296875 
Q 46.1875 37.015625 41.984375 42.703125 
Q 37.796875 48.390625 30.609375 48.390625 
M 30.609375 56 
Q 42.328125 56 49.015625 48.375 
Q 55.71875 40.765625 55.71875 27.296875 
Q 55.71875 13.875 49.015625 6.21875 
Q 42.328125 -1.421875 30.609375 -1.421875 
Q 18.84375 -1.421875 12.171875 6.21875 
Q 5.515625 13.875 5.515625 27.296875 
Q 5.515625 40.765625 12.171875 48.375 
Q 18.84375 56 30.609375 56 
" id="BitstreamVeraSans-Roman-6f"/>
       <path d="M 8.5 21.578125 
L 8.5 54.6875 
L 17.484375 54.6875 
L 17.484375 21.921875 
Q 17.484375 14.15625 20.5 10.265625 
Q 23.53125 6.390625 29.59375 6.390625 
Q 36.859375 6.390625 41.078125 11.03125 
Q 45.3125 15.671875 45.3125 23.6875 
L 45.3125 54.6875 
L 54.296875 54.6875 
L 54.296875 0 
L 45.3125 0 
L 45.3125 8.40625 
Q 42.046875 3.421875 37.71875 1 
Q 33.40625 -1.421875 27.6875 -1.421875 
Q 18.265625 -1.421875 13.375 4.4375 
Q 8.5 10.296875 8.5 21.578125 
" id="BitstreamVeraSans-Roman-75"/>
       <path d="M 41.109375 46.296875 
Q 39.59375 47.171875 37.8125 47.578125 
Q 36.03125 48 33.890625 48 
Q 26.265625 48 22.1875 43.046875 
Q 18.109375 38.09375 18.109375 28.8125 
L 18.109375 0 
L 9.078125 0 
L 9.078125 54.6875 
L 18.109375 54.6875 
L 18.109375 46.1875 
Q 20.953125 51.171875 25.484375 53.578125 
Q 30.03125 56 36.53125 56 
Q 37.453125 56 38.578125 55.875 
Q 39.703125 55.765625 41.0625 55.515625 
z
" id="BitstreamVeraSans-Roman-72"/>
       <path d="M 18.109375 8.203125 
L 18.109375 -20.796875 
L 9.078125 -20.796875 
L 9.078125 54.6875 
L 18.109375 54.6875 
L 18.109375 46.390625 
Q 20.953125 51.265625 25.265625 53.625 
Q 29.59375 56 35.59375 56 
Q 45.5625 56 51.78125 48.09375 
Q 58.015625 40.1875 58.015625 27.296875 
Q 58.015625 14.40625 51.78125 6.484375 
Q 45.5625 -1.421875 35.59375 -1.421875 
Q 29.59375 -1.421875 25.265625 0.953125 
Q 20.953125 3.328125 18.109375 8.203125 
M 48.6875 27.296875 
Q 48.6875 37.203125 44.609375 42.84375 
Q 40.53125 48.484375 33.40625 48.484375 
Q 26.265625 48.484375 22.1875 42.84375 
Q 18.109375 37.203125 18.109375 27.296875 
Q 18.109375 17.390625 22.1875 11.75 
Q 26.265625 6.109375 33.40625 6.109375 
Q 40.53125 6.109375 44.609375 11.75 
Q 48.6875 17.390625 48.6875 27.296875 
" id="BitstreamVeraSans-Roman-70"/>
       <path d="M 44.28125 53.078125 
L 44.28125 44.578125 
Q 40.484375 46.53125 36.375 47.5 
Q 32.28125 48.484375 27.875 48.484375 
Q 21.1875 48.484375 17.84375 46.4375 
Q 14.5 44.390625 14.5 40.28125 
Q 14.5 37.15625 16.890625 35.375 
Q 19.28125 33.59375 26.515625 31.984375 
L 29.59375 31.296875 
Q 39.15625 29.25 43.1875 25.515625 
Q 47.21875 21.78125 47.21875 15.09375 
Q 47.21875 7.46875 41.1875 3.015625 
Q 35.15625 -1.421875 24.609375 -1.421875 
Q 20.21875 -1.421875 15.453125 -0.5625 
Q 10.6875 0.296875 5.421875 2 
L 5.421875 11.28125 
Q 10.40625 8.6875 15.234375 7.390625 
Q 20.0625 6.109375 24.8125 6.109375 
Q 31.15625 6.109375 34.5625 8.28125 
Q 37.984375 10.453125 37.984375 14.40625 
Q 37.984375 18.0625 35.515625 20.015625 
Q 33.0625 21.96875 24.703125 23.78125 
L 21.578125 24.515625 
Q 13.234375 26.265625 9.515625 29.90625 
Q 5.8125 33.546875 5.8125 39.890625 
Q 5.8125 47.609375 11.28125 51.796875 
Q 16.75 56 26.8125 56 
Q 31.78125 56 36.171875 55.265625 
Q 40.578125 54.546875 44.28125 53.078125 
" id="BitstreamVeraSans-Roman-73"/>
       <path d="M 53.515625 70.515625 
L 53.515625 60.890625 
Q 47.90625 63.578125 42.921875 64.890625 
Q 37.9375 66.21875 33.296875 66.21875 
Q 25.25 66.21875 20.875 63.09375 
Q 16.5 59.96875 16.5 54.203125 
Q 16.5 49.359375 19.40625 46.890625 
Q 22.3125 44.4375 30.421875 42.921875 
L 36.375 41.703125 
Q 47.40625 39.59375 52.65625 34.296875 
Q 57.90625 29 57.90625 20.125 
Q 57.90625 9.515625 50.796875 4.046875 
Q 43.703125 -1.421875 29.984375 -1.421875 
Q 24.8125 -1.421875 18.96875 -0.25 
Q 13.140625 0.921875 6.890625 3.21875 
L 6.890625 13.375 
Q 12.890625 10.015625 18.65625 8.296875 
Q 24.421875 6.59375 29.984375 6.59375 
Q 38.421875 6.59375 43.015625 9.90625 
Q 47.609375 13.234375 47.609375 19.390625 
Q 47.609375 24.75 44.3125 27.78125 
Q 41.015625 30.8125 33.5 32.328125 
L 27.484375 33.5 
Q 16.453125 35.6875 11.515625 40.375 
Q 6.59375 45.0625 6.59375 53.421875 
Q 6.59375 63.09375 13.40625 68.65625 
Q 20.21875 74.21875 32.171875 74.21875 
Q 37.3125 74.21875 42.625 73.28125 
Q 47.953125 72.359375 53.515625 70.515625 
" id="BitstreamVeraSans-Roman-53"/>
       <path d="M 9.421875 54.6875 
L 18.40625 54.6875 
L 18.40625 0 
L 9.421875 0 
z
M 9.421875 75.984375 
L 18.40625 75.984375 
L 18.40625 64.59375 
L 9.421875 64.59375 
z
" id="BitstreamVeraSans-Roman-69"/>
      </defs>
      <g transform="translate(2064.39624356 1142.7625)rotate(-90.0)scale(0.12 -0.12)">
       <use xlink:href="#BitstreamVeraSans-Roman-53"/>
       <use x="63.4765625" xlink:href="#BitstreamVeraSans-Roman-75"/>
       <use x="126.85546875" xlink:href="#BitstreamVeraSans-Roman-70"/>
       <use x="190.33203125" xlink:href="#BitstreamVeraSans-Roman-65"/>
       <use x="251.85546875" xlink:href="#BitstreamVeraSans-Roman-72"/>
       <use x="292.96875" xlink:href="#BitstreamVeraSans-Roman-76"/>
       <use x="352.1484375" xlink:href="#BitstreamVeraSans-Roman-69"/>
       <use x="379.931640625" xlink:href="#BitstreamVeraSans-Roman-73"/>
       <use x="432.03125" xlink:href="#BitstreamVeraSans-Roman-6f"/>
       <use x="493.212890625" xlink:href="#BitstreamVeraSans-Roman-72"/>
       <use x="534.326171875" xlink:href="#BitstreamVeraSans-Roman-73"/>
      </g>
     </g>
    </g>
    <g id="xtick_2">
     <g id="line2d_2">
      <g>
       <use style="stroke:#000000;stroke-width:0.5;" x="413.992665323" xlink:href="#m3cbae9036f" y="1068.39"/>
      </g>
     </g>
     <g id="text_2">
      <!-- Clerical_personnel -->
      <defs>
       <path d="M 34.28125 27.484375 
Q 23.390625 27.484375 19.1875 25 
Q 14.984375 22.515625 14.984375 16.5 
Q 14.984375 11.71875 18.140625 8.90625 
Q 21.296875 6.109375 26.703125 6.109375 
Q 34.1875 6.109375 38.703125 11.40625 
Q 43.21875 16.703125 43.21875 25.484375 
L 43.21875 27.484375 
z
M 52.203125 31.203125 
L 52.203125 0 
L 43.21875 0 
L 43.21875 8.296875 
Q 40.140625 3.328125 35.546875 0.953125 
Q 30.953125 -1.421875 24.3125 -1.421875 
Q 15.921875 -1.421875 10.953125 3.296875 
Q 6 8.015625 6 15.921875 
Q 6 25.140625 12.171875 29.828125 
Q 18.359375 34.515625 30.609375 34.515625 
L 43.21875 34.515625 
L 43.21875 35.40625 
Q 43.21875 41.609375 39.140625 45 
Q 35.0625 48.390625 27.6875 48.390625 
Q 23 48.390625 18.546875 47.265625 
Q 14.109375 46.140625 10.015625 43.890625 
L 10.015625 52.203125 
Q 14.9375 54.109375 19.578125 55.046875 
Q 24.21875 56 28.609375 56 
Q 40.484375 56 46.34375 49.84375 
Q 52.203125 43.703125 52.203125 31.203125 
" id="BitstreamVeraSans-Roman-61"/>
       <path d="M 48.78125 52.59375 
L 48.78125 44.1875 
Q 44.96875 46.296875 41.140625 47.34375 
Q 37.3125 48.390625 33.40625 48.390625 
Q 24.65625 48.390625 19.8125 42.84375 
Q 14.984375 37.3125 14.984375 27.296875 
Q 14.984375 17.28125 19.8125 11.734375 
Q 24.65625 6.203125 33.40625 6.203125 
Q 37.3125 6.203125 41.140625 7.25 
Q 44.96875 8.296875 48.78125 10.40625 
L 48.78125 2.09375 
Q 45.015625 0.34375 40.984375 -0.53125 
Q 36.96875 -1.421875 32.421875 -1.421875 
Q 20.0625 -1.421875 12.78125 6.34375 
Q 5.515625 14.109375 5.515625 27.296875 
Q 5.515625 40.671875 12.859375 48.328125 
Q 20.21875 56 33.015625 56 
Q 37.15625 56 41.109375 55.140625 
Q 45.0625 54.296875 48.78125 52.59375 
" id="BitstreamVeraSans-Roman-63"/>
       <path d="M 64.40625 67.28125 
L 64.40625 56.890625 
Q 59.421875 61.53125 53.78125 63.8125 
Q 48.140625 66.109375 41.796875 66.109375 
Q 29.296875 66.109375 22.65625 58.46875 
Q 16.015625 50.828125 16.015625 36.375 
Q 16.015625 21.96875 22.65625 14.328125 
Q 29.296875 6.6875 41.796875 6.6875 
Q 48.140625 6.6875 53.78125 8.984375 
Q 59.421875 11.28125 64.40625 15.921875 
L 64.40625 5.609375 
Q 59.234375 2.09375 53.4375 0.328125 
Q 47.65625 -1.421875 41.21875 -1.421875 
Q 24.65625 -1.421875 15.125 8.703125 
Q 5.609375 18.84375 5.609375 36.375 
Q 5.609375 53.953125 15.125 64.078125 
Q 24.65625 74.21875 41.21875 74.21875 
Q 47.75 74.21875 53.53125 72.484375 
Q 59.328125 70.75 64.40625 67.28125 
" id="BitstreamVeraSans-Roman-43"/>
       <path d="M 54.890625 33.015625 
L 54.890625 0 
L 45.90625 0 
L 45.90625 32.71875 
Q 45.90625 40.484375 42.875 44.328125 
Q 39.84375 48.1875 33.796875 48.1875 
Q 26.515625 48.1875 22.3125 43.546875 
Q 18.109375 38.921875 18.109375 30.90625 
L 18.109375 0 
L 9.078125 0 
L 9.078125 54.6875 
L 18.109375 54.6875 
L 18.109375 46.1875 
Q 21.34375 51.125 25.703125 53.5625 
Q 30.078125 56 35.796875 56 
Q 45.21875 56 50.046875 50.171875 
Q 54.890625 44.34375 54.890625 33.015625 
" id="BitstreamVeraSans-Roman-6e"/>
       <path d="M 50.984375 -16.609375 
L 50.984375 -23.578125 
L -0.984375 -23.578125 
L -0.984375 -16.609375 
z
" id="BitstreamVeraSans-Roman-5f"/>
       <path d="M 9.421875 75.984375 
L 18.40625 75.984375 
L 18.40625 0 
L 9.421875 0 
z
" id="BitstreamVeraSans-Roman-6c"/>
      </defs>
      <g transform="translate(417.137040323 1182.495625)rotate(-90.0)scale(0.12 -0.12)">
       <use xlink:href="#BitstreamVeraSans-Roman-43"/>
       <use x="69.82421875" xlink:href="#BitstreamVeraSans-Roman-6c"/>
       <use x="97.607421875" xlink:href="#BitstreamVeraSans-Roman-65"/>
       <use x="159.130859375" xlink:href="#BitstreamVeraSans-Roman-72"/>
       <use x="200.244140625" xlink:href="#BitstreamVeraSans-Roman-69"/>
       <use x="228.02734375" xlink:href="#BitstreamVeraSans-Roman-63"/>
       <use x="283.0078125" xlink:href="#BitstreamVeraSans-Roman-61"/>
       <use x="344.287109375" xlink:href="#BitstreamVeraSans-Roman-6c"/>
       <use x="372.0703125" xlink:href="#BitstreamVeraSans-Roman-5f"/>
       <use x="422.0703125" xlink:href="#BitstreamVeraSans-Roman-70"/>
       <use x="485.546875" xlink:href="#BitstreamVeraSans-Roman-65"/>
       <use x="547.0703125" xlink:href="#BitstreamVeraSans-Roman-72"/>
       <use x="588.18359375" xlink:href="#BitstreamVeraSans-Roman-73"/>
       <use x="640.283203125" xlink:href="#BitstreamVeraSans-Roman-6f"/>
       <use x="701.46484375" xlink:href="#BitstreamVeraSans-Roman-6e"/>
       <use x="764.84375" xlink:href="#BitstreamVeraSans-Roman-6e"/>
       <use x="828.22265625" xlink:href="#BitstreamVeraSans-Roman-65"/>
       <use x="889.74609375" xlink:href="#BitstreamVeraSans-Roman-6c"/>
      </g>
     </g>
    </g>
    <g id="xtick_3">
     <g id="line2d_3">
      <g>
       <use style="stroke:#000000;stroke-width:0.5;" x="1346.79630415" xlink:href="#m3cbae9036f" y="1068.39"/>
      </g>
     </g>
     <g id="text_3">
      <!-- Professionals -->
      <defs>
       <path d="M 19.671875 64.796875 
L 19.671875 37.40625 
L 32.078125 37.40625 
Q 38.96875 37.40625 42.71875 40.96875 
Q 46.484375 44.53125 46.484375 51.125 
Q 46.484375 57.671875 42.71875 61.234375 
Q 38.96875 64.796875 32.078125 64.796875 
z
M 9.8125 72.90625 
L 32.078125 72.90625 
Q 44.34375 72.90625 50.609375 67.359375 
Q 56.890625 61.8125 56.890625 51.125 
Q 56.890625 40.328125 50.609375 34.8125 
Q 44.34375 29.296875 32.078125 29.296875 
L 19.671875 29.296875 
L 19.671875 0 
L 9.8125 0 
z
" id="BitstreamVeraSans-Roman-50"/>
       <path d="M 37.109375 75.984375 
L 37.109375 68.5 
L 28.515625 68.5 
Q 23.6875 68.5 21.796875 66.546875 
Q 19.921875 64.59375 19.921875 59.515625 
L 19.921875 54.6875 
L 34.71875 54.6875 
L 34.71875 47.703125 
L 19.921875 47.703125 
L 19.921875 0 
L 10.890625 0 
L 10.890625 47.703125 
L 2.296875 47.703125 
L 2.296875 54.6875 
L 10.890625 54.6875 
L 10.890625 58.5 
Q 10.890625 67.625 15.140625 71.796875 
Q 19.390625 75.984375 28.609375 75.984375 
z
" id="BitstreamVeraSans-Roman-66"/>
      </defs>
      <g transform="translate(1350.10755415 1151.22625)rotate(-90.0)scale(0.12 -0.12)">
       <use xlink:href="#BitstreamVeraSans-Roman-50"/>
       <use x="60.287109375" xlink:href="#BitstreamVeraSans-Roman-72"/>
       <use x="101.369140625" xlink:href="#BitstreamVeraSans-Roman-6f"/>
       <use x="162.55078125" xlink:href="#BitstreamVeraSans-Roman-66"/>
       <use x="197.755859375" xlink:href="#BitstreamVeraSans-Roman-65"/>
       <use x="259.279296875" xlink:href="#BitstreamVeraSans-Roman-73"/>
       <use x="311.37890625" xlink:href="#BitstreamVeraSans-Roman-73"/>
       <use x="363.478515625" xlink:href="#BitstreamVeraSans-Roman-69"/>
       <use x="391.26171875" xlink:href="#BitstreamVeraSans-Roman-6f"/>
       <use x="452.443359375" xlink:href="#BitstreamVeraSans-Roman-6e"/>
       <use x="515.822265625" xlink:href="#BitstreamVeraSans-Roman-61"/>
       <use x="577.1015625" xlink:href="#BitstreamVeraSans-Roman-6c"/>
       <use x="604.884765625" xlink:href="#BitstreamVeraSans-Roman-73"/>
      </g>
     </g>
    </g>
    <g id="xtick_4">
     <g id="line2d_4">
      <g>
       <use style="stroke:#000000;stroke-width:0.5;" x="870.220290325" xlink:href="#m3cbae9036f" y="1068.39"/>
      </g>
     </g>
     <g id="text_4">
      <!-- Other_sales_and_service_personnel -->
      <defs>
       <path d="M 39.40625 66.21875 
Q 28.65625 66.21875 22.328125 58.203125 
Q 16.015625 50.203125 16.015625 36.375 
Q 16.015625 22.609375 22.328125 14.59375 
Q 28.65625 6.59375 39.40625 6.59375 
Q 50.140625 6.59375 56.421875 14.59375 
Q 62.703125 22.609375 62.703125 36.375 
Q 62.703125 50.203125 56.421875 58.203125 
Q 50.140625 66.21875 39.40625 66.21875 
M 39.40625 74.21875 
Q 54.734375 74.21875 63.90625 63.9375 
Q 73.09375 53.65625 73.09375 36.375 
Q 73.09375 19.140625 63.90625 8.859375 
Q 54.734375 -1.421875 39.40625 -1.421875 
Q 24.03125 -1.421875 14.8125 8.828125 
Q 5.609375 19.09375 5.609375 36.375 
Q 5.609375 53.65625 14.8125 63.9375 
Q 24.03125 74.21875 39.40625 74.21875 
" id="BitstreamVeraSans-Roman-4f"/>
       <path d="M 54.890625 33.015625 
L 54.890625 0 
L 45.90625 0 
L 45.90625 32.71875 
Q 45.90625 40.484375 42.875 44.328125 
Q 39.84375 48.1875 33.796875 48.1875 
Q 26.515625 48.1875 22.3125 43.546875 
Q 18.109375 38.921875 18.109375 30.90625 
L 18.109375 0 
L 9.078125 0 
L 9.078125 75.984375 
L 18.109375 75.984375 
L 18.109375 46.1875 
Q 21.34375 51.125 25.703125 53.5625 
Q 30.078125 56 35.796875 56 
Q 45.21875 56 50.046875 50.171875 
Q 54.890625 44.34375 54.890625 33.015625 
" id="BitstreamVeraSans-Roman-68"/>
       <path d="M 45.40625 46.390625 
L 45.40625 75.984375 
L 54.390625 75.984375 
L 54.390625 0 
L 45.40625 0 
L 45.40625 8.203125 
Q 42.578125 3.328125 38.25 0.953125 
Q 33.9375 -1.421875 27.875 -1.421875 
Q 17.96875 -1.421875 11.734375 6.484375 
Q 5.515625 14.40625 5.515625 27.296875 
Q 5.515625 40.1875 11.734375 48.09375 
Q 17.96875 56 27.875 56 
Q 33.9375 56 38.25 53.625 
Q 42.578125 51.265625 45.40625 46.390625 
M 14.796875 27.296875 
Q 14.796875 17.390625 18.875 11.75 
Q 22.953125 6.109375 30.078125 6.109375 
Q 37.203125 6.109375 41.296875 11.75 
Q 45.40625 17.390625 45.40625 27.296875 
Q 45.40625 37.203125 41.296875 42.84375 
Q 37.203125 48.484375 30.078125 48.484375 
Q 22.953125 48.484375 18.875 42.84375 
Q 14.796875 37.203125 14.796875 27.296875 
" id="BitstreamVeraSans-Roman-64"/>
       <path d="M 18.3125 70.21875 
L 18.3125 54.6875 
L 36.8125 54.6875 
L 36.8125 47.703125 
L 18.3125 47.703125 
L 18.3125 18.015625 
Q 18.3125 11.328125 20.140625 9.421875 
Q 21.96875 7.515625 27.59375 7.515625 
L 36.8125 7.515625 
L 36.8125 0 
L 27.59375 0 
Q 17.1875 0 13.234375 3.875 
Q 9.28125 7.765625 9.28125 18.015625 
L 9.28125 47.703125 
L 2.6875 47.703125 
L 2.6875 54.6875 
L 9.28125 54.6875 
L 9.28125 70.21875 
z
" id="BitstreamVeraSans-Roman-74"/>
      </defs>
      <g transform="translate(873.364665325 1286.055625)rotate(-90.0)scale(0.12 -0.12)">
       <use xlink:href="#BitstreamVeraSans-Roman-4f"/>
       <use x="78.7109375" xlink:href="#BitstreamVeraSans-Roman-74"/>
       <use x="117.919921875" xlink:href="#BitstreamVeraSans-Roman-68"/>
       <use x="181.298828125" xlink:href="#BitstreamVeraSans-Roman-65"/>
       <use x="242.822265625" xlink:href="#BitstreamVeraSans-Roman-72"/>
       <use x="283.935546875" xlink:href="#BitstreamVeraSans-Roman-5f"/>
       <use x="333.935546875" xlink:href="#BitstreamVeraSans-Roman-73"/>
       <use x="386.03515625" xlink:href="#BitstreamVeraSans-Roman-61"/>
       <use x="447.314453125" xlink:href="#BitstreamVeraSans-Roman-6c"/>
       <use x="475.09765625" xlink:href="#BitstreamVeraSans-Roman-65"/>
       <use x="536.62109375" xlink:href="#BitstreamVeraSans-Roman-73"/>
       <use x="588.720703125" xlink:href="#BitstreamVeraSans-Roman-5f"/>
       <use x="638.720703125" xlink:href="#BitstreamVeraSans-Roman-61"/>
       <use x="700.0" xlink:href="#BitstreamVeraSans-Roman-6e"/>
       <use x="763.37890625" xlink:href="#BitstreamVeraSans-Roman-64"/>
       <use x="826.85546875" xlink:href="#BitstreamVeraSans-Roman-5f"/>
       <use x="876.85546875" xlink:href="#BitstreamVeraSans-Roman-73"/>
       <use x="928.955078125" xlink:href="#BitstreamVeraSans-Roman-65"/>
       <use x="990.478515625" xlink:href="#BitstreamVeraSans-Roman-72"/>
       <use x="1031.591796875" xlink:href="#BitstreamVeraSans-Roman-76"/>
       <use x="1090.771484375" xlink:href="#BitstreamVeraSans-Roman-69"/>
       <use x="1118.5546875" xlink:href="#BitstreamVeraSans-Roman-63"/>
       <use x="1173.53515625" xlink:href="#BitstreamVeraSans-Roman-65"/>
       <use x="1235.05859375" xlink:href="#BitstreamVeraSans-Roman-5f"/>
       <use x="1285.05859375" xlink:href="#BitstreamVeraSans-Roman-70"/>
       <use x="1348.53515625" xlink:href="#BitstreamVeraSans-Roman-65"/>
       <use x="1410.05859375" xlink:href="#BitstreamVeraSans-Roman-72"/>
       <use x="1451.171875" xlink:href="#BitstreamVeraSans-Roman-73"/>
       <use x="1503.271484375" xlink:href="#BitstreamVeraSans-Roman-6f"/>
       <use x="1564.453125" xlink:href="#BitstreamVeraSans-Roman-6e"/>
       <use x="1627.83203125" xlink:href="#BitstreamVeraSans-Roman-6e"/>
       <use x="1691.2109375" xlink:href="#BitstreamVeraSans-Roman-65"/>
       <use x="1752.734375" xlink:href="#BitstreamVeraSans-Roman-6c"/>
      </g>
     </g>
    </g>
    <g id="xtick_5">
     <g id="line2d_5">
      <g>
       <use style="stroke:#000000;stroke-width:0.5;" x="1873.75868027" xlink:href="#m3cbae9036f" y="1068.39"/>
      </g>
     </g>
     <g id="text_5">
      <!-- Semi_professionals_and_technicians -->
      <defs>
       <path d="M 52 44.1875 
Q 55.375 50.25 60.0625 53.125 
Q 64.75 56 71.09375 56 
Q 79.640625 56 84.28125 50.015625 
Q 88.921875 44.046875 88.921875 33.015625 
L 88.921875 0 
L 79.890625 0 
L 79.890625 32.71875 
Q 79.890625 40.578125 77.09375 44.375 
Q 74.3125 48.1875 68.609375 48.1875 
Q 61.625 48.1875 57.5625 43.546875 
Q 53.515625 38.921875 53.515625 30.90625 
L 53.515625 0 
L 44.484375 0 
L 44.484375 32.71875 
Q 44.484375 40.625 41.703125 44.40625 
Q 38.921875 48.1875 33.109375 48.1875 
Q 26.21875 48.1875 22.15625 43.53125 
Q 18.109375 38.875 18.109375 30.90625 
L 18.109375 0 
L 9.078125 0 
L 9.078125 54.6875 
L 18.109375 54.6875 
L 18.109375 46.1875 
Q 21.1875 51.21875 25.484375 53.609375 
Q 29.78125 56 35.6875 56 
Q 41.65625 56 45.828125 52.96875 
Q 50 49.953125 52 44.1875 
" id="BitstreamVeraSans-Roman-6d"/>
      </defs>
      <g transform="translate(1876.90305527 1290.58375)rotate(-90.0)scale(0.12 -0.12)">
       <use xlink:href="#BitstreamVeraSans-Roman-53"/>
       <use x="63.4765625" xlink:href="#BitstreamVeraSans-Roman-65"/>
       <use x="125.0" xlink:href="#BitstreamVeraSans-Roman-6d"/>
       <use x="222.412109375" xlink:href="#BitstreamVeraSans-Roman-69"/>
       <use x="250.1953125" xlink:href="#BitstreamVeraSans-Roman-5f"/>
       <use x="300.1953125" xlink:href="#BitstreamVeraSans-Roman-70"/>
       <use x="363.671875" xlink:href="#BitstreamVeraSans-Roman-72"/>
       <use x="404.75390625" xlink:href="#BitstreamVeraSans-Roman-6f"/>
       <use x="465.935546875" xlink:href="#BitstreamVeraSans-Roman-66"/>
       <use x="501.140625" xlink:href="#BitstreamVeraSans-Roman-65"/>
       <use x="562.6640625" xlink:href="#BitstreamVeraSans-Roman-73"/>
       <use x="614.763671875" xlink:href="#BitstreamVeraSans-Roman-73"/>
       <use x="666.86328125" xlink:href="#BitstreamVeraSans-Roman-69"/>
       <use x="694.646484375" xlink:href="#BitstreamVeraSans-Roman-6f"/>
       <use x="755.828125" xlink:href="#BitstreamVeraSans-Roman-6e"/>
       <use x="819.20703125" xlink:href="#BitstreamVeraSans-Roman-61"/>
       <use x="880.486328125" xlink:href="#BitstreamVeraSans-Roman-6c"/>
       <use x="908.26953125" xlink:href="#BitstreamVeraSans-Roman-73"/>
       <use x="960.369140625" xlink:href="#BitstreamVeraSans-Roman-5f"/>
       <use x="1010.369140625" xlink:href="#BitstreamVeraSans-Roman-61"/>
       <use x="1071.6484375" xlink:href="#BitstreamVeraSans-Roman-6e"/>
       <use x="1135.02734375" xlink:href="#BitstreamVeraSans-Roman-64"/>
       <use x="1198.50390625" xlink:href="#BitstreamVeraSans-Roman-5f"/>
       <use x="1248.50390625" xlink:href="#BitstreamVeraSans-Roman-74"/>
       <use x="1287.712890625" xlink:href="#BitstreamVeraSans-Roman-65"/>
       <use x="1349.236328125" xlink:href="#BitstreamVeraSans-Roman-63"/>
       <use x="1404.216796875" xlink:href="#BitstreamVeraSans-Roman-68"/>
       <use x="1467.595703125" xlink:href="#BitstreamVeraSans-Roman-6e"/>
       <use x="1530.974609375" xlink:href="#BitstreamVeraSans-Roman-69"/>
       <use x="1558.7578125" xlink:href="#BitstreamVeraSans-Roman-63"/>
       <use x="1613.73828125" xlink:href="#BitstreamVeraSans-Roman-69"/>
       <use x="1641.521484375" xlink:href="#BitstreamVeraSans-Roman-61"/>
       <use x="1702.80078125" xlink:href="#BitstreamVeraSans-Roman-6e"/>
       <use x="1766.1796875" xlink:href="#BitstreamVeraSans-Roman-73"/>
      </g>
     </g>
    </g>
    <g id="xtick_6">
     <g id="line2d_6">
      <g>
       <use style="stroke:#000000;stroke-width:0.5;" x="851.331278524" xlink:href="#m3cbae9036f" y="1068.39"/>
      </g>
     </g>
     <g id="text_6">
      <!-- Other_manual_workers -->
      <defs>
       <path d="M 4.203125 54.6875 
L 13.1875 54.6875 
L 24.421875 12.015625 
L 35.59375 54.6875 
L 46.1875 54.6875 
L 57.421875 12.015625 
L 68.609375 54.6875 
L 77.59375 54.6875 
L 63.28125 0 
L 52.6875 0 
L 40.921875 44.828125 
L 29.109375 0 
L 18.5 0 
z
" id="BitstreamVeraSans-Roman-77"/>
       <path d="M 9.078125 75.984375 
L 18.109375 75.984375 
L 18.109375 31.109375 
L 44.921875 54.6875 
L 56.390625 54.6875 
L 27.390625 29.109375 
L 57.625 0 
L 45.90625 0 
L 18.109375 26.703125 
L 18.109375 0 
L 9.078125 0 
z
" id="BitstreamVeraSans-Roman-6b"/>
      </defs>
      <g transform="translate(854.475653524 1211.003125)rotate(-90.0)scale(0.12 -0.12)">
       <use xlink:href="#BitstreamVeraSans-Roman-4f"/>
       <use x="78.7109375" xlink:href="#BitstreamVeraSans-Roman-74"/>
       <use x="117.919921875" xlink:href="#BitstreamVeraSans-Roman-68"/>
       <use x="181.298828125" xlink:href="#BitstreamVeraSans-Roman-65"/>
       <use x="242.822265625" xlink:href="#BitstreamVeraSans-Roman-72"/>
       <use x="283.935546875" xlink:href="#BitstreamVeraSans-Roman-5f"/>
       <use x="333.935546875" xlink:href="#BitstreamVeraSans-Roman-6d"/>
       <use x="431.34765625" xlink:href="#BitstreamVeraSans-Roman-61"/>
       <use x="492.626953125" xlink:href="#BitstreamVeraSans-Roman-6e"/>
       <use x="556.005859375" xlink:href="#BitstreamVeraSans-Roman-75"/>
       <use x="619.384765625" xlink:href="#BitstreamVeraSans-Roman-61"/>
       <use x="680.6640625" xlink:href="#BitstreamVeraSans-Roman-6c"/>
       <use x="708.447265625" xlink:href="#BitstreamVeraSans-Roman-5f"/>
       <use x="758.447265625" xlink:href="#BitstreamVeraSans-Roman-77"/>
       <use x="840.234375" xlink:href="#BitstreamVeraSans-Roman-6f"/>
       <use x="901.416015625" xlink:href="#BitstreamVeraSans-Roman-72"/>
       <use x="942.529296875" xlink:href="#BitstreamVeraSans-Roman-6b"/>
       <use x="1000.392578125" xlink:href="#BitstreamVeraSans-Roman-65"/>
       <use x="1061.916015625" xlink:href="#BitstreamVeraSans-Roman-72"/>
       <use x="1103.029296875" xlink:href="#BitstreamVeraSans-Roman-73"/>
      </g>
     </g>
    </g>
    <g id="xtick_7">
     <g id="line2d_7">
      <g>
       <use style="stroke:#000000;stroke-width:0.5;" x="1954.73321944" xlink:href="#m3cbae9036f" y="1068.39"/>
      </g>
     </g>
     <g id="text_7">
      <!-- Semi_skilled_manual_workers -->
      <g transform="translate(1957.87759444 1251.158125)rotate(-90.0)scale(0.12 -0.12)">
       <use xlink:href="#BitstreamVeraSans-Roman-53"/>
       <use x="63.4765625" xlink:href="#BitstreamVeraSans-Roman-65"/>
       <use x="125.0" xlink:href="#BitstreamVeraSans-Roman-6d"/>
       <use x="222.412109375" xlink:href="#BitstreamVeraSans-Roman-69"/>
       <use x="250.1953125" xlink:href="#BitstreamVeraSans-Roman-5f"/>
       <use x="300.1953125" xlink:href="#BitstreamVeraSans-Roman-73"/>
       <use x="352.294921875" xlink:href="#BitstreamVeraSans-Roman-6b"/>
       <use x="410.205078125" xlink:href="#BitstreamVeraSans-Roman-69"/>
       <use x="437.98828125" xlink:href="#BitstreamVeraSans-Roman-6c"/>
       <use x="465.771484375" xlink:href="#BitstreamVeraSans-Roman-6c"/>
       <use x="493.5546875" xlink:href="#BitstreamVeraSans-Roman-65"/>
       <use x="555.078125" xlink:href="#BitstreamVeraSans-Roman-64"/>
       <use x="618.5546875" xlink:href="#BitstreamVeraSans-Roman-5f"/>
       <use x="668.5546875" xlink:href="#BitstreamVeraSans-Roman-6d"/>
       <use x="765.966796875" xlink:href="#BitstreamVeraSans-Roman-61"/>
       <use x="827.24609375" xlink:href="#BitstreamVeraSans-Roman-6e"/>
       <use x="890.625" xlink:href="#BitstreamVeraSans-Roman-75"/>
       <use x="954.00390625" xlink:href="#BitstreamVeraSans-Roman-61"/>
       <use x="1015.283203125" xlink:href="#BitstreamVeraSans-Roman-6c"/>
       <use x="1043.06640625" xlink:href="#BitstreamVeraSans-Roman-5f"/>
       <use x="1093.06640625" xlink:href="#BitstreamVeraSans-Roman-77"/>
       <use x="1174.853515625" xlink:href="#BitstreamVeraSans-Roman-6f"/>
       <use x="1236.03515625" xlink:href="#BitstreamVeraSans-Roman-72"/>
       <use x="1277.1484375" xlink:href="#BitstreamVeraSans-Roman-6b"/>
       <use x="1335.01171875" xlink:href="#BitstreamVeraSans-Roman-65"/>
       <use x="1396.53515625" xlink:href="#BitstreamVeraSans-Roman-72"/>
       <use x="1437.6484375" xlink:href="#BitstreamVeraSans-Roman-73"/>
      </g>
     </g>
    </g>
    <g id="xtick_8">
     <g id="line2d_8">
      <g>
       <use style="stroke:#000000;stroke-width:0.5;" x="1986.36567326" xlink:href="#m3cbae9036f" y="1068.39"/>
      </g>
     </g>
     <g id="text_8">
      <!-- Skilled_crafts_and_trades_workers -->
      <g transform="translate(1989.51004826 1278.445)rotate(-90.0)scale(0.12 -0.12)">
       <use xlink:href="#BitstreamVeraSans-Roman-53"/>
       <use x="63.4765625" xlink:href="#BitstreamVeraSans-Roman-6b"/>
       <use x="121.38671875" xlink:href="#BitstreamVeraSans-Roman-69"/>
       <use x="149.169921875" xlink:href="#BitstreamVeraSans-Roman-6c"/>
       <use x="176.953125" xlink:href="#BitstreamVeraSans-Roman-6c"/>
       <use x="204.736328125" xlink:href="#BitstreamVeraSans-Roman-65"/>
       <use x="266.259765625" xlink:href="#BitstreamVeraSans-Roman-64"/>
       <use x="329.736328125" xlink:href="#BitstreamVeraSans-Roman-5f"/>
       <use x="379.736328125" xlink:href="#BitstreamVeraSans-Roman-63"/>
       <use x="434.716796875" xlink:href="#BitstreamVeraSans-Roman-72"/>
       <use x="475.830078125" xlink:href="#BitstreamVeraSans-Roman-61"/>
       <use x="537.109375" xlink:href="#BitstreamVeraSans-Roman-66"/>
       <use x="572.298828125" xlink:href="#BitstreamVeraSans-Roman-74"/>
       <use x="611.5078125" xlink:href="#BitstreamVeraSans-Roman-73"/>
       <use x="663.607421875" xlink:href="#BitstreamVeraSans-Roman-5f"/>
       <use x="713.607421875" xlink:href="#BitstreamVeraSans-Roman-61"/>
       <use x="774.88671875" xlink:href="#BitstreamVeraSans-Roman-6e"/>
       <use x="838.265625" xlink:href="#BitstreamVeraSans-Roman-64"/>
       <use x="901.7421875" xlink:href="#BitstreamVeraSans-Roman-5f"/>
       <use x="951.7421875" xlink:href="#BitstreamVeraSans-Roman-74"/>
       <use x="990.951171875" xlink:href="#BitstreamVeraSans-Roman-72"/>
       <use x="1032.064453125" xlink:href="#BitstreamVeraSans-Roman-61"/>
       <use x="1093.34375" xlink:href="#BitstreamVeraSans-Roman-64"/>
       <use x="1156.8203125" xlink:href="#BitstreamVeraSans-Roman-65"/>
       <use x="1218.34375" xlink:href="#BitstreamVeraSans-Roman-73"/>
       <use x="1270.443359375" xlink:href="#BitstreamVeraSans-Roman-5f"/>
       <use x="1320.443359375" xlink:href="#BitstreamVeraSans-Roman-77"/>
       <use x="1402.23046875" xlink:href="#BitstreamVeraSans-Roman-6f"/>
       <use x="1463.412109375" xlink:href="#BitstreamVeraSans-Roman-72"/>
       <use x="1504.525390625" xlink:href="#BitstreamVeraSans-Roman-6b"/>
       <use x="1562.388671875" xlink:href="#BitstreamVeraSans-Roman-65"/>
       <use x="1623.912109375" xlink:href="#BitstreamVeraSans-Roman-72"/>
       <use x="1665.025390625" xlink:href="#BitstreamVeraSans-Roman-73"/>
      </g>
     </g>
    </g>
    <g id="xtick_9">
     <g id="line2d_9">
      <g>
       <use style="stroke:#000000;stroke-width:0.5;" x="499.372747828" xlink:href="#m3cbae9036f" y="1068.39"/>
      </g>
     </g>
     <g id="text_9">
      <!-- Intermediate_sales_and_service_personnel -->
      <defs>
       <path d="M 9.8125 72.90625 
L 19.671875 72.90625 
L 19.671875 0 
L 9.8125 0 
z
" id="BitstreamVeraSans-Roman-49"/>
      </defs>
      <g transform="translate(502.517122828 1329.61375)rotate(-90.0)scale(0.12 -0.12)">
       <use xlink:href="#BitstreamVeraSans-Roman-49"/>
       <use x="29.4921875" xlink:href="#BitstreamVeraSans-Roman-6e"/>
       <use x="92.87109375" xlink:href="#BitstreamVeraSans-Roman-74"/>
       <use x="132.080078125" xlink:href="#BitstreamVeraSans-Roman-65"/>
       <use x="193.603515625" xlink:href="#BitstreamVeraSans-Roman-72"/>
       <use x="234.701171875" xlink:href="#BitstreamVeraSans-Roman-6d"/>
       <use x="332.11328125" xlink:href="#BitstreamVeraSans-Roman-65"/>
       <use x="393.63671875" xlink:href="#BitstreamVeraSans-Roman-64"/>
       <use x="457.11328125" xlink:href="#BitstreamVeraSans-Roman-69"/>
       <use x="484.896484375" xlink:href="#BitstreamVeraSans-Roman-61"/>
       <use x="546.17578125" xlink:href="#BitstreamVeraSans-Roman-74"/>
       <use x="585.384765625" xlink:href="#BitstreamVeraSans-Roman-65"/>
       <use x="646.908203125" xlink:href="#BitstreamVeraSans-Roman-5f"/>
       <use x="696.908203125" xlink:href="#BitstreamVeraSans-Roman-73"/>
       <use x="749.0078125" xlink:href="#BitstreamVeraSans-Roman-61"/>
       <use x="810.287109375" xlink:href="#BitstreamVeraSans-Roman-6c"/>
       <use x="838.0703125" xlink:href="#BitstreamVeraSans-Roman-65"/>
       <use x="899.59375" xlink:href="#BitstreamVeraSans-Roman-73"/>
       <use x="951.693359375" xlink:href="#BitstreamVeraSans-Roman-5f"/>
       <use x="1001.693359375" xlink:href="#BitstreamVeraSans-Roman-61"/>
       <use x="1062.97265625" xlink:href="#BitstreamVeraSans-Roman-6e"/>
       <use x="1126.3515625" xlink:href="#BitstreamVeraSans-Roman-64"/>
       <use x="1189.828125" xlink:href="#BitstreamVeraSans-Roman-5f"/>
       <use x="1239.828125" xlink:href="#BitstreamVeraSans-Roman-73"/>
       <use x="1291.927734375" xlink:href="#BitstreamVeraSans-Roman-65"/>
       <use x="1353.451171875" xlink:href="#BitstreamVeraSans-Roman-72"/>
       <use x="1394.564453125" xlink:href="#BitstreamVeraSans-Roman-76"/>
       <use x="1453.744140625" xlink:href="#BitstreamVeraSans-Roman-69"/>
       <use x="1481.52734375" xlink:href="#BitstreamVeraSans-Roman-63"/>
       <use x="1536.5078125" xlink:href="#BitstreamVeraSans-Roman-65"/>
       <use x="1598.03125" xlink:href="#BitstreamVeraSans-Roman-5f"/>
       <use x="1648.03125" xlink:href="#BitstreamVeraSans-Roman-70"/>
       <use x="1711.5078125" xlink:href="#BitstreamVeraSans-Roman-65"/>
       <use x="1773.03125" xlink:href="#BitstreamVeraSans-Roman-72"/>
       <use x="1814.14453125" xlink:href="#BitstreamVeraSans-Roman-73"/>
       <use x="1866.244140625" xlink:href="#BitstreamVeraSans-Roman-6f"/>
       <use x="1927.42578125" xlink:href="#BitstreamVeraSans-Roman-6e"/>
       <use x="1990.8046875" xlink:href="#BitstreamVeraSans-Roman-6e"/>
       <use x="2054.18359375" xlink:href="#BitstreamVeraSans-Roman-65"/>
       <use x="2115.70703125" xlink:href="#BitstreamVeraSans-Roman-6c"/>
      </g>
     </g>
    </g>
    <g id="xtick_10">
     <g id="line2d_10">
      <g>
       <use style="stroke:#000000;stroke-width:0.5;" x="2021.71836367" xlink:href="#m3cbae9036f" y="1068.39"/>
      </g>
     </g>
     <g id="text_10">
      <!-- Skilled_sales_and_service_personnel -->
      <g transform="translate(2024.86273867 1291.553125)rotate(-90.0)scale(0.12 -0.12)">
       <use xlink:href="#BitstreamVeraSans-Roman-53"/>
       <use x="63.4765625" xlink:href="#BitstreamVeraSans-Roman-6b"/>
       <use x="121.38671875" xlink:href="#BitstreamVeraSans-Roman-69"/>
       <use x="149.169921875" xlink:href="#BitstreamVeraSans-Roman-6c"/>
       <use x="176.953125" xlink:href="#BitstreamVeraSans-Roman-6c"/>
       <use x="204.736328125" xlink:href="#BitstreamVeraSans-Roman-65"/>
       <use x="266.259765625" xlink:href="#BitstreamVeraSans-Roman-64"/>
       <use x="329.736328125" xlink:href="#BitstreamVeraSans-Roman-5f"/>
       <use x="379.736328125" xlink:href="#BitstreamVeraSans-Roman-73"/>
       <use x="431.8359375" xlink:href="#BitstreamVeraSans-Roman-61"/>
       <use x="493.115234375" xlink:href="#BitstreamVeraSans-Roman-6c"/>
       <use x="520.8984375" xlink:href="#BitstreamVeraSans-Roman-65"/>
       <use x="582.421875" xlink:href="#BitstreamVeraSans-Roman-73"/>
       <use x="634.521484375" xlink:href="#BitstreamVeraSans-Roman-5f"/>
       <use x="684.521484375" xlink:href="#BitstreamVeraSans-Roman-61"/>
       <use x="745.80078125" xlink:href="#BitstreamVeraSans-Roman-6e"/>
       <use x="809.1796875" xlink:href="#BitstreamVeraSans-Roman-64"/>
       <use x="872.65625" xlink:href="#BitstreamVeraSans-Roman-5f"/>
       <use x="922.65625" xlink:href="#BitstreamVeraSans-Roman-73"/>
       <use x="974.755859375" xlink:href="#BitstreamVeraSans-Roman-65"/>
       <use x="1036.279296875" xlink:href="#BitstreamVeraSans-Roman-72"/>
       <use x="1077.392578125" xlink:href="#BitstreamVeraSans-Roman-76"/>
       <use x="1136.572265625" xlink:href="#BitstreamVeraSans-Roman-69"/>
       <use x="1164.35546875" xlink:href="#BitstreamVeraSans-Roman-63"/>
       <use x="1219.3359375" xlink:href="#BitstreamVeraSans-Roman-65"/>
       <use x="1280.859375" xlink:href="#BitstreamVeraSans-Roman-5f"/>
       <use x="1330.859375" xlink:href="#BitstreamVeraSans-Roman-70"/>
       <use x="1394.3359375" xlink:href="#BitstreamVeraSans-Roman-65"/>
       <use x="1455.859375" xlink:href="#BitstreamVeraSans-Roman-72"/>
       <use x="1496.97265625" xlink:href="#BitstreamVeraSans-Roman-73"/>
       <use x="1549.072265625" xlink:href="#BitstreamVeraSans-Roman-6f"/>
       <use x="1610.25390625" xlink:href="#BitstreamVeraSans-Roman-6e"/>
       <use x="1673.6328125" xlink:href="#BitstreamVeraSans-Roman-6e"/>
       <use x="1737.01171875" xlink:href="#BitstreamVeraSans-Roman-65"/>
       <use x="1798.53515625" xlink:href="#BitstreamVeraSans-Roman-6c"/>
      </g>
     </g>
    </g>
    <g id="xtick_11">
     <g id="line2d_11">
      <g>
       <use style="stroke:#000000;stroke-width:0.5;" x="323.99492073" xlink:href="#m3cbae9036f" y="1068.39"/>
      </g>
     </g>
     <g id="text_11">
      <!-- Administrative_and_senior_clerical_personnel -->
      <defs>
       <path d="M 34.1875 63.1875 
L 20.796875 26.90625 
L 47.609375 26.90625 
z
M 28.609375 72.90625 
L 39.796875 72.90625 
L 67.578125 0 
L 57.328125 0 
L 50.6875 18.703125 
L 17.828125 18.703125 
L 11.1875 0 
L 0.78125 0 
z
" id="BitstreamVeraSans-Roman-41"/>
      </defs>
      <g transform="translate(327.13929573 1345.69375)rotate(-90.0)scale(0.12 -0.12)">
       <use xlink:href="#BitstreamVeraSans-Roman-41"/>
       <use x="68.392578125" xlink:href="#BitstreamVeraSans-Roman-64"/>
       <use x="131.869140625" xlink:href="#BitstreamVeraSans-Roman-6d"/>
       <use x="229.28125" xlink:href="#BitstreamVeraSans-Roman-69"/>
       <use x="257.064453125" xlink:href="#BitstreamVeraSans-Roman-6e"/>
       <use x="320.443359375" xlink:href="#BitstreamVeraSans-Roman-69"/>
       <use x="348.2265625" xlink:href="#BitstreamVeraSans-Roman-73"/>
       <use x="400.326171875" xlink:href="#BitstreamVeraSans-Roman-74"/>
       <use x="439.53515625" xlink:href="#BitstreamVeraSans-Roman-72"/>
       <use x="480.6484375" xlink:href="#BitstreamVeraSans-Roman-61"/>
       <use x="541.927734375" xlink:href="#BitstreamVeraSans-Roman-74"/>
       <use x="581.13671875" xlink:href="#BitstreamVeraSans-Roman-69"/>
       <use x="608.919921875" xlink:href="#BitstreamVeraSans-Roman-76"/>
       <use x="668.099609375" xlink:href="#BitstreamVeraSans-Roman-65"/>
       <use x="729.623046875" xlink:href="#BitstreamVeraSans-Roman-5f"/>
       <use x="779.623046875" xlink:href="#BitstreamVeraSans-Roman-61"/>
       <use x="840.90234375" xlink:href="#BitstreamVeraSans-Roman-6e"/>
       <use x="904.28125" xlink:href="#BitstreamVeraSans-Roman-64"/>
       <use x="967.7578125" xlink:href="#BitstreamVeraSans-Roman-5f"/>
       <use x="1017.7578125" xlink:href="#BitstreamVeraSans-Roman-73"/>
       <use x="1069.857421875" xlink:href="#BitstreamVeraSans-Roman-65"/>
       <use x="1131.380859375" xlink:href="#BitstreamVeraSans-Roman-6e"/>
       <use x="1194.759765625" xlink:href="#BitstreamVeraSans-Roman-69"/>
       <use x="1222.54296875" xlink:href="#BitstreamVeraSans-Roman-6f"/>
       <use x="1283.724609375" xlink:href="#BitstreamVeraSans-Roman-72"/>
       <use x="1324.837890625" xlink:href="#BitstreamVeraSans-Roman-5f"/>
       <use x="1374.837890625" xlink:href="#BitstreamVeraSans-Roman-63"/>
       <use x="1429.818359375" xlink:href="#BitstreamVeraSans-Roman-6c"/>
       <use x="1457.6015625" xlink:href="#BitstreamVeraSans-Roman-65"/>
       <use x="1519.125" xlink:href="#BitstreamVeraSans-Roman-72"/>
       <use x="1560.23828125" xlink:href="#BitstreamVeraSans-Roman-69"/>
       <use x="1588.021484375" xlink:href="#BitstreamVeraSans-Roman-63"/>
       <use x="1643.001953125" xlink:href="#BitstreamVeraSans-Roman-61"/>
       <use x="1704.28125" xlink:href="#BitstreamVeraSans-Roman-6c"/>
       <use x="1732.064453125" xlink:href="#BitstreamVeraSans-Roman-5f"/>
       <use x="1782.064453125" xlink:href="#BitstreamVeraSans-Roman-70"/>
       <use x="1845.541015625" xlink:href="#BitstreamVeraSans-Roman-65"/>
       <use x="1907.064453125" xlink:href="#BitstreamVeraSans-Roman-72"/>
       <use x="1948.177734375" xlink:href="#BitstreamVeraSans-Roman-73"/>
       <use x="2000.27734375" xlink:href="#BitstreamVeraSans-Roman-6f"/>
       <use x="2061.458984375" xlink:href="#BitstreamVeraSans-Roman-6e"/>
       <use x="2124.837890625" xlink:href="#BitstreamVeraSans-Roman-6e"/>
       <use x="2188.216796875" xlink:href="#BitstreamVeraSans-Roman-65"/>
       <use x="2249.740234375" xlink:href="#BitstreamVeraSans-Roman-6c"/>
      </g>
     </g>
    </g>
    <g id="xtick_12">
     <g id="line2d_12">
      <g>
       <use style="stroke:#000000;stroke-width:0.5;" x="689.555811225" xlink:href="#m3cbae9036f" y="1068.39"/>
      </g>
     </g>
     <g id="text_12">
      <!-- Managers -->
      <defs>
       <path d="M 9.8125 72.90625 
L 24.515625 72.90625 
L 43.109375 23.296875 
L 61.8125 72.90625 
L 76.515625 72.90625 
L 76.515625 0 
L 66.890625 0 
L 66.890625 64.015625 
L 48.09375 14.015625 
L 38.1875 14.015625 
L 19.390625 64.015625 
L 19.390625 0 
L 9.8125 0 
z
" id="BitstreamVeraSans-Roman-4d"/>
       <path d="M 45.40625 27.984375 
Q 45.40625 37.75 41.375 43.109375 
Q 37.359375 48.484375 30.078125 48.484375 
Q 22.859375 48.484375 18.828125 43.109375 
Q 14.796875 37.75 14.796875 27.984375 
Q 14.796875 18.265625 18.828125 12.890625 
Q 22.859375 7.515625 30.078125 7.515625 
Q 37.359375 7.515625 41.375 12.890625 
Q 45.40625 18.265625 45.40625 27.984375 
M 54.390625 6.78125 
Q 54.390625 -7.171875 48.1875 -13.984375 
Q 42 -20.796875 29.203125 -20.796875 
Q 24.46875 -20.796875 20.265625 -20.09375 
Q 16.0625 -19.390625 12.109375 -17.921875 
L 12.109375 -9.1875 
Q 16.0625 -11.328125 19.921875 -12.34375 
Q 23.78125 -13.375 27.78125 -13.375 
Q 36.625 -13.375 41.015625 -8.765625 
Q 45.40625 -4.15625 45.40625 5.171875 
L 45.40625 9.625 
Q 42.625 4.78125 38.28125 2.390625 
Q 33.9375 0 27.875 0 
Q 17.828125 0 11.671875 7.65625 
Q 5.515625 15.328125 5.515625 27.984375 
Q 5.515625 40.671875 11.671875 48.328125 
Q 17.828125 56 27.875 56 
Q 33.9375 56 38.28125 53.609375 
Q 42.625 51.21875 45.40625 46.390625 
L 45.40625 54.6875 
L 54.390625 54.6875 
z
" id="BitstreamVeraSans-Roman-67"/>
      </defs>
      <g transform="translate(692.867061225 1131.2425)rotate(-90.0)scale(0.12 -0.12)">
       <use xlink:href="#BitstreamVeraSans-Roman-4d"/>
       <use x="86.279296875" xlink:href="#BitstreamVeraSans-Roman-61"/>
       <use x="147.55859375" xlink:href="#BitstreamVeraSans-Roman-6e"/>
       <use x="210.9375" xlink:href="#BitstreamVeraSans-Roman-61"/>
       <use x="272.216796875" xlink:href="#BitstreamVeraSans-Roman-67"/>
       <use x="335.693359375" xlink:href="#BitstreamVeraSans-Roman-65"/>
       <use x="397.216796875" xlink:href="#BitstreamVeraSans-Roman-72"/>
       <use x="438.330078125" xlink:href="#BitstreamVeraSans-Roman-73"/>
      </g>
     </g>
    </g>
   </g>
   <g id="matplotlib.axis_2">
    <g id="ytick_1">
     <g id="line2d_13">
      <defs>
       <path d="M 0 0 
L 4 0 
" id="mb483d36c0e" style="stroke:#000000;stroke-width:0.5;"/>
      </defs>
      <g>
       <use style="stroke:#000000;stroke-width:0.5;" x="288.0" xlink:href="#mb483d36c0e" y="738.650925353"/>
      </g>
     </g>
     <g id="text_13">
      <!-- False -->
      <defs>
       <path d="M 9.8125 72.90625 
L 51.703125 72.90625 
L 51.703125 64.59375 
L 19.671875 64.59375 
L 19.671875 43.109375 
L 48.578125 43.109375 
L 48.578125 34.8125 
L 19.671875 34.8125 
L 19.671875 0 
L 9.8125 0 
z
" id="BitstreamVeraSans-Roman-46"/>
      </defs>
      <g transform="translate(281.504375 754.254675353)rotate(-90.0)scale(0.12 -0.12)">
       <use xlink:href="#BitstreamVeraSans-Roman-46"/>
       <use x="57.37890625" xlink:href="#BitstreamVeraSans-Roman-61"/>
       <use x="118.658203125" xlink:href="#BitstreamVeraSans-Roman-6c"/>
       <use x="146.44140625" xlink:href="#BitstreamVeraSans-Roman-73"/>
       <use x="198.541015625" xlink:href="#BitstreamVeraSans-Roman-65"/>
      </g>
     </g>
    </g>
    <g id="ytick_2">
     <g id="line2d_14">
      <g>
       <use style="stroke:#000000;stroke-width:0.5;" x="288.0" xlink:href="#mb483d36c0e" y="262.233383825"/>
      </g>
     </g>
     <g id="text_14">
      <!-- True -->
      <defs>
       <path d="M -0.296875 72.90625 
L 61.375 72.90625 
L 61.375 64.59375 
L 35.5 64.59375 
L 35.5 0 
L 25.59375 0 
L 25.59375 64.59375 
L -0.296875 64.59375 
z
" id="BitstreamVeraSans-Roman-54"/>
      </defs>
      <g transform="translate(281.504375 275.845883825)rotate(-90.0)scale(0.12 -0.12)">
       <use xlink:href="#BitstreamVeraSans-Roman-54"/>
       <use x="60.865234375" xlink:href="#BitstreamVeraSans-Roman-72"/>
       <use x="101.978515625" xlink:href="#BitstreamVeraSans-Roman-75"/>
       <use x="165.357421875" xlink:href="#BitstreamVeraSans-Roman-65"/>
      </g>
     </g>
    </g>
   </g>
   <g id="text_15">
    <!-- nochrd -->
    <g transform="translate(1155.78 113.71)scale(0.144 -0.144)">
     <use xlink:href="#BitstreamVeraSans-Roman-6e"/>
     <use x="63.37890625" xlink:href="#BitstreamVeraSans-Roman-6f"/>
     <use x="124.560546875" xlink:href="#BitstreamVeraSans-Roman-63"/>
     <use x="179.541015625" xlink:href="#BitstreamVeraSans-Roman-68"/>
     <use x="242.919921875" xlink:href="#BitstreamVeraSans-Roman-72"/>
     <use x="284.017578125" xlink:href="#BitstreamVeraSans-Roman-64"/>
    </g>
   </g>
  </g>
  <g id="axes_2">
   <g id="patch_31">
    <path d="M 288 118.71 
L 2073.6 118.71 
" style="fill:none;stroke:#000000;stroke-linecap:square;stroke-linejoin:miter;"/>
   </g>
   <g id="patch_32">
    <path d="M 288 1068.39 
L 288 118.71 
" style="fill:none;stroke:#000000;stroke-linecap:square;stroke-linejoin:miter;"/>
   </g>
   <g id="patch_33">
    <path d="M 2073.6 1068.39 
L 2073.6 118.71 
" style="fill:none;stroke:#000000;stroke-linecap:square;stroke-linejoin:miter;"/>
   </g>
   <g id="patch_34">
    <path d="M 288 1068.39 
L 2073.6 1068.39 
" style="fill:none;stroke:#000000;stroke-linecap:square;stroke-linejoin:miter;"/>
   </g>
   <g id="matplotlib.axis_3"/>
  </g>
  <g id="axes_3">
   <g id="patch_35">
    <path d="M 288 118.71 
L 2073.6 118.71 
" style="fill:none;stroke:#000000;stroke-linecap:square;stroke-linejoin:miter;"/>
   </g>
   <g id="patch_36">
    <path d="M 288 1068.39 
L 288 118.71 
" style="fill:none;stroke:#000000;stroke-linecap:square;stroke-linejoin:miter;"/>
   </g>
   <g id="patch_37">
    <path d="M 2073.6 1068.39 
L 2073.6 118.71 
" style="fill:none;stroke:#000000;stroke-linecap:square;stroke-linejoin:miter;"/>
   </g>
   <g id="patch_38">
    <path d="M 288 1068.39 
L 2073.6 1068.39 
" style="fill:none;stroke:#000000;stroke-linecap:square;stroke-linejoin:miter;"/>
   </g>
   <g id="matplotlib.axis_4"/>
  </g>
 </g>
 <defs>
  <clipPath id="p03d3f8493a">
   <rect height="949.68" width="1785.6" x="288.0" y="118.71"/>
  </clipPath>
 </defs>
</svg>
