<?xml version="1.0" encoding="utf-8" standalone="no"?>
<!DOCTYPE svg PUBLIC "-//W3C//DTD SVG 1.1//EN"
  "http://www.w3.org/Graphics/SVG/1.1/DTD/svg11.dtd">
<!-- Created with matplotlib (http://matplotlib.org/) -->
<svg height="1187pt" version="1.1" viewBox="0 0 2304 1187" width="2304pt" xmlns="http://www.w3.org/2000/svg" xmlns:xlink="http://www.w3.org/1999/xlink">
 <defs>
  <style type="text/css">
*{stroke-linecap:butt;stroke-linejoin:round;stroke-miterlimit:100000;}
  </style>
 </defs>
 <g id="figure_1">
  <g id="patch_1">
   <path d="M 0 1187.1 
L 2304 1187.1 
L 2304 0 
L 0 0 
z
" style="fill:#ffffff;"/>
  </g>
  <g id="axes_1">
   <g id="patch_2">
    <path d="M 288 1068.39 
L 2073.6 1068.39 
L 2073.6 118.71 
L 288 118.71 
z
" style="fill:#ffffff;"/>
   </g>
   <g id="patch_3">
    <path clip-path="url(#p3fa0d8c9f0)" d="M 288 1068.39 
L 306.310407 1068.39 
L 306.310407 586.348643 
L 288 586.348643 
z
" style="fill:#804040;"/>
   </g>
   <g id="patch_4">
    <path clip-path="url(#p3fa0d8c9f0)" d="M 288 583.19356 
L 306.310407 583.19356 
L 306.310407 118.71 
L 288 118.71 
z
" style="fill:#802020;"/>
   </g>
   <g id="patch_5">
    <path clip-path="url(#p3fa0d8c9f0)" d="M 314.317582 1068.39 
L 395.402115 1068.39 
L 395.402115 551.874308 
L 314.317582 551.874308 
z
" style="fill:#804f40;"/>
   </g>
   <g id="patch_6">
    <path clip-path="url(#p3fa0d8c9f0)" d="M 314.317582 548.719225 
L 395.402115 548.719225 
L 395.402115 118.71 
L 314.317582 118.71 
z
" style="fill:#803720;"/>
   </g>
   <g id="patch_7">
    <path clip-path="url(#p3fa0d8c9f0)" d="M 403.40929 1068.39 
L 458.98894 1068.39 
L 458.98894 600.386013 
L 403.40929 600.386013 
z
" style="fill:#805e40;"/>
   </g>
   <g id="patch_8">
    <path clip-path="url(#p3fa0d8c9f0)" d="M 403.40929 597.23093 
L 458.98894 597.23093 
L 458.98894 118.71 
L 403.40929 118.71 
z
" style="fill:#804e20;"/>
   </g>
   <g id="patch_9">
    <path clip-path="url(#p3fa0d8c9f0)" d="M 466.996115 1068.39 
L 477.062207 1068.39 
L 477.062207 624.162048 
L 466.996115 624.162048 
z
" style="fill:#806e40;"/>
   </g>
   <g id="patch_10">
    <path clip-path="url(#p3fa0d8c9f0)" d="M 466.996115 621.006965 
L 477.062207 621.006965 
L 477.062207 118.71 
L 466.996115 118.71 
z
" style="fill:#806520;"/>
   </g>
   <g id="patch_11">
    <path clip-path="url(#p3fa0d8c9f0)" d="M 485.069382 1068.39 
L 508.35108 1068.39 
L 508.35108 659.149784 
L 485.069382 659.149784 
z
" style="fill:#807d40;"/>
   </g>
   <g id="patch_12">
    <path clip-path="url(#p3fa0d8c9f0)" d="M 485.069382 655.994701 
L 508.35108 655.994701 
L 508.35108 118.71 
L 485.069382 118.71 
z
" style="fill:#807c20;"/>
   </g>
   <g id="patch_13">
    <path clip-path="url(#p3fa0d8c9f0)" d="M 516.358255 1068.39 
L 547.915145 1068.39 
L 547.915145 545.115462 
L 516.358255 545.115462 
z
" style="fill:#738040;"/>
   </g>
   <g id="patch_14">
    <path clip-path="url(#p3fa0d8c9f0)" d="M 516.358255 541.960379 
L 547.915145 541.960379 
L 547.915145 118.71 
L 516.358255 118.71 
z
" style="fill:#6c8020;"/>
   </g>
   <g id="patch_15">
    <path clip-path="url(#p3fa0d8c9f0)" d="M 555.92232 1068.39 
L 565.031207 1068.39 
L 565.031207 683.362915 
L 555.92232 683.362915 
z
" style="fill:#638040;"/>
   </g>
   <g id="patch_16">
    <path clip-path="url(#p3fa0d8c9f0)" d="M 555.92232 680.207832 
L 565.031207 680.207832 
L 565.031207 118.71 
L 555.92232 118.71 
z
" style="fill:#558020;"/>
   </g>
   <g id="patch_17">
    <path clip-path="url(#p3fa0d8c9f0)" d="M 573.038382 1068.39 
L 585.45117 1068.39 
L 585.45117 566.873066 
L 573.038382 566.873066 
z
" style="fill:#548040;"/>
   </g>
   <g id="patch_18">
    <path clip-path="url(#p3fa0d8c9f0)" d="M 573.038382 563.717983 
L 585.45117 563.717983 
L 585.45117 118.71 
L 573.038382 118.71 
z
" style="fill:#3e8020;"/>
   </g>
   <g id="patch_19">
    <path clip-path="url(#p3fa0d8c9f0)" d="M 593.458345 1068.39 
L 615.412307 1068.39 
L 615.412307 597.12443 
L 593.458345 597.12443 
z
" style="fill:#458040;"/>
   </g>
   <g id="patch_20">
    <path clip-path="url(#p3fa0d8c9f0)" d="M 593.458345 593.969346 
L 615.412307 593.969346 
L 615.412307 118.71 
L 593.458345 118.71 
z
" style="fill:#288020;"/>
   </g>
   <g id="patch_21">
    <path clip-path="url(#p3fa0d8c9f0)" d="M 623.419482 1068.39 
L 645.126423 1068.39 
L 645.126423 632.153765 
L 623.419482 632.153765 
z
" style="fill:#40804a;"/>
   </g>
   <g id="patch_22">
    <path clip-path="url(#p3fa0d8c9f0)" d="M 623.419482 628.998682 
L 645.126423 628.998682 
L 645.126423 118.71 
L 623.419482 118.71 
z
" style="fill:#20802f;"/>
   </g>
   <g id="patch_23">
    <path clip-path="url(#p3fa0d8c9f0)" d="M 653.133597 1068.39 
L 663.724608 1068.39 
L 663.724608 643.419629 
L 653.133597 643.419629 
z
" style="fill:#408059;"/>
   </g>
   <g id="patch_24">
    <path clip-path="url(#p3fa0d8c9f0)" d="M 653.133597 640.264546 
L 663.724608 640.264546 
L 663.724608 118.71 
L 653.133597 118.71 
z
" style="fill:#208046;"/>
   </g>
   <g id="patch_25">
    <path clip-path="url(#p3fa0d8c9f0)" d="M 671.731783 1068.39 
L 890.314195 1068.39 
L 890.314195 665.39154 
L 671.731783 665.39154 
z
" style="fill:#408069;"/>
   </g>
   <g id="patch_26">
    <path clip-path="url(#p3fa0d8c9f0)" d="M 671.731783 662.236457 
L 890.314195 662.236457 
L 890.314195 118.71 
L 671.731783 118.71 
z
" style="fill:#20805d;"/>
   </g>
   <g id="patch_27">
    <path clip-path="url(#p3fa0d8c9f0)" d="M 898.32137 1068.39 
L 911.135567 1068.39 
L 911.135567 527.844445 
L 898.32137 527.844445 
z
" style="fill:#408078;"/>
   </g>
   <g id="patch_28">
    <path clip-path="url(#p3fa0d8c9f0)" d="M 898.32137 524.689362 
L 911.135567 524.689362 
L 911.135567 118.71 
L 898.32137 118.71 
z
" style="fill:#208074;"/>
   </g>
   <g id="patch_29">
    <path clip-path="url(#p3fa0d8c9f0)" d="M 919.142742 1068.39 
L 1013.257616 1068.39 
L 1013.257616 511.28183 
L 919.142742 511.28183 
z
" style="fill:#407880;"/>
   </g>
   <g id="patch_30">
    <path clip-path="url(#p3fa0d8c9f0)" d="M 919.142742 508.126747 
L 1013.257616 508.126747 
L 1013.257616 118.71 
L 919.142742 118.71 
z
" style="fill:#207480;"/>
   </g>
   <g id="patch_31">
    <path clip-path="url(#p3fa0d8c9f0)" d="M 1021.264791 1068.39 
L 1064.431652 1068.39 
L 1064.431652 668.926695 
L 1021.264791 668.926695 
z
" style="fill:#406980;"/>
   </g>
   <g id="patch_32">
    <path clip-path="url(#p3fa0d8c9f0)" d="M 1021.264791 665.771612 
L 1064.431652 665.771612 
L 1064.431652 118.71 
L 1021.264791 118.71 
z
" style="fill:#205d80;"/>
   </g>
   <g id="patch_33">
    <path clip-path="url(#p3fa0d8c9f0)" d="M 1072.438827 1068.39 
L 1096.585097 1068.39 
L 1096.585097 624.1769 
L 1072.438827 624.1769 
z
" style="fill:#405980;"/>
   </g>
   <g id="patch_34">
    <path clip-path="url(#p3fa0d8c9f0)" d="M 1072.438827 621.021817 
L 1096.585097 621.021817 
L 1096.585097 118.71 
L 1072.438827 118.71 
z
" style="fill:#204680;"/>
   </g>
   <g id="patch_35">
    <path clip-path="url(#p3fa0d8c9f0)" d="M 1104.592272 1068.39 
L 1118.363674 1068.39 
L 1118.363674 699.117947 
L 1104.592272 699.117947 
z
" style="fill:#404a80;"/>
   </g>
   <g id="patch_36">
    <path clip-path="url(#p3fa0d8c9f0)" d="M 1104.592272 695.962864 
L 1118.363674 695.962864 
L 1118.363674 118.71 
L 1104.592272 118.71 
z
" style="fill:#202f80;"/>
   </g>
   <g id="patch_37">
    <path clip-path="url(#p3fa0d8c9f0)" d="M 1126.370849 1068.39 
L 1139.030658 1068.39 
L 1139.030658 611.287723 
L 1126.370849 611.287723 
z
" style="fill:#454080;"/>
   </g>
   <g id="patch_38">
    <path clip-path="url(#p3fa0d8c9f0)" d="M 1126.370849 608.13264 
L 1139.030658 608.13264 
L 1139.030658 118.71 
L 1126.370849 118.71 
z
" style="fill:#282080;"/>
   </g>
   <g id="patch_39">
    <path clip-path="url(#p3fa0d8c9f0)" d="M 1147.037833 1068.39 
L 1543.629512 1068.39 
L 1543.629512 607.876592 
L 1147.037833 607.876592 
z
" style="fill:#544080;"/>
   </g>
   <g id="patch_40">
    <path clip-path="url(#p3fa0d8c9f0)" d="M 1147.037833 604.721509 
L 1543.629512 604.721509 
L 1543.629512 118.71 
L 1147.037833 118.71 
z
" style="fill:#3e2080;"/>
   </g>
   <g id="patch_41">
    <path clip-path="url(#p3fa0d8c9f0)" d="M 1551.636687 1068.39 
L 1688.980177 1068.39 
L 1688.980177 665.989232 
L 1551.636687 665.989232 
z
" style="fill:#634080;"/>
   </g>
   <g id="patch_42">
    <path clip-path="url(#p3fa0d8c9f0)" d="M 1551.636687 662.834149 
L 1688.980177 662.834149 
L 1688.980177 118.71 
L 1551.636687 118.71 
z
" style="fill:#552080;"/>
   </g>
   <g id="patch_43">
    <path clip-path="url(#p3fa0d8c9f0)" d="M 1696.987352 1068.39 
L 1715.606535 1068.39 
L 1715.606535 639.863794 
L 1696.987352 639.863794 
z
" style="fill:#734080;"/>
   </g>
   <g id="patch_44">
    <path clip-path="url(#p3fa0d8c9f0)" d="M 1696.987352 636.708711 
L 1715.606535 636.708711 
L 1715.606535 118.71 
L 1696.987352 118.71 
z
" style="fill:#6c2080;"/>
   </g>
   <g id="patch_45">
    <path clip-path="url(#p3fa0d8c9f0)" d="M 1723.61371 1068.39 
L 1737.107214 1068.39 
L 1737.107214 561.555147 
L 1723.61371 561.555147 
z
" style="fill:#80407d;"/>
   </g>
   <g id="patch_46">
    <path clip-path="url(#p3fa0d8c9f0)" d="M 1723.61371 558.400064 
L 1737.107214 558.400064 
L 1737.107214 118.71 
L 1723.61371 118.71 
z
" style="fill:#80207c;"/>
   </g>
   <g id="patch_47">
    <path clip-path="url(#p3fa0d8c9f0)" d="M 1745.114389 1068.39 
L 1781.549937 1068.39 
L 1781.549937 669.726539 
L 1745.114389 669.726539 
z
" style="fill:#80406e;"/>
   </g>
   <g id="patch_48">
    <path clip-path="url(#p3fa0d8c9f0)" d="M 1745.114389 666.571456 
L 1781.549937 666.571456 
L 1781.549937 118.71 
L 1745.114389 118.71 
z
" style="fill:#802065;"/>
   </g>
   <g id="patch_49">
    <path clip-path="url(#p3fa0d8c9f0)" d="M 1789.557112 1068.39 
L 2073.6 1068.39 
L 2073.6 651.050608 
L 1789.557112 651.050608 
z
" style="fill:#80405e;"/>
   </g>
   <g id="patch_50">
    <path clip-path="url(#p3fa0d8c9f0)" d="M 1789.557112 647.895525 
L 2073.6 647.895525 
L 2073.6 118.71 
L 1789.557112 118.71 
z
" style="fill:#80204e;"/>
   </g>
   <g id="patch_51">
    <path d="M 288 118.71 
L 2073.6 118.71 
" style="fill:none;stroke:#000000;stroke-linecap:square;stroke-linejoin:miter;"/>
   </g>
   <g id="patch_52">
    <path d="M 288 1068.39 
L 288 118.71 
" style="fill:none;stroke:#000000;stroke-linecap:square;stroke-linejoin:miter;"/>
   </g>
   <g id="patch_53">
    <path d="M 2073.6 1068.39 
L 2073.6 118.71 
" style="fill:none;stroke:#000000;stroke-linecap:square;stroke-linejoin:miter;"/>
   </g>
   <g id="patch_54">
    <path d="M 288 1068.39 
L 2073.6 1068.39 
" style="fill:none;stroke:#000000;stroke-linecap:square;stroke-linejoin:miter;"/>
   </g>
   <g id="matplotlib.axis_1">
    <g id="xtick_1">
     <g id="line2d_1">
      <defs>
       <path d="M 0 0 
L 0 -4 
" id="m5bbbaf692a" style="stroke:#000000;stroke-width:0.5;"/>
      </defs>
      <g>
       <use style="stroke:#000000;stroke-width:0.5;" x="1084.51196195" xlink:href="#m5bbbaf692a" y="1068.39"/>
      </g>
     </g>
     <g id="text_1">
      <!-- Regina_Saskatoon -->
      <defs>
       <path d="M 34.28125 27.484375 
Q 23.390625 27.484375 19.1875 25 
Q 14.984375 22.515625 14.984375 16.5 
Q 14.984375 11.71875 18.140625 8.90625 
Q 21.296875 6.109375 26.703125 6.109375 
Q 34.1875 6.109375 38.703125 11.40625 
Q 43.21875 16.703125 43.21875 25.484375 
L 43.21875 27.484375 
z
M 52.203125 31.203125 
L 52.203125 0 
L 43.21875 0 
L 43.21875 8.296875 
Q 40.140625 3.328125 35.546875 0.953125 
Q 30.953125 -1.421875 24.3125 -1.421875 
Q 15.921875 -1.421875 10.953125 3.296875 
Q 6 8.015625 6 15.921875 
Q 6 25.140625 12.171875 29.828125 
Q 18.359375 34.515625 30.609375 34.515625 
L 43.21875 34.515625 
L 43.21875 35.40625 
Q 43.21875 41.609375 39.140625 45 
Q 35.0625 48.390625 27.6875 48.390625 
Q 23 48.390625 18.546875 47.265625 
Q 14.109375 46.140625 10.015625 43.890625 
L 10.015625 52.203125 
Q 14.9375 54.109375 19.578125 55.046875 
Q 24.21875 56 28.609375 56 
Q 40.484375 56 46.34375 49.84375 
Q 52.203125 43.703125 52.203125 31.203125 
" id="BitstreamVeraSans-Roman-61"/>
       <path d="M 53.515625 70.515625 
L 53.515625 60.890625 
Q 47.90625 63.578125 42.921875 64.890625 
Q 37.9375 66.21875 33.296875 66.21875 
Q 25.25 66.21875 20.875 63.09375 
Q 16.5 59.96875 16.5 54.203125 
Q 16.5 49.359375 19.40625 46.890625 
Q 22.3125 44.4375 30.421875 42.921875 
L 36.375 41.703125 
Q 47.40625 39.59375 52.65625 34.296875 
Q 57.90625 29 57.90625 20.125 
Q 57.90625 9.515625 50.796875 4.046875 
Q 43.703125 -1.421875 29.984375 -1.421875 
Q 24.8125 -1.421875 18.96875 -0.25 
Q 13.140625 0.921875 6.890625 3.21875 
L 6.890625 13.375 
Q 12.890625 10.015625 18.65625 8.296875 
Q 24.421875 6.59375 29.984375 6.59375 
Q 38.421875 6.59375 43.015625 9.90625 
Q 47.609375 13.234375 47.609375 19.390625 
Q 47.609375 24.75 44.3125 27.78125 
Q 41.015625 30.8125 33.5 32.328125 
L 27.484375 33.5 
Q 16.453125 35.6875 11.515625 40.375 
Q 6.59375 45.0625 6.59375 53.421875 
Q 6.59375 63.09375 13.40625 68.65625 
Q 20.21875 74.21875 32.171875 74.21875 
Q 37.3125 74.21875 42.625 73.28125 
Q 47.953125 72.359375 53.515625 70.515625 
" id="BitstreamVeraSans-Roman-53"/>
       <path d="M 9.421875 54.6875 
L 18.40625 54.6875 
L 18.40625 0 
L 9.421875 0 
z
M 9.421875 75.984375 
L 18.40625 75.984375 
L 18.40625 64.59375 
L 9.421875 64.59375 
z
" id="BitstreamVeraSans-Roman-69"/>
       <path d="M 56.203125 29.59375 
L 56.203125 25.203125 
L 14.890625 25.203125 
Q 15.484375 15.921875 20.484375 11.0625 
Q 25.484375 6.203125 34.421875 6.203125 
Q 39.59375 6.203125 44.453125 7.46875 
Q 49.3125 8.734375 54.109375 11.28125 
L 54.109375 2.78125 
Q 49.265625 0.734375 44.1875 -0.34375 
Q 39.109375 -1.421875 33.890625 -1.421875 
Q 20.796875 -1.421875 13.15625 6.1875 
Q 5.515625 13.8125 5.515625 26.8125 
Q 5.515625 40.234375 12.765625 48.109375 
Q 20.015625 56 32.328125 56 
Q 43.359375 56 49.78125 48.890625 
Q 56.203125 41.796875 56.203125 29.59375 
M 47.21875 32.234375 
Q 47.125 39.59375 43.09375 43.984375 
Q 39.0625 48.390625 32.421875 48.390625 
Q 24.90625 48.390625 20.390625 44.140625 
Q 15.875 39.890625 15.1875 32.171875 
z
" id="BitstreamVeraSans-Roman-65"/>
       <path d="M 50.984375 -16.609375 
L 50.984375 -23.578125 
L -0.984375 -23.578125 
L -0.984375 -16.609375 
z
" id="BitstreamVeraSans-Roman-5f"/>
       <path d="M 44.390625 34.1875 
Q 47.5625 33.109375 50.5625 29.59375 
Q 53.5625 26.078125 56.59375 19.921875 
L 66.609375 0 
L 56 0 
L 46.6875 18.703125 
Q 43.0625 26.03125 39.671875 28.421875 
Q 36.28125 30.8125 30.421875 30.8125 
L 19.671875 30.8125 
L 19.671875 0 
L 9.8125 0 
L 9.8125 72.90625 
L 32.078125 72.90625 
Q 44.578125 72.90625 50.734375 67.671875 
Q 56.890625 62.453125 56.890625 51.90625 
Q 56.890625 45.015625 53.6875 40.46875 
Q 50.484375 35.9375 44.390625 34.1875 
M 19.671875 64.796875 
L 19.671875 38.921875 
L 32.078125 38.921875 
Q 39.203125 38.921875 42.84375 42.21875 
Q 46.484375 45.515625 46.484375 51.90625 
Q 46.484375 58.296875 42.84375 61.546875 
Q 39.203125 64.796875 32.078125 64.796875 
z
" id="BitstreamVeraSans-Roman-52"/>
       <path d="M 18.3125 70.21875 
L 18.3125 54.6875 
L 36.8125 54.6875 
L 36.8125 47.703125 
L 18.3125 47.703125 
L 18.3125 18.015625 
Q 18.3125 11.328125 20.140625 9.421875 
Q 21.96875 7.515625 27.59375 7.515625 
L 36.8125 7.515625 
L 36.8125 0 
L 27.59375 0 
Q 17.1875 0 13.234375 3.875 
Q 9.28125 7.765625 9.28125 18.015625 
L 9.28125 47.703125 
L 2.6875 47.703125 
L 2.6875 54.6875 
L 9.28125 54.6875 
L 9.28125 70.21875 
z
" id="BitstreamVeraSans-Roman-74"/>
       <path d="M 30.609375 48.390625 
Q 23.390625 48.390625 19.1875 42.75 
Q 14.984375 37.109375 14.984375 27.296875 
Q 14.984375 17.484375 19.15625 11.84375 
Q 23.34375 6.203125 30.609375 6.203125 
Q 37.796875 6.203125 41.984375 11.859375 
Q 46.1875 17.53125 46.1875 27.296875 
Q 46.1875 37.015625 41.984375 42.703125 
Q 37.796875 48.390625 30.609375 48.390625 
M 30.609375 56 
Q 42.328125 56 49.015625 48.375 
Q 55.71875 40.765625 55.71875 27.296875 
Q 55.71875 13.875 49.015625 6.21875 
Q 42.328125 -1.421875 30.609375 -1.421875 
Q 18.84375 -1.421875 12.171875 6.21875 
Q 5.515625 13.875 5.515625 27.296875 
Q 5.515625 40.765625 12.171875 48.375 
Q 18.84375 56 30.609375 56 
" id="BitstreamVeraSans-Roman-6f"/>
       <path d="M 9.078125 75.984375 
L 18.109375 75.984375 
L 18.109375 31.109375 
L 44.921875 54.6875 
L 56.390625 54.6875 
L 27.390625 29.109375 
L 57.625 0 
L 45.90625 0 
L 18.109375 26.703125 
L 18.109375 0 
L 9.078125 0 
z
" id="BitstreamVeraSans-Roman-6b"/>
       <path d="M 54.890625 33.015625 
L 54.890625 0 
L 45.90625 0 
L 45.90625 32.71875 
Q 45.90625 40.484375 42.875 44.328125 
Q 39.84375 48.1875 33.796875 48.1875 
Q 26.515625 48.1875 22.3125 43.546875 
Q 18.109375 38.921875 18.109375 30.90625 
L 18.109375 0 
L 9.078125 0 
L 9.078125 54.6875 
L 18.109375 54.6875 
L 18.109375 46.1875 
Q 21.34375 51.125 25.703125 53.5625 
Q 30.078125 56 35.796875 56 
Q 45.21875 56 50.046875 50.171875 
Q 54.890625 44.34375 54.890625 33.015625 
" id="BitstreamVeraSans-Roman-6e"/>
       <path d="M 45.40625 27.984375 
Q 45.40625 37.75 41.375 43.109375 
Q 37.359375 48.484375 30.078125 48.484375 
Q 22.859375 48.484375 18.828125 43.109375 
Q 14.796875 37.75 14.796875 27.984375 
Q 14.796875 18.265625 18.828125 12.890625 
Q 22.859375 7.515625 30.078125 7.515625 
Q 37.359375 7.515625 41.375 12.890625 
Q 45.40625 18.265625 45.40625 27.984375 
M 54.390625 6.78125 
Q 54.390625 -7.171875 48.1875 -13.984375 
Q 42 -20.796875 29.203125 -20.796875 
Q 24.46875 -20.796875 20.265625 -20.09375 
Q 16.0625 -19.390625 12.109375 -17.921875 
L 12.109375 -9.1875 
Q 16.0625 -11.328125 19.921875 -12.34375 
Q 23.78125 -13.375 27.78125 -13.375 
Q 36.625 -13.375 41.015625 -8.765625 
Q 45.40625 -4.15625 45.40625 5.171875 
L 45.40625 9.625 
Q 42.625 4.78125 38.28125 2.390625 
Q 33.9375 0 27.875 0 
Q 17.828125 0 11.671875 7.65625 
Q 5.515625 15.328125 5.515625 27.984375 
Q 5.515625 40.671875 11.671875 48.328125 
Q 17.828125 56 27.875 56 
Q 33.9375 56 38.28125 53.609375 
Q 42.625 51.21875 45.40625 46.390625 
L 45.40625 54.6875 
L 54.390625 54.6875 
z
" id="BitstreamVeraSans-Roman-67"/>
       <path d="M 44.28125 53.078125 
L 44.28125 44.578125 
Q 40.484375 46.53125 36.375 47.5 
Q 32.28125 48.484375 27.875 48.484375 
Q 21.1875 48.484375 17.84375 46.4375 
Q 14.5 44.390625 14.5 40.28125 
Q 14.5 37.15625 16.890625 35.375 
Q 19.28125 33.59375 26.515625 31.984375 
L 29.59375 31.296875 
Q 39.15625 29.25 43.1875 25.515625 
Q 47.21875 21.78125 47.21875 15.09375 
Q 47.21875 7.46875 41.1875 3.015625 
Q 35.15625 -1.421875 24.609375 -1.421875 
Q 20.21875 -1.421875 15.453125 -0.5625 
Q 10.6875 0.296875 5.421875 2 
L 5.421875 11.28125 
Q 10.40625 8.6875 15.234375 7.390625 
Q 20.0625 6.109375 24.8125 6.109375 
Q 31.15625 6.109375 34.5625 8.28125 
Q 37.984375 10.453125 37.984375 14.40625 
Q 37.984375 18.0625 35.515625 20.015625 
Q 33.0625 21.96875 24.703125 23.78125 
L 21.578125 24.515625 
Q 13.234375 26.265625 9.515625 29.90625 
Q 5.8125 33.546875 5.8125 39.890625 
Q 5.8125 47.609375 11.28125 51.796875 
Q 16.75 56 26.8125 56 
Q 31.78125 56 36.171875 55.265625 
Q 40.578125 54.546875 44.28125 53.078125 
" id="BitstreamVeraSans-Roman-73"/>
      </defs>
      <g transform="translate(1087.65633695 1182.533125)rotate(-90.0)scale(0.12 -0.12)">
       <use xlink:href="#BitstreamVeraSans-Roman-52"/>
       <use x="69.419921875" xlink:href="#BitstreamVeraSans-Roman-65"/>
       <use x="130.943359375" xlink:href="#BitstreamVeraSans-Roman-67"/>
       <use x="194.419921875" xlink:href="#BitstreamVeraSans-Roman-69"/>
       <use x="222.203125" xlink:href="#BitstreamVeraSans-Roman-6e"/>
       <use x="285.58203125" xlink:href="#BitstreamVeraSans-Roman-61"/>
       <use x="346.861328125" xlink:href="#BitstreamVeraSans-Roman-5f"/>
       <use x="396.861328125" xlink:href="#BitstreamVeraSans-Roman-53"/>
       <use x="460.337890625" xlink:href="#BitstreamVeraSans-Roman-61"/>
       <use x="521.6171875" xlink:href="#BitstreamVeraSans-Roman-73"/>
       <use x="573.716796875" xlink:href="#BitstreamVeraSans-Roman-6b"/>
       <use x="631.611328125" xlink:href="#BitstreamVeraSans-Roman-61"/>
       <use x="692.890625" xlink:href="#BitstreamVeraSans-Roman-74"/>
       <use x="732.099609375" xlink:href="#BitstreamVeraSans-Roman-6f"/>
       <use x="793.28125" xlink:href="#BitstreamVeraSans-Roman-6f"/>
       <use x="854.462890625" xlink:href="#BitstreamVeraSans-Roman-6e"/>
      </g>
     </g>
    </g>
    <g id="xtick_2">
     <g id="line2d_2">
      <g>
       <use style="stroke:#000000;stroke-width:0.5;" x="1620.30843219" xlink:href="#m5bbbaf692a" y="1068.39"/>
      </g>
     </g>
     <g id="text_2">
      <!-- Vancouver -->
      <defs>
       <path d="M 2.984375 54.6875 
L 12.5 54.6875 
L 29.59375 8.796875 
L 46.6875 54.6875 
L 56.203125 54.6875 
L 35.6875 0 
L 23.484375 0 
z
" id="BitstreamVeraSans-Roman-76"/>
       <path d="M 41.109375 46.296875 
Q 39.59375 47.171875 37.8125 47.578125 
Q 36.03125 48 33.890625 48 
Q 26.265625 48 22.1875 43.046875 
Q 18.109375 38.09375 18.109375 28.8125 
L 18.109375 0 
L 9.078125 0 
L 9.078125 54.6875 
L 18.109375 54.6875 
L 18.109375 46.1875 
Q 20.953125 51.171875 25.484375 53.578125 
Q 30.03125 56 36.53125 56 
Q 37.453125 56 38.578125 55.875 
Q 39.703125 55.765625 41.0625 55.515625 
z
" id="BitstreamVeraSans-Roman-72"/>
       <path d="M 28.609375 0 
L 0.78125 72.90625 
L 11.078125 72.90625 
L 34.1875 11.53125 
L 57.328125 72.90625 
L 67.578125 72.90625 
L 39.796875 0 
z
" id="BitstreamVeraSans-Roman-56"/>
       <path d="M 48.78125 52.59375 
L 48.78125 44.1875 
Q 44.96875 46.296875 41.140625 47.34375 
Q 37.3125 48.390625 33.40625 48.390625 
Q 24.65625 48.390625 19.8125 42.84375 
Q 14.984375 37.3125 14.984375 27.296875 
Q 14.984375 17.28125 19.8125 11.734375 
Q 24.65625 6.203125 33.40625 6.203125 
Q 37.3125 6.203125 41.140625 7.25 
Q 44.96875 8.296875 48.78125 10.40625 
L 48.78125 2.09375 
Q 45.015625 0.34375 40.984375 -0.53125 
Q 36.96875 -1.421875 32.421875 -1.421875 
Q 20.0625 -1.421875 12.78125 6.34375 
Q 5.515625 14.109375 5.515625 27.296875 
Q 5.515625 40.671875 12.859375 48.328125 
Q 20.21875 56 33.015625 56 
Q 37.15625 56 41.109375 55.140625 
Q 45.0625 54.296875 48.78125 52.59375 
" id="BitstreamVeraSans-Roman-63"/>
       <path d="M 8.5 21.578125 
L 8.5 54.6875 
L 17.484375 54.6875 
L 17.484375 21.921875 
Q 17.484375 14.15625 20.5 10.265625 
Q 23.53125 6.390625 29.59375 6.390625 
Q 36.859375 6.390625 41.078125 11.03125 
Q 45.3125 15.671875 45.3125 23.6875 
L 45.3125 54.6875 
L 54.296875 54.6875 
L 54.296875 0 
L 45.3125 0 
L 45.3125 8.40625 
Q 42.046875 3.421875 37.71875 1 
Q 33.40625 -1.421875 27.6875 -1.421875 
Q 18.265625 -1.421875 13.375 4.4375 
Q 8.5 10.296875 8.5 21.578125 
" id="BitstreamVeraSans-Roman-75"/>
      </defs>
      <g transform="translate(1623.61968219 1136.509375)rotate(-90.0)scale(0.12 -0.12)">
       <use xlink:href="#BitstreamVeraSans-Roman-56"/>
       <use x="68.298828125" xlink:href="#BitstreamVeraSans-Roman-61"/>
       <use x="129.578125" xlink:href="#BitstreamVeraSans-Roman-6e"/>
       <use x="192.95703125" xlink:href="#BitstreamVeraSans-Roman-63"/>
       <use x="247.9375" xlink:href="#BitstreamVeraSans-Roman-6f"/>
       <use x="309.119140625" xlink:href="#BitstreamVeraSans-Roman-75"/>
       <use x="372.498046875" xlink:href="#BitstreamVeraSans-Roman-76"/>
       <use x="431.677734375" xlink:href="#BitstreamVeraSans-Roman-65"/>
       <use x="493.201171875" xlink:href="#BitstreamVeraSans-Roman-72"/>
      </g>
     </g>
    </g>
    <g id="xtick_3">
     <g id="line2d_3">
      <g>
       <use style="stroke:#000000;stroke-width:0.5;" x="354.859848559" xlink:href="#m5bbbaf692a" y="1068.39"/>
      </g>
     </g>
     <g id="text_3">
      <!-- Calgary -->
      <defs>
       <path d="M 64.40625 67.28125 
L 64.40625 56.890625 
Q 59.421875 61.53125 53.78125 63.8125 
Q 48.140625 66.109375 41.796875 66.109375 
Q 29.296875 66.109375 22.65625 58.46875 
Q 16.015625 50.828125 16.015625 36.375 
Q 16.015625 21.96875 22.65625 14.328125 
Q 29.296875 6.6875 41.796875 6.6875 
Q 48.140625 6.6875 53.78125 8.984375 
Q 59.421875 11.28125 64.40625 15.921875 
L 64.40625 5.609375 
Q 59.234375 2.09375 53.4375 0.328125 
Q 47.65625 -1.421875 41.21875 -1.421875 
Q 24.65625 -1.421875 15.125 8.703125 
Q 5.609375 18.84375 5.609375 36.375 
Q 5.609375 53.953125 15.125 64.078125 
Q 24.65625 74.21875 41.21875 74.21875 
Q 47.75 74.21875 53.53125 72.484375 
Q 59.328125 70.75 64.40625 67.28125 
" id="BitstreamVeraSans-Roman-43"/>
       <path d="M 32.171875 -5.078125 
Q 28.375 -14.84375 24.75 -17.8125 
Q 21.140625 -20.796875 15.09375 -20.796875 
L 7.90625 -20.796875 
L 7.90625 -13.28125 
L 13.1875 -13.28125 
Q 16.890625 -13.28125 18.9375 -11.515625 
Q 21 -9.765625 23.484375 -3.21875 
L 25.09375 0.875 
L 2.984375 54.6875 
L 12.5 54.6875 
L 29.59375 11.921875 
L 46.6875 54.6875 
L 56.203125 54.6875 
z
" id="BitstreamVeraSans-Roman-79"/>
       <path d="M 9.421875 75.984375 
L 18.40625 75.984375 
L 18.40625 0 
L 9.421875 0 
z
" id="BitstreamVeraSans-Roman-6c"/>
      </defs>
      <g transform="translate(358.171098559 1118.464375)rotate(-90.0)scale(0.12 -0.12)">
       <use xlink:href="#BitstreamVeraSans-Roman-43"/>
       <use x="69.82421875" xlink:href="#BitstreamVeraSans-Roman-61"/>
       <use x="131.103515625" xlink:href="#BitstreamVeraSans-Roman-6c"/>
       <use x="158.88671875" xlink:href="#BitstreamVeraSans-Roman-67"/>
       <use x="222.36328125" xlink:href="#BitstreamVeraSans-Roman-61"/>
       <use x="283.642578125" xlink:href="#BitstreamVeraSans-Roman-72"/>
       <use x="324.755859375" xlink:href="#BitstreamVeraSans-Roman-79"/>
      </g>
     </g>
    </g>
    <g id="xtick_4">
     <g id="line2d_4">
      <g>
       <use style="stroke:#000000;stroke-width:0.5;" x="431.199115175" xlink:href="#m5bbbaf692a" y="1068.39"/>
      </g>
     </g>
     <g id="text_4">
      <!-- Edmonton -->
      <defs>
       <path d="M 45.40625 46.390625 
L 45.40625 75.984375 
L 54.390625 75.984375 
L 54.390625 0 
L 45.40625 0 
L 45.40625 8.203125 
Q 42.578125 3.328125 38.25 0.953125 
Q 33.9375 -1.421875 27.875 -1.421875 
Q 17.96875 -1.421875 11.734375 6.484375 
Q 5.515625 14.40625 5.515625 27.296875 
Q 5.515625 40.1875 11.734375 48.09375 
Q 17.96875 56 27.875 56 
Q 33.9375 56 38.25 53.625 
Q 42.578125 51.265625 45.40625 46.390625 
M 14.796875 27.296875 
Q 14.796875 17.390625 18.875 11.75 
Q 22.953125 6.109375 30.078125 6.109375 
Q 37.203125 6.109375 41.296875 11.75 
Q 45.40625 17.390625 45.40625 27.296875 
Q 45.40625 37.203125 41.296875 42.84375 
Q 37.203125 48.484375 30.078125 48.484375 
Q 22.953125 48.484375 18.875 42.84375 
Q 14.796875 37.203125 14.796875 27.296875 
" id="BitstreamVeraSans-Roman-64"/>
       <path d="M 52 44.1875 
Q 55.375 50.25 60.0625 53.125 
Q 64.75 56 71.09375 56 
Q 79.640625 56 84.28125 50.015625 
Q 88.921875 44.046875 88.921875 33.015625 
L 88.921875 0 
L 79.890625 0 
L 79.890625 32.71875 
Q 79.890625 40.578125 77.09375 44.375 
Q 74.3125 48.1875 68.609375 48.1875 
Q 61.625 48.1875 57.5625 43.546875 
Q 53.515625 38.921875 53.515625 30.90625 
L 53.515625 0 
L 44.484375 0 
L 44.484375 32.71875 
Q 44.484375 40.625 41.703125 44.40625 
Q 38.921875 48.1875 33.109375 48.1875 
Q 26.21875 48.1875 22.15625 43.53125 
Q 18.109375 38.875 18.109375 30.90625 
L 18.109375 0 
L 9.078125 0 
L 9.078125 54.6875 
L 18.109375 54.6875 
L 18.109375 46.1875 
Q 21.1875 51.21875 25.484375 53.609375 
Q 29.78125 56 35.6875 56 
Q 41.65625 56 45.828125 52.96875 
Q 50 49.953125 52 44.1875 
" id="BitstreamVeraSans-Roman-6d"/>
       <path d="M 9.8125 72.90625 
L 55.90625 72.90625 
L 55.90625 64.59375 
L 19.671875 64.59375 
L 19.671875 43.015625 
L 54.390625 43.015625 
L 54.390625 34.71875 
L 19.671875 34.71875 
L 19.671875 8.296875 
L 56.78125 8.296875 
L 56.78125 0 
L 9.8125 0 
z
" id="BitstreamVeraSans-Roman-45"/>
      </defs>
      <g transform="translate(434.510365175 1133.87875)rotate(-90.0)scale(0.12 -0.12)">
       <use xlink:href="#BitstreamVeraSans-Roman-45"/>
       <use x="63.18359375" xlink:href="#BitstreamVeraSans-Roman-64"/>
       <use x="126.66015625" xlink:href="#BitstreamVeraSans-Roman-6d"/>
       <use x="224.072265625" xlink:href="#BitstreamVeraSans-Roman-6f"/>
       <use x="285.25390625" xlink:href="#BitstreamVeraSans-Roman-6e"/>
       <use x="348.6328125" xlink:href="#BitstreamVeraSans-Roman-74"/>
       <use x="387.841796875" xlink:href="#BitstreamVeraSans-Roman-6f"/>
       <use x="449.0234375" xlink:href="#BitstreamVeraSans-Roman-6e"/>
      </g>
     </g>
    </g>
    <g id="xtick_5">
     <g id="line2d_5">
      <g>
       <use style="stroke:#000000;stroke-width:0.5;" x="904.728468592" xlink:href="#m5bbbaf692a" y="1068.39"/>
      </g>
     </g>
     <g id="text_5">
      <!-- Oshawa -->
      <defs>
       <path d="M 4.203125 54.6875 
L 13.1875 54.6875 
L 24.421875 12.015625 
L 35.59375 54.6875 
L 46.1875 54.6875 
L 57.421875 12.015625 
L 68.609375 54.6875 
L 77.59375 54.6875 
L 63.28125 0 
L 52.6875 0 
L 40.921875 44.828125 
L 29.109375 0 
L 18.5 0 
z
" id="BitstreamVeraSans-Roman-77"/>
       <path d="M 39.40625 66.21875 
Q 28.65625 66.21875 22.328125 58.203125 
Q 16.015625 50.203125 16.015625 36.375 
Q 16.015625 22.609375 22.328125 14.59375 
Q 28.65625 6.59375 39.40625 6.59375 
Q 50.140625 6.59375 56.421875 14.59375 
Q 62.703125 22.609375 62.703125 36.375 
Q 62.703125 50.203125 56.421875 58.203125 
Q 50.140625 66.21875 39.40625 66.21875 
M 39.40625 74.21875 
Q 54.734375 74.21875 63.90625 63.9375 
Q 73.09375 53.65625 73.09375 36.375 
Q 73.09375 19.140625 63.90625 8.859375 
Q 54.734375 -1.421875 39.40625 -1.421875 
Q 24.03125 -1.421875 14.8125 8.828125 
Q 5.609375 19.09375 5.609375 36.375 
Q 5.609375 53.65625 14.8125 63.9375 
Q 24.03125 74.21875 39.40625 74.21875 
" id="BitstreamVeraSans-Roman-4f"/>
       <path d="M 54.890625 33.015625 
L 54.890625 0 
L 45.90625 0 
L 45.90625 32.71875 
Q 45.90625 40.484375 42.875 44.328125 
Q 39.84375 48.1875 33.796875 48.1875 
Q 26.515625 48.1875 22.3125 43.546875 
Q 18.109375 38.921875 18.109375 30.90625 
L 18.109375 0 
L 9.078125 0 
L 9.078125 75.984375 
L 18.109375 75.984375 
L 18.109375 46.1875 
Q 21.34375 51.125 25.703125 53.5625 
Q 30.078125 56 35.796875 56 
Q 45.21875 56 50.046875 50.171875 
Q 54.890625 44.34375 54.890625 33.015625 
" id="BitstreamVeraSans-Roman-68"/>
      </defs>
      <g transform="translate(908.039718592 1120.21375)rotate(-90.0)scale(0.12 -0.12)">
       <use xlink:href="#BitstreamVeraSans-Roman-4f"/>
       <use x="78.7109375" xlink:href="#BitstreamVeraSans-Roman-73"/>
       <use x="130.810546875" xlink:href="#BitstreamVeraSans-Roman-68"/>
       <use x="194.189453125" xlink:href="#BitstreamVeraSans-Roman-61"/>
       <use x="255.46875" xlink:href="#BitstreamVeraSans-Roman-77"/>
       <use x="337.255859375" xlink:href="#BitstreamVeraSans-Roman-61"/>
      </g>
     </g>
    </g>
    <g id="xtick_6">
     <g id="line2d_6">
      <g>
       <use style="stroke:#000000;stroke-width:0.5;" x="532.136699709" xlink:href="#m5bbbaf692a" y="1068.39"/>
      </g>
     </g>
     <g id="text_6">
      <!-- Hamilton -->
      <defs>
       <path d="M 9.8125 72.90625 
L 19.671875 72.90625 
L 19.671875 43.015625 
L 55.515625 43.015625 
L 55.515625 72.90625 
L 65.375 72.90625 
L 65.375 0 
L 55.515625 0 
L 55.515625 34.71875 
L 19.671875 34.71875 
L 19.671875 0 
L 9.8125 0 
z
" id="BitstreamVeraSans-Roman-48"/>
      </defs>
      <g transform="translate(535.447949709 1126.77625)rotate(-90.0)scale(0.12 -0.12)">
       <use xlink:href="#BitstreamVeraSans-Roman-48"/>
       <use x="75.1953125" xlink:href="#BitstreamVeraSans-Roman-61"/>
       <use x="136.474609375" xlink:href="#BitstreamVeraSans-Roman-6d"/>
       <use x="233.88671875" xlink:href="#BitstreamVeraSans-Roman-69"/>
       <use x="261.669921875" xlink:href="#BitstreamVeraSans-Roman-6c"/>
       <use x="289.453125" xlink:href="#BitstreamVeraSans-Roman-74"/>
       <use x="328.662109375" xlink:href="#BitstreamVeraSans-Roman-6f"/>
       <use x="389.84375" xlink:href="#BitstreamVeraSans-Roman-6e"/>
      </g>
     </g>
    </g>
    <g id="xtick_7">
     <g id="line2d_7">
      <g>
       <use style="stroke:#000000;stroke-width:0.5;" x="1345.33367254" xlink:href="#m5bbbaf692a" y="1068.39"/>
      </g>
     </g>
     <g id="text_7">
      <!-- Toronto -->
      <defs>
       <path d="M -0.296875 72.90625 
L 61.375 72.90625 
L 61.375 64.59375 
L 35.5 64.59375 
L 35.5 0 
L 25.59375 0 
L 25.59375 64.59375 
L -0.296875 64.59375 
z
" id="BitstreamVeraSans-Roman-54"/>
      </defs>
      <g transform="translate(1348.64492254 1118.95375)rotate(-90.0)scale(0.12 -0.12)">
       <use xlink:href="#BitstreamVeraSans-Roman-54"/>
       <use x="60.818359375" xlink:href="#BitstreamVeraSans-Roman-6f"/>
       <use x="122.0" xlink:href="#BitstreamVeraSans-Roman-72"/>
       <use x="163.08203125" xlink:href="#BitstreamVeraSans-Roman-6f"/>
       <use x="224.263671875" xlink:href="#BitstreamVeraSans-Roman-6e"/>
       <use x="287.642578125" xlink:href="#BitstreamVeraSans-Roman-74"/>
       <use x="326.8515625" xlink:href="#BitstreamVeraSans-Roman-6f"/>
      </g>
     </g>
    </g>
    <g id="xtick_8">
     <g id="line2d_8">
      <g>
       <use style="stroke:#000000;stroke-width:0.5;" x="472.029161055" xlink:href="#m5bbbaf692a" y="1068.39"/>
      </g>
     </g>
     <g id="text_8">
      <!-- GreaterSudbury_GrandSudbury_ThunderBay -->
      <defs>
       <path d="M 48.6875 27.296875 
Q 48.6875 37.203125 44.609375 42.84375 
Q 40.53125 48.484375 33.40625 48.484375 
Q 26.265625 48.484375 22.1875 42.84375 
Q 18.109375 37.203125 18.109375 27.296875 
Q 18.109375 17.390625 22.1875 11.75 
Q 26.265625 6.109375 33.40625 6.109375 
Q 40.53125 6.109375 44.609375 11.75 
Q 48.6875 17.390625 48.6875 27.296875 
M 18.109375 46.390625 
Q 20.953125 51.265625 25.265625 53.625 
Q 29.59375 56 35.59375 56 
Q 45.5625 56 51.78125 48.09375 
Q 58.015625 40.1875 58.015625 27.296875 
Q 58.015625 14.40625 51.78125 6.484375 
Q 45.5625 -1.421875 35.59375 -1.421875 
Q 29.59375 -1.421875 25.265625 0.953125 
Q 20.953125 3.328125 18.109375 8.203125 
L 18.109375 0 
L 9.078125 0 
L 9.078125 75.984375 
L 18.109375 75.984375 
z
" id="BitstreamVeraSans-Roman-62"/>
       <path d="M 19.671875 34.8125 
L 19.671875 8.109375 
L 35.5 8.109375 
Q 43.453125 8.109375 47.28125 11.40625 
Q 51.125 14.703125 51.125 21.484375 
Q 51.125 28.328125 47.28125 31.5625 
Q 43.453125 34.8125 35.5 34.8125 
z
M 19.671875 64.796875 
L 19.671875 42.828125 
L 34.28125 42.828125 
Q 41.5 42.828125 45.03125 45.53125 
Q 48.578125 48.25 48.578125 53.8125 
Q 48.578125 59.328125 45.03125 62.0625 
Q 41.5 64.796875 34.28125 64.796875 
z
M 9.8125 72.90625 
L 35.015625 72.90625 
Q 46.296875 72.90625 52.390625 68.21875 
Q 58.5 63.53125 58.5 54.890625 
Q 58.5 48.1875 55.375 44.234375 
Q 52.25 40.28125 46.1875 39.3125 
Q 53.46875 37.75 57.5 32.78125 
Q 61.53125 27.828125 61.53125 20.40625 
Q 61.53125 10.640625 54.890625 5.3125 
Q 48.25 0 35.984375 0 
L 9.8125 0 
z
" id="BitstreamVeraSans-Roman-42"/>
       <path d="M 59.515625 10.40625 
L 59.515625 29.984375 
L 43.40625 29.984375 
L 43.40625 38.09375 
L 69.28125 38.09375 
L 69.28125 6.78125 
Q 63.578125 2.734375 56.6875 0.65625 
Q 49.8125 -1.421875 42 -1.421875 
Q 24.90625 -1.421875 15.25 8.5625 
Q 5.609375 18.5625 5.609375 36.375 
Q 5.609375 54.25 15.25 64.234375 
Q 24.90625 74.21875 42 74.21875 
Q 49.125 74.21875 55.546875 72.453125 
Q 61.96875 70.703125 67.390625 67.28125 
L 67.390625 56.78125 
Q 61.921875 61.421875 55.765625 63.765625 
Q 49.609375 66.109375 42.828125 66.109375 
Q 29.4375 66.109375 22.71875 58.640625 
Q 16.015625 51.171875 16.015625 36.375 
Q 16.015625 21.625 22.71875 14.15625 
Q 29.4375 6.6875 42.828125 6.6875 
Q 48.046875 6.6875 52.140625 7.59375 
Q 56.25 8.5 59.515625 10.40625 
" id="BitstreamVeraSans-Roman-47"/>
      </defs>
      <g transform="translate(475.173536055 1340.153125)rotate(-90.0)scale(0.12 -0.12)">
       <use xlink:href="#BitstreamVeraSans-Roman-47"/>
       <use x="77.490234375" xlink:href="#BitstreamVeraSans-Roman-72"/>
       <use x="118.572265625" xlink:href="#BitstreamVeraSans-Roman-65"/>
       <use x="180.095703125" xlink:href="#BitstreamVeraSans-Roman-61"/>
       <use x="241.375" xlink:href="#BitstreamVeraSans-Roman-74"/>
       <use x="280.583984375" xlink:href="#BitstreamVeraSans-Roman-65"/>
       <use x="342.107421875" xlink:href="#BitstreamVeraSans-Roman-72"/>
       <use x="383.220703125" xlink:href="#BitstreamVeraSans-Roman-53"/>
       <use x="446.697265625" xlink:href="#BitstreamVeraSans-Roman-75"/>
       <use x="510.076171875" xlink:href="#BitstreamVeraSans-Roman-64"/>
       <use x="573.552734375" xlink:href="#BitstreamVeraSans-Roman-62"/>
       <use x="637.029296875" xlink:href="#BitstreamVeraSans-Roman-75"/>
       <use x="700.408203125" xlink:href="#BitstreamVeraSans-Roman-72"/>
       <use x="741.521484375" xlink:href="#BitstreamVeraSans-Roman-79"/>
       <use x="800.701171875" xlink:href="#BitstreamVeraSans-Roman-5f"/>
       <use x="850.701171875" xlink:href="#BitstreamVeraSans-Roman-47"/>
       <use x="928.19140625" xlink:href="#BitstreamVeraSans-Roman-72"/>
       <use x="969.3046875" xlink:href="#BitstreamVeraSans-Roman-61"/>
       <use x="1030.583984375" xlink:href="#BitstreamVeraSans-Roman-6e"/>
       <use x="1093.962890625" xlink:href="#BitstreamVeraSans-Roman-64"/>
       <use x="1157.439453125" xlink:href="#BitstreamVeraSans-Roman-53"/>
       <use x="1220.916015625" xlink:href="#BitstreamVeraSans-Roman-75"/>
       <use x="1284.294921875" xlink:href="#BitstreamVeraSans-Roman-64"/>
       <use x="1347.771484375" xlink:href="#BitstreamVeraSans-Roman-62"/>
       <use x="1411.248046875" xlink:href="#BitstreamVeraSans-Roman-75"/>
       <use x="1474.626953125" xlink:href="#BitstreamVeraSans-Roman-72"/>
       <use x="1515.740234375" xlink:href="#BitstreamVeraSans-Roman-79"/>
       <use x="1574.919921875" xlink:href="#BitstreamVeraSans-Roman-5f"/>
       <use x="1624.919921875" xlink:href="#BitstreamVeraSans-Roman-54"/>
       <use x="1686.00390625" xlink:href="#BitstreamVeraSans-Roman-68"/>
       <use x="1749.3828125" xlink:href="#BitstreamVeraSans-Roman-75"/>
       <use x="1812.76171875" xlink:href="#BitstreamVeraSans-Roman-6e"/>
       <use x="1876.140625" xlink:href="#BitstreamVeraSans-Roman-64"/>
       <use x="1939.6171875" xlink:href="#BitstreamVeraSans-Roman-65"/>
       <use x="2001.140625" xlink:href="#BitstreamVeraSans-Roman-72"/>
       <use x="2042.25390625" xlink:href="#BitstreamVeraSans-Roman-42"/>
       <use x="2110.857421875" xlink:href="#BitstreamVeraSans-Roman-61"/>
       <use x="2172.13671875" xlink:href="#BitstreamVeraSans-Roman-79"/>
      </g>
     </g>
    </g>
    <g id="xtick_9">
     <g id="line2d_9">
      <g>
       <use style="stroke:#000000;stroke-width:0.5;" x="560.476763166" xlink:href="#m5bbbaf692a" y="1068.39"/>
      </g>
     </g>
     <g id="text_9">
      <!-- Kelowna_Abbotsford -->
      <defs>
       <path d="M 34.1875 63.1875 
L 20.796875 26.90625 
L 47.609375 26.90625 
z
M 28.609375 72.90625 
L 39.796875 72.90625 
L 67.578125 0 
L 57.328125 0 
L 50.6875 18.703125 
L 17.828125 18.703125 
L 11.1875 0 
L 0.78125 0 
z
" id="BitstreamVeraSans-Roman-41"/>
       <path d="M 9.8125 72.90625 
L 19.671875 72.90625 
L 19.671875 42.09375 
L 52.390625 72.90625 
L 65.09375 72.90625 
L 28.90625 38.921875 
L 67.671875 0 
L 54.6875 0 
L 19.671875 35.109375 
L 19.671875 0 
L 9.8125 0 
z
" id="BitstreamVeraSans-Roman-4b"/>
       <path d="M 37.109375 75.984375 
L 37.109375 68.5 
L 28.515625 68.5 
Q 23.6875 68.5 21.796875 66.546875 
Q 19.921875 64.59375 19.921875 59.515625 
L 19.921875 54.6875 
L 34.71875 54.6875 
L 34.71875 47.703125 
L 19.921875 47.703125 
L 19.921875 0 
L 10.890625 0 
L 10.890625 47.703125 
L 2.296875 47.703125 
L 2.296875 54.6875 
L 10.890625 54.6875 
L 10.890625 58.5 
Q 10.890625 67.625 15.140625 71.796875 
Q 19.390625 75.984375 28.609375 75.984375 
z
" id="BitstreamVeraSans-Roman-66"/>
      </defs>
      <g transform="translate(563.621138166 1194.941875)rotate(-90.0)scale(0.12 -0.12)">
       <use xlink:href="#BitstreamVeraSans-Roman-4b"/>
       <use x="65.498046875" xlink:href="#BitstreamVeraSans-Roman-65"/>
       <use x="127.021484375" xlink:href="#BitstreamVeraSans-Roman-6c"/>
       <use x="154.8046875" xlink:href="#BitstreamVeraSans-Roman-6f"/>
       <use x="215.986328125" xlink:href="#BitstreamVeraSans-Roman-77"/>
       <use x="297.7734375" xlink:href="#BitstreamVeraSans-Roman-6e"/>
       <use x="361.15234375" xlink:href="#BitstreamVeraSans-Roman-61"/>
       <use x="422.431640625" xlink:href="#BitstreamVeraSans-Roman-5f"/>
       <use x="472.431640625" xlink:href="#BitstreamVeraSans-Roman-41"/>
       <use x="540.83984375" xlink:href="#BitstreamVeraSans-Roman-62"/>
       <use x="604.31640625" xlink:href="#BitstreamVeraSans-Roman-62"/>
       <use x="667.79296875" xlink:href="#BitstreamVeraSans-Roman-6f"/>
       <use x="728.974609375" xlink:href="#BitstreamVeraSans-Roman-74"/>
       <use x="768.18359375" xlink:href="#BitstreamVeraSans-Roman-73"/>
       <use x="820.283203125" xlink:href="#BitstreamVeraSans-Roman-66"/>
       <use x="855.48828125" xlink:href="#BitstreamVeraSans-Roman-6f"/>
       <use x="916.669921875" xlink:href="#BitstreamVeraSans-Roman-72"/>
       <use x="957.767578125" xlink:href="#BitstreamVeraSans-Roman-64"/>
      </g>
     </g>
    </g>
    <g id="xtick_10">
     <g id="line2d_10">
      <g>
       <use style="stroke:#000000;stroke-width:0.5;" x="634.272952026" xlink:href="#m5bbbaf692a" y="1068.39"/>
      </g>
     </g>
     <g id="text_10">
      <!-- London -->
      <defs>
       <path d="M 9.8125 72.90625 
L 19.671875 72.90625 
L 19.671875 8.296875 
L 55.171875 8.296875 
L 55.171875 0 
L 9.8125 0 
z
" id="BitstreamVeraSans-Roman-4c"/>
      </defs>
      <g transform="translate(637.584202026 1116.5875)rotate(-90.0)scale(0.12 -0.12)">
       <use xlink:href="#BitstreamVeraSans-Roman-4c"/>
       <use x="55.697265625" xlink:href="#BitstreamVeraSans-Roman-6f"/>
       <use x="116.87890625" xlink:href="#BitstreamVeraSans-Roman-6e"/>
       <use x="180.2578125" xlink:href="#BitstreamVeraSans-Roman-64"/>
       <use x="243.734375" xlink:href="#BitstreamVeraSans-Roman-6f"/>
       <use x="304.916015625" xlink:href="#BitstreamVeraSans-Roman-6e"/>
      </g>
     </g>
    </g>
    <g id="xtick_11">
     <g id="line2d_11">
      <g>
       <use style="stroke:#000000;stroke-width:0.5;" x="1730.36046175" xlink:href="#m5bbbaf692a" y="1068.39"/>
      </g>
     </g>
     <g id="text_11">
      <!-- Windsor -->
      <defs>
       <path d="M 3.328125 72.90625 
L 13.28125 72.90625 
L 28.609375 11.28125 
L 43.890625 72.90625 
L 54.984375 72.90625 
L 70.3125 11.28125 
L 85.59375 72.90625 
L 95.609375 72.90625 
L 77.296875 0 
L 64.890625 0 
L 49.515625 63.28125 
L 33.984375 0 
L 21.578125 0 
z
" id="BitstreamVeraSans-Roman-57"/>
      </defs>
      <g transform="translate(1733.67171175 1121.335)rotate(-90.0)scale(0.12 -0.12)">
       <use xlink:href="#BitstreamVeraSans-Roman-57"/>
       <use x="98.845703125" xlink:href="#BitstreamVeraSans-Roman-69"/>
       <use x="126.62890625" xlink:href="#BitstreamVeraSans-Roman-6e"/>
       <use x="190.0078125" xlink:href="#BitstreamVeraSans-Roman-64"/>
       <use x="253.484375" xlink:href="#BitstreamVeraSans-Roman-73"/>
       <use x="305.583984375" xlink:href="#BitstreamVeraSans-Roman-6f"/>
       <use x="366.765625" xlink:href="#BitstreamVeraSans-Roman-72"/>
      </g>
     </g>
    </g>
    <g id="xtick_12">
     <g id="line2d_12">
      <g>
       <use style="stroke:#000000;stroke-width:0.5;" x="604.435325781" xlink:href="#m5bbbaf692a" y="1068.39"/>
      </g>
     </g>
     <g id="text_12">
      <!-- Kitchener -->
      <g transform="translate(607.746575781 1129.80625)rotate(-90.0)scale(0.12 -0.12)">
       <use xlink:href="#BitstreamVeraSans-Roman-4b"/>
       <use x="65.576171875" xlink:href="#BitstreamVeraSans-Roman-69"/>
       <use x="93.359375" xlink:href="#BitstreamVeraSans-Roman-74"/>
       <use x="132.568359375" xlink:href="#BitstreamVeraSans-Roman-63"/>
       <use x="187.548828125" xlink:href="#BitstreamVeraSans-Roman-68"/>
       <use x="250.927734375" xlink:href="#BitstreamVeraSans-Roman-65"/>
       <use x="312.451171875" xlink:href="#BitstreamVeraSans-Roman-6e"/>
       <use x="375.830078125" xlink:href="#BitstreamVeraSans-Roman-65"/>
       <use x="437.353515625" xlink:href="#BitstreamVeraSans-Roman-72"/>
      </g>
     </g>
    </g>
    <g id="xtick_13">
     <g id="line2d_13">
      <g>
       <use style="stroke:#000000;stroke-width:0.5;" x="496.710230897" xlink:href="#m5bbbaf692a" y="1068.39"/>
      </g>
     </g>
     <g id="text_13">
      <!-- Halifax -->
      <defs>
       <path d="M 54.890625 54.6875 
L 35.109375 28.078125 
L 55.90625 0 
L 45.3125 0 
L 29.390625 21.484375 
L 13.484375 0 
L 2.875 0 
L 24.125 28.609375 
L 4.6875 54.6875 
L 15.28125 54.6875 
L 29.78125 35.203125 
L 44.28125 54.6875 
z
" id="BitstreamVeraSans-Roman-78"/>
      </defs>
      <g transform="translate(500.021480897 1114.11625)rotate(-90.0)scale(0.12 -0.12)">
       <use xlink:href="#BitstreamVeraSans-Roman-48"/>
       <use x="75.1953125" xlink:href="#BitstreamVeraSans-Roman-61"/>
       <use x="136.474609375" xlink:href="#BitstreamVeraSans-Roman-6c"/>
       <use x="164.2578125" xlink:href="#BitstreamVeraSans-Roman-69"/>
       <use x="192.041015625" xlink:href="#BitstreamVeraSans-Roman-66"/>
       <use x="227.24609375" xlink:href="#BitstreamVeraSans-Roman-61"/>
       <use x="288.525390625" xlink:href="#BitstreamVeraSans-Roman-78"/>
      </g>
     </g>
    </g>
    <g id="xtick_14">
     <g id="line2d_14">
      <g>
       <use style="stroke:#000000;stroke-width:0.5;" x="1111.47797295" xlink:href="#m5bbbaf692a" y="1068.39"/>
      </g>
     </g>
     <g id="text_14">
      <!-- Sherbrooke_TroisRivieres -->
      <g transform="translate(1114.62234795 1224.705625)rotate(-90.0)scale(0.12 -0.12)">
       <use xlink:href="#BitstreamVeraSans-Roman-53"/>
       <use x="63.4765625" xlink:href="#BitstreamVeraSans-Roman-68"/>
       <use x="126.85546875" xlink:href="#BitstreamVeraSans-Roman-65"/>
       <use x="188.37890625" xlink:href="#BitstreamVeraSans-Roman-72"/>
       <use x="229.4921875" xlink:href="#BitstreamVeraSans-Roman-62"/>
       <use x="292.96875" xlink:href="#BitstreamVeraSans-Roman-72"/>
       <use x="334.05078125" xlink:href="#BitstreamVeraSans-Roman-6f"/>
       <use x="395.232421875" xlink:href="#BitstreamVeraSans-Roman-6f"/>
       <use x="456.4140625" xlink:href="#BitstreamVeraSans-Roman-6b"/>
       <use x="514.27734375" xlink:href="#BitstreamVeraSans-Roman-65"/>
       <use x="575.80078125" xlink:href="#BitstreamVeraSans-Roman-5f"/>
       <use x="625.80078125" xlink:href="#BitstreamVeraSans-Roman-54"/>
       <use x="686.666015625" xlink:href="#BitstreamVeraSans-Roman-72"/>
       <use x="727.748046875" xlink:href="#BitstreamVeraSans-Roman-6f"/>
       <use x="788.9296875" xlink:href="#BitstreamVeraSans-Roman-69"/>
       <use x="816.712890625" xlink:href="#BitstreamVeraSans-Roman-73"/>
       <use x="868.8125" xlink:href="#BitstreamVeraSans-Roman-52"/>
       <use x="938.294921875" xlink:href="#BitstreamVeraSans-Roman-69"/>
       <use x="966.078125" xlink:href="#BitstreamVeraSans-Roman-76"/>
       <use x="1025.2578125" xlink:href="#BitstreamVeraSans-Roman-69"/>
       <use x="1053.041015625" xlink:href="#BitstreamVeraSans-Roman-65"/>
       <use x="1114.564453125" xlink:href="#BitstreamVeraSans-Roman-72"/>
       <use x="1155.646484375" xlink:href="#BitstreamVeraSans-Roman-65"/>
       <use x="1217.169921875" xlink:href="#BitstreamVeraSans-Roman-73"/>
      </g>
     </g>
    </g>
    <g id="xtick_15">
     <g id="line2d_15">
      <g>
       <use style="stroke:#000000;stroke-width:0.5;" x="1931.57855585" xlink:href="#m5bbbaf692a" y="1068.39"/>
      </g>
     </g>
     <g id="text_15">
      <!-- other -->
      <g transform="translate(1934.88980585 1104.35875)rotate(-90.0)scale(0.12 -0.12)">
       <use xlink:href="#BitstreamVeraSans-Roman-6f"/>
       <use x="61.181640625" xlink:href="#BitstreamVeraSans-Roman-74"/>
       <use x="100.390625" xlink:href="#BitstreamVeraSans-Roman-68"/>
       <use x="163.76953125" xlink:href="#BitstreamVeraSans-Roman-65"/>
       <use x="225.29296875" xlink:href="#BitstreamVeraSans-Roman-72"/>
      </g>
     </g>
    </g>
    <g id="xtick_16">
     <g id="line2d_16">
      <g>
       <use style="stroke:#000000;stroke-width:0.5;" x="297.155203433" xlink:href="#m5bbbaf692a" y="1068.39"/>
      </g>
     </g>
     <g id="text_16">
      <!-- Brantford_Guelph_Barrie -->
      <defs>
       <path d="M 18.109375 8.203125 
L 18.109375 -20.796875 
L 9.078125 -20.796875 
L 9.078125 54.6875 
L 18.109375 54.6875 
L 18.109375 46.390625 
Q 20.953125 51.265625 25.265625 53.625 
Q 29.59375 56 35.59375 56 
Q 45.5625 56 51.78125 48.09375 
Q 58.015625 40.1875 58.015625 27.296875 
Q 58.015625 14.40625 51.78125 6.484375 
Q 45.5625 -1.421875 35.59375 -1.421875 
Q 29.59375 -1.421875 25.265625 0.953125 
Q 20.953125 3.328125 18.109375 8.203125 
M 48.6875 27.296875 
Q 48.6875 37.203125 44.609375 42.84375 
Q 40.53125 48.484375 33.40625 48.484375 
Q 26.265625 48.484375 22.1875 42.84375 
Q 18.109375 37.203125 18.109375 27.296875 
Q 18.109375 17.390625 22.1875 11.75 
Q 26.265625 6.109375 33.40625 6.109375 
Q 40.53125 6.109375 44.609375 11.75 
Q 48.6875 17.390625 48.6875 27.296875 
" id="BitstreamVeraSans-Roman-70"/>
      </defs>
      <g transform="translate(300.299578433 1220.348125)rotate(-90.0)scale(0.12 -0.12)">
       <use xlink:href="#BitstreamVeraSans-Roman-42"/>
       <use x="68.603515625" xlink:href="#BitstreamVeraSans-Roman-72"/>
       <use x="109.716796875" xlink:href="#BitstreamVeraSans-Roman-61"/>
       <use x="170.99609375" xlink:href="#BitstreamVeraSans-Roman-6e"/>
       <use x="234.375" xlink:href="#BitstreamVeraSans-Roman-74"/>
       <use x="273.583984375" xlink:href="#BitstreamVeraSans-Roman-66"/>
       <use x="308.7890625" xlink:href="#BitstreamVeraSans-Roman-6f"/>
       <use x="369.970703125" xlink:href="#BitstreamVeraSans-Roman-72"/>
       <use x="411.068359375" xlink:href="#BitstreamVeraSans-Roman-64"/>
       <use x="474.544921875" xlink:href="#BitstreamVeraSans-Roman-5f"/>
       <use x="524.544921875" xlink:href="#BitstreamVeraSans-Roman-47"/>
       <use x="602.03515625" xlink:href="#BitstreamVeraSans-Roman-75"/>
       <use x="665.4140625" xlink:href="#BitstreamVeraSans-Roman-65"/>
       <use x="726.9375" xlink:href="#BitstreamVeraSans-Roman-6c"/>
       <use x="754.720703125" xlink:href="#BitstreamVeraSans-Roman-70"/>
       <use x="818.197265625" xlink:href="#BitstreamVeraSans-Roman-68"/>
       <use x="881.576171875" xlink:href="#BitstreamVeraSans-Roman-5f"/>
       <use x="931.576171875" xlink:href="#BitstreamVeraSans-Roman-42"/>
       <use x="1000.1796875" xlink:href="#BitstreamVeraSans-Roman-61"/>
       <use x="1061.458984375" xlink:href="#BitstreamVeraSans-Roman-72"/>
       <use x="1102.556640625" xlink:href="#BitstreamVeraSans-Roman-72"/>
       <use x="1143.669921875" xlink:href="#BitstreamVeraSans-Roman-69"/>
       <use x="1171.453125" xlink:href="#BitstreamVeraSans-Roman-65"/>
      </g>
     </g>
    </g>
    <g id="xtick_17">
     <g id="line2d_17">
      <g>
       <use style="stroke:#000000;stroke-width:0.5;" x="1763.3321627" xlink:href="#m5bbbaf692a" y="1068.39"/>
      </g>
     </g>
     <g id="text_17">
      <!-- Winnipeg -->
      <g transform="translate(1766.6434127 1128.74875)rotate(-90.0)scale(0.12 -0.12)">
       <use xlink:href="#BitstreamVeraSans-Roman-57"/>
       <use x="98.845703125" xlink:href="#BitstreamVeraSans-Roman-69"/>
       <use x="126.62890625" xlink:href="#BitstreamVeraSans-Roman-6e"/>
       <use x="190.0078125" xlink:href="#BitstreamVeraSans-Roman-6e"/>
       <use x="253.38671875" xlink:href="#BitstreamVeraSans-Roman-69"/>
       <use x="281.169921875" xlink:href="#BitstreamVeraSans-Roman-70"/>
       <use x="344.646484375" xlink:href="#BitstreamVeraSans-Roman-65"/>
       <use x="406.169921875" xlink:href="#BitstreamVeraSans-Roman-67"/>
      </g>
     </g>
    </g>
    <g id="xtick_18">
     <g id="line2d_18">
      <g>
       <use style="stroke:#000000;stroke-width:0.5;" x="579.244775816" xlink:href="#m5bbbaf692a" y="1068.39"/>
      </g>
     </g>
     <g id="text_18">
      <!-- Kingston_Peterborough -->
      <defs>
       <path d="M 19.671875 64.796875 
L 19.671875 37.40625 
L 32.078125 37.40625 
Q 38.96875 37.40625 42.71875 40.96875 
Q 46.484375 44.53125 46.484375 51.125 
Q 46.484375 57.671875 42.71875 61.234375 
Q 38.96875 64.796875 32.078125 64.796875 
z
M 9.8125 72.90625 
L 32.078125 72.90625 
Q 44.34375 72.90625 50.609375 67.359375 
Q 56.890625 61.8125 56.890625 51.125 
Q 56.890625 40.328125 50.609375 34.8125 
Q 44.34375 29.296875 32.078125 29.296875 
L 19.671875 29.296875 
L 19.671875 0 
L 9.8125 0 
z
" id="BitstreamVeraSans-Roman-50"/>
      </defs>
      <g transform="translate(582.389150816 1212.415)rotate(-90.0)scale(0.12 -0.12)">
       <use xlink:href="#BitstreamVeraSans-Roman-4b"/>
       <use x="65.576171875" xlink:href="#BitstreamVeraSans-Roman-69"/>
       <use x="93.359375" xlink:href="#BitstreamVeraSans-Roman-6e"/>
       <use x="156.73828125" xlink:href="#BitstreamVeraSans-Roman-67"/>
       <use x="220.21484375" xlink:href="#BitstreamVeraSans-Roman-73"/>
       <use x="272.314453125" xlink:href="#BitstreamVeraSans-Roman-74"/>
       <use x="311.5234375" xlink:href="#BitstreamVeraSans-Roman-6f"/>
       <use x="372.705078125" xlink:href="#BitstreamVeraSans-Roman-6e"/>
       <use x="436.083984375" xlink:href="#BitstreamVeraSans-Roman-5f"/>
       <use x="486.083984375" xlink:href="#BitstreamVeraSans-Roman-50"/>
       <use x="546.33984375" xlink:href="#BitstreamVeraSans-Roman-65"/>
       <use x="607.86328125" xlink:href="#BitstreamVeraSans-Roman-74"/>
       <use x="647.072265625" xlink:href="#BitstreamVeraSans-Roman-65"/>
       <use x="708.595703125" xlink:href="#BitstreamVeraSans-Roman-72"/>
       <use x="749.708984375" xlink:href="#BitstreamVeraSans-Roman-62"/>
       <use x="813.185546875" xlink:href="#BitstreamVeraSans-Roman-6f"/>
       <use x="874.3671875" xlink:href="#BitstreamVeraSans-Roman-72"/>
       <use x="915.44921875" xlink:href="#BitstreamVeraSans-Roman-6f"/>
       <use x="976.630859375" xlink:href="#BitstreamVeraSans-Roman-75"/>
       <use x="1040.009765625" xlink:href="#BitstreamVeraSans-Roman-67"/>
       <use x="1103.486328125" xlink:href="#BitstreamVeraSans-Roman-68"/>
      </g>
     </g>
    </g>
    <g id="xtick_19">
     <g id="line2d_19">
      <g>
       <use style="stroke:#000000;stroke-width:0.5;" x="1042.84822132" xlink:href="#m5bbbaf692a" y="1068.39"/>
      </g>
     </g>
     <g id="text_19">
      <!-- Quebec -->
      <defs>
       <path d="M 39.40625 66.21875 
Q 28.65625 66.21875 22.328125 58.203125 
Q 16.015625 50.203125 16.015625 36.375 
Q 16.015625 22.609375 22.328125 14.59375 
Q 28.65625 6.59375 39.40625 6.59375 
Q 50.140625 6.59375 56.421875 14.59375 
Q 62.703125 22.609375 62.703125 36.375 
Q 62.703125 50.203125 56.421875 58.203125 
Q 50.140625 66.21875 39.40625 66.21875 
M 53.21875 1.3125 
L 66.21875 -12.890625 
L 54.296875 -12.890625 
L 43.5 -1.21875 
Q 41.890625 -1.3125 41.03125 -1.359375 
Q 40.1875 -1.421875 39.40625 -1.421875 
Q 24.03125 -1.421875 14.8125 8.859375 
Q 5.609375 19.140625 5.609375 36.375 
Q 5.609375 53.65625 14.8125 63.9375 
Q 24.03125 74.21875 39.40625 74.21875 
Q 54.734375 74.21875 63.90625 63.9375 
Q 73.09375 53.65625 73.09375 36.375 
Q 73.09375 23.6875 67.984375 14.640625 
Q 62.890625 5.609375 53.21875 1.3125 
" id="BitstreamVeraSans-Roman-51"/>
      </defs>
      <g transform="translate(1046.15947132 1118.425)rotate(-90.0)scale(0.12 -0.12)">
       <use xlink:href="#BitstreamVeraSans-Roman-51"/>
       <use x="78.7109375" xlink:href="#BitstreamVeraSans-Roman-75"/>
       <use x="142.08984375" xlink:href="#BitstreamVeraSans-Roman-65"/>
       <use x="203.61328125" xlink:href="#BitstreamVeraSans-Roman-62"/>
       <use x="267.08984375" xlink:href="#BitstreamVeraSans-Roman-65"/>
       <use x="328.61328125" xlink:href="#BitstreamVeraSans-Roman-63"/>
      </g>
     </g>
    </g>
    <g id="xtick_20">
     <g id="line2d_20">
      <g>
       <use style="stroke:#000000;stroke-width:0.5;" x="1132.70075347" xlink:href="#m5bbbaf692a" y="1068.39"/>
      </g>
     </g>
     <g id="text_20">
      <!-- StCatharines_Niagara -->
      <defs>
       <path d="M 9.8125 72.90625 
L 23.09375 72.90625 
L 55.421875 11.921875 
L 55.421875 72.90625 
L 64.984375 72.90625 
L 64.984375 0 
L 51.703125 0 
L 19.390625 60.984375 
L 19.390625 0 
L 9.8125 0 
z
" id="BitstreamVeraSans-Roman-4e"/>
      </defs>
      <g transform="translate(1135.84512847 1202.539375)rotate(-90.0)scale(0.12 -0.12)">
       <use xlink:href="#BitstreamVeraSans-Roman-53"/>
       <use x="63.4765625" xlink:href="#BitstreamVeraSans-Roman-74"/>
       <use x="102.685546875" xlink:href="#BitstreamVeraSans-Roman-43"/>
       <use x="172.509765625" xlink:href="#BitstreamVeraSans-Roman-61"/>
       <use x="233.7890625" xlink:href="#BitstreamVeraSans-Roman-74"/>
       <use x="272.998046875" xlink:href="#BitstreamVeraSans-Roman-68"/>
       <use x="336.376953125" xlink:href="#BitstreamVeraSans-Roman-61"/>
       <use x="397.65625" xlink:href="#BitstreamVeraSans-Roman-72"/>
       <use x="438.76953125" xlink:href="#BitstreamVeraSans-Roman-69"/>
       <use x="466.552734375" xlink:href="#BitstreamVeraSans-Roman-6e"/>
       <use x="529.931640625" xlink:href="#BitstreamVeraSans-Roman-65"/>
       <use x="591.455078125" xlink:href="#BitstreamVeraSans-Roman-73"/>
       <use x="643.5546875" xlink:href="#BitstreamVeraSans-Roman-5f"/>
       <use x="693.5546875" xlink:href="#BitstreamVeraSans-Roman-4e"/>
       <use x="768.359375" xlink:href="#BitstreamVeraSans-Roman-69"/>
       <use x="796.142578125" xlink:href="#BitstreamVeraSans-Roman-61"/>
       <use x="857.421875" xlink:href="#BitstreamVeraSans-Roman-67"/>
       <use x="920.8984375" xlink:href="#BitstreamVeraSans-Roman-61"/>
       <use x="982.177734375" xlink:href="#BitstreamVeraSans-Roman-72"/>
       <use x="1023.291015625" xlink:href="#BitstreamVeraSans-Roman-61"/>
      </g>
     </g>
    </g>
    <g id="xtick_21">
     <g id="line2d_21">
      <g>
       <use style="stroke:#000000;stroke-width:0.5;" x="966.200178874" xlink:href="#m5bbbaf692a" y="1068.39"/>
      </g>
     </g>
     <g id="text_21">
      <!-- Ottawa_Gatineau -->
      <g transform="translate(969.344553874 1176.40375)rotate(-90.0)scale(0.12 -0.12)">
       <use xlink:href="#BitstreamVeraSans-Roman-4f"/>
       <use x="78.7109375" xlink:href="#BitstreamVeraSans-Roman-74"/>
       <use x="117.919921875" xlink:href="#BitstreamVeraSans-Roman-74"/>
       <use x="157.12890625" xlink:href="#BitstreamVeraSans-Roman-61"/>
       <use x="218.408203125" xlink:href="#BitstreamVeraSans-Roman-77"/>
       <use x="300.1953125" xlink:href="#BitstreamVeraSans-Roman-61"/>
       <use x="361.474609375" xlink:href="#BitstreamVeraSans-Roman-5f"/>
       <use x="411.474609375" xlink:href="#BitstreamVeraSans-Roman-47"/>
       <use x="488.96484375" xlink:href="#BitstreamVeraSans-Roman-61"/>
       <use x="550.244140625" xlink:href="#BitstreamVeraSans-Roman-74"/>
       <use x="589.453125" xlink:href="#BitstreamVeraSans-Roman-69"/>
       <use x="617.236328125" xlink:href="#BitstreamVeraSans-Roman-6e"/>
       <use x="680.615234375" xlink:href="#BitstreamVeraSans-Roman-65"/>
       <use x="742.138671875" xlink:href="#BitstreamVeraSans-Roman-61"/>
       <use x="803.41796875" xlink:href="#BitstreamVeraSans-Roman-75"/>
      </g>
     </g>
    </g>
    <g id="xtick_22">
     <g id="line2d_22">
      <g>
       <use style="stroke:#000000;stroke-width:0.5;" x="781.022989274" xlink:href="#m5bbbaf692a" y="1068.39"/>
      </g>
     </g>
     <g id="text_22">
      <!-- Montreal -->
      <defs>
       <path d="M 9.8125 72.90625 
L 24.515625 72.90625 
L 43.109375 23.296875 
L 61.8125 72.90625 
L 76.515625 72.90625 
L 76.515625 0 
L 66.890625 0 
L 66.890625 64.015625 
L 48.09375 14.015625 
L 38.1875 14.015625 
L 19.390625 64.015625 
L 19.390625 0 
L 9.8125 0 
z
" id="BitstreamVeraSans-Roman-4d"/>
      </defs>
      <g transform="translate(784.334239274 1125.39625)rotate(-90.0)scale(0.12 -0.12)">
       <use xlink:href="#BitstreamVeraSans-Roman-4d"/>
       <use x="86.279296875" xlink:href="#BitstreamVeraSans-Roman-6f"/>
       <use x="147.4609375" xlink:href="#BitstreamVeraSans-Roman-6e"/>
       <use x="210.83984375" xlink:href="#BitstreamVeraSans-Roman-74"/>
       <use x="250.048828125" xlink:href="#BitstreamVeraSans-Roman-72"/>
       <use x="291.130859375" xlink:href="#BitstreamVeraSans-Roman-65"/>
       <use x="352.654296875" xlink:href="#BitstreamVeraSans-Roman-61"/>
       <use x="413.93359375" xlink:href="#BitstreamVeraSans-Roman-6c"/>
      </g>
     </g>
    </g>
    <g id="xtick_23">
     <g id="line2d_23">
      <g>
       <use style="stroke:#000000;stroke-width:0.5;" x="658.429102952" xlink:href="#m5bbbaf692a" y="1068.39"/>
      </g>
     </g>
     <g id="text_23">
      <!-- Moncton_SaintJohn -->
      <defs>
       <path d="M 9.8125 72.90625 
L 19.671875 72.90625 
L 19.671875 5.078125 
Q 19.671875 -8.109375 14.671875 -14.0625 
Q 9.671875 -20.015625 -1.421875 -20.015625 
L -5.171875 -20.015625 
L -5.171875 -11.71875 
L -2.09375 -11.71875 
Q 4.4375 -11.71875 7.125 -8.046875 
Q 9.8125 -4.390625 9.8125 5.078125 
z
" id="BitstreamVeraSans-Roman-4a"/>
      </defs>
      <g transform="translate(661.573477952 1186.64875)rotate(-90.0)scale(0.12 -0.12)">
       <use xlink:href="#BitstreamVeraSans-Roman-4d"/>
       <use x="86.279296875" xlink:href="#BitstreamVeraSans-Roman-6f"/>
       <use x="147.4609375" xlink:href="#BitstreamVeraSans-Roman-6e"/>
       <use x="210.83984375" xlink:href="#BitstreamVeraSans-Roman-63"/>
       <use x="265.8203125" xlink:href="#BitstreamVeraSans-Roman-74"/>
       <use x="305.029296875" xlink:href="#BitstreamVeraSans-Roman-6f"/>
       <use x="366.2109375" xlink:href="#BitstreamVeraSans-Roman-6e"/>
       <use x="429.58984375" xlink:href="#BitstreamVeraSans-Roman-5f"/>
       <use x="479.58984375" xlink:href="#BitstreamVeraSans-Roman-53"/>
       <use x="543.06640625" xlink:href="#BitstreamVeraSans-Roman-61"/>
       <use x="604.345703125" xlink:href="#BitstreamVeraSans-Roman-69"/>
       <use x="632.12890625" xlink:href="#BitstreamVeraSans-Roman-6e"/>
       <use x="695.5078125" xlink:href="#BitstreamVeraSans-Roman-74"/>
       <use x="734.716796875" xlink:href="#BitstreamVeraSans-Roman-4a"/>
       <use x="764.208984375" xlink:href="#BitstreamVeraSans-Roman-6f"/>
       <use x="825.390625" xlink:href="#BitstreamVeraSans-Roman-68"/>
       <use x="888.76953125" xlink:href="#BitstreamVeraSans-Roman-6e"/>
      </g>
     </g>
    </g>
    <g id="xtick_24">
     <g id="line2d_24">
      <g>
       <use style="stroke:#000000;stroke-width:0.5;" x="1706.29694358" xlink:href="#m5bbbaf692a" y="1068.39"/>
      </g>
     </g>
     <g id="text_24">
      <!-- Victoria -->
      <g transform="translate(1709.60819358 1118.194375)rotate(-90.0)scale(0.12 -0.12)">
       <use xlink:href="#BitstreamVeraSans-Roman-56"/>
       <use x="68.376953125" xlink:href="#BitstreamVeraSans-Roman-69"/>
       <use x="96.16015625" xlink:href="#BitstreamVeraSans-Roman-63"/>
       <use x="151.140625" xlink:href="#BitstreamVeraSans-Roman-74"/>
       <use x="190.349609375" xlink:href="#BitstreamVeraSans-Roman-6f"/>
       <use x="251.53125" xlink:href="#BitstreamVeraSans-Roman-72"/>
       <use x="292.64453125" xlink:href="#BitstreamVeraSans-Roman-69"/>
       <use x="320.427734375" xlink:href="#BitstreamVeraSans-Roman-61"/>
      </g>
     </g>
    </g>
   </g>
   <g id="matplotlib.axis_2">
    <g id="ytick_1">
     <g id="line2d_25">
      <defs>
       <path d="M 0 0 
L 4 0 
" id="m06da4615e6" style="stroke:#000000;stroke-width:0.5;"/>
      </defs>
      <g>
       <use style="stroke:#000000;stroke-width:0.5;" x="288.0" xlink:href="#m06da4615e6" y="350.95177979"/>
      </g>
     </g>
     <g id="text_25">
      <!-- False -->
      <defs>
       <path d="M 9.8125 72.90625 
L 51.703125 72.90625 
L 51.703125 64.59375 
L 19.671875 64.59375 
L 19.671875 43.109375 
L 48.578125 43.109375 
L 48.578125 34.8125 
L 19.671875 34.8125 
L 19.671875 0 
L 9.8125 0 
z
" id="BitstreamVeraSans-Roman-46"/>
      </defs>
      <g transform="translate(281.504375 366.55552979)rotate(-90.0)scale(0.12 -0.12)">
       <use xlink:href="#BitstreamVeraSans-Roman-46"/>
       <use x="57.37890625" xlink:href="#BitstreamVeraSans-Roman-61"/>
       <use x="118.658203125" xlink:href="#BitstreamVeraSans-Roman-6c"/>
       <use x="146.44140625" xlink:href="#BitstreamVeraSans-Roman-73"/>
       <use x="198.541015625" xlink:href="#BitstreamVeraSans-Roman-65"/>
      </g>
     </g>
    </g>
    <g id="ytick_2">
     <g id="line2d_26">
      <g>
       <use style="stroke:#000000;stroke-width:0.5;" x="288.0" xlink:href="#m06da4615e6" y="827.369321318"/>
      </g>
     </g>
     <g id="text_26">
      <!-- True -->
      <g transform="translate(281.504375 840.981821318)rotate(-90.0)scale(0.12 -0.12)">
       <use xlink:href="#BitstreamVeraSans-Roman-54"/>
       <use x="60.865234375" xlink:href="#BitstreamVeraSans-Roman-72"/>
       <use x="101.978515625" xlink:href="#BitstreamVeraSans-Roman-75"/>
       <use x="165.357421875" xlink:href="#BitstreamVeraSans-Roman-65"/>
      </g>
     </g>
    </g>
   </g>
   <g id="text_27">
    <!-- cma -->
    <g transform="translate(1165.415625 113.71)scale(0.144 -0.144)">
     <use xlink:href="#BitstreamVeraSans-Roman-63"/>
     <use x="54.98046875" xlink:href="#BitstreamVeraSans-Roman-6d"/>
     <use x="152.392578125" xlink:href="#BitstreamVeraSans-Roman-61"/>
    </g>
   </g>
  </g>
  <g id="axes_2">
   <g id="patch_55">
    <path d="M 288 118.71 
L 2073.6 118.71 
" style="fill:none;stroke:#000000;stroke-linecap:square;stroke-linejoin:miter;"/>
   </g>
   <g id="patch_56">
    <path d="M 288 1068.39 
L 288 118.71 
" style="fill:none;stroke:#000000;stroke-linecap:square;stroke-linejoin:miter;"/>
   </g>
   <g id="patch_57">
    <path d="M 2073.6 1068.39 
L 2073.6 118.71 
" style="fill:none;stroke:#000000;stroke-linecap:square;stroke-linejoin:miter;"/>
   </g>
   <g id="patch_58">
    <path d="M 288 1068.39 
L 2073.6 1068.39 
" style="fill:none;stroke:#000000;stroke-linecap:square;stroke-linejoin:miter;"/>
   </g>
   <g id="matplotlib.axis_3"/>
  </g>
  <g id="axes_3">
   <g id="patch_59">
    <path d="M 288 118.71 
L 2073.6 118.71 
" style="fill:none;stroke:#000000;stroke-linecap:square;stroke-linejoin:miter;"/>
   </g>
   <g id="patch_60">
    <path d="M 288 1068.39 
L 288 118.71 
" style="fill:none;stroke:#000000;stroke-linecap:square;stroke-linejoin:miter;"/>
   </g>
   <g id="patch_61">
    <path d="M 2073.6 1068.39 
L 2073.6 118.71 
" style="fill:none;stroke:#000000;stroke-linecap:square;stroke-linejoin:miter;"/>
   </g>
   <g id="patch_62">
    <path d="M 288 1068.39 
L 2073.6 1068.39 
" style="fill:none;stroke:#000000;stroke-linecap:square;stroke-linejoin:miter;"/>
   </g>
   <g id="matplotlib.axis_4"/>
  </g>
 </g>
 <defs>
  <clipPath id="p3fa0d8c9f0">
   <rect height="949.68" width="1785.6" x="288.0" y="118.71"/>
  </clipPath>
 </defs>
</svg>
