<?xml version="1.0" encoding="utf-8" standalone="no"?>
<!DOCTYPE svg PUBLIC "-//W3C//DTD SVG 1.1//EN"
  "http://www.w3.org/Graphics/SVG/1.1/DTD/svg11.dtd">
<!-- Created with matplotlib (http://matplotlib.org/) -->
<svg height="1187pt" version="1.1" viewBox="0 0 2304 1187" width="2304pt" xmlns="http://www.w3.org/2000/svg" xmlns:xlink="http://www.w3.org/1999/xlink">
 <defs>
  <style type="text/css">
*{stroke-linecap:butt;stroke-linejoin:round;stroke-miterlimit:100000;}
  </style>
 </defs>
 <g id="figure_1">
  <g id="patch_1">
   <path d="M 0 1187.1 
L 2304 1187.1 
L 2304 0 
L 0 0 
z
" style="fill:#ffffff;"/>
  </g>
  <g id="axes_1">
   <g id="patch_2">
    <path d="M 288 1068.39 
L 2073.6 1068.39 
L 2073.6 118.71 
L 288 118.71 
z
" style="fill:#ffffff;"/>
   </g>
   <g id="patch_3">
    <path clip-path="url(#p0119b6f20e)" d="M 288 1068.39 
L 408.964153 1068.39 
L 408.964153 618.057653 
L 288 618.057653 
z
" style="fill:#804040;"/>
   </g>
   <g id="patch_4">
    <path clip-path="url(#p0119b6f20e)" d="M 288 614.90257 
L 408.964153 614.90257 
L 408.964153 118.71 
L 288 118.71 
z
" style="fill:#802020;"/>
   </g>
   <g id="patch_5">
    <path clip-path="url(#p0119b6f20e)" d="M 417.269269 1068.39 
L 548.385828 1068.39 
L 548.385828 550.275115 
L 417.269269 550.275115 
z
" style="fill:#805640;"/>
   </g>
   <g id="patch_6">
    <path clip-path="url(#p0119b6f20e)" d="M 417.269269 547.120032 
L 548.385828 547.120032 
L 548.385828 118.71 
L 417.269269 118.71 
z
" style="fill:#804220;"/>
   </g>
   <g id="patch_7">
    <path clip-path="url(#p0119b6f20e)" d="M 556.690945 1068.39 
L 590.126628 1068.39 
L 590.126628 385.695304 
L 556.690945 385.695304 
z
" style="fill:#806d40;"/>
   </g>
   <g id="patch_8">
    <path clip-path="url(#p0119b6f20e)" d="M 556.690945 382.540221 
L 590.126628 382.540221 
L 590.126628 118.71 
L 556.690945 118.71 
z
" style="fill:#806320;"/>
   </g>
   <g id="patch_9">
    <path clip-path="url(#p0119b6f20e)" d="M 598.431744 1068.39 
L 676.992789 1068.39 
L 676.992789 564.837201 
L 598.431744 564.837201 
z
" style="fill:#7c8040;"/>
   </g>
   <g id="patch_10">
    <path clip-path="url(#p0119b6f20e)" d="M 598.431744 561.682118 
L 676.992789 561.682118 
L 676.992789 118.71 
L 598.431744 118.71 
z
" style="fill:#7a8020;"/>
   </g>
   <g id="patch_11">
    <path clip-path="url(#p0119b6f20e)" d="M 685.297906 1068.39 
L 738.333817 1068.39 
L 738.333817 575.694059 
L 685.297906 575.694059 
z
" style="fill:#658040;"/>
   </g>
   <g id="patch_12">
    <path clip-path="url(#p0119b6f20e)" d="M 685.297906 572.538976 
L 738.333817 572.538976 
L 738.333817 118.71 
L 685.297906 118.71 
z
" style="fill:#588020;"/>
   </g>
   <g id="patch_13">
    <path clip-path="url(#p0119b6f20e)" d="M 746.638933 1068.39 
L 779.370033 1068.39 
L 779.370033 521.961721 
L 746.638933 521.961721 
z
" style="fill:#4f8040;"/>
   </g>
   <g id="patch_14">
    <path clip-path="url(#p0119b6f20e)" d="M 746.638933 518.806638 
L 779.370033 518.806638 
L 779.370033 118.71 
L 746.638933 118.71 
z
" style="fill:#368020;"/>
   </g>
   <g id="patch_15">
    <path clip-path="url(#p0119b6f20e)" d="M 787.67515 1068.39 
L 807.275378 1068.39 
L 807.275378 542.542824 
L 787.67515 542.542824 
z
" style="fill:#408047;"/>
   </g>
   <g id="patch_16">
    <path clip-path="url(#p0119b6f20e)" d="M 787.67515 539.387741 
L 807.275378 539.387741 
L 807.275378 118.71 
L 787.67515 118.71 
z
" style="fill:#20802b;"/>
   </g>
   <g id="patch_17">
    <path clip-path="url(#p0119b6f20e)" d="M 815.580494 1068.39 
L 869.481121 1068.39 
L 869.481121 552.666085 
L 815.580494 552.666085 
z
" style="fill:#40805e;"/>
   </g>
   <g id="patch_18">
    <path clip-path="url(#p0119b6f20e)" d="M 815.580494 549.511002 
L 869.481121 549.511002 
L 869.481121 118.71 
L 815.580494 118.71 
z
" style="fill:#20804d;"/>
   </g>
   <g id="patch_19">
    <path clip-path="url(#p0119b6f20e)" d="M 877.786238 1068.39 
L 1423.005656 1068.39 
L 1423.005656 630.21079 
L 877.786238 630.21079 
z
" style="fill:#408074;"/>
   </g>
   <g id="patch_20">
    <path clip-path="url(#p0119b6f20e)" d="M 877.786238 627.055707 
L 1423.005656 627.055707 
L 1423.005656 118.71 
L 877.786238 118.71 
z
" style="fill:#20806f;"/>
   </g>
   <g id="patch_21">
    <path clip-path="url(#p0119b6f20e)" d="M 1431.310772 1068.39 
L 1442.712212 1068.39 
L 1442.712212 374.448979 
L 1431.310772 374.448979 
z
" style="fill:#407480;"/>
   </g>
   <g id="patch_22">
    <path clip-path="url(#p0119b6f20e)" d="M 1431.310772 371.293896 
L 1442.712212 371.293896 
L 1442.712212 118.71 
L 1431.310772 118.71 
z
" style="fill:#206f80;"/>
   </g>
   <g id="patch_23">
    <path clip-path="url(#p0119b6f20e)" d="M 1451.017328 1068.39 
L 1477.407178 1068.39 
L 1477.407178 480.258013 
L 1451.017328 480.258013 
z
" style="fill:#405e80;"/>
   </g>
   <g id="patch_24">
    <path clip-path="url(#p0119b6f20e)" d="M 1451.017328 477.10293 
L 1477.407178 477.10293 
L 1477.407178 118.71 
L 1451.017328 118.71 
z
" style="fill:#204d80;"/>
   </g>
   <g id="patch_25">
    <path clip-path="url(#p0119b6f20e)" d="M 1485.712294 1068.39 
L 1489.459397 1068.39 
L 1489.459397 380.743693 
L 1485.712294 380.743693 
z
" style="fill:#404780;"/>
   </g>
   <g id="patch_26">
    <path clip-path="url(#p0119b6f20e)" d="M 1485.712294 377.58861 
L 1489.459397 377.58861 
L 1489.459397 118.71 
L 1485.712294 118.71 
z
" style="fill:#202b80;"/>
   </g>
   <g id="patch_27">
    <path clip-path="url(#p0119b6f20e)" d="M 1497.764513 1068.39 
L 1856.557578 1068.39 
L 1856.557578 535.520889 
L 1497.764513 535.520889 
z
" style="fill:#4f4080;"/>
   </g>
   <g id="patch_28">
    <path clip-path="url(#p0119b6f20e)" d="M 1497.764513 532.365806 
L 1856.557578 532.365806 
L 1856.557578 118.71 
L 1497.764513 118.71 
z
" style="fill:#362080;"/>
   </g>
   <g id="patch_29">
    <path clip-path="url(#p0119b6f20e)" d="M 1864.862694 1068.39 
L 1912.80639 1068.39 
L 1912.80639 587.224027 
L 1864.862694 587.224027 
z
" style="fill:#654080;"/>
   </g>
   <g id="patch_30">
    <path clip-path="url(#p0119b6f20e)" d="M 1864.862694 584.068944 
L 1912.80639 584.068944 
L 1912.80639 118.71 
L 1864.862694 118.71 
z
" style="fill:#582080;"/>
   </g>
   <g id="patch_31">
    <path clip-path="url(#p0119b6f20e)" d="M 1921.111506 1068.39 
L 1998.807835 1068.39 
L 1998.807835 319.675525 
L 1921.111506 319.675525 
z
" style="fill:#7c4080;"/>
   </g>
   <g id="patch_32">
    <path clip-path="url(#p0119b6f20e)" d="M 1921.111506 316.520442 
L 1998.807835 316.520442 
L 1998.807835 118.71 
L 1921.111506 118.71 
z
" style="fill:#7a2080;"/>
   </g>
   <g id="patch_33">
    <path clip-path="url(#p0119b6f20e)" d="M 2007.112952 1068.39 
L 2073.6 1068.39 
L 2073.6 646.648406 
L 2007.112952 646.648406 
z
" style="fill:#80406d;"/>
   </g>
   <g id="patch_34">
    <path clip-path="url(#p0119b6f20e)" d="M 2007.112952 643.493323 
L 2073.6 643.493323 
L 2073.6 118.71 
L 2007.112952 118.71 
z
" style="fill:#802063;"/>
   </g>
   <g id="patch_35">
    <path d="M 288 118.71 
L 2073.6 118.71 
" style="fill:none;stroke:#000000;stroke-linecap:square;stroke-linejoin:miter;"/>
   </g>
   <g id="patch_36">
    <path d="M 288 1068.39 
L 288 118.71 
" style="fill:none;stroke:#000000;stroke-linecap:square;stroke-linejoin:miter;"/>
   </g>
   <g id="patch_37">
    <path d="M 2073.6 1068.39 
L 2073.6 118.71 
" style="fill:none;stroke:#000000;stroke-linecap:square;stroke-linejoin:miter;"/>
   </g>
   <g id="patch_38">
    <path d="M 288 1068.39 
L 2073.6 1068.39 
" style="fill:none;stroke:#000000;stroke-linecap:square;stroke-linejoin:miter;"/>
   </g>
   <g id="matplotlib.axis_1">
    <g id="xtick_1">
     <g id="line2d_1">
      <defs>
       <path d="M 0 0 
L 0 -4 
" id="m34fb789a82" style="stroke:#000000;stroke-width:0.5;"/>
      </defs>
      <g>
       <use style="stroke:#000000;stroke-width:0.5;" x="797.475263605" xlink:href="#m34fb789a82" y="1068.39"/>
      </g>
     </g>
     <g id="text_1">
      <!-- Newfoundland_and_Labrador -->
      <defs>
       <path d="M 48.6875 27.296875 
Q 48.6875 37.203125 44.609375 42.84375 
Q 40.53125 48.484375 33.40625 48.484375 
Q 26.265625 48.484375 22.1875 42.84375 
Q 18.109375 37.203125 18.109375 27.296875 
Q 18.109375 17.390625 22.1875 11.75 
Q 26.265625 6.109375 33.40625 6.109375 
Q 40.53125 6.109375 44.609375 11.75 
Q 48.6875 17.390625 48.6875 27.296875 
M 18.109375 46.390625 
Q 20.953125 51.265625 25.265625 53.625 
Q 29.59375 56 35.59375 56 
Q 45.5625 56 51.78125 48.09375 
Q 58.015625 40.1875 58.015625 27.296875 
Q 58.015625 14.40625 51.78125 6.484375 
Q 45.5625 -1.421875 35.59375 -1.421875 
Q 29.59375 -1.421875 25.265625 0.953125 
Q 20.953125 3.328125 18.109375 8.203125 
L 18.109375 0 
L 9.078125 0 
L 9.078125 75.984375 
L 18.109375 75.984375 
z
" id="BitstreamVeraSans-Roman-62"/>
       <path d="M 34.28125 27.484375 
Q 23.390625 27.484375 19.1875 25 
Q 14.984375 22.515625 14.984375 16.5 
Q 14.984375 11.71875 18.140625 8.90625 
Q 21.296875 6.109375 26.703125 6.109375 
Q 34.1875 6.109375 38.703125 11.40625 
Q 43.21875 16.703125 43.21875 25.484375 
L 43.21875 27.484375 
z
M 52.203125 31.203125 
L 52.203125 0 
L 43.21875 0 
L 43.21875 8.296875 
Q 40.140625 3.328125 35.546875 0.953125 
Q 30.953125 -1.421875 24.3125 -1.421875 
Q 15.921875 -1.421875 10.953125 3.296875 
Q 6 8.015625 6 15.921875 
Q 6 25.140625 12.171875 29.828125 
Q 18.359375 34.515625 30.609375 34.515625 
L 43.21875 34.515625 
L 43.21875 35.40625 
Q 43.21875 41.609375 39.140625 45 
Q 35.0625 48.390625 27.6875 48.390625 
Q 23 48.390625 18.546875 47.265625 
Q 14.109375 46.140625 10.015625 43.890625 
L 10.015625 52.203125 
Q 14.9375 54.109375 19.578125 55.046875 
Q 24.21875 56 28.609375 56 
Q 40.484375 56 46.34375 49.84375 
Q 52.203125 43.703125 52.203125 31.203125 
" id="BitstreamVeraSans-Roman-61"/>
       <path d="M 8.5 21.578125 
L 8.5 54.6875 
L 17.484375 54.6875 
L 17.484375 21.921875 
Q 17.484375 14.15625 20.5 10.265625 
Q 23.53125 6.390625 29.59375 6.390625 
Q 36.859375 6.390625 41.078125 11.03125 
Q 45.3125 15.671875 45.3125 23.6875 
L 45.3125 54.6875 
L 54.296875 54.6875 
L 54.296875 0 
L 45.3125 0 
L 45.3125 8.40625 
Q 42.046875 3.421875 37.71875 1 
Q 33.40625 -1.421875 27.6875 -1.421875 
Q 18.265625 -1.421875 13.375 4.4375 
Q 8.5 10.296875 8.5 21.578125 
" id="BitstreamVeraSans-Roman-75"/>
       <path d="M 4.203125 54.6875 
L 13.1875 54.6875 
L 24.421875 12.015625 
L 35.59375 54.6875 
L 46.1875 54.6875 
L 57.421875 12.015625 
L 68.609375 54.6875 
L 77.59375 54.6875 
L 63.28125 0 
L 52.6875 0 
L 40.921875 44.828125 
L 29.109375 0 
L 18.5 0 
z
" id="BitstreamVeraSans-Roman-77"/>
       <path d="M 9.8125 72.90625 
L 23.09375 72.90625 
L 55.421875 11.921875 
L 55.421875 72.90625 
L 64.984375 72.90625 
L 64.984375 0 
L 51.703125 0 
L 19.390625 60.984375 
L 19.390625 0 
L 9.8125 0 
z
" id="BitstreamVeraSans-Roman-4e"/>
       <path d="M 45.40625 46.390625 
L 45.40625 75.984375 
L 54.390625 75.984375 
L 54.390625 0 
L 45.40625 0 
L 45.40625 8.203125 
Q 42.578125 3.328125 38.25 0.953125 
Q 33.9375 -1.421875 27.875 -1.421875 
Q 17.96875 -1.421875 11.734375 6.484375 
Q 5.515625 14.40625 5.515625 27.296875 
Q 5.515625 40.1875 11.734375 48.09375 
Q 17.96875 56 27.875 56 
Q 33.9375 56 38.25 53.625 
Q 42.578125 51.265625 45.40625 46.390625 
M 14.796875 27.296875 
Q 14.796875 17.390625 18.875 11.75 
Q 22.953125 6.109375 30.078125 6.109375 
Q 37.203125 6.109375 41.296875 11.75 
Q 45.40625 17.390625 45.40625 27.296875 
Q 45.40625 37.203125 41.296875 42.84375 
Q 37.203125 48.484375 30.078125 48.484375 
Q 22.953125 48.484375 18.875 42.84375 
Q 14.796875 37.203125 14.796875 27.296875 
" id="BitstreamVeraSans-Roman-64"/>
       <path d="M 30.609375 48.390625 
Q 23.390625 48.390625 19.1875 42.75 
Q 14.984375 37.109375 14.984375 27.296875 
Q 14.984375 17.484375 19.15625 11.84375 
Q 23.34375 6.203125 30.609375 6.203125 
Q 37.796875 6.203125 41.984375 11.859375 
Q 46.1875 17.53125 46.1875 27.296875 
Q 46.1875 37.015625 41.984375 42.703125 
Q 37.796875 48.390625 30.609375 48.390625 
M 30.609375 56 
Q 42.328125 56 49.015625 48.375 
Q 55.71875 40.765625 55.71875 27.296875 
Q 55.71875 13.875 49.015625 6.21875 
Q 42.328125 -1.421875 30.609375 -1.421875 
Q 18.84375 -1.421875 12.171875 6.21875 
Q 5.515625 13.875 5.515625 27.296875 
Q 5.515625 40.765625 12.171875 48.375 
Q 18.84375 56 30.609375 56 
" id="BitstreamVeraSans-Roman-6f"/>
       <path d="M 37.109375 75.984375 
L 37.109375 68.5 
L 28.515625 68.5 
Q 23.6875 68.5 21.796875 66.546875 
Q 19.921875 64.59375 19.921875 59.515625 
L 19.921875 54.6875 
L 34.71875 54.6875 
L 34.71875 47.703125 
L 19.921875 47.703125 
L 19.921875 0 
L 10.890625 0 
L 10.890625 47.703125 
L 2.296875 47.703125 
L 2.296875 54.6875 
L 10.890625 54.6875 
L 10.890625 58.5 
Q 10.890625 67.625 15.140625 71.796875 
Q 19.390625 75.984375 28.609375 75.984375 
z
" id="BitstreamVeraSans-Roman-66"/>
       <path d="M 41.109375 46.296875 
Q 39.59375 47.171875 37.8125 47.578125 
Q 36.03125 48 33.890625 48 
Q 26.265625 48 22.1875 43.046875 
Q 18.109375 38.09375 18.109375 28.8125 
L 18.109375 0 
L 9.078125 0 
L 9.078125 54.6875 
L 18.109375 54.6875 
L 18.109375 46.1875 
Q 20.953125 51.171875 25.484375 53.578125 
Q 30.03125 56 36.53125 56 
Q 37.453125 56 38.578125 55.875 
Q 39.703125 55.765625 41.0625 55.515625 
z
" id="BitstreamVeraSans-Roman-72"/>
       <path d="M 9.8125 72.90625 
L 19.671875 72.90625 
L 19.671875 8.296875 
L 55.171875 8.296875 
L 55.171875 0 
L 9.8125 0 
z
" id="BitstreamVeraSans-Roman-4c"/>
       <path d="M 56.203125 29.59375 
L 56.203125 25.203125 
L 14.890625 25.203125 
Q 15.484375 15.921875 20.484375 11.0625 
Q 25.484375 6.203125 34.421875 6.203125 
Q 39.59375 6.203125 44.453125 7.46875 
Q 49.3125 8.734375 54.109375 11.28125 
L 54.109375 2.78125 
Q 49.265625 0.734375 44.1875 -0.34375 
Q 39.109375 -1.421875 33.890625 -1.421875 
Q 20.796875 -1.421875 13.15625 6.1875 
Q 5.515625 13.8125 5.515625 26.8125 
Q 5.515625 40.234375 12.765625 48.109375 
Q 20.015625 56 32.328125 56 
Q 43.359375 56 49.78125 48.890625 
Q 56.203125 41.796875 56.203125 29.59375 
M 47.21875 32.234375 
Q 47.125 39.59375 43.09375 43.984375 
Q 39.0625 48.390625 32.421875 48.390625 
Q 24.90625 48.390625 20.390625 44.140625 
Q 15.875 39.890625 15.1875 32.171875 
z
" id="BitstreamVeraSans-Roman-65"/>
       <path d="M 50.984375 -16.609375 
L 50.984375 -23.578125 
L -0.984375 -23.578125 
L -0.984375 -16.609375 
z
" id="BitstreamVeraSans-Roman-5f"/>
       <path d="M 54.890625 33.015625 
L 54.890625 0 
L 45.90625 0 
L 45.90625 32.71875 
Q 45.90625 40.484375 42.875 44.328125 
Q 39.84375 48.1875 33.796875 48.1875 
Q 26.515625 48.1875 22.3125 43.546875 
Q 18.109375 38.921875 18.109375 30.90625 
L 18.109375 0 
L 9.078125 0 
L 9.078125 54.6875 
L 18.109375 54.6875 
L 18.109375 46.1875 
Q 21.34375 51.125 25.703125 53.5625 
Q 30.078125 56 35.796875 56 
Q 45.21875 56 50.046875 50.171875 
Q 54.890625 44.34375 54.890625 33.015625 
" id="BitstreamVeraSans-Roman-6e"/>
       <path d="M 9.421875 75.984375 
L 18.40625 75.984375 
L 18.40625 0 
L 9.421875 0 
z
" id="BitstreamVeraSans-Roman-6c"/>
      </defs>
      <g transform="translate(800.619638605 1247.28625)rotate(-90.0)scale(0.12 -0.12)">
       <use xlink:href="#BitstreamVeraSans-Roman-4e"/>
       <use x="74.8046875" xlink:href="#BitstreamVeraSans-Roman-65"/>
       <use x="136.328125" xlink:href="#BitstreamVeraSans-Roman-77"/>
       <use x="218.115234375" xlink:href="#BitstreamVeraSans-Roman-66"/>
       <use x="253.3203125" xlink:href="#BitstreamVeraSans-Roman-6f"/>
       <use x="314.501953125" xlink:href="#BitstreamVeraSans-Roman-75"/>
       <use x="377.880859375" xlink:href="#BitstreamVeraSans-Roman-6e"/>
       <use x="441.259765625" xlink:href="#BitstreamVeraSans-Roman-64"/>
       <use x="504.736328125" xlink:href="#BitstreamVeraSans-Roman-6c"/>
       <use x="532.51953125" xlink:href="#BitstreamVeraSans-Roman-61"/>
       <use x="593.798828125" xlink:href="#BitstreamVeraSans-Roman-6e"/>
       <use x="657.177734375" xlink:href="#BitstreamVeraSans-Roman-64"/>
       <use x="720.654296875" xlink:href="#BitstreamVeraSans-Roman-5f"/>
       <use x="770.654296875" xlink:href="#BitstreamVeraSans-Roman-61"/>
       <use x="831.93359375" xlink:href="#BitstreamVeraSans-Roman-6e"/>
       <use x="895.3125" xlink:href="#BitstreamVeraSans-Roman-64"/>
       <use x="958.7890625" xlink:href="#BitstreamVeraSans-Roman-5f"/>
       <use x="1008.7890625" xlink:href="#BitstreamVeraSans-Roman-4c"/>
       <use x="1064.501953125" xlink:href="#BitstreamVeraSans-Roman-61"/>
       <use x="1125.78125" xlink:href="#BitstreamVeraSans-Roman-62"/>
       <use x="1189.2578125" xlink:href="#BitstreamVeraSans-Roman-72"/>
       <use x="1230.37109375" xlink:href="#BitstreamVeraSans-Roman-61"/>
       <use x="1291.650390625" xlink:href="#BitstreamVeraSans-Roman-64"/>
       <use x="1355.126953125" xlink:href="#BitstreamVeraSans-Roman-6f"/>
       <use x="1416.30859375" xlink:href="#BitstreamVeraSans-Roman-72"/>
      </g>
     </g>
    </g>
    <g id="xtick_2">
     <g id="line2d_2">
      <g>
       <use style="stroke:#000000;stroke-width:0.5;" x="763.004483282" xlink:href="#m34fb789a82" y="1068.39"/>
      </g>
     </g>
     <g id="text_2">
      <!-- New_Brunswick -->
      <defs>
       <path d="M 9.078125 75.984375 
L 18.109375 75.984375 
L 18.109375 31.109375 
L 44.921875 54.6875 
L 56.390625 54.6875 
L 27.390625 29.109375 
L 57.625 0 
L 45.90625 0 
L 18.109375 26.703125 
L 18.109375 0 
L 9.078125 0 
z
" id="BitstreamVeraSans-Roman-6b"/>
       <path d="M 44.28125 53.078125 
L 44.28125 44.578125 
Q 40.484375 46.53125 36.375 47.5 
Q 32.28125 48.484375 27.875 48.484375 
Q 21.1875 48.484375 17.84375 46.4375 
Q 14.5 44.390625 14.5 40.28125 
Q 14.5 37.15625 16.890625 35.375 
Q 19.28125 33.59375 26.515625 31.984375 
L 29.59375 31.296875 
Q 39.15625 29.25 43.1875 25.515625 
Q 47.21875 21.78125 47.21875 15.09375 
Q 47.21875 7.46875 41.1875 3.015625 
Q 35.15625 -1.421875 24.609375 -1.421875 
Q 20.21875 -1.421875 15.453125 -0.5625 
Q 10.6875 0.296875 5.421875 2 
L 5.421875 11.28125 
Q 10.40625 8.6875 15.234375 7.390625 
Q 20.0625 6.109375 24.8125 6.109375 
Q 31.15625 6.109375 34.5625 8.28125 
Q 37.984375 10.453125 37.984375 14.40625 
Q 37.984375 18.0625 35.515625 20.015625 
Q 33.0625 21.96875 24.703125 23.78125 
L 21.578125 24.515625 
Q 13.234375 26.265625 9.515625 29.90625 
Q 5.8125 33.546875 5.8125 39.890625 
Q 5.8125 47.609375 11.28125 51.796875 
Q 16.75 56 26.8125 56 
Q 31.78125 56 36.171875 55.265625 
Q 40.578125 54.546875 44.28125 53.078125 
" id="BitstreamVeraSans-Roman-73"/>
       <path d="M 19.671875 34.8125 
L 19.671875 8.109375 
L 35.5 8.109375 
Q 43.453125 8.109375 47.28125 11.40625 
Q 51.125 14.703125 51.125 21.484375 
Q 51.125 28.328125 47.28125 31.5625 
Q 43.453125 34.8125 35.5 34.8125 
z
M 19.671875 64.796875 
L 19.671875 42.828125 
L 34.28125 42.828125 
Q 41.5 42.828125 45.03125 45.53125 
Q 48.578125 48.25 48.578125 53.8125 
Q 48.578125 59.328125 45.03125 62.0625 
Q 41.5 64.796875 34.28125 64.796875 
z
M 9.8125 72.90625 
L 35.015625 72.90625 
Q 46.296875 72.90625 52.390625 68.21875 
Q 58.5 63.53125 58.5 54.890625 
Q 58.5 48.1875 55.375 44.234375 
Q 52.25 40.28125 46.1875 39.3125 
Q 53.46875 37.75 57.5 32.78125 
Q 61.53125 27.828125 61.53125 20.40625 
Q 61.53125 10.640625 54.890625 5.3125 
Q 48.25 0 35.984375 0 
L 9.8125 0 
z
" id="BitstreamVeraSans-Roman-42"/>
       <path d="M 48.78125 52.59375 
L 48.78125 44.1875 
Q 44.96875 46.296875 41.140625 47.34375 
Q 37.3125 48.390625 33.40625 48.390625 
Q 24.65625 48.390625 19.8125 42.84375 
Q 14.984375 37.3125 14.984375 27.296875 
Q 14.984375 17.28125 19.8125 11.734375 
Q 24.65625 6.203125 33.40625 6.203125 
Q 37.3125 6.203125 41.140625 7.25 
Q 44.96875 8.296875 48.78125 10.40625 
L 48.78125 2.09375 
Q 45.015625 0.34375 40.984375 -0.53125 
Q 36.96875 -1.421875 32.421875 -1.421875 
Q 20.0625 -1.421875 12.78125 6.34375 
Q 5.515625 14.109375 5.515625 27.296875 
Q 5.515625 40.671875 12.859375 48.328125 
Q 20.21875 56 33.015625 56 
Q 37.15625 56 41.109375 55.140625 
Q 45.0625 54.296875 48.78125 52.59375 
" id="BitstreamVeraSans-Roman-63"/>
       <path d="M 9.421875 54.6875 
L 18.40625 54.6875 
L 18.40625 0 
L 9.421875 0 
z
M 9.421875 75.984375 
L 18.40625 75.984375 
L 18.40625 64.59375 
L 9.421875 64.59375 
z
" id="BitstreamVeraSans-Roman-69"/>
      </defs>
      <g transform="translate(766.148858282 1165.886875)rotate(-90.0)scale(0.12 -0.12)">
       <use xlink:href="#BitstreamVeraSans-Roman-4e"/>
       <use x="74.8046875" xlink:href="#BitstreamVeraSans-Roman-65"/>
       <use x="136.328125" xlink:href="#BitstreamVeraSans-Roman-77"/>
       <use x="218.115234375" xlink:href="#BitstreamVeraSans-Roman-5f"/>
       <use x="268.115234375" xlink:href="#BitstreamVeraSans-Roman-42"/>
       <use x="336.71875" xlink:href="#BitstreamVeraSans-Roman-72"/>
       <use x="377.83203125" xlink:href="#BitstreamVeraSans-Roman-75"/>
       <use x="441.2109375" xlink:href="#BitstreamVeraSans-Roman-6e"/>
       <use x="504.58984375" xlink:href="#BitstreamVeraSans-Roman-73"/>
       <use x="556.689453125" xlink:href="#BitstreamVeraSans-Roman-77"/>
       <use x="638.4765625" xlink:href="#BitstreamVeraSans-Roman-69"/>
       <use x="666.259765625" xlink:href="#BitstreamVeraSans-Roman-63"/>
       <use x="721.240234375" xlink:href="#BitstreamVeraSans-Roman-6b"/>
      </g>
     </g>
    </g>
    <g id="xtick_3">
     <g id="line2d_3">
      <g>
       <use style="stroke:#000000;stroke-width:0.5;" x="1464.21225316" xlink:href="#m34fb789a82" y="1068.39"/>
      </g>
     </g>
     <g id="text_3">
      <!-- Other_countries_and_regions -->
      <defs>
       <path d="M 39.40625 66.21875 
Q 28.65625 66.21875 22.328125 58.203125 
Q 16.015625 50.203125 16.015625 36.375 
Q 16.015625 22.609375 22.328125 14.59375 
Q 28.65625 6.59375 39.40625 6.59375 
Q 50.140625 6.59375 56.421875 14.59375 
Q 62.703125 22.609375 62.703125 36.375 
Q 62.703125 50.203125 56.421875 58.203125 
Q 50.140625 66.21875 39.40625 66.21875 
M 39.40625 74.21875 
Q 54.734375 74.21875 63.90625 63.9375 
Q 73.09375 53.65625 73.09375 36.375 
Q 73.09375 19.140625 63.90625 8.859375 
Q 54.734375 -1.421875 39.40625 -1.421875 
Q 24.03125 -1.421875 14.8125 8.828125 
Q 5.609375 19.09375 5.609375 36.375 
Q 5.609375 53.65625 14.8125 63.9375 
Q 24.03125 74.21875 39.40625 74.21875 
" id="BitstreamVeraSans-Roman-4f"/>
       <path d="M 54.890625 33.015625 
L 54.890625 0 
L 45.90625 0 
L 45.90625 32.71875 
Q 45.90625 40.484375 42.875 44.328125 
Q 39.84375 48.1875 33.796875 48.1875 
Q 26.515625 48.1875 22.3125 43.546875 
Q 18.109375 38.921875 18.109375 30.90625 
L 18.109375 0 
L 9.078125 0 
L 9.078125 75.984375 
L 18.109375 75.984375 
L 18.109375 46.1875 
Q 21.34375 51.125 25.703125 53.5625 
Q 30.078125 56 35.796875 56 
Q 45.21875 56 50.046875 50.171875 
Q 54.890625 44.34375 54.890625 33.015625 
" id="BitstreamVeraSans-Roman-68"/>
       <path d="M 18.3125 70.21875 
L 18.3125 54.6875 
L 36.8125 54.6875 
L 36.8125 47.703125 
L 18.3125 47.703125 
L 18.3125 18.015625 
Q 18.3125 11.328125 20.140625 9.421875 
Q 21.96875 7.515625 27.59375 7.515625 
L 36.8125 7.515625 
L 36.8125 0 
L 27.59375 0 
Q 17.1875 0 13.234375 3.875 
Q 9.28125 7.765625 9.28125 18.015625 
L 9.28125 47.703125 
L 2.6875 47.703125 
L 2.6875 54.6875 
L 9.28125 54.6875 
L 9.28125 70.21875 
z
" id="BitstreamVeraSans-Roman-74"/>
       <path d="M 45.40625 27.984375 
Q 45.40625 37.75 41.375 43.109375 
Q 37.359375 48.484375 30.078125 48.484375 
Q 22.859375 48.484375 18.828125 43.109375 
Q 14.796875 37.75 14.796875 27.984375 
Q 14.796875 18.265625 18.828125 12.890625 
Q 22.859375 7.515625 30.078125 7.515625 
Q 37.359375 7.515625 41.375 12.890625 
Q 45.40625 18.265625 45.40625 27.984375 
M 54.390625 6.78125 
Q 54.390625 -7.171875 48.1875 -13.984375 
Q 42 -20.796875 29.203125 -20.796875 
Q 24.46875 -20.796875 20.265625 -20.09375 
Q 16.0625 -19.390625 12.109375 -17.921875 
L 12.109375 -9.1875 
Q 16.0625 -11.328125 19.921875 -12.34375 
Q 23.78125 -13.375 27.78125 -13.375 
Q 36.625 -13.375 41.015625 -8.765625 
Q 45.40625 -4.15625 45.40625 5.171875 
L 45.40625 9.625 
Q 42.625 4.78125 38.28125 2.390625 
Q 33.9375 0 27.875 0 
Q 17.828125 0 11.671875 7.65625 
Q 5.515625 15.328125 5.515625 27.984375 
Q 5.515625 40.671875 11.671875 48.328125 
Q 17.828125 56 27.875 56 
Q 33.9375 56 38.28125 53.609375 
Q 42.625 51.21875 45.40625 46.390625 
L 45.40625 54.6875 
L 54.390625 54.6875 
z
" id="BitstreamVeraSans-Roman-67"/>
      </defs>
      <g transform="translate(1467.35662816 1247.26)rotate(-90.0)scale(0.12 -0.12)">
       <use xlink:href="#BitstreamVeraSans-Roman-4f"/>
       <use x="78.7109375" xlink:href="#BitstreamVeraSans-Roman-74"/>
       <use x="117.919921875" xlink:href="#BitstreamVeraSans-Roman-68"/>
       <use x="181.298828125" xlink:href="#BitstreamVeraSans-Roman-65"/>
       <use x="242.822265625" xlink:href="#BitstreamVeraSans-Roman-72"/>
       <use x="283.935546875" xlink:href="#BitstreamVeraSans-Roman-5f"/>
       <use x="333.935546875" xlink:href="#BitstreamVeraSans-Roman-63"/>
       <use x="388.916015625" xlink:href="#BitstreamVeraSans-Roman-6f"/>
       <use x="450.09765625" xlink:href="#BitstreamVeraSans-Roman-75"/>
       <use x="513.4765625" xlink:href="#BitstreamVeraSans-Roman-6e"/>
       <use x="576.85546875" xlink:href="#BitstreamVeraSans-Roman-74"/>
       <use x="616.064453125" xlink:href="#BitstreamVeraSans-Roman-72"/>
       <use x="657.177734375" xlink:href="#BitstreamVeraSans-Roman-69"/>
       <use x="684.9609375" xlink:href="#BitstreamVeraSans-Roman-65"/>
       <use x="746.484375" xlink:href="#BitstreamVeraSans-Roman-73"/>
       <use x="798.583984375" xlink:href="#BitstreamVeraSans-Roman-5f"/>
       <use x="848.583984375" xlink:href="#BitstreamVeraSans-Roman-61"/>
       <use x="909.86328125" xlink:href="#BitstreamVeraSans-Roman-6e"/>
       <use x="973.2421875" xlink:href="#BitstreamVeraSans-Roman-64"/>
       <use x="1036.71875" xlink:href="#BitstreamVeraSans-Roman-5f"/>
       <use x="1086.71875" xlink:href="#BitstreamVeraSans-Roman-72"/>
       <use x="1127.80078125" xlink:href="#BitstreamVeraSans-Roman-65"/>
       <use x="1189.32421875" xlink:href="#BitstreamVeraSans-Roman-67"/>
       <use x="1252.80078125" xlink:href="#BitstreamVeraSans-Roman-69"/>
       <use x="1280.583984375" xlink:href="#BitstreamVeraSans-Roman-6f"/>
       <use x="1341.765625" xlink:href="#BitstreamVeraSans-Roman-6e"/>
       <use x="1405.14453125" xlink:href="#BitstreamVeraSans-Roman-73"/>
      </g>
     </g>
    </g>
    <g id="xtick_4">
     <g id="line2d_4">
      <g>
       <use style="stroke:#000000;stroke-width:0.5;" x="842.530807658" xlink:href="#m34fb789a82" y="1068.39"/>
      </g>
     </g>
     <g id="text_4">
      <!-- Nova_Scotia -->
      <defs>
       <path d="M 2.984375 54.6875 
L 12.5 54.6875 
L 29.59375 8.796875 
L 46.6875 54.6875 
L 56.203125 54.6875 
L 35.6875 0 
L 23.484375 0 
z
" id="BitstreamVeraSans-Roman-76"/>
       <path d="M 53.515625 70.515625 
L 53.515625 60.890625 
Q 47.90625 63.578125 42.921875 64.890625 
Q 37.9375 66.21875 33.296875 66.21875 
Q 25.25 66.21875 20.875 63.09375 
Q 16.5 59.96875 16.5 54.203125 
Q 16.5 49.359375 19.40625 46.890625 
Q 22.3125 44.4375 30.421875 42.921875 
L 36.375 41.703125 
Q 47.40625 39.59375 52.65625 34.296875 
Q 57.90625 29 57.90625 20.125 
Q 57.90625 9.515625 50.796875 4.046875 
Q 43.703125 -1.421875 29.984375 -1.421875 
Q 24.8125 -1.421875 18.96875 -0.25 
Q 13.140625 0.921875 6.890625 3.21875 
L 6.890625 13.375 
Q 12.890625 10.015625 18.65625 8.296875 
Q 24.421875 6.59375 29.984375 6.59375 
Q 38.421875 6.59375 43.015625 9.90625 
Q 47.609375 13.234375 47.609375 19.390625 
Q 47.609375 24.75 44.3125 27.78125 
Q 41.015625 30.8125 33.5 32.328125 
L 27.484375 33.5 
Q 16.453125 35.6875 11.515625 40.375 
Q 6.59375 45.0625 6.59375 53.421875 
Q 6.59375 63.09375 13.40625 68.65625 
Q 20.21875 74.21875 32.171875 74.21875 
Q 37.3125 74.21875 42.625 73.28125 
Q 47.953125 72.359375 53.515625 70.515625 
" id="BitstreamVeraSans-Roman-53"/>
      </defs>
      <g transform="translate(845.675182658 1146.116875)rotate(-90.0)scale(0.12 -0.12)">
       <use xlink:href="#BitstreamVeraSans-Roman-4e"/>
       <use x="74.8046875" xlink:href="#BitstreamVeraSans-Roman-6f"/>
       <use x="135.986328125" xlink:href="#BitstreamVeraSans-Roman-76"/>
       <use x="195.166015625" xlink:href="#BitstreamVeraSans-Roman-61"/>
       <use x="256.4453125" xlink:href="#BitstreamVeraSans-Roman-5f"/>
       <use x="306.4453125" xlink:href="#BitstreamVeraSans-Roman-53"/>
       <use x="369.921875" xlink:href="#BitstreamVeraSans-Roman-63"/>
       <use x="424.90234375" xlink:href="#BitstreamVeraSans-Roman-6f"/>
       <use x="486.083984375" xlink:href="#BitstreamVeraSans-Roman-74"/>
       <use x="525.29296875" xlink:href="#BitstreamVeraSans-Roman-69"/>
       <use x="553.076171875" xlink:href="#BitstreamVeraSans-Roman-61"/>
      </g>
     </g>
    </g>
    <g id="xtick_5">
     <g id="line2d_5">
      <g>
       <use style="stroke:#000000;stroke-width:0.5;" x="1437.0114921" xlink:href="#m34fb789a82" y="1068.39"/>
      </g>
     </g>
     <g id="text_5">
      <!-- Other_Americas -->
      <defs>
       <path d="M 34.1875 63.1875 
L 20.796875 26.90625 
L 47.609375 26.90625 
z
M 28.609375 72.90625 
L 39.796875 72.90625 
L 67.578125 0 
L 57.328125 0 
L 50.6875 18.703125 
L 17.828125 18.703125 
L 11.1875 0 
L 0.78125 0 
z
" id="BitstreamVeraSans-Roman-41"/>
       <path d="M 52 44.1875 
Q 55.375 50.25 60.0625 53.125 
Q 64.75 56 71.09375 56 
Q 79.640625 56 84.28125 50.015625 
Q 88.921875 44.046875 88.921875 33.015625 
L 88.921875 0 
L 79.890625 0 
L 79.890625 32.71875 
Q 79.890625 40.578125 77.09375 44.375 
Q 74.3125 48.1875 68.609375 48.1875 
Q 61.625 48.1875 57.5625 43.546875 
Q 53.515625 38.921875 53.515625 30.90625 
L 53.515625 0 
L 44.484375 0 
L 44.484375 32.71875 
Q 44.484375 40.625 41.703125 44.40625 
Q 38.921875 48.1875 33.109375 48.1875 
Q 26.21875 48.1875 22.15625 43.53125 
Q 18.109375 38.875 18.109375 30.90625 
L 18.109375 0 
L 9.078125 0 
L 9.078125 54.6875 
L 18.109375 54.6875 
L 18.109375 46.1875 
Q 21.1875 51.21875 25.484375 53.609375 
Q 29.78125 56 35.6875 56 
Q 41.65625 56 45.828125 52.96875 
Q 50 49.953125 52 44.1875 
" id="BitstreamVeraSans-Roman-6d"/>
      </defs>
      <g transform="translate(1440.1558671 1168.21375)rotate(-90.0)scale(0.12 -0.12)">
       <use xlink:href="#BitstreamVeraSans-Roman-4f"/>
       <use x="78.7109375" xlink:href="#BitstreamVeraSans-Roman-74"/>
       <use x="117.919921875" xlink:href="#BitstreamVeraSans-Roman-68"/>
       <use x="181.298828125" xlink:href="#BitstreamVeraSans-Roman-65"/>
       <use x="242.822265625" xlink:href="#BitstreamVeraSans-Roman-72"/>
       <use x="283.935546875" xlink:href="#BitstreamVeraSans-Roman-5f"/>
       <use x="333.935546875" xlink:href="#BitstreamVeraSans-Roman-41"/>
       <use x="402.34375" xlink:href="#BitstreamVeraSans-Roman-6d"/>
       <use x="499.755859375" xlink:href="#BitstreamVeraSans-Roman-65"/>
       <use x="561.279296875" xlink:href="#BitstreamVeraSans-Roman-72"/>
       <use x="602.392578125" xlink:href="#BitstreamVeraSans-Roman-69"/>
       <use x="630.17578125" xlink:href="#BitstreamVeraSans-Roman-63"/>
       <use x="685.15625" xlink:href="#BitstreamVeraSans-Roman-61"/>
       <use x="746.435546875" xlink:href="#BitstreamVeraSans-Roman-73"/>
      </g>
     </g>
    </g>
    <g id="xtick_6">
     <g id="line2d_6">
      <g>
       <use style="stroke:#000000;stroke-width:0.5;" x="482.827548831" xlink:href="#m34fb789a82" y="1068.39"/>
      </g>
     </g>
     <g id="text_6">
      <!-- British_Columbia -->
      <defs>
       <path d="M 64.40625 67.28125 
L 64.40625 56.890625 
Q 59.421875 61.53125 53.78125 63.8125 
Q 48.140625 66.109375 41.796875 66.109375 
Q 29.296875 66.109375 22.65625 58.46875 
Q 16.015625 50.828125 16.015625 36.375 
Q 16.015625 21.96875 22.65625 14.328125 
Q 29.296875 6.6875 41.796875 6.6875 
Q 48.140625 6.6875 53.78125 8.984375 
Q 59.421875 11.28125 64.40625 15.921875 
L 64.40625 5.609375 
Q 59.234375 2.09375 53.4375 0.328125 
Q 47.65625 -1.421875 41.21875 -1.421875 
Q 24.65625 -1.421875 15.125 8.703125 
Q 5.609375 18.84375 5.609375 36.375 
Q 5.609375 53.953125 15.125 64.078125 
Q 24.65625 74.21875 41.21875 74.21875 
Q 47.75 74.21875 53.53125 72.484375 
Q 59.328125 70.75 64.40625 67.28125 
" id="BitstreamVeraSans-Roman-43"/>
      </defs>
      <g transform="translate(485.971923831 1173.439375)rotate(-90.0)scale(0.12 -0.12)">
       <use xlink:href="#BitstreamVeraSans-Roman-42"/>
       <use x="68.603515625" xlink:href="#BitstreamVeraSans-Roman-72"/>
       <use x="109.716796875" xlink:href="#BitstreamVeraSans-Roman-69"/>
       <use x="137.5" xlink:href="#BitstreamVeraSans-Roman-74"/>
       <use x="176.708984375" xlink:href="#BitstreamVeraSans-Roman-69"/>
       <use x="204.4921875" xlink:href="#BitstreamVeraSans-Roman-73"/>
       <use x="256.591796875" xlink:href="#BitstreamVeraSans-Roman-68"/>
       <use x="319.970703125" xlink:href="#BitstreamVeraSans-Roman-5f"/>
       <use x="369.970703125" xlink:href="#BitstreamVeraSans-Roman-43"/>
       <use x="439.794921875" xlink:href="#BitstreamVeraSans-Roman-6f"/>
       <use x="500.9765625" xlink:href="#BitstreamVeraSans-Roman-6c"/>
       <use x="528.759765625" xlink:href="#BitstreamVeraSans-Roman-75"/>
       <use x="592.138671875" xlink:href="#BitstreamVeraSans-Roman-6d"/>
       <use x="689.55078125" xlink:href="#BitstreamVeraSans-Roman-62"/>
       <use x="753.02734375" xlink:href="#BitstreamVeraSans-Roman-69"/>
       <use x="780.810546875" xlink:href="#BitstreamVeraSans-Roman-61"/>
      </g>
     </g>
    </g>
    <g id="xtick_7">
     <g id="line2d_7">
      <g>
       <use style="stroke:#000000;stroke-width:0.5;" x="1959.9596707" xlink:href="#m34fb789a82" y="1068.39"/>
      </g>
     </g>
     <g id="text_7">
      <!-- Southeast_and_Southern_Asia -->
      <g transform="translate(1963.1040457 1253.4775)rotate(-90.0)scale(0.12 -0.12)">
       <use xlink:href="#BitstreamVeraSans-Roman-53"/>
       <use x="63.4765625" xlink:href="#BitstreamVeraSans-Roman-6f"/>
       <use x="124.658203125" xlink:href="#BitstreamVeraSans-Roman-75"/>
       <use x="188.037109375" xlink:href="#BitstreamVeraSans-Roman-74"/>
       <use x="227.24609375" xlink:href="#BitstreamVeraSans-Roman-68"/>
       <use x="290.625" xlink:href="#BitstreamVeraSans-Roman-65"/>
       <use x="352.1484375" xlink:href="#BitstreamVeraSans-Roman-61"/>
       <use x="413.427734375" xlink:href="#BitstreamVeraSans-Roman-73"/>
       <use x="465.52734375" xlink:href="#BitstreamVeraSans-Roman-74"/>
       <use x="504.736328125" xlink:href="#BitstreamVeraSans-Roman-5f"/>
       <use x="554.736328125" xlink:href="#BitstreamVeraSans-Roman-61"/>
       <use x="616.015625" xlink:href="#BitstreamVeraSans-Roman-6e"/>
       <use x="679.39453125" xlink:href="#BitstreamVeraSans-Roman-64"/>
       <use x="742.87109375" xlink:href="#BitstreamVeraSans-Roman-5f"/>
       <use x="792.87109375" xlink:href="#BitstreamVeraSans-Roman-53"/>
       <use x="856.34765625" xlink:href="#BitstreamVeraSans-Roman-6f"/>
       <use x="917.529296875" xlink:href="#BitstreamVeraSans-Roman-75"/>
       <use x="980.908203125" xlink:href="#BitstreamVeraSans-Roman-74"/>
       <use x="1020.1171875" xlink:href="#BitstreamVeraSans-Roman-68"/>
       <use x="1083.49609375" xlink:href="#BitstreamVeraSans-Roman-65"/>
       <use x="1145.01953125" xlink:href="#BitstreamVeraSans-Roman-72"/>
       <use x="1186.1171875" xlink:href="#BitstreamVeraSans-Roman-6e"/>
       <use x="1249.49609375" xlink:href="#BitstreamVeraSans-Roman-5f"/>
       <use x="1299.49609375" xlink:href="#BitstreamVeraSans-Roman-41"/>
       <use x="1367.904296875" xlink:href="#BitstreamVeraSans-Roman-73"/>
       <use x="1420.00390625" xlink:href="#BitstreamVeraSans-Roman-69"/>
       <use x="1447.787109375" xlink:href="#BitstreamVeraSans-Roman-61"/>
      </g>
     </g>
    </g>
    <g id="xtick_8">
     <g id="line2d_8">
      <g>
       <use style="stroke:#000000;stroke-width:0.5;" x="637.712266715" xlink:href="#m34fb789a82" y="1068.39"/>
      </g>
     </g>
     <g id="text_8">
      <!-- Europe -->
      <defs>
       <path d="M 18.109375 8.203125 
L 18.109375 -20.796875 
L 9.078125 -20.796875 
L 9.078125 54.6875 
L 18.109375 54.6875 
L 18.109375 46.390625 
Q 20.953125 51.265625 25.265625 53.625 
Q 29.59375 56 35.59375 56 
Q 45.5625 56 51.78125 48.09375 
Q 58.015625 40.1875 58.015625 27.296875 
Q 58.015625 14.40625 51.78125 6.484375 
Q 45.5625 -1.421875 35.59375 -1.421875 
Q 29.59375 -1.421875 25.265625 0.953125 
Q 20.953125 3.328125 18.109375 8.203125 
M 48.6875 27.296875 
Q 48.6875 37.203125 44.609375 42.84375 
Q 40.53125 48.484375 33.40625 48.484375 
Q 26.265625 48.484375 22.1875 42.84375 
Q 18.109375 37.203125 18.109375 27.296875 
Q 18.109375 17.390625 22.1875 11.75 
Q 26.265625 6.109375 33.40625 6.109375 
Q 40.53125 6.109375 44.609375 11.75 
Q 48.6875 17.390625 48.6875 27.296875 
" id="BitstreamVeraSans-Roman-70"/>
       <path d="M 9.8125 72.90625 
L 55.90625 72.90625 
L 55.90625 64.59375 
L 19.671875 64.59375 
L 19.671875 43.015625 
L 54.390625 43.015625 
L 54.390625 34.71875 
L 19.671875 34.71875 
L 19.671875 8.296875 
L 56.78125 8.296875 
L 56.78125 0 
L 9.8125 0 
z
" id="BitstreamVeraSans-Roman-45"/>
      </defs>
      <g transform="translate(641.023516715 1114.85125)rotate(-90.0)scale(0.12 -0.12)">
       <use xlink:href="#BitstreamVeraSans-Roman-45"/>
       <use x="63.18359375" xlink:href="#BitstreamVeraSans-Roman-75"/>
       <use x="126.5625" xlink:href="#BitstreamVeraSans-Roman-72"/>
       <use x="167.64453125" xlink:href="#BitstreamVeraSans-Roman-6f"/>
       <use x="228.826171875" xlink:href="#BitstreamVeraSans-Roman-70"/>
       <use x="292.302734375" xlink:href="#BitstreamVeraSans-Roman-65"/>
      </g>
     </g>
    </g>
    <g id="xtick_9">
     <g id="line2d_9">
      <g>
       <use style="stroke:#000000;stroke-width:0.5;" x="1677.1610456" xlink:href="#m34fb789a82" y="1068.39"/>
      </g>
     </g>
     <g id="text_9">
      <!-- Quebec -->
      <defs>
       <path d="M 39.40625 66.21875 
Q 28.65625 66.21875 22.328125 58.203125 
Q 16.015625 50.203125 16.015625 36.375 
Q 16.015625 22.609375 22.328125 14.59375 
Q 28.65625 6.59375 39.40625 6.59375 
Q 50.140625 6.59375 56.421875 14.59375 
Q 62.703125 22.609375 62.703125 36.375 
Q 62.703125 50.203125 56.421875 58.203125 
Q 50.140625 66.21875 39.40625 66.21875 
M 53.21875 1.3125 
L 66.21875 -12.890625 
L 54.296875 -12.890625 
L 43.5 -1.21875 
Q 41.890625 -1.3125 41.03125 -1.359375 
Q 40.1875 -1.421875 39.40625 -1.421875 
Q 24.03125 -1.421875 14.8125 8.859375 
Q 5.609375 19.140625 5.609375 36.375 
Q 5.609375 53.65625 14.8125 63.9375 
Q 24.03125 74.21875 39.40625 74.21875 
Q 54.734375 74.21875 63.90625 63.9375 
Q 73.09375 53.65625 73.09375 36.375 
Q 73.09375 23.6875 67.984375 14.640625 
Q 62.890625 5.609375 53.21875 1.3125 
" id="BitstreamVeraSans-Roman-51"/>
      </defs>
      <g transform="translate(1680.4722956 1118.425)rotate(-90.0)scale(0.12 -0.12)">
       <use xlink:href="#BitstreamVeraSans-Roman-51"/>
       <use x="78.7109375" xlink:href="#BitstreamVeraSans-Roman-75"/>
       <use x="142.08984375" xlink:href="#BitstreamVeraSans-Roman-65"/>
       <use x="203.61328125" xlink:href="#BitstreamVeraSans-Roman-62"/>
       <use x="267.08984375" xlink:href="#BitstreamVeraSans-Roman-65"/>
       <use x="328.61328125" xlink:href="#BitstreamVeraSans-Roman-63"/>
      </g>
     </g>
    </g>
    <g id="xtick_10">
     <g id="line2d_10">
      <g>
       <use style="stroke:#000000;stroke-width:0.5;" x="348.482076558" xlink:href="#m34fb789a82" y="1068.39"/>
      </g>
     </g>
     <g id="text_10">
      <!-- Alberta -->
      <g transform="translate(351.793326558 1115.925625)rotate(-90.0)scale(0.12 -0.12)">
       <use xlink:href="#BitstreamVeraSans-Roman-41"/>
       <use x="68.408203125" xlink:href="#BitstreamVeraSans-Roman-6c"/>
       <use x="96.19140625" xlink:href="#BitstreamVeraSans-Roman-62"/>
       <use x="159.66796875" xlink:href="#BitstreamVeraSans-Roman-65"/>
       <use x="221.19140625" xlink:href="#BitstreamVeraSans-Roman-72"/>
       <use x="262.3046875" xlink:href="#BitstreamVeraSans-Roman-74"/>
       <use x="301.513671875" xlink:href="#BitstreamVeraSans-Roman-61"/>
      </g>
     </g>
    </g>
    <g id="xtick_11">
     <g id="line2d_11">
      <g>
       <use style="stroke:#000000;stroke-width:0.5;" x="1487.58584548" xlink:href="#m34fb789a82" y="1068.39"/>
      </g>
     </g>
     <g id="text_11">
      <!-- Prince_Edward_Island -->
      <defs>
       <path d="M 9.8125 72.90625 
L 19.671875 72.90625 
L 19.671875 0 
L 9.8125 0 
z
" id="BitstreamVeraSans-Roman-49"/>
       <path d="M 19.671875 64.796875 
L 19.671875 37.40625 
L 32.078125 37.40625 
Q 38.96875 37.40625 42.71875 40.96875 
Q 46.484375 44.53125 46.484375 51.125 
Q 46.484375 57.671875 42.71875 61.234375 
Q 38.96875 64.796875 32.078125 64.796875 
z
M 9.8125 72.90625 
L 32.078125 72.90625 
Q 44.34375 72.90625 50.609375 67.359375 
Q 56.890625 61.8125 56.890625 51.125 
Q 56.890625 40.328125 50.609375 34.8125 
Q 44.34375 29.296875 32.078125 29.296875 
L 19.671875 29.296875 
L 19.671875 0 
L 9.8125 0 
z
" id="BitstreamVeraSans-Roman-50"/>
      </defs>
      <g transform="translate(1490.73022048 1202.096875)rotate(-90.0)scale(0.12 -0.12)">
       <use xlink:href="#BitstreamVeraSans-Roman-50"/>
       <use x="60.287109375" xlink:href="#BitstreamVeraSans-Roman-72"/>
       <use x="101.400390625" xlink:href="#BitstreamVeraSans-Roman-69"/>
       <use x="129.18359375" xlink:href="#BitstreamVeraSans-Roman-6e"/>
       <use x="192.5625" xlink:href="#BitstreamVeraSans-Roman-63"/>
       <use x="247.54296875" xlink:href="#BitstreamVeraSans-Roman-65"/>
       <use x="309.06640625" xlink:href="#BitstreamVeraSans-Roman-5f"/>
       <use x="359.06640625" xlink:href="#BitstreamVeraSans-Roman-45"/>
       <use x="422.25" xlink:href="#BitstreamVeraSans-Roman-64"/>
       <use x="485.7265625" xlink:href="#BitstreamVeraSans-Roman-77"/>
       <use x="567.513671875" xlink:href="#BitstreamVeraSans-Roman-61"/>
       <use x="628.79296875" xlink:href="#BitstreamVeraSans-Roman-72"/>
       <use x="669.890625" xlink:href="#BitstreamVeraSans-Roman-64"/>
       <use x="733.3671875" xlink:href="#BitstreamVeraSans-Roman-5f"/>
       <use x="783.3671875" xlink:href="#BitstreamVeraSans-Roman-49"/>
       <use x="812.859375" xlink:href="#BitstreamVeraSans-Roman-73"/>
       <use x="864.958984375" xlink:href="#BitstreamVeraSans-Roman-6c"/>
       <use x="892.7421875" xlink:href="#BitstreamVeraSans-Roman-61"/>
       <use x="954.021484375" xlink:href="#BitstreamVeraSans-Roman-6e"/>
       <use x="1017.400390625" xlink:href="#BitstreamVeraSans-Roman-64"/>
      </g>
     </g>
    </g>
    <g id="xtick_12">
     <g id="line2d_12">
      <g>
       <use style="stroke:#000000;stroke-width:0.5;" x="573.408786199" xlink:href="#m34fb789a82" y="1068.39"/>
      </g>
     </g>
     <g id="text_12">
      <!-- Eastern_Asia -->
      <g transform="translate(576.553161199 1149.349375)rotate(-90.0)scale(0.12 -0.12)">
       <use xlink:href="#BitstreamVeraSans-Roman-45"/>
       <use x="63.18359375" xlink:href="#BitstreamVeraSans-Roman-61"/>
       <use x="124.462890625" xlink:href="#BitstreamVeraSans-Roman-73"/>
       <use x="176.5625" xlink:href="#BitstreamVeraSans-Roman-74"/>
       <use x="215.771484375" xlink:href="#BitstreamVeraSans-Roman-65"/>
       <use x="277.294921875" xlink:href="#BitstreamVeraSans-Roman-72"/>
       <use x="318.392578125" xlink:href="#BitstreamVeraSans-Roman-6e"/>
       <use x="381.771484375" xlink:href="#BitstreamVeraSans-Roman-5f"/>
       <use x="431.771484375" xlink:href="#BitstreamVeraSans-Roman-41"/>
       <use x="500.1796875" xlink:href="#BitstreamVeraSans-Roman-73"/>
       <use x="552.279296875" xlink:href="#BitstreamVeraSans-Roman-69"/>
       <use x="580.0625" xlink:href="#BitstreamVeraSans-Roman-61"/>
      </g>
     </g>
    </g>
    <g id="xtick_13">
     <g id="line2d_13">
      <g>
       <use style="stroke:#000000;stroke-width:0.5;" x="1888.83454215" xlink:href="#m34fb789a82" y="1068.39"/>
      </g>
     </g>
     <g id="text_13">
      <!-- Saskatchewan -->
      <g transform="translate(1892.14579215 1158.9775)rotate(-90.0)scale(0.12 -0.12)">
       <use xlink:href="#BitstreamVeraSans-Roman-53"/>
       <use x="63.4765625" xlink:href="#BitstreamVeraSans-Roman-61"/>
       <use x="124.755859375" xlink:href="#BitstreamVeraSans-Roman-73"/>
       <use x="176.85546875" xlink:href="#BitstreamVeraSans-Roman-6b"/>
       <use x="234.75" xlink:href="#BitstreamVeraSans-Roman-61"/>
       <use x="296.029296875" xlink:href="#BitstreamVeraSans-Roman-74"/>
       <use x="335.23828125" xlink:href="#BitstreamVeraSans-Roman-63"/>
       <use x="390.21875" xlink:href="#BitstreamVeraSans-Roman-68"/>
       <use x="453.59765625" xlink:href="#BitstreamVeraSans-Roman-65"/>
       <use x="515.12109375" xlink:href="#BitstreamVeraSans-Roman-77"/>
       <use x="596.908203125" xlink:href="#BitstreamVeraSans-Roman-61"/>
       <use x="658.1875" xlink:href="#BitstreamVeraSans-Roman-6e"/>
      </g>
     </g>
    </g>
    <g id="xtick_14">
     <g id="line2d_14">
      <g>
       <use style="stroke:#000000;stroke-width:0.5;" x="711.815861305" xlink:href="#m34fb789a82" y="1068.39"/>
      </g>
     </g>
     <g id="text_14">
      <!-- Manitoba -->
      <defs>
       <path d="M 9.8125 72.90625 
L 24.515625 72.90625 
L 43.109375 23.296875 
L 61.8125 72.90625 
L 76.515625 72.90625 
L 76.515625 0 
L 66.890625 0 
L 66.890625 64.015625 
L 48.09375 14.015625 
L 38.1875 14.015625 
L 19.390625 64.015625 
L 19.390625 0 
L 9.8125 0 
z
" id="BitstreamVeraSans-Roman-4d"/>
      </defs>
      <g transform="translate(715.127111305 1128.055)rotate(-90.0)scale(0.12 -0.12)">
       <use xlink:href="#BitstreamVeraSans-Roman-4d"/>
       <use x="86.279296875" xlink:href="#BitstreamVeraSans-Roman-61"/>
       <use x="147.55859375" xlink:href="#BitstreamVeraSans-Roman-6e"/>
       <use x="210.9375" xlink:href="#BitstreamVeraSans-Roman-69"/>
       <use x="238.720703125" xlink:href="#BitstreamVeraSans-Roman-74"/>
       <use x="277.9296875" xlink:href="#BitstreamVeraSans-Roman-6f"/>
       <use x="339.111328125" xlink:href="#BitstreamVeraSans-Roman-62"/>
       <use x="402.587890625" xlink:href="#BitstreamVeraSans-Roman-61"/>
      </g>
     </g>
    </g>
    <g id="xtick_15">
     <g id="line2d_15">
      <g>
       <use style="stroke:#000000;stroke-width:0.5;" x="1150.39594675" xlink:href="#m34fb789a82" y="1068.39"/>
      </g>
     </g>
     <g id="text_15">
      <!-- Ontario -->
      <g transform="translate(1153.70719675 1117.10875)rotate(-90.0)scale(0.12 -0.12)">
       <use xlink:href="#BitstreamVeraSans-Roman-4f"/>
       <use x="78.7109375" xlink:href="#BitstreamVeraSans-Roman-6e"/>
       <use x="142.08984375" xlink:href="#BitstreamVeraSans-Roman-74"/>
       <use x="181.298828125" xlink:href="#BitstreamVeraSans-Roman-61"/>
       <use x="242.578125" xlink:href="#BitstreamVeraSans-Roman-72"/>
       <use x="283.69140625" xlink:href="#BitstreamVeraSans-Roman-69"/>
       <use x="311.474609375" xlink:href="#BitstreamVeraSans-Roman-6f"/>
      </g>
     </g>
    </g>
    <g id="xtick_16">
     <g id="line2d_16">
      <g>
       <use style="stroke:#000000;stroke-width:0.5;" x="2040.35647579" xlink:href="#m34fb789a82" y="1068.39"/>
      </g>
     </g>
     <g id="text_16">
      <!-- United_States_of_America -->
      <defs>
       <path d="M 8.6875 72.90625 
L 18.609375 72.90625 
L 18.609375 28.609375 
Q 18.609375 16.890625 22.84375 11.734375 
Q 27.09375 6.59375 36.625 6.59375 
Q 46.09375 6.59375 50.34375 11.734375 
Q 54.59375 16.890625 54.59375 28.609375 
L 54.59375 72.90625 
L 64.5 72.90625 
L 64.5 27.390625 
Q 64.5 13.140625 57.4375 5.859375 
Q 50.390625 -1.421875 36.625 -1.421875 
Q 22.796875 -1.421875 15.734375 5.859375 
Q 8.6875 13.140625 8.6875 27.390625 
z
" id="BitstreamVeraSans-Roman-55"/>
      </defs>
      <g transform="translate(2043.50085079 1228.9)rotate(-90.0)scale(0.12 -0.12)">
       <use xlink:href="#BitstreamVeraSans-Roman-55"/>
       <use x="73.193359375" xlink:href="#BitstreamVeraSans-Roman-6e"/>
       <use x="136.572265625" xlink:href="#BitstreamVeraSans-Roman-69"/>
       <use x="164.35546875" xlink:href="#BitstreamVeraSans-Roman-74"/>
       <use x="203.564453125" xlink:href="#BitstreamVeraSans-Roman-65"/>
       <use x="265.087890625" xlink:href="#BitstreamVeraSans-Roman-64"/>
       <use x="328.564453125" xlink:href="#BitstreamVeraSans-Roman-5f"/>
       <use x="378.564453125" xlink:href="#BitstreamVeraSans-Roman-53"/>
       <use x="442.041015625" xlink:href="#BitstreamVeraSans-Roman-74"/>
       <use x="481.25" xlink:href="#BitstreamVeraSans-Roman-61"/>
       <use x="542.529296875" xlink:href="#BitstreamVeraSans-Roman-74"/>
       <use x="581.73828125" xlink:href="#BitstreamVeraSans-Roman-65"/>
       <use x="643.26171875" xlink:href="#BitstreamVeraSans-Roman-73"/>
       <use x="695.361328125" xlink:href="#BitstreamVeraSans-Roman-5f"/>
       <use x="745.361328125" xlink:href="#BitstreamVeraSans-Roman-6f"/>
       <use x="806.54296875" xlink:href="#BitstreamVeraSans-Roman-66"/>
       <use x="841.748046875" xlink:href="#BitstreamVeraSans-Roman-5f"/>
       <use x="891.748046875" xlink:href="#BitstreamVeraSans-Roman-41"/>
       <use x="960.15625" xlink:href="#BitstreamVeraSans-Roman-6d"/>
       <use x="1057.568359375" xlink:href="#BitstreamVeraSans-Roman-65"/>
       <use x="1119.091796875" xlink:href="#BitstreamVeraSans-Roman-72"/>
       <use x="1160.205078125" xlink:href="#BitstreamVeraSans-Roman-69"/>
       <use x="1187.98828125" xlink:href="#BitstreamVeraSans-Roman-63"/>
       <use x="1242.96875" xlink:href="#BitstreamVeraSans-Roman-61"/>
      </g>
     </g>
    </g>
   </g>
   <g id="matplotlib.axis_2">
    <g id="ytick_1">
     <g id="line2d_17">
      <defs>
       <path d="M 0 0 
L 4 0 
" id="m0024bd86a6" style="stroke:#000000;stroke-width:0.5;"/>
      </defs>
      <g>
       <use style="stroke:#000000;stroke-width:0.5;" x="288.0" xlink:href="#m0024bd86a6" y="843.223826351"/>
      </g>
     </g>
     <g id="text_17">
      <!-- False -->
      <defs>
       <path d="M 9.8125 72.90625 
L 51.703125 72.90625 
L 51.703125 64.59375 
L 19.671875 64.59375 
L 19.671875 43.109375 
L 48.578125 43.109375 
L 48.578125 34.8125 
L 19.671875 34.8125 
L 19.671875 0 
L 9.8125 0 
z
" id="BitstreamVeraSans-Roman-46"/>
      </defs>
      <g transform="translate(281.504375 858.827576351)rotate(-90.0)scale(0.12 -0.12)">
       <use xlink:href="#BitstreamVeraSans-Roman-46"/>
       <use x="57.37890625" xlink:href="#BitstreamVeraSans-Roman-61"/>
       <use x="118.658203125" xlink:href="#BitstreamVeraSans-Roman-6c"/>
       <use x="146.44140625" xlink:href="#BitstreamVeraSans-Roman-73"/>
       <use x="198.541015625" xlink:href="#BitstreamVeraSans-Roman-65"/>
      </g>
     </g>
    </g>
    <g id="ytick_2">
     <g id="line2d_18">
      <g>
       <use style="stroke:#000000;stroke-width:0.5;" x="288.0" xlink:href="#m0024bd86a6" y="366.806284822"/>
      </g>
     </g>
     <g id="text_18">
      <!-- True -->
      <defs>
       <path d="M -0.296875 72.90625 
L 61.375 72.90625 
L 61.375 64.59375 
L 35.5 64.59375 
L 35.5 0 
L 25.59375 0 
L 25.59375 64.59375 
L -0.296875 64.59375 
z
" id="BitstreamVeraSans-Roman-54"/>
      </defs>
      <g transform="translate(281.504375 380.418784822)rotate(-90.0)scale(0.12 -0.12)">
       <use xlink:href="#BitstreamVeraSans-Roman-54"/>
       <use x="60.865234375" xlink:href="#BitstreamVeraSans-Roman-72"/>
       <use x="101.978515625" xlink:href="#BitstreamVeraSans-Roman-75"/>
       <use x="165.357421875" xlink:href="#BitstreamVeraSans-Roman-65"/>
      </g>
     </g>
    </g>
   </g>
   <g id="text_19">
    <!-- locstud -->
    <g transform="translate(1154.728125 113.71)scale(0.144 -0.144)">
     <use xlink:href="#BitstreamVeraSans-Roman-6c"/>
     <use x="27.783203125" xlink:href="#BitstreamVeraSans-Roman-6f"/>
     <use x="88.96484375" xlink:href="#BitstreamVeraSans-Roman-63"/>
     <use x="143.9453125" xlink:href="#BitstreamVeraSans-Roman-73"/>
     <use x="196.044921875" xlink:href="#BitstreamVeraSans-Roman-74"/>
     <use x="235.25390625" xlink:href="#BitstreamVeraSans-Roman-75"/>
     <use x="298.6328125" xlink:href="#BitstreamVeraSans-Roman-64"/>
    </g>
   </g>
  </g>
  <g id="axes_2">
   <g id="patch_39">
    <path d="M 288 118.71 
L 2073.6 118.71 
" style="fill:none;stroke:#000000;stroke-linecap:square;stroke-linejoin:miter;"/>
   </g>
   <g id="patch_40">
    <path d="M 288 1068.39 
L 288 118.71 
" style="fill:none;stroke:#000000;stroke-linecap:square;stroke-linejoin:miter;"/>
   </g>
   <g id="patch_41">
    <path d="M 2073.6 1068.39 
L 2073.6 118.71 
" style="fill:none;stroke:#000000;stroke-linecap:square;stroke-linejoin:miter;"/>
   </g>
   <g id="patch_42">
    <path d="M 288 1068.39 
L 2073.6 1068.39 
" style="fill:none;stroke:#000000;stroke-linecap:square;stroke-linejoin:miter;"/>
   </g>
   <g id="matplotlib.axis_3"/>
  </g>
  <g id="axes_3">
   <g id="patch_43">
    <path d="M 288 118.71 
L 2073.6 118.71 
" style="fill:none;stroke:#000000;stroke-linecap:square;stroke-linejoin:miter;"/>
   </g>
   <g id="patch_44">
    <path d="M 288 1068.39 
L 288 118.71 
" style="fill:none;stroke:#000000;stroke-linecap:square;stroke-linejoin:miter;"/>
   </g>
   <g id="patch_45">
    <path d="M 2073.6 1068.39 
L 2073.6 118.71 
" style="fill:none;stroke:#000000;stroke-linecap:square;stroke-linejoin:miter;"/>
   </g>
   <g id="patch_46">
    <path d="M 288 1068.39 
L 2073.6 1068.39 
" style="fill:none;stroke:#000000;stroke-linecap:square;stroke-linejoin:miter;"/>
   </g>
   <g id="matplotlib.axis_4"/>
  </g>
 </g>
 <defs>
  <clipPath id="p0119b6f20e">
   <rect height="949.68" width="1785.6" x="288.0" y="118.71"/>
  </clipPath>
 </defs>
</svg>
