<?xml version="1.0" encoding="utf-8" standalone="no"?>
<!DOCTYPE svg PUBLIC "-//W3C//DTD SVG 1.1//EN"
  "http://www.w3.org/Graphics/SVG/1.1/DTD/svg11.dtd">
<!-- Created with matplotlib (http://matplotlib.org/) -->
<svg height="1187pt" version="1.1" viewBox="0 0 2304 1187" width="2304pt" xmlns="http://www.w3.org/2000/svg" xmlns:xlink="http://www.w3.org/1999/xlink">
 <defs>
  <style type="text/css">
*{stroke-linecap:butt;stroke-linejoin:round;stroke-miterlimit:100000;}
  </style>
 </defs>
 <g id="figure_1">
  <g id="patch_1">
   <path d="M 0 1187.1 
L 2304 1187.1 
L 2304 0 
L 0 0 
z
" style="fill:#ffffff;"/>
  </g>
  <g id="axes_1">
   <g id="patch_2">
    <path d="M 288 1068.39 
L 2073.6 1068.39 
L 2073.6 118.71 
L 288 118.71 
z
" style="fill:#ffffff;"/>
   </g>
   <g id="patch_3">
    <path clip-path="url(#p1adad40be5)" d="M 288 1068.39 
L 290.33622 1068.39 
L 290.33622 507.947615 
L 288 507.947615 
z
" style="fill:#804040;"/>
   </g>
   <g id="patch_4">
    <path clip-path="url(#p1adad40be5)" d="M 288 504.792532 
L 290.33622 504.792532 
L 290.33622 118.71 
L 288 118.71 
z
" style="fill:#802020;"/>
   </g>
   <g id="patch_5">
    <path clip-path="url(#p1adad40be5)" d="M 298.307649 1068.39 
L 305.500747 1068.39 
L 305.500747 425.238454 
L 298.307649 425.238454 
z
" style="fill:#804e40;"/>
   </g>
   <g id="patch_6">
    <path clip-path="url(#p1adad40be5)" d="M 298.307649 422.083371 
L 305.500747 422.083371 
L 305.500747 118.71 
L 298.307649 118.71 
z
" style="fill:#803620;"/>
   </g>
   <g id="patch_7">
    <path clip-path="url(#p1adad40be5)" d="M 313.472176 1068.39 
L 330.44051 1068.39 
L 330.44051 499.103275 
L 313.472176 499.103275 
z
" style="fill:#805d40;"/>
   </g>
   <g id="patch_8">
    <path clip-path="url(#p1adad40be5)" d="M 313.472176 495.948192 
L 330.44051 495.948192 
L 330.44051 118.71 
L 313.472176 118.71 
z
" style="fill:#804c20;"/>
   </g>
   <g id="patch_9">
    <path clip-path="url(#p1adad40be5)" d="M 338.411939 1068.39 
L 344.928763 1068.39 
L 344.928763 559.40962 
L 338.411939 559.40962 
z
" style="fill:#806c40;"/>
   </g>
   <g id="patch_10">
    <path clip-path="url(#p1adad40be5)" d="M 338.411939 556.254537 
L 344.928763 556.254537 
L 344.928763 118.71 
L 338.411939 118.71 
z
" style="fill:#806220;"/>
   </g>
   <g id="patch_11">
    <path clip-path="url(#p1adad40be5)" d="M 352.900192 1068.39 
L 433.592001 1068.39 
L 433.592001 501.556793 
L 352.900192 501.556793 
z
" style="fill:#807b40;"/>
   </g>
   <g id="patch_12">
    <path clip-path="url(#p1adad40be5)" d="M 352.900192 498.40171 
L 433.592001 498.40171 
L 433.592001 118.71 
L 352.900192 118.71 
z
" style="fill:#807820;"/>
   </g>
   <g id="patch_13">
    <path clip-path="url(#p1adad40be5)" d="M 441.56343 1068.39 
L 450.723871 1068.39 
L 450.723871 455.372185 
L 441.56343 455.372185 
z
" style="fill:#768040;"/>
   </g>
   <g id="patch_14">
    <path clip-path="url(#p1adad40be5)" d="M 441.56343 452.217102 
L 450.723871 452.217102 
L 450.723871 118.71 
L 441.56343 118.71 
z
" style="fill:#718020;"/>
   </g>
   <g id="patch_15">
    <path clip-path="url(#p1adad40be5)" d="M 458.6953 1068.39 
L 464.597329 1068.39 
L 464.597329 600.057359 
L 458.6953 600.057359 
z
" style="fill:#678040;"/>
   </g>
   <g id="patch_16">
    <path clip-path="url(#p1adad40be5)" d="M 458.6953 596.902276 
L 464.597329 596.902276 
L 464.597329 118.71 
L 458.6953 118.71 
z
" style="fill:#5b8020;"/>
   </g>
   <g id="patch_17">
    <path clip-path="url(#p1adad40be5)" d="M 472.568758 1068.39 
L 486.217201 1068.39 
L 486.217201 691.059121 
L 472.568758 691.059121 
z
" style="fill:#588040;"/>
   </g>
   <g id="patch_18">
    <path clip-path="url(#p1adad40be5)" d="M 472.568758 687.904038 
L 486.217201 687.904038 
L 486.217201 118.71 
L 472.568758 118.71 
z
" style="fill:#458020;"/>
   </g>
   <g id="patch_19">
    <path clip-path="url(#p1adad40be5)" d="M 494.18863 1068.39 
L 501.258769 1068.39 
L 501.258769 533.397656 
L 494.18863 533.397656 
z
" style="fill:#4a8040;"/>
   </g>
   <g id="patch_20">
    <path clip-path="url(#p1adad40be5)" d="M 494.18863 530.242573 
L 501.258769 530.242573 
L 501.258769 118.71 
L 494.18863 118.71 
z
" style="fill:#2f8020;"/>
   </g>
   <g id="patch_21">
    <path clip-path="url(#p1adad40be5)" d="M 509.230198 1068.39 
L 551.927692 1068.39 
L 551.927692 429.877511 
L 509.230198 429.877511 
z
" style="fill:#408045;"/>
   </g>
   <g id="patch_22">
    <path clip-path="url(#p1adad40be5)" d="M 509.230198 426.722428 
L 551.927692 426.722428 
L 551.927692 118.71 
L 509.230198 118.71 
z
" style="fill:#208027;"/>
   </g>
   <g id="patch_23">
    <path clip-path="url(#p1adad40be5)" d="M 559.899121 1068.39 
L 584.798308 1068.39 
L 584.798308 673.420343 
L 559.899121 673.420343 
z
" style="fill:#408053;"/>
   </g>
   <g id="patch_24">
    <path clip-path="url(#p1adad40be5)" d="M 559.899121 670.26526 
L 584.798308 670.26526 
L 584.798308 118.71 
L 559.899121 118.71 
z
" style="fill:#20803d;"/>
   </g>
   <g id="patch_25">
    <path clip-path="url(#p1adad40be5)" d="M 592.769736 1068.39 
L 596.888861 1068.39 
L 596.888861 418.537072 
L 592.769736 418.537072 
z
" style="fill:#408062;"/>
   </g>
   <g id="patch_26">
    <path clip-path="url(#p1adad40be5)" d="M 592.769736 415.381989 
L 596.888861 415.381989 
L 596.888861 118.71 
L 592.769736 118.71 
z
" style="fill:#208053;"/>
   </g>
   <g id="patch_27">
    <path clip-path="url(#p1adad40be5)" d="M 604.86029 1068.39 
L 1823.014583 1068.39 
L 1823.014583 590.637113 
L 604.86029 590.637113 
z
" style="fill:#408071;"/>
   </g>
   <g id="patch_28">
    <path clip-path="url(#p1adad40be5)" d="M 604.86029 587.48203 
L 1823.014583 587.48203 
L 1823.014583 118.71 
L 604.86029 118.71 
z
" style="fill:#208069;"/>
   </g>
   <g id="patch_29">
    <path clip-path="url(#p1adad40be5)" d="M 1830.986012 1068.39 
L 1834.490342 1068.39 
L 1834.490342 487.19049 
L 1830.986012 487.19049 
z
" style="fill:#408080;"/>
   </g>
   <g id="patch_30">
    <path clip-path="url(#p1adad40be5)" d="M 1830.986012 484.035407 
L 1834.490342 484.035407 
L 1834.490342 118.71 
L 1830.986012 118.71 
z
" style="fill:#208080;"/>
   </g>
   <g id="patch_31">
    <path clip-path="url(#p1adad40be5)" d="M 1842.46177 1068.39 
L 1856.47909 1068.39 
L 1856.47909 539.083303 
L 1842.46177 539.083303 
z
" style="fill:#407180;"/>
   </g>
   <g id="patch_32">
    <path clip-path="url(#p1adad40be5)" d="M 1842.46177 535.92822 
L 1856.47909 535.92822 
L 1856.47909 118.71 
L 1842.46177 118.71 
z
" style="fill:#206980;"/>
   </g>
   <g id="patch_33">
    <path clip-path="url(#p1adad40be5)" d="M 1864.450519 1068.39 
L 1870.659946 1068.39 
L 1870.659946 618.556376 
L 1864.450519 618.556376 
z
" style="fill:#406280;"/>
   </g>
   <g id="patch_34">
    <path clip-path="url(#p1adad40be5)" d="M 1864.450519 615.401293 
L 1870.659946 615.401293 
L 1870.659946 118.71 
L 1864.450519 118.71 
z
" style="fill:#205380;"/>
   </g>
   <g id="patch_35">
    <path clip-path="url(#p1adad40be5)" d="M 1878.631374 1068.39 
L 1895.568969 1068.39 
L 1895.568969 558.194174 
L 1878.631374 558.194174 
z
" style="fill:#405380;"/>
   </g>
   <g id="patch_36">
    <path clip-path="url(#p1adad40be5)" d="M 1878.631374 555.039091 
L 1895.568969 555.039091 
L 1895.568969 118.71 
L 1878.631374 118.71 
z
" style="fill:#203d80;"/>
   </g>
   <g id="patch_37">
    <path clip-path="url(#p1adad40be5)" d="M 1903.540398 1068.39 
L 1918.848787 1068.39 
L 1918.848787 395.559035 
L 1903.540398 395.559035 
z
" style="fill:#404580;"/>
   </g>
   <g id="patch_38">
    <path clip-path="url(#p1adad40be5)" d="M 1903.540398 392.403952 
L 1918.848787 392.403952 
L 1918.848787 118.71 
L 1903.540398 118.71 
z
" style="fill:#202780;"/>
   </g>
   <g id="patch_39">
    <path clip-path="url(#p1adad40be5)" d="M 1926.820216 1068.39 
L 1943.020057 1068.39 
L 1943.020057 369.721703 
L 1926.820216 369.721703 
z
" style="fill:#4a4080;"/>
   </g>
   <g id="patch_40">
    <path clip-path="url(#p1adad40be5)" d="M 1926.820216 366.56662 
L 1943.020057 366.56662 
L 1943.020057 118.71 
L 1926.820216 118.71 
z
" style="fill:#2f2080;"/>
   </g>
   <g id="patch_41">
    <path clip-path="url(#p1adad40be5)" d="M 1950.991485 1068.39 
L 1963.34886 1068.39 
L 1963.34886 552.745829 
L 1950.991485 552.745829 
z
" style="fill:#584080;"/>
   </g>
   <g id="patch_42">
    <path clip-path="url(#p1adad40be5)" d="M 1950.991485 549.590746 
L 1963.34886 549.590746 
L 1963.34886 118.71 
L 1950.991485 118.71 
z
" style="fill:#452080;"/>
   </g>
   <g id="patch_43">
    <path clip-path="url(#p1adad40be5)" d="M 1971.320288 1068.39 
L 1977.775633 1068.39 
L 1977.775633 473.431481 
L 1971.320288 473.431481 
z
" style="fill:#674080;"/>
   </g>
   <g id="patch_44">
    <path clip-path="url(#p1adad40be5)" d="M 1971.320288 470.276398 
L 1977.775633 470.276398 
L 1977.775633 118.71 
L 1971.320288 118.71 
z
" style="fill:#5b2080;"/>
   </g>
   <g id="patch_45">
    <path clip-path="url(#p1adad40be5)" d="M 1985.747062 1068.39 
L 1998.719231 1068.39 
L 1998.719231 462.793489 
L 1985.747062 462.793489 
z
" style="fill:#764080;"/>
   </g>
   <g id="patch_46">
    <path clip-path="url(#p1adad40be5)" d="M 1985.747062 459.638406 
L 1998.719231 459.638406 
L 1998.719231 118.71 
L 1985.747062 118.71 
z
" style="fill:#712080;"/>
   </g>
   <g id="patch_47">
    <path clip-path="url(#p1adad40be5)" d="M 2006.690659 1068.39 
L 2021.999048 1068.39 
L 2021.999048 435.472736 
L 2006.690659 435.472736 
z
" style="fill:#80407b;"/>
   </g>
   <g id="patch_48">
    <path clip-path="url(#p1adad40be5)" d="M 2006.690659 432.317653 
L 2021.999048 432.317653 
L 2021.999048 118.71 
L 2006.690659 118.71 
z
" style="fill:#802078;"/>
   </g>
   <g id="patch_49">
    <path clip-path="url(#p1adad40be5)" d="M 2029.970477 1068.39 
L 2058.83509 1068.39 
L 2058.83509 311.371669 
L 2029.970477 311.371669 
z
" style="fill:#80406c;"/>
   </g>
   <g id="patch_50">
    <path clip-path="url(#p1adad40be5)" d="M 2029.970477 308.216586 
L 2058.83509 308.216586 
L 2058.83509 118.71 
L 2029.970477 118.71 
z
" style="fill:#802062;"/>
   </g>
   <g id="patch_51">
    <path clip-path="url(#p1adad40be5)" d="M 2066.806518 1068.39 
L 2073.6 1068.39 
L 2073.6 622.96651 
L 2066.806518 622.96651 
z
" style="fill:#80405d;"/>
   </g>
   <g id="patch_52">
    <path clip-path="url(#p1adad40be5)" d="M 2066.806518 619.811427 
L 2073.6 619.811427 
L 2073.6 118.71 
L 2066.806518 118.71 
z
" style="fill:#80204c;"/>
   </g>
   <g id="patch_53">
    <path d="M 288 118.71 
L 2073.6 118.71 
" style="fill:none;stroke:#000000;stroke-linecap:square;stroke-linejoin:miter;"/>
   </g>
   <g id="patch_54">
    <path d="M 288 1068.39 
L 288 118.71 
" style="fill:none;stroke:#000000;stroke-linecap:square;stroke-linejoin:miter;"/>
   </g>
   <g id="patch_55">
    <path d="M 2073.6 1068.39 
L 2073.6 118.71 
" style="fill:none;stroke:#000000;stroke-linecap:square;stroke-linejoin:miter;"/>
   </g>
   <g id="patch_56">
    <path d="M 288 1068.39 
L 2073.6 1068.39 
" style="fill:none;stroke:#000000;stroke-linecap:square;stroke-linejoin:miter;"/>
   </g>
   <g id="matplotlib.axis_1">
    <g id="xtick_1">
     <g id="line2d_1">
      <defs>
       <path d="M 0 0 
L 0 -4 
" id="m37a37e08c4" style="stroke:#000000;stroke-width:0.5;"/>
      </defs>
      <g>
       <use style="stroke:#000000;stroke-width:0.5;" x="1992.23314603" xlink:href="#m37a37e08c4" y="1068.39"/>
      </g>
     </g>
     <g id="text_1">
      <!-- Russian -->
      <defs>
       <path d="M 34.28125 27.484375 
Q 23.390625 27.484375 19.1875 25 
Q 14.984375 22.515625 14.984375 16.5 
Q 14.984375 11.71875 18.140625 8.90625 
Q 21.296875 6.109375 26.703125 6.109375 
Q 34.1875 6.109375 38.703125 11.40625 
Q 43.21875 16.703125 43.21875 25.484375 
L 43.21875 27.484375 
z
M 52.203125 31.203125 
L 52.203125 0 
L 43.21875 0 
L 43.21875 8.296875 
Q 40.140625 3.328125 35.546875 0.953125 
Q 30.953125 -1.421875 24.3125 -1.421875 
Q 15.921875 -1.421875 10.953125 3.296875 
Q 6 8.015625 6 15.921875 
Q 6 25.140625 12.171875 29.828125 
Q 18.359375 34.515625 30.609375 34.515625 
L 43.21875 34.515625 
L 43.21875 35.40625 
Q 43.21875 41.609375 39.140625 45 
Q 35.0625 48.390625 27.6875 48.390625 
Q 23 48.390625 18.546875 47.265625 
Q 14.109375 46.140625 10.015625 43.890625 
L 10.015625 52.203125 
Q 14.9375 54.109375 19.578125 55.046875 
Q 24.21875 56 28.609375 56 
Q 40.484375 56 46.34375 49.84375 
Q 52.203125 43.703125 52.203125 31.203125 
" id="BitstreamVeraSans-Roman-61"/>
       <path d="M 8.5 21.578125 
L 8.5 54.6875 
L 17.484375 54.6875 
L 17.484375 21.921875 
Q 17.484375 14.15625 20.5 10.265625 
Q 23.53125 6.390625 29.59375 6.390625 
Q 36.859375 6.390625 41.078125 11.03125 
Q 45.3125 15.671875 45.3125 23.6875 
L 45.3125 54.6875 
L 54.296875 54.6875 
L 54.296875 0 
L 45.3125 0 
L 45.3125 8.40625 
Q 42.046875 3.421875 37.71875 1 
Q 33.40625 -1.421875 27.6875 -1.421875 
Q 18.265625 -1.421875 13.375 4.4375 
Q 8.5 10.296875 8.5 21.578125 
" id="BitstreamVeraSans-Roman-75"/>
       <path d="M 9.421875 54.6875 
L 18.40625 54.6875 
L 18.40625 0 
L 9.421875 0 
z
M 9.421875 75.984375 
L 18.40625 75.984375 
L 18.40625 64.59375 
L 9.421875 64.59375 
z
" id="BitstreamVeraSans-Roman-69"/>
       <path d="M 54.890625 33.015625 
L 54.890625 0 
L 45.90625 0 
L 45.90625 32.71875 
Q 45.90625 40.484375 42.875 44.328125 
Q 39.84375 48.1875 33.796875 48.1875 
Q 26.515625 48.1875 22.3125 43.546875 
Q 18.109375 38.921875 18.109375 30.90625 
L 18.109375 0 
L 9.078125 0 
L 9.078125 54.6875 
L 18.109375 54.6875 
L 18.109375 46.1875 
Q 21.34375 51.125 25.703125 53.5625 
Q 30.078125 56 35.796875 56 
Q 45.21875 56 50.046875 50.171875 
Q 54.890625 44.34375 54.890625 33.015625 
" id="BitstreamVeraSans-Roman-6e"/>
       <path d="M 44.28125 53.078125 
L 44.28125 44.578125 
Q 40.484375 46.53125 36.375 47.5 
Q 32.28125 48.484375 27.875 48.484375 
Q 21.1875 48.484375 17.84375 46.4375 
Q 14.5 44.390625 14.5 40.28125 
Q 14.5 37.15625 16.890625 35.375 
Q 19.28125 33.59375 26.515625 31.984375 
L 29.59375 31.296875 
Q 39.15625 29.25 43.1875 25.515625 
Q 47.21875 21.78125 47.21875 15.09375 
Q 47.21875 7.46875 41.1875 3.015625 
Q 35.15625 -1.421875 24.609375 -1.421875 
Q 20.21875 -1.421875 15.453125 -0.5625 
Q 10.6875 0.296875 5.421875 2 
L 5.421875 11.28125 
Q 10.40625 8.6875 15.234375 7.390625 
Q 20.0625 6.109375 24.8125 6.109375 
Q 31.15625 6.109375 34.5625 8.28125 
Q 37.984375 10.453125 37.984375 14.40625 
Q 37.984375 18.0625 35.515625 20.015625 
Q 33.0625 21.96875 24.703125 23.78125 
L 21.578125 24.515625 
Q 13.234375 26.265625 9.515625 29.90625 
Q 5.8125 33.546875 5.8125 39.890625 
Q 5.8125 47.609375 11.28125 51.796875 
Q 16.75 56 26.8125 56 
Q 31.78125 56 36.171875 55.265625 
Q 40.578125 54.546875 44.28125 53.078125 
" id="BitstreamVeraSans-Roman-73"/>
       <path d="M 44.390625 34.1875 
Q 47.5625 33.109375 50.5625 29.59375 
Q 53.5625 26.078125 56.59375 19.921875 
L 66.609375 0 
L 56 0 
L 46.6875 18.703125 
Q 43.0625 26.03125 39.671875 28.421875 
Q 36.28125 30.8125 30.421875 30.8125 
L 19.671875 30.8125 
L 19.671875 0 
L 9.8125 0 
L 9.8125 72.90625 
L 32.078125 72.90625 
Q 44.578125 72.90625 50.734375 67.671875 
Q 56.890625 62.453125 56.890625 51.90625 
Q 56.890625 45.015625 53.6875 40.46875 
Q 50.484375 35.9375 44.390625 34.1875 
M 19.671875 64.796875 
L 19.671875 38.921875 
L 32.078125 38.921875 
Q 39.203125 38.921875 42.84375 42.21875 
Q 46.484375 45.515625 46.484375 51.90625 
Q 46.484375 58.296875 42.84375 61.546875 
Q 39.203125 64.796875 32.078125 64.796875 
z
" id="BitstreamVeraSans-Roman-52"/>
      </defs>
      <g transform="translate(1995.54439603 1119.120625)rotate(-90.0)scale(0.12 -0.12)">
       <use xlink:href="#BitstreamVeraSans-Roman-52"/>
       <use x="69.419921875" xlink:href="#BitstreamVeraSans-Roman-75"/>
       <use x="132.798828125" xlink:href="#BitstreamVeraSans-Roman-73"/>
       <use x="184.8984375" xlink:href="#BitstreamVeraSans-Roman-73"/>
       <use x="236.998046875" xlink:href="#BitstreamVeraSans-Roman-69"/>
       <use x="264.78125" xlink:href="#BitstreamVeraSans-Roman-61"/>
       <use x="326.060546875" xlink:href="#BitstreamVeraSans-Roman-6e"/>
      </g>
     </g>
    </g>
    <g id="xtick_2">
     <g id="line2d_2">
      <g>
       <use style="stroke:#000000;stroke-width:0.5;" x="1934.92013618" xlink:href="#m37a37e08c4" y="1068.39"/>
      </g>
     </g>
     <g id="text_2">
      <!-- Panjabi -->
      <defs>
       <path d="M 48.6875 27.296875 
Q 48.6875 37.203125 44.609375 42.84375 
Q 40.53125 48.484375 33.40625 48.484375 
Q 26.265625 48.484375 22.1875 42.84375 
Q 18.109375 37.203125 18.109375 27.296875 
Q 18.109375 17.390625 22.1875 11.75 
Q 26.265625 6.109375 33.40625 6.109375 
Q 40.53125 6.109375 44.609375 11.75 
Q 48.6875 17.390625 48.6875 27.296875 
M 18.109375 46.390625 
Q 20.953125 51.265625 25.265625 53.625 
Q 29.59375 56 35.59375 56 
Q 45.5625 56 51.78125 48.09375 
Q 58.015625 40.1875 58.015625 27.296875 
Q 58.015625 14.40625 51.78125 6.484375 
Q 45.5625 -1.421875 35.59375 -1.421875 
Q 29.59375 -1.421875 25.265625 0.953125 
Q 20.953125 3.328125 18.109375 8.203125 
L 18.109375 0 
L 9.078125 0 
L 9.078125 75.984375 
L 18.109375 75.984375 
z
" id="BitstreamVeraSans-Roman-62"/>
       <path d="M 9.421875 54.6875 
L 18.40625 54.6875 
L 18.40625 -0.984375 
Q 18.40625 -11.421875 14.421875 -16.109375 
Q 10.453125 -20.796875 1.609375 -20.796875 
L -1.8125 -20.796875 
L -1.8125 -13.1875 
L 0.59375 -13.1875 
Q 5.71875 -13.1875 7.5625 -10.8125 
Q 9.421875 -8.453125 9.421875 -0.984375 
z
M 9.421875 75.984375 
L 18.40625 75.984375 
L 18.40625 64.59375 
L 9.421875 64.59375 
z
" id="BitstreamVeraSans-Roman-6a"/>
       <path d="M 19.671875 64.796875 
L 19.671875 37.40625 
L 32.078125 37.40625 
Q 38.96875 37.40625 42.71875 40.96875 
Q 46.484375 44.53125 46.484375 51.125 
Q 46.484375 57.671875 42.71875 61.234375 
Q 38.96875 64.796875 32.078125 64.796875 
z
M 9.8125 72.90625 
L 32.078125 72.90625 
Q 44.34375 72.90625 50.609375 67.359375 
Q 56.890625 61.8125 56.890625 51.125 
Q 56.890625 40.328125 50.609375 34.8125 
Q 44.34375 29.296875 32.078125 29.296875 
L 19.671875 29.296875 
L 19.671875 0 
L 9.8125 0 
z
" id="BitstreamVeraSans-Roman-50"/>
      </defs>
      <g transform="translate(1938.23138618 1116.21625)rotate(-90.0)scale(0.12 -0.12)">
       <use xlink:href="#BitstreamVeraSans-Roman-50"/>
       <use x="60.240234375" xlink:href="#BitstreamVeraSans-Roman-61"/>
       <use x="121.51953125" xlink:href="#BitstreamVeraSans-Roman-6e"/>
       <use x="184.8984375" xlink:href="#BitstreamVeraSans-Roman-6a"/>
       <use x="212.681640625" xlink:href="#BitstreamVeraSans-Roman-61"/>
       <use x="273.9609375" xlink:href="#BitstreamVeraSans-Roman-62"/>
       <use x="337.4375" xlink:href="#BitstreamVeraSans-Roman-69"/>
      </g>
     </g>
    </g>
    <g id="xtick_3">
     <g id="line2d_3">
      <g>
       <use style="stroke:#000000;stroke-width:0.5;" x="1849.47043036" xlink:href="#m37a37e08c4" y="1068.39"/>
      </g>
     </g>
     <g id="text_3">
      <!-- Other_European_languages -->
      <defs>
       <path d="M 39.40625 66.21875 
Q 28.65625 66.21875 22.328125 58.203125 
Q 16.015625 50.203125 16.015625 36.375 
Q 16.015625 22.609375 22.328125 14.59375 
Q 28.65625 6.59375 39.40625 6.59375 
Q 50.140625 6.59375 56.421875 14.59375 
Q 62.703125 22.609375 62.703125 36.375 
Q 62.703125 50.203125 56.421875 58.203125 
Q 50.140625 66.21875 39.40625 66.21875 
M 39.40625 74.21875 
Q 54.734375 74.21875 63.90625 63.9375 
Q 73.09375 53.65625 73.09375 36.375 
Q 73.09375 19.140625 63.90625 8.859375 
Q 54.734375 -1.421875 39.40625 -1.421875 
Q 24.03125 -1.421875 14.8125 8.828125 
Q 5.609375 19.09375 5.609375 36.375 
Q 5.609375 53.65625 14.8125 63.9375 
Q 24.03125 74.21875 39.40625 74.21875 
" id="BitstreamVeraSans-Roman-4f"/>
       <path d="M 50.984375 -16.609375 
L 50.984375 -23.578125 
L -0.984375 -23.578125 
L -0.984375 -16.609375 
z
" id="BitstreamVeraSans-Roman-5f"/>
       <path d="M 30.609375 48.390625 
Q 23.390625 48.390625 19.1875 42.75 
Q 14.984375 37.109375 14.984375 27.296875 
Q 14.984375 17.484375 19.15625 11.84375 
Q 23.34375 6.203125 30.609375 6.203125 
Q 37.796875 6.203125 41.984375 11.859375 
Q 46.1875 17.53125 46.1875 27.296875 
Q 46.1875 37.015625 41.984375 42.703125 
Q 37.796875 48.390625 30.609375 48.390625 
M 30.609375 56 
Q 42.328125 56 49.015625 48.375 
Q 55.71875 40.765625 55.71875 27.296875 
Q 55.71875 13.875 49.015625 6.21875 
Q 42.328125 -1.421875 30.609375 -1.421875 
Q 18.84375 -1.421875 12.171875 6.21875 
Q 5.515625 13.875 5.515625 27.296875 
Q 5.515625 40.765625 12.171875 48.375 
Q 18.84375 56 30.609375 56 
" id="BitstreamVeraSans-Roman-6f"/>
       <path d="M 18.109375 8.203125 
L 18.109375 -20.796875 
L 9.078125 -20.796875 
L 9.078125 54.6875 
L 18.109375 54.6875 
L 18.109375 46.390625 
Q 20.953125 51.265625 25.265625 53.625 
Q 29.59375 56 35.59375 56 
Q 45.5625 56 51.78125 48.09375 
Q 58.015625 40.1875 58.015625 27.296875 
Q 58.015625 14.40625 51.78125 6.484375 
Q 45.5625 -1.421875 35.59375 -1.421875 
Q 29.59375 -1.421875 25.265625 0.953125 
Q 20.953125 3.328125 18.109375 8.203125 
M 48.6875 27.296875 
Q 48.6875 37.203125 44.609375 42.84375 
Q 40.53125 48.484375 33.40625 48.484375 
Q 26.265625 48.484375 22.1875 42.84375 
Q 18.109375 37.203125 18.109375 27.296875 
Q 18.109375 17.390625 22.1875 11.75 
Q 26.265625 6.109375 33.40625 6.109375 
Q 40.53125 6.109375 44.609375 11.75 
Q 48.6875 17.390625 48.6875 27.296875 
" id="BitstreamVeraSans-Roman-70"/>
       <path d="M 45.40625 27.984375 
Q 45.40625 37.75 41.375 43.109375 
Q 37.359375 48.484375 30.078125 48.484375 
Q 22.859375 48.484375 18.828125 43.109375 
Q 14.796875 37.75 14.796875 27.984375 
Q 14.796875 18.265625 18.828125 12.890625 
Q 22.859375 7.515625 30.078125 7.515625 
Q 37.359375 7.515625 41.375 12.890625 
Q 45.40625 18.265625 45.40625 27.984375 
M 54.390625 6.78125 
Q 54.390625 -7.171875 48.1875 -13.984375 
Q 42 -20.796875 29.203125 -20.796875 
Q 24.46875 -20.796875 20.265625 -20.09375 
Q 16.0625 -19.390625 12.109375 -17.921875 
L 12.109375 -9.1875 
Q 16.0625 -11.328125 19.921875 -12.34375 
Q 23.78125 -13.375 27.78125 -13.375 
Q 36.625 -13.375 41.015625 -8.765625 
Q 45.40625 -4.15625 45.40625 5.171875 
L 45.40625 9.625 
Q 42.625 4.78125 38.28125 2.390625 
Q 33.9375 0 27.875 0 
Q 17.828125 0 11.671875 7.65625 
Q 5.515625 15.328125 5.515625 27.984375 
Q 5.515625 40.671875 11.671875 48.328125 
Q 17.828125 56 27.875 56 
Q 33.9375 56 38.28125 53.609375 
Q 42.625 51.21875 45.40625 46.390625 
L 45.40625 54.6875 
L 54.390625 54.6875 
z
" id="BitstreamVeraSans-Roman-67"/>
       <path d="M 41.109375 46.296875 
Q 39.59375 47.171875 37.8125 47.578125 
Q 36.03125 48 33.890625 48 
Q 26.265625 48 22.1875 43.046875 
Q 18.109375 38.09375 18.109375 28.8125 
L 18.109375 0 
L 9.078125 0 
L 9.078125 54.6875 
L 18.109375 54.6875 
L 18.109375 46.1875 
Q 20.953125 51.171875 25.484375 53.578125 
Q 30.03125 56 36.53125 56 
Q 37.453125 56 38.578125 55.875 
Q 39.703125 55.765625 41.0625 55.515625 
z
" id="BitstreamVeraSans-Roman-72"/>
       <path d="M 54.890625 33.015625 
L 54.890625 0 
L 45.90625 0 
L 45.90625 32.71875 
Q 45.90625 40.484375 42.875 44.328125 
Q 39.84375 48.1875 33.796875 48.1875 
Q 26.515625 48.1875 22.3125 43.546875 
Q 18.109375 38.921875 18.109375 30.90625 
L 18.109375 0 
L 9.078125 0 
L 9.078125 75.984375 
L 18.109375 75.984375 
L 18.109375 46.1875 
Q 21.34375 51.125 25.703125 53.5625 
Q 30.078125 56 35.796875 56 
Q 45.21875 56 50.046875 50.171875 
Q 54.890625 44.34375 54.890625 33.015625 
" id="BitstreamVeraSans-Roman-68"/>
       <path d="M 56.203125 29.59375 
L 56.203125 25.203125 
L 14.890625 25.203125 
Q 15.484375 15.921875 20.484375 11.0625 
Q 25.484375 6.203125 34.421875 6.203125 
Q 39.59375 6.203125 44.453125 7.46875 
Q 49.3125 8.734375 54.109375 11.28125 
L 54.109375 2.78125 
Q 49.265625 0.734375 44.1875 -0.34375 
Q 39.109375 -1.421875 33.890625 -1.421875 
Q 20.796875 -1.421875 13.15625 6.1875 
Q 5.515625 13.8125 5.515625 26.8125 
Q 5.515625 40.234375 12.765625 48.109375 
Q 20.015625 56 32.328125 56 
Q 43.359375 56 49.78125 48.890625 
Q 56.203125 41.796875 56.203125 29.59375 
M 47.21875 32.234375 
Q 47.125 39.59375 43.09375 43.984375 
Q 39.0625 48.390625 32.421875 48.390625 
Q 24.90625 48.390625 20.390625 44.140625 
Q 15.875 39.890625 15.1875 32.171875 
z
" id="BitstreamVeraSans-Roman-65"/>
       <path d="M 9.421875 75.984375 
L 18.40625 75.984375 
L 18.40625 0 
L 9.421875 0 
z
" id="BitstreamVeraSans-Roman-6c"/>
       <path d="M 18.3125 70.21875 
L 18.3125 54.6875 
L 36.8125 54.6875 
L 36.8125 47.703125 
L 18.3125 47.703125 
L 18.3125 18.015625 
Q 18.3125 11.328125 20.140625 9.421875 
Q 21.96875 7.515625 27.59375 7.515625 
L 36.8125 7.515625 
L 36.8125 0 
L 27.59375 0 
Q 17.1875 0 13.234375 3.875 
Q 9.28125 7.765625 9.28125 18.015625 
L 9.28125 47.703125 
L 2.6875 47.703125 
L 2.6875 54.6875 
L 9.28125 54.6875 
L 9.28125 70.21875 
z
" id="BitstreamVeraSans-Roman-74"/>
       <path d="M 9.8125 72.90625 
L 55.90625 72.90625 
L 55.90625 64.59375 
L 19.671875 64.59375 
L 19.671875 43.015625 
L 54.390625 43.015625 
L 54.390625 34.71875 
L 19.671875 34.71875 
L 19.671875 8.296875 
L 56.78125 8.296875 
L 56.78125 0 
L 9.8125 0 
z
" id="BitstreamVeraSans-Roman-45"/>
      </defs>
      <g transform="translate(1852.61480536 1238.005)rotate(-90.0)scale(0.12 -0.12)">
       <use xlink:href="#BitstreamVeraSans-Roman-4f"/>
       <use x="78.7109375" xlink:href="#BitstreamVeraSans-Roman-74"/>
       <use x="117.919921875" xlink:href="#BitstreamVeraSans-Roman-68"/>
       <use x="181.298828125" xlink:href="#BitstreamVeraSans-Roman-65"/>
       <use x="242.822265625" xlink:href="#BitstreamVeraSans-Roman-72"/>
       <use x="283.935546875" xlink:href="#BitstreamVeraSans-Roman-5f"/>
       <use x="333.935546875" xlink:href="#BitstreamVeraSans-Roman-45"/>
       <use x="397.119140625" xlink:href="#BitstreamVeraSans-Roman-75"/>
       <use x="460.498046875" xlink:href="#BitstreamVeraSans-Roman-72"/>
       <use x="501.580078125" xlink:href="#BitstreamVeraSans-Roman-6f"/>
       <use x="562.76171875" xlink:href="#BitstreamVeraSans-Roman-70"/>
       <use x="626.23828125" xlink:href="#BitstreamVeraSans-Roman-65"/>
       <use x="687.76171875" xlink:href="#BitstreamVeraSans-Roman-61"/>
       <use x="749.041015625" xlink:href="#BitstreamVeraSans-Roman-6e"/>
       <use x="812.419921875" xlink:href="#BitstreamVeraSans-Roman-5f"/>
       <use x="862.419921875" xlink:href="#BitstreamVeraSans-Roman-6c"/>
       <use x="890.203125" xlink:href="#BitstreamVeraSans-Roman-61"/>
       <use x="951.482421875" xlink:href="#BitstreamVeraSans-Roman-6e"/>
       <use x="1014.861328125" xlink:href="#BitstreamVeraSans-Roman-67"/>
       <use x="1078.337890625" xlink:href="#BitstreamVeraSans-Roman-75"/>
       <use x="1141.716796875" xlink:href="#BitstreamVeraSans-Roman-61"/>
       <use x="1202.99609375" xlink:href="#BitstreamVeraSans-Roman-67"/>
       <use x="1266.47265625" xlink:href="#BitstreamVeraSans-Roman-65"/>
       <use x="1327.99609375" xlink:href="#BitstreamVeraSans-Roman-73"/>
      </g>
     </g>
    </g>
    <g id="xtick_4">
     <g id="line2d_4">
      <g>
       <use style="stroke:#000000;stroke-width:0.5;" x="479.392979441" xlink:href="#m37a37e08c4" y="1068.39"/>
      </g>
     </g>
     <g id="text_4">
      <!-- German -->
      <defs>
       <path d="M 52 44.1875 
Q 55.375 50.25 60.0625 53.125 
Q 64.75 56 71.09375 56 
Q 79.640625 56 84.28125 50.015625 
Q 88.921875 44.046875 88.921875 33.015625 
L 88.921875 0 
L 79.890625 0 
L 79.890625 32.71875 
Q 79.890625 40.578125 77.09375 44.375 
Q 74.3125 48.1875 68.609375 48.1875 
Q 61.625 48.1875 57.5625 43.546875 
Q 53.515625 38.921875 53.515625 30.90625 
L 53.515625 0 
L 44.484375 0 
L 44.484375 32.71875 
Q 44.484375 40.625 41.703125 44.40625 
Q 38.921875 48.1875 33.109375 48.1875 
Q 26.21875 48.1875 22.15625 43.53125 
Q 18.109375 38.875 18.109375 30.90625 
L 18.109375 0 
L 9.078125 0 
L 9.078125 54.6875 
L 18.109375 54.6875 
L 18.109375 46.1875 
Q 21.1875 51.21875 25.484375 53.609375 
Q 29.78125 56 35.6875 56 
Q 41.65625 56 45.828125 52.96875 
Q 50 49.953125 52 44.1875 
" id="BitstreamVeraSans-Roman-6d"/>
       <path d="M 59.515625 10.40625 
L 59.515625 29.984375 
L 43.40625 29.984375 
L 43.40625 38.09375 
L 69.28125 38.09375 
L 69.28125 6.78125 
Q 63.578125 2.734375 56.6875 0.65625 
Q 49.8125 -1.421875 42 -1.421875 
Q 24.90625 -1.421875 15.25 8.5625 
Q 5.609375 18.5625 5.609375 36.375 
Q 5.609375 54.25 15.25 64.234375 
Q 24.90625 74.21875 42 74.21875 
Q 49.125 74.21875 55.546875 72.453125 
Q 61.96875 70.703125 67.390625 67.28125 
L 67.390625 56.78125 
Q 61.921875 61.421875 55.765625 63.765625 
Q 49.609375 66.109375 42.828125 66.109375 
Q 29.4375 66.109375 22.71875 58.640625 
Q 16.015625 51.171875 16.015625 36.375 
Q 16.015625 21.625 22.71875 14.15625 
Q 29.4375 6.6875 42.828125 6.6875 
Q 48.046875 6.6875 52.140625 7.59375 
Q 56.25 8.5 59.515625 10.40625 
" id="BitstreamVeraSans-Roman-47"/>
      </defs>
      <g transform="translate(482.704229441 1120.650625)rotate(-90.0)scale(0.12 -0.12)">
       <use xlink:href="#BitstreamVeraSans-Roman-47"/>
       <use x="77.490234375" xlink:href="#BitstreamVeraSans-Roman-65"/>
       <use x="139.013671875" xlink:href="#BitstreamVeraSans-Roman-72"/>
       <use x="180.111328125" xlink:href="#BitstreamVeraSans-Roman-6d"/>
       <use x="277.5234375" xlink:href="#BitstreamVeraSans-Roman-61"/>
       <use x="338.802734375" xlink:href="#BitstreamVeraSans-Roman-6e"/>
      </g>
     </g>
    </g>
    <g id="xtick_5">
     <g id="line2d_5">
      <g>
       <use style="stroke:#000000;stroke-width:0.5;" x="301.904197792" xlink:href="#m37a37e08c4" y="1068.39"/>
      </g>
     </g>
     <g id="text_5">
      <!-- All_other_languages -->
      <defs>
       <path d="M 34.1875 63.1875 
L 20.796875 26.90625 
L 47.609375 26.90625 
z
M 28.609375 72.90625 
L 39.796875 72.90625 
L 67.578125 0 
L 57.328125 0 
L 50.6875 18.703125 
L 17.828125 18.703125 
L 11.1875 0 
L 0.78125 0 
z
" id="BitstreamVeraSans-Roman-41"/>
      </defs>
      <g transform="translate(305.048572792 1193.3575)rotate(-90.0)scale(0.12 -0.12)">
       <use xlink:href="#BitstreamVeraSans-Roman-41"/>
       <use x="68.408203125" xlink:href="#BitstreamVeraSans-Roman-6c"/>
       <use x="96.19140625" xlink:href="#BitstreamVeraSans-Roman-6c"/>
       <use x="123.974609375" xlink:href="#BitstreamVeraSans-Roman-5f"/>
       <use x="173.974609375" xlink:href="#BitstreamVeraSans-Roman-6f"/>
       <use x="235.15625" xlink:href="#BitstreamVeraSans-Roman-74"/>
       <use x="274.365234375" xlink:href="#BitstreamVeraSans-Roman-68"/>
       <use x="337.744140625" xlink:href="#BitstreamVeraSans-Roman-65"/>
       <use x="399.267578125" xlink:href="#BitstreamVeraSans-Roman-72"/>
       <use x="440.380859375" xlink:href="#BitstreamVeraSans-Roman-5f"/>
       <use x="490.380859375" xlink:href="#BitstreamVeraSans-Roman-6c"/>
       <use x="518.1640625" xlink:href="#BitstreamVeraSans-Roman-61"/>
       <use x="579.443359375" xlink:href="#BitstreamVeraSans-Roman-6e"/>
       <use x="642.822265625" xlink:href="#BitstreamVeraSans-Roman-67"/>
       <use x="706.298828125" xlink:href="#BitstreamVeraSans-Roman-75"/>
       <use x="769.677734375" xlink:href="#BitstreamVeraSans-Roman-61"/>
       <use x="830.95703125" xlink:href="#BitstreamVeraSans-Roman-67"/>
       <use x="894.43359375" xlink:href="#BitstreamVeraSans-Roman-65"/>
       <use x="955.95703125" xlink:href="#BitstreamVeraSans-Roman-73"/>
      </g>
     </g>
    </g>
    <g id="xtick_6">
     <g id="line2d_6">
      <g>
       <use style="stroke:#000000;stroke-width:0.5;" x="461.646314537" xlink:href="#m37a37e08c4" y="1068.39"/>
      </g>
     </g>
     <g id="text_6">
      <!-- Finno_Ugric_Languages -->
      <defs>
       <path d="M 9.8125 72.90625 
L 51.703125 72.90625 
L 51.703125 64.59375 
L 19.671875 64.59375 
L 19.671875 43.109375 
L 48.578125 43.109375 
L 48.578125 34.8125 
L 19.671875 34.8125 
L 19.671875 0 
L 9.8125 0 
z
" id="BitstreamVeraSans-Roman-46"/>
       <path d="M 9.8125 72.90625 
L 19.671875 72.90625 
L 19.671875 8.296875 
L 55.171875 8.296875 
L 55.171875 0 
L 9.8125 0 
z
" id="BitstreamVeraSans-Roman-4c"/>
       <path d="M 48.78125 52.59375 
L 48.78125 44.1875 
Q 44.96875 46.296875 41.140625 47.34375 
Q 37.3125 48.390625 33.40625 48.390625 
Q 24.65625 48.390625 19.8125 42.84375 
Q 14.984375 37.3125 14.984375 27.296875 
Q 14.984375 17.28125 19.8125 11.734375 
Q 24.65625 6.203125 33.40625 6.203125 
Q 37.3125 6.203125 41.140625 7.25 
Q 44.96875 8.296875 48.78125 10.40625 
L 48.78125 2.09375 
Q 45.015625 0.34375 40.984375 -0.53125 
Q 36.96875 -1.421875 32.421875 -1.421875 
Q 20.0625 -1.421875 12.78125 6.34375 
Q 5.515625 14.109375 5.515625 27.296875 
Q 5.515625 40.671875 12.859375 48.328125 
Q 20.21875 56 33.015625 56 
Q 37.15625 56 41.109375 55.140625 
Q 45.0625 54.296875 48.78125 52.59375 
" id="BitstreamVeraSans-Roman-63"/>
       <path d="M 8.6875 72.90625 
L 18.609375 72.90625 
L 18.609375 28.609375 
Q 18.609375 16.890625 22.84375 11.734375 
Q 27.09375 6.59375 36.625 6.59375 
Q 46.09375 6.59375 50.34375 11.734375 
Q 54.59375 16.890625 54.59375 28.609375 
L 54.59375 72.90625 
L 64.5 72.90625 
L 64.5 27.390625 
Q 64.5 13.140625 57.4375 5.859375 
Q 50.390625 -1.421875 36.625 -1.421875 
Q 22.796875 -1.421875 15.734375 5.859375 
Q 8.6875 13.140625 8.6875 27.390625 
z
" id="BitstreamVeraSans-Roman-55"/>
      </defs>
      <g transform="translate(464.790689537 1213.905625)rotate(-90.0)scale(0.12 -0.12)">
       <use xlink:href="#BitstreamVeraSans-Roman-46"/>
       <use x="57.41015625" xlink:href="#BitstreamVeraSans-Roman-69"/>
       <use x="85.193359375" xlink:href="#BitstreamVeraSans-Roman-6e"/>
       <use x="148.572265625" xlink:href="#BitstreamVeraSans-Roman-6e"/>
       <use x="211.951171875" xlink:href="#BitstreamVeraSans-Roman-6f"/>
       <use x="273.1328125" xlink:href="#BitstreamVeraSans-Roman-5f"/>
       <use x="323.1328125" xlink:href="#BitstreamVeraSans-Roman-55"/>
       <use x="396.326171875" xlink:href="#BitstreamVeraSans-Roman-67"/>
       <use x="459.802734375" xlink:href="#BitstreamVeraSans-Roman-72"/>
       <use x="500.916015625" xlink:href="#BitstreamVeraSans-Roman-69"/>
       <use x="528.69921875" xlink:href="#BitstreamVeraSans-Roman-63"/>
       <use x="583.6796875" xlink:href="#BitstreamVeraSans-Roman-5f"/>
       <use x="633.6796875" xlink:href="#BitstreamVeraSans-Roman-4c"/>
       <use x="689.392578125" xlink:href="#BitstreamVeraSans-Roman-61"/>
       <use x="750.671875" xlink:href="#BitstreamVeraSans-Roman-6e"/>
       <use x="814.05078125" xlink:href="#BitstreamVeraSans-Roman-67"/>
       <use x="877.52734375" xlink:href="#BitstreamVeraSans-Roman-75"/>
       <use x="940.90625" xlink:href="#BitstreamVeraSans-Roman-61"/>
       <use x="1002.185546875" xlink:href="#BitstreamVeraSans-Roman-67"/>
       <use x="1065.662109375" xlink:href="#BitstreamVeraSans-Roman-65"/>
       <use x="1127.185546875" xlink:href="#BitstreamVeraSans-Roman-73"/>
      </g>
     </g>
    </g>
    <g id="xtick_7">
     <g id="line2d_7">
      <g>
       <use style="stroke:#000000;stroke-width:0.5;" x="1974.5479606" xlink:href="#m37a37e08c4" y="1068.39"/>
      </g>
     </g>
     <g id="text_7">
      <!-- Portuguese -->
      <g transform="translate(1977.8592106 1140.446875)rotate(-90.0)scale(0.12 -0.12)">
       <use xlink:href="#BitstreamVeraSans-Roman-50"/>
       <use x="60.255859375" xlink:href="#BitstreamVeraSans-Roman-6f"/>
       <use x="121.4375" xlink:href="#BitstreamVeraSans-Roman-72"/>
       <use x="162.55078125" xlink:href="#BitstreamVeraSans-Roman-74"/>
       <use x="201.759765625" xlink:href="#BitstreamVeraSans-Roman-75"/>
       <use x="265.138671875" xlink:href="#BitstreamVeraSans-Roman-67"/>
       <use x="328.615234375" xlink:href="#BitstreamVeraSans-Roman-75"/>
       <use x="391.994140625" xlink:href="#BitstreamVeraSans-Roman-65"/>
       <use x="453.517578125" xlink:href="#BitstreamVeraSans-Roman-73"/>
       <use x="505.6171875" xlink:href="#BitstreamVeraSans-Roman-65"/>
      </g>
     </g>
    </g>
    <g id="xtick_8">
     <g id="line2d_8">
      <g>
       <use style="stroke:#000000;stroke-width:0.5;" x="1867.55523237" xlink:href="#m37a37e08c4" y="1068.39"/>
      </g>
     </g>
     <g id="text_8">
      <!-- Other_Germanic_Languages -->
      <g transform="translate(1870.69960737 1242.13)rotate(-90.0)scale(0.12 -0.12)">
       <use xlink:href="#BitstreamVeraSans-Roman-4f"/>
       <use x="78.7109375" xlink:href="#BitstreamVeraSans-Roman-74"/>
       <use x="117.919921875" xlink:href="#BitstreamVeraSans-Roman-68"/>
       <use x="181.298828125" xlink:href="#BitstreamVeraSans-Roman-65"/>
       <use x="242.822265625" xlink:href="#BitstreamVeraSans-Roman-72"/>
       <use x="283.935546875" xlink:href="#BitstreamVeraSans-Roman-5f"/>
       <use x="333.935546875" xlink:href="#BitstreamVeraSans-Roman-47"/>
       <use x="411.42578125" xlink:href="#BitstreamVeraSans-Roman-65"/>
       <use x="472.94921875" xlink:href="#BitstreamVeraSans-Roman-72"/>
       <use x="514.046875" xlink:href="#BitstreamVeraSans-Roman-6d"/>
       <use x="611.458984375" xlink:href="#BitstreamVeraSans-Roman-61"/>
       <use x="672.73828125" xlink:href="#BitstreamVeraSans-Roman-6e"/>
       <use x="736.1171875" xlink:href="#BitstreamVeraSans-Roman-69"/>
       <use x="763.900390625" xlink:href="#BitstreamVeraSans-Roman-63"/>
       <use x="818.880859375" xlink:href="#BitstreamVeraSans-Roman-5f"/>
       <use x="868.880859375" xlink:href="#BitstreamVeraSans-Roman-4c"/>
       <use x="924.59375" xlink:href="#BitstreamVeraSans-Roman-61"/>
       <use x="985.873046875" xlink:href="#BitstreamVeraSans-Roman-6e"/>
       <use x="1049.251953125" xlink:href="#BitstreamVeraSans-Roman-67"/>
       <use x="1112.728515625" xlink:href="#BitstreamVeraSans-Roman-75"/>
       <use x="1176.107421875" xlink:href="#BitstreamVeraSans-Roman-61"/>
       <use x="1237.38671875" xlink:href="#BitstreamVeraSans-Roman-67"/>
       <use x="1300.86328125" xlink:href="#BitstreamVeraSans-Roman-65"/>
       <use x="1362.38671875" xlink:href="#BitstreamVeraSans-Roman-73"/>
      </g>
     </g>
    </g>
    <g id="xtick_9">
     <g id="line2d_9">
      <g>
       <use style="stroke:#000000;stroke-width:0.5;" x="2070.20325907" xlink:href="#m37a37e08c4" y="1068.39"/>
      </g>
     </g>
     <g id="text_9">
      <!-- Ukrainian -->
      <defs>
       <path d="M 9.078125 75.984375 
L 18.109375 75.984375 
L 18.109375 31.109375 
L 44.921875 54.6875 
L 56.390625 54.6875 
L 27.390625 29.109375 
L 57.625 0 
L 45.90625 0 
L 18.109375 26.703125 
L 18.109375 0 
L 9.078125 0 
z
" id="BitstreamVeraSans-Roman-6b"/>
      </defs>
      <g transform="translate(2073.51450907 1129.639375)rotate(-90.0)scale(0.12 -0.12)">
       <use xlink:href="#BitstreamVeraSans-Roman-55"/>
       <use x="73.193359375" xlink:href="#BitstreamVeraSans-Roman-6b"/>
       <use x="131.103515625" xlink:href="#BitstreamVeraSans-Roman-72"/>
       <use x="172.216796875" xlink:href="#BitstreamVeraSans-Roman-61"/>
       <use x="233.49609375" xlink:href="#BitstreamVeraSans-Roman-69"/>
       <use x="261.279296875" xlink:href="#BitstreamVeraSans-Roman-6e"/>
       <use x="324.658203125" xlink:href="#BitstreamVeraSans-Roman-69"/>
       <use x="352.44140625" xlink:href="#BitstreamVeraSans-Roman-61"/>
       <use x="413.720703125" xlink:href="#BitstreamVeraSans-Roman-6e"/>
      </g>
     </g>
    </g>
    <g id="xtick_10">
     <g id="line2d_10">
      <g>
       <use style="stroke:#000000;stroke-width:0.5;" x="1957.17017254" xlink:href="#m37a37e08c4" y="1068.39"/>
      </g>
     </g>
     <g id="text_10">
      <!-- Polish -->
      <g transform="translate(1960.48142254 1107.48625)rotate(-90.0)scale(0.12 -0.12)">
       <use xlink:href="#BitstreamVeraSans-Roman-50"/>
       <use x="60.255859375" xlink:href="#BitstreamVeraSans-Roman-6f"/>
       <use x="121.4375" xlink:href="#BitstreamVeraSans-Roman-6c"/>
       <use x="149.220703125" xlink:href="#BitstreamVeraSans-Roman-69"/>
       <use x="177.00390625" xlink:href="#BitstreamVeraSans-Roman-73"/>
       <use x="229.103515625" xlink:href="#BitstreamVeraSans-Roman-68"/>
      </g>
     </g>
    </g>
    <g id="xtick_11">
     <g id="line2d_11">
      <g>
       <use style="stroke:#000000;stroke-width:0.5;" x="1887.10017188" xlink:href="#m37a37e08c4" y="1068.39"/>
      </g>
     </g>
     <g id="text_11">
      <!-- Other_Slavic_Languages -->
      <defs>
       <path d="M 2.984375 54.6875 
L 12.5 54.6875 
L 29.59375 8.796875 
L 46.6875 54.6875 
L 56.203125 54.6875 
L 35.6875 0 
L 23.484375 0 
z
" id="BitstreamVeraSans-Roman-76"/>
       <path d="M 53.515625 70.515625 
L 53.515625 60.890625 
Q 47.90625 63.578125 42.921875 64.890625 
Q 37.9375 66.21875 33.296875 66.21875 
Q 25.25 66.21875 20.875 63.09375 
Q 16.5 59.96875 16.5 54.203125 
Q 16.5 49.359375 19.40625 46.890625 
Q 22.3125 44.4375 30.421875 42.921875 
L 36.375 41.703125 
Q 47.40625 39.59375 52.65625 34.296875 
Q 57.90625 29 57.90625 20.125 
Q 57.90625 9.515625 50.796875 4.046875 
Q 43.703125 -1.421875 29.984375 -1.421875 
Q 24.8125 -1.421875 18.96875 -0.25 
Q 13.140625 0.921875 6.890625 3.21875 
L 6.890625 13.375 
Q 12.890625 10.015625 18.65625 8.296875 
Q 24.421875 6.59375 29.984375 6.59375 
Q 38.421875 6.59375 43.015625 9.90625 
Q 47.609375 13.234375 47.609375 19.390625 
Q 47.609375 24.75 44.3125 27.78125 
Q 41.015625 30.8125 33.5 32.328125 
L 27.484375 33.5 
Q 16.453125 35.6875 11.515625 40.375 
Q 6.59375 45.0625 6.59375 53.421875 
Q 6.59375 63.09375 13.40625 68.65625 
Q 20.21875 74.21875 32.171875 74.21875 
Q 37.3125 74.21875 42.625 73.28125 
Q 47.953125 72.359375 53.515625 70.515625 
" id="BitstreamVeraSans-Roman-53"/>
      </defs>
      <g transform="translate(1890.24454688 1219.2775)rotate(-90.0)scale(0.12 -0.12)">
       <use xlink:href="#BitstreamVeraSans-Roman-4f"/>
       <use x="78.7109375" xlink:href="#BitstreamVeraSans-Roman-74"/>
       <use x="117.919921875" xlink:href="#BitstreamVeraSans-Roman-68"/>
       <use x="181.298828125" xlink:href="#BitstreamVeraSans-Roman-65"/>
       <use x="242.822265625" xlink:href="#BitstreamVeraSans-Roman-72"/>
       <use x="283.935546875" xlink:href="#BitstreamVeraSans-Roman-5f"/>
       <use x="333.935546875" xlink:href="#BitstreamVeraSans-Roman-53"/>
       <use x="397.412109375" xlink:href="#BitstreamVeraSans-Roman-6c"/>
       <use x="425.1953125" xlink:href="#BitstreamVeraSans-Roman-61"/>
       <use x="486.474609375" xlink:href="#BitstreamVeraSans-Roman-76"/>
       <use x="545.654296875" xlink:href="#BitstreamVeraSans-Roman-69"/>
       <use x="573.4375" xlink:href="#BitstreamVeraSans-Roman-63"/>
       <use x="628.41796875" xlink:href="#BitstreamVeraSans-Roman-5f"/>
       <use x="678.41796875" xlink:href="#BitstreamVeraSans-Roman-4c"/>
       <use x="734.130859375" xlink:href="#BitstreamVeraSans-Roman-61"/>
       <use x="795.41015625" xlink:href="#BitstreamVeraSans-Roman-6e"/>
       <use x="858.7890625" xlink:href="#BitstreamVeraSans-Roman-67"/>
       <use x="922.265625" xlink:href="#BitstreamVeraSans-Roman-75"/>
       <use x="985.64453125" xlink:href="#BitstreamVeraSans-Roman-61"/>
       <use x="1046.923828125" xlink:href="#BitstreamVeraSans-Roman-67"/>
       <use x="1110.400390625" xlink:href="#BitstreamVeraSans-Roman-65"/>
       <use x="1171.923828125" xlink:href="#BitstreamVeraSans-Roman-73"/>
      </g>
     </g>
    </g>
    <g id="xtick_12">
     <g id="line2d_12">
      <g>
       <use style="stroke:#000000;stroke-width:0.5;" x="446.143650426" xlink:href="#m37a37e08c4" y="1068.39"/>
      </g>
     </g>
     <g id="text_12">
      <!-- Dravidian_languages -->
      <defs>
       <path d="M 45.40625 46.390625 
L 45.40625 75.984375 
L 54.390625 75.984375 
L 54.390625 0 
L 45.40625 0 
L 45.40625 8.203125 
Q 42.578125 3.328125 38.25 0.953125 
Q 33.9375 -1.421875 27.875 -1.421875 
Q 17.96875 -1.421875 11.734375 6.484375 
Q 5.515625 14.40625 5.515625 27.296875 
Q 5.515625 40.1875 11.734375 48.09375 
Q 17.96875 56 27.875 56 
Q 33.9375 56 38.25 53.625 
Q 42.578125 51.265625 45.40625 46.390625 
M 14.796875 27.296875 
Q 14.796875 17.390625 18.875 11.75 
Q 22.953125 6.109375 30.078125 6.109375 
Q 37.203125 6.109375 41.296875 11.75 
Q 45.40625 17.390625 45.40625 27.296875 
Q 45.40625 37.203125 41.296875 42.84375 
Q 37.203125 48.484375 30.078125 48.484375 
Q 22.953125 48.484375 18.875 42.84375 
Q 14.796875 37.203125 14.796875 27.296875 
" id="BitstreamVeraSans-Roman-64"/>
       <path d="M 19.671875 64.796875 
L 19.671875 8.109375 
L 31.59375 8.109375 
Q 46.6875 8.109375 53.6875 14.9375 
Q 60.6875 21.78125 60.6875 36.53125 
Q 60.6875 51.171875 53.6875 57.984375 
Q 46.6875 64.796875 31.59375 64.796875 
z
M 9.8125 72.90625 
L 30.078125 72.90625 
Q 51.265625 72.90625 61.171875 64.09375 
Q 71.09375 55.28125 71.09375 36.53125 
Q 71.09375 17.671875 61.125 8.828125 
Q 51.171875 0 30.078125 0 
L 9.8125 0 
z
" id="BitstreamVeraSans-Roman-44"/>
      </defs>
      <g transform="translate(449.288025426 1198.38625)rotate(-90.0)scale(0.12 -0.12)">
       <use xlink:href="#BitstreamVeraSans-Roman-44"/>
       <use x="77.001953125" xlink:href="#BitstreamVeraSans-Roman-72"/>
       <use x="118.115234375" xlink:href="#BitstreamVeraSans-Roman-61"/>
       <use x="179.39453125" xlink:href="#BitstreamVeraSans-Roman-76"/>
       <use x="238.57421875" xlink:href="#BitstreamVeraSans-Roman-69"/>
       <use x="266.357421875" xlink:href="#BitstreamVeraSans-Roman-64"/>
       <use x="329.833984375" xlink:href="#BitstreamVeraSans-Roman-69"/>
       <use x="357.6171875" xlink:href="#BitstreamVeraSans-Roman-61"/>
       <use x="418.896484375" xlink:href="#BitstreamVeraSans-Roman-6e"/>
       <use x="482.275390625" xlink:href="#BitstreamVeraSans-Roman-5f"/>
       <use x="532.275390625" xlink:href="#BitstreamVeraSans-Roman-6c"/>
       <use x="560.05859375" xlink:href="#BitstreamVeraSans-Roman-61"/>
       <use x="621.337890625" xlink:href="#BitstreamVeraSans-Roman-6e"/>
       <use x="684.716796875" xlink:href="#BitstreamVeraSans-Roman-67"/>
       <use x="748.193359375" xlink:href="#BitstreamVeraSans-Roman-75"/>
       <use x="811.572265625" xlink:href="#BitstreamVeraSans-Roman-61"/>
       <use x="872.8515625" xlink:href="#BitstreamVeraSans-Roman-67"/>
       <use x="936.328125" xlink:href="#BitstreamVeraSans-Roman-65"/>
       <use x="997.8515625" xlink:href="#BitstreamVeraSans-Roman-73"/>
      </g>
     </g>
    </g>
    <g id="xtick_13">
     <g id="line2d_13">
      <g>
       <use style="stroke:#000000;stroke-width:0.5;" x="572.34871422" xlink:href="#m37a37e08c4" y="1068.39"/>
      </g>
     </g>
     <g id="text_13">
      <!-- Italian -->
      <defs>
       <path d="M 9.8125 72.90625 
L 19.671875 72.90625 
L 19.671875 0 
L 9.8125 0 
z
" id="BitstreamVeraSans-Roman-49"/>
      </defs>
      <g transform="translate(575.65996422 1109.614375)rotate(-90.0)scale(0.12 -0.12)">
       <use xlink:href="#BitstreamVeraSans-Roman-49"/>
       <use x="29.4921875" xlink:href="#BitstreamVeraSans-Roman-74"/>
       <use x="68.701171875" xlink:href="#BitstreamVeraSans-Roman-61"/>
       <use x="129.98046875" xlink:href="#BitstreamVeraSans-Roman-6c"/>
       <use x="157.763671875" xlink:href="#BitstreamVeraSans-Roman-69"/>
       <use x="185.546875" xlink:href="#BitstreamVeraSans-Roman-61"/>
       <use x="246.826171875" xlink:href="#BitstreamVeraSans-Roman-6e"/>
      </g>
     </g>
    </g>
    <g id="xtick_14">
     <g id="line2d_14">
      <g>
       <use style="stroke:#000000;stroke-width:0.5;" x="1911.19459245" xlink:href="#m37a37e08c4" y="1068.39"/>
      </g>
     </g>
     <g id="text_14">
      <!-- Other_South_East_Asian_languages -->
      <g transform="translate(1914.33896745 1286.104375)rotate(-90.0)scale(0.12 -0.12)">
       <use xlink:href="#BitstreamVeraSans-Roman-4f"/>
       <use x="78.7109375" xlink:href="#BitstreamVeraSans-Roman-74"/>
       <use x="117.919921875" xlink:href="#BitstreamVeraSans-Roman-68"/>
       <use x="181.298828125" xlink:href="#BitstreamVeraSans-Roman-65"/>
       <use x="242.822265625" xlink:href="#BitstreamVeraSans-Roman-72"/>
       <use x="283.935546875" xlink:href="#BitstreamVeraSans-Roman-5f"/>
       <use x="333.935546875" xlink:href="#BitstreamVeraSans-Roman-53"/>
       <use x="397.412109375" xlink:href="#BitstreamVeraSans-Roman-6f"/>
       <use x="458.59375" xlink:href="#BitstreamVeraSans-Roman-75"/>
       <use x="521.97265625" xlink:href="#BitstreamVeraSans-Roman-74"/>
       <use x="561.181640625" xlink:href="#BitstreamVeraSans-Roman-68"/>
       <use x="624.560546875" xlink:href="#BitstreamVeraSans-Roman-5f"/>
       <use x="674.560546875" xlink:href="#BitstreamVeraSans-Roman-45"/>
       <use x="737.744140625" xlink:href="#BitstreamVeraSans-Roman-61"/>
       <use x="799.0234375" xlink:href="#BitstreamVeraSans-Roman-73"/>
       <use x="851.123046875" xlink:href="#BitstreamVeraSans-Roman-74"/>
       <use x="890.33203125" xlink:href="#BitstreamVeraSans-Roman-5f"/>
       <use x="940.33203125" xlink:href="#BitstreamVeraSans-Roman-41"/>
       <use x="1008.740234375" xlink:href="#BitstreamVeraSans-Roman-73"/>
       <use x="1060.83984375" xlink:href="#BitstreamVeraSans-Roman-69"/>
       <use x="1088.623046875" xlink:href="#BitstreamVeraSans-Roman-61"/>
       <use x="1149.90234375" xlink:href="#BitstreamVeraSans-Roman-6e"/>
       <use x="1213.28125" xlink:href="#BitstreamVeraSans-Roman-5f"/>
       <use x="1263.28125" xlink:href="#BitstreamVeraSans-Roman-6c"/>
       <use x="1291.064453125" xlink:href="#BitstreamVeraSans-Roman-61"/>
       <use x="1352.34375" xlink:href="#BitstreamVeraSans-Roman-6e"/>
       <use x="1415.72265625" xlink:href="#BitstreamVeraSans-Roman-67"/>
       <use x="1479.19921875" xlink:href="#BitstreamVeraSans-Roman-75"/>
       <use x="1542.578125" xlink:href="#BitstreamVeraSans-Roman-61"/>
       <use x="1603.857421875" xlink:href="#BitstreamVeraSans-Roman-67"/>
       <use x="1667.333984375" xlink:href="#BitstreamVeraSans-Roman-65"/>
       <use x="1728.857421875" xlink:href="#BitstreamVeraSans-Roman-73"/>
      </g>
     </g>
    </g>
    <g id="xtick_15">
     <g id="line2d_15">
      <g>
       <use style="stroke:#000000;stroke-width:0.5;" x="341.670351028" xlink:href="#m37a37e08c4" y="1068.39"/>
      </g>
     </g>
     <g id="text_15">
      <!-- Austro_Asiatic_languages -->
      <g transform="translate(344.814726028 1225.3375)rotate(-90.0)scale(0.12 -0.12)">
       <use xlink:href="#BitstreamVeraSans-Roman-41"/>
       <use x="68.408203125" xlink:href="#BitstreamVeraSans-Roman-75"/>
       <use x="131.787109375" xlink:href="#BitstreamVeraSans-Roman-73"/>
       <use x="183.88671875" xlink:href="#BitstreamVeraSans-Roman-74"/>
       <use x="223.095703125" xlink:href="#BitstreamVeraSans-Roman-72"/>
       <use x="264.177734375" xlink:href="#BitstreamVeraSans-Roman-6f"/>
       <use x="325.359375" xlink:href="#BitstreamVeraSans-Roman-5f"/>
       <use x="375.359375" xlink:href="#BitstreamVeraSans-Roman-41"/>
       <use x="443.767578125" xlink:href="#BitstreamVeraSans-Roman-73"/>
       <use x="495.8671875" xlink:href="#BitstreamVeraSans-Roman-69"/>
       <use x="523.650390625" xlink:href="#BitstreamVeraSans-Roman-61"/>
       <use x="584.9296875" xlink:href="#BitstreamVeraSans-Roman-74"/>
       <use x="624.138671875" xlink:href="#BitstreamVeraSans-Roman-69"/>
       <use x="651.921875" xlink:href="#BitstreamVeraSans-Roman-63"/>
       <use x="706.90234375" xlink:href="#BitstreamVeraSans-Roman-5f"/>
       <use x="756.90234375" xlink:href="#BitstreamVeraSans-Roman-6c"/>
       <use x="784.685546875" xlink:href="#BitstreamVeraSans-Roman-61"/>
       <use x="845.96484375" xlink:href="#BitstreamVeraSans-Roman-6e"/>
       <use x="909.34375" xlink:href="#BitstreamVeraSans-Roman-67"/>
       <use x="972.8203125" xlink:href="#BitstreamVeraSans-Roman-75"/>
       <use x="1036.19921875" xlink:href="#BitstreamVeraSans-Roman-61"/>
       <use x="1097.478515625" xlink:href="#BitstreamVeraSans-Roman-67"/>
       <use x="1160.955078125" xlink:href="#BitstreamVeraSans-Roman-65"/>
       <use x="1222.478515625" xlink:href="#BitstreamVeraSans-Roman-73"/>
      </g>
     </g>
    </g>
    <g id="xtick_16">
     <g id="line2d_16">
      <g>
       <use style="stroke:#000000;stroke-width:0.5;" x="289.168110002" xlink:href="#m37a37e08c4" y="1068.39"/>
      </g>
     </g>
     <g id="text_16">
      <!-- Aboriginal_languages -->
      <g transform="translate(292.312485002 1201.193125)rotate(-90.0)scale(0.12 -0.12)">
       <use xlink:href="#BitstreamVeraSans-Roman-41"/>
       <use x="68.408203125" xlink:href="#BitstreamVeraSans-Roman-62"/>
       <use x="131.884765625" xlink:href="#BitstreamVeraSans-Roman-6f"/>
       <use x="193.06640625" xlink:href="#BitstreamVeraSans-Roman-72"/>
       <use x="234.1796875" xlink:href="#BitstreamVeraSans-Roman-69"/>
       <use x="261.962890625" xlink:href="#BitstreamVeraSans-Roman-67"/>
       <use x="325.439453125" xlink:href="#BitstreamVeraSans-Roman-69"/>
       <use x="353.22265625" xlink:href="#BitstreamVeraSans-Roman-6e"/>
       <use x="416.6015625" xlink:href="#BitstreamVeraSans-Roman-61"/>
       <use x="477.880859375" xlink:href="#BitstreamVeraSans-Roman-6c"/>
       <use x="505.6640625" xlink:href="#BitstreamVeraSans-Roman-5f"/>
       <use x="555.6640625" xlink:href="#BitstreamVeraSans-Roman-6c"/>
       <use x="583.447265625" xlink:href="#BitstreamVeraSans-Roman-61"/>
       <use x="644.7265625" xlink:href="#BitstreamVeraSans-Roman-6e"/>
       <use x="708.10546875" xlink:href="#BitstreamVeraSans-Roman-67"/>
       <use x="771.58203125" xlink:href="#BitstreamVeraSans-Roman-75"/>
       <use x="834.9609375" xlink:href="#BitstreamVeraSans-Roman-61"/>
       <use x="896.240234375" xlink:href="#BitstreamVeraSans-Roman-67"/>
       <use x="959.716796875" xlink:href="#BitstreamVeraSans-Roman-65"/>
       <use x="1021.240234375" xlink:href="#BitstreamVeraSans-Roman-73"/>
      </g>
     </g>
    </g>
    <g id="xtick_17">
     <g id="line2d_17">
      <g>
       <use style="stroke:#000000;stroke-width:0.5;" x="1213.93743637" xlink:href="#m37a37e08c4" y="1068.39"/>
      </g>
     </g>
     <g id="text_17">
      <!-- No_non_official_language -->
      <defs>
       <path d="M 9.8125 72.90625 
L 23.09375 72.90625 
L 55.421875 11.921875 
L 55.421875 72.90625 
L 64.984375 72.90625 
L 64.984375 0 
L 51.703125 0 
L 19.390625 60.984375 
L 19.390625 0 
L 9.8125 0 
z
" id="BitstreamVeraSans-Roman-4e"/>
       <path d="M 37.109375 75.984375 
L 37.109375 68.5 
L 28.515625 68.5 
Q 23.6875 68.5 21.796875 66.546875 
Q 19.921875 64.59375 19.921875 59.515625 
L 19.921875 54.6875 
L 34.71875 54.6875 
L 34.71875 47.703125 
L 19.921875 47.703125 
L 19.921875 0 
L 10.890625 0 
L 10.890625 47.703125 
L 2.296875 47.703125 
L 2.296875 54.6875 
L 10.890625 54.6875 
L 10.890625 58.5 
Q 10.890625 67.625 15.140625 71.796875 
Q 19.390625 75.984375 28.609375 75.984375 
z
" id="BitstreamVeraSans-Roman-66"/>
      </defs>
      <g transform="translate(1217.08181137 1224.878125)rotate(-90.0)scale(0.12 -0.12)">
       <use xlink:href="#BitstreamVeraSans-Roman-4e"/>
       <use x="74.8046875" xlink:href="#BitstreamVeraSans-Roman-6f"/>
       <use x="135.986328125" xlink:href="#BitstreamVeraSans-Roman-5f"/>
       <use x="185.986328125" xlink:href="#BitstreamVeraSans-Roman-6e"/>
       <use x="249.365234375" xlink:href="#BitstreamVeraSans-Roman-6f"/>
       <use x="310.546875" xlink:href="#BitstreamVeraSans-Roman-6e"/>
       <use x="373.92578125" xlink:href="#BitstreamVeraSans-Roman-5f"/>
       <use x="423.92578125" xlink:href="#BitstreamVeraSans-Roman-6f"/>
       <use x="485.107421875" xlink:href="#BitstreamVeraSans-Roman-66"/>
       <use x="520.3125" xlink:href="#BitstreamVeraSans-Roman-66"/>
       <use x="555.517578125" xlink:href="#BitstreamVeraSans-Roman-69"/>
       <use x="583.30078125" xlink:href="#BitstreamVeraSans-Roman-63"/>
       <use x="638.28125" xlink:href="#BitstreamVeraSans-Roman-69"/>
       <use x="666.064453125" xlink:href="#BitstreamVeraSans-Roman-61"/>
       <use x="727.34375" xlink:href="#BitstreamVeraSans-Roman-6c"/>
       <use x="755.126953125" xlink:href="#BitstreamVeraSans-Roman-5f"/>
       <use x="805.126953125" xlink:href="#BitstreamVeraSans-Roman-6c"/>
       <use x="832.91015625" xlink:href="#BitstreamVeraSans-Roman-61"/>
       <use x="894.189453125" xlink:href="#BitstreamVeraSans-Roman-6e"/>
       <use x="957.568359375" xlink:href="#BitstreamVeraSans-Roman-67"/>
       <use x="1021.044921875" xlink:href="#BitstreamVeraSans-Roman-75"/>
       <use x="1084.423828125" xlink:href="#BitstreamVeraSans-Roman-61"/>
       <use x="1145.703125" xlink:href="#BitstreamVeraSans-Roman-67"/>
       <use x="1209.1796875" xlink:href="#BitstreamVeraSans-Roman-65"/>
      </g>
     </g>
    </g>
    <g id="xtick_18">
     <g id="line2d_18">
      <g>
       <use style="stroke:#000000;stroke-width:0.5;" x="321.956342963" xlink:href="#m37a37e08c4" y="1068.39"/>
      </g>
     </g>
     <g id="text_18">
      <!-- Arabic -->
      <g transform="translate(325.267592963 1110.435625)rotate(-90.0)scale(0.12 -0.12)">
       <use xlink:href="#BitstreamVeraSans-Roman-41"/>
       <use x="68.408203125" xlink:href="#BitstreamVeraSans-Roman-72"/>
       <use x="109.521484375" xlink:href="#BitstreamVeraSans-Roman-61"/>
       <use x="170.80078125" xlink:href="#BitstreamVeraSans-Roman-62"/>
       <use x="234.27734375" xlink:href="#BitstreamVeraSans-Roman-69"/>
       <use x="262.060546875" xlink:href="#BitstreamVeraSans-Roman-63"/>
      </g>
     </g>
    </g>
    <g id="xtick_19">
     <g id="line2d_19">
      <g>
       <use style="stroke:#000000;stroke-width:0.5;" x="497.723699346" xlink:href="#m37a37e08c4" y="1068.39"/>
      </g>
     </g>
     <g id="text_19">
      <!-- Greek -->
      <g transform="translate(501.034949346 1108.33375)rotate(-90.0)scale(0.12 -0.12)">
       <use xlink:href="#BitstreamVeraSans-Roman-47"/>
       <use x="77.490234375" xlink:href="#BitstreamVeraSans-Roman-72"/>
       <use x="118.572265625" xlink:href="#BitstreamVeraSans-Roman-65"/>
       <use x="180.095703125" xlink:href="#BitstreamVeraSans-Roman-65"/>
       <use x="241.619140625" xlink:href="#BitstreamVeraSans-Roman-6b"/>
      </g>
     </g>
    </g>
    <g id="xtick_20">
     <g id="line2d_20">
      <g>
       <use style="stroke:#000000;stroke-width:0.5;" x="530.578944933" xlink:href="#m37a37e08c4" y="1068.39"/>
      </g>
     </g>
     <g id="text_20">
      <!-- Indo_Iranian_Languages -->
      <g transform="translate(533.723319933 1217.695)rotate(-90.0)scale(0.12 -0.12)">
       <use xlink:href="#BitstreamVeraSans-Roman-49"/>
       <use x="29.4921875" xlink:href="#BitstreamVeraSans-Roman-6e"/>
       <use x="92.87109375" xlink:href="#BitstreamVeraSans-Roman-64"/>
       <use x="156.34765625" xlink:href="#BitstreamVeraSans-Roman-6f"/>
       <use x="217.529296875" xlink:href="#BitstreamVeraSans-Roman-5f"/>
       <use x="267.529296875" xlink:href="#BitstreamVeraSans-Roman-49"/>
       <use x="297.021484375" xlink:href="#BitstreamVeraSans-Roman-72"/>
       <use x="338.134765625" xlink:href="#BitstreamVeraSans-Roman-61"/>
       <use x="399.4140625" xlink:href="#BitstreamVeraSans-Roman-6e"/>
       <use x="462.79296875" xlink:href="#BitstreamVeraSans-Roman-69"/>
       <use x="490.576171875" xlink:href="#BitstreamVeraSans-Roman-61"/>
       <use x="551.85546875" xlink:href="#BitstreamVeraSans-Roman-6e"/>
       <use x="615.234375" xlink:href="#BitstreamVeraSans-Roman-5f"/>
       <use x="665.234375" xlink:href="#BitstreamVeraSans-Roman-4c"/>
       <use x="720.947265625" xlink:href="#BitstreamVeraSans-Roman-61"/>
       <use x="782.2265625" xlink:href="#BitstreamVeraSans-Roman-6e"/>
       <use x="845.60546875" xlink:href="#BitstreamVeraSans-Roman-67"/>
       <use x="909.08203125" xlink:href="#BitstreamVeraSans-Roman-75"/>
       <use x="972.4609375" xlink:href="#BitstreamVeraSans-Roman-61"/>
       <use x="1033.740234375" xlink:href="#BitstreamVeraSans-Roman-67"/>
       <use x="1097.216796875" xlink:href="#BitstreamVeraSans-Roman-65"/>
       <use x="1158.740234375" xlink:href="#BitstreamVeraSans-Roman-73"/>
      </g>
     </g>
    </g>
    <g id="xtick_21">
     <g id="line2d_21">
      <g>
       <use style="stroke:#000000;stroke-width:0.5;" x="393.246096384" xlink:href="#m37a37e08c4" y="1068.39"/>
      </g>
     </g>
     <g id="text_21">
      <!-- Chinese_languages -->
      <defs>
       <path d="M 64.40625 67.28125 
L 64.40625 56.890625 
Q 59.421875 61.53125 53.78125 63.8125 
Q 48.140625 66.109375 41.796875 66.109375 
Q 29.296875 66.109375 22.65625 58.46875 
Q 16.015625 50.828125 16.015625 36.375 
Q 16.015625 21.96875 22.65625 14.328125 
Q 29.296875 6.6875 41.796875 6.6875 
Q 48.140625 6.6875 53.78125 8.984375 
Q 59.421875 11.28125 64.40625 15.921875 
L 64.40625 5.609375 
Q 59.234375 2.09375 53.4375 0.328125 
Q 47.65625 -1.421875 41.21875 -1.421875 
Q 24.65625 -1.421875 15.125 8.703125 
Q 5.609375 18.84375 5.609375 36.375 
Q 5.609375 53.953125 15.125 64.078125 
Q 24.65625 74.21875 41.21875 74.21875 
Q 47.75 74.21875 53.53125 72.484375 
Q 59.328125 70.75 64.40625 67.28125 
" id="BitstreamVeraSans-Roman-43"/>
      </defs>
      <g transform="translate(396.390471384 1188.454375)rotate(-90.0)scale(0.12 -0.12)">
       <use xlink:href="#BitstreamVeraSans-Roman-43"/>
       <use x="69.82421875" xlink:href="#BitstreamVeraSans-Roman-68"/>
       <use x="133.203125" xlink:href="#BitstreamVeraSans-Roman-69"/>
       <use x="160.986328125" xlink:href="#BitstreamVeraSans-Roman-6e"/>
       <use x="224.365234375" xlink:href="#BitstreamVeraSans-Roman-65"/>
       <use x="285.888671875" xlink:href="#BitstreamVeraSans-Roman-73"/>
       <use x="337.98828125" xlink:href="#BitstreamVeraSans-Roman-65"/>
       <use x="399.51171875" xlink:href="#BitstreamVeraSans-Roman-5f"/>
       <use x="449.51171875" xlink:href="#BitstreamVeraSans-Roman-6c"/>
       <use x="477.294921875" xlink:href="#BitstreamVeraSans-Roman-61"/>
       <use x="538.57421875" xlink:href="#BitstreamVeraSans-Roman-6e"/>
       <use x="601.953125" xlink:href="#BitstreamVeraSans-Roman-67"/>
       <use x="665.4296875" xlink:href="#BitstreamVeraSans-Roman-75"/>
       <use x="728.80859375" xlink:href="#BitstreamVeraSans-Roman-61"/>
       <use x="790.087890625" xlink:href="#BitstreamVeraSans-Roman-67"/>
       <use x="853.564453125" xlink:href="#BitstreamVeraSans-Roman-65"/>
       <use x="915.087890625" xlink:href="#BitstreamVeraSans-Roman-73"/>
      </g>
     </g>
    </g>
    <g id="xtick_22">
     <g id="line2d_22">
      <g>
       <use style="stroke:#000000;stroke-width:0.5;" x="2014.34485357" xlink:href="#m37a37e08c4" y="1068.39"/>
      </g>
     </g>
     <g id="text_22">
      <!-- Spanish -->
      <g transform="translate(2017.65610357 1119.775)rotate(-90.0)scale(0.12 -0.12)">
       <use xlink:href="#BitstreamVeraSans-Roman-53"/>
       <use x="63.4765625" xlink:href="#BitstreamVeraSans-Roman-70"/>
       <use x="126.953125" xlink:href="#BitstreamVeraSans-Roman-61"/>
       <use x="188.232421875" xlink:href="#BitstreamVeraSans-Roman-6e"/>
       <use x="251.611328125" xlink:href="#BitstreamVeraSans-Roman-69"/>
       <use x="279.39453125" xlink:href="#BitstreamVeraSans-Roman-73"/>
       <use x="331.494140625" xlink:href="#BitstreamVeraSans-Roman-68"/>
      </g>
     </g>
    </g>
    <g id="xtick_23">
     <g id="line2d_23">
      <g>
       <use style="stroke:#000000;stroke-width:0.5;" x="1832.73817677" xlink:href="#m37a37e08c4" y="1068.39"/>
      </g>
     </g>
     <g id="text_23">
      <!-- Other_Afro_Asiatic_languages -->
      <g transform="translate(1835.88255177 1251.068125)rotate(-90.0)scale(0.12 -0.12)">
       <use xlink:href="#BitstreamVeraSans-Roman-4f"/>
       <use x="78.7109375" xlink:href="#BitstreamVeraSans-Roman-74"/>
       <use x="117.919921875" xlink:href="#BitstreamVeraSans-Roman-68"/>
       <use x="181.298828125" xlink:href="#BitstreamVeraSans-Roman-65"/>
       <use x="242.822265625" xlink:href="#BitstreamVeraSans-Roman-72"/>
       <use x="283.935546875" xlink:href="#BitstreamVeraSans-Roman-5f"/>
       <use x="333.935546875" xlink:href="#BitstreamVeraSans-Roman-41"/>
       <use x="402.296875" xlink:href="#BitstreamVeraSans-Roman-66"/>
       <use x="437.501953125" xlink:href="#BitstreamVeraSans-Roman-72"/>
       <use x="478.583984375" xlink:href="#BitstreamVeraSans-Roman-6f"/>
       <use x="539.765625" xlink:href="#BitstreamVeraSans-Roman-5f"/>
       <use x="589.765625" xlink:href="#BitstreamVeraSans-Roman-41"/>
       <use x="658.173828125" xlink:href="#BitstreamVeraSans-Roman-73"/>
       <use x="710.2734375" xlink:href="#BitstreamVeraSans-Roman-69"/>
       <use x="738.056640625" xlink:href="#BitstreamVeraSans-Roman-61"/>
       <use x="799.3359375" xlink:href="#BitstreamVeraSans-Roman-74"/>
       <use x="838.544921875" xlink:href="#BitstreamVeraSans-Roman-69"/>
       <use x="866.328125" xlink:href="#BitstreamVeraSans-Roman-63"/>
       <use x="921.30859375" xlink:href="#BitstreamVeraSans-Roman-5f"/>
       <use x="971.30859375" xlink:href="#BitstreamVeraSans-Roman-6c"/>
       <use x="999.091796875" xlink:href="#BitstreamVeraSans-Roman-61"/>
       <use x="1060.37109375" xlink:href="#BitstreamVeraSans-Roman-6e"/>
       <use x="1123.75" xlink:href="#BitstreamVeraSans-Roman-67"/>
       <use x="1187.2265625" xlink:href="#BitstreamVeraSans-Roman-75"/>
       <use x="1250.60546875" xlink:href="#BitstreamVeraSans-Roman-61"/>
       <use x="1311.884765625" xlink:href="#BitstreamVeraSans-Roman-67"/>
       <use x="1375.361328125" xlink:href="#BitstreamVeraSans-Roman-65"/>
       <use x="1436.884765625" xlink:href="#BitstreamVeraSans-Roman-73"/>
      </g>
     </g>
    </g>
    <g id="xtick_24">
     <g id="line2d_24">
      <g>
       <use style="stroke:#000000;stroke-width:0.5;" x="2044.4027831" xlink:href="#m37a37e08c4" y="1068.39"/>
      </g>
     </g>
     <g id="text_24">
      <!-- Tagalog -->
      <defs>
       <path d="M -0.296875 72.90625 
L 61.375 72.90625 
L 61.375 64.59375 
L 35.5 64.59375 
L 35.5 0 
L 25.59375 0 
L 25.59375 64.59375 
L -0.296875 64.59375 
z
" id="BitstreamVeraSans-Roman-54"/>
      </defs>
      <g transform="translate(2047.7140331 1120.309375)rotate(-90.0)scale(0.12 -0.12)">
       <use xlink:href="#BitstreamVeraSans-Roman-54"/>
       <use x="60.833984375" xlink:href="#BitstreamVeraSans-Roman-61"/>
       <use x="122.11328125" xlink:href="#BitstreamVeraSans-Roman-67"/>
       <use x="185.58984375" xlink:href="#BitstreamVeraSans-Roman-61"/>
       <use x="246.869140625" xlink:href="#BitstreamVeraSans-Roman-6c"/>
       <use x="274.65234375" xlink:href="#BitstreamVeraSans-Roman-6f"/>
       <use x="335.833984375" xlink:href="#BitstreamVeraSans-Roman-67"/>
      </g>
     </g>
    </g>
    <g id="xtick_25">
     <g id="line2d_25">
      <g>
       <use style="stroke:#000000;stroke-width:0.5;" x="594.829298605" xlink:href="#m37a37e08c4" y="1068.39"/>
      </g>
     </g>
     <g id="text_25">
      <!-- Niger_Congo_languages_and_other_African -->
      <g transform="translate(597.973673605 1331.843125)rotate(-90.0)scale(0.12 -0.12)">
       <use xlink:href="#BitstreamVeraSans-Roman-4e"/>
       <use x="74.8046875" xlink:href="#BitstreamVeraSans-Roman-69"/>
       <use x="102.587890625" xlink:href="#BitstreamVeraSans-Roman-67"/>
       <use x="166.064453125" xlink:href="#BitstreamVeraSans-Roman-65"/>
       <use x="227.587890625" xlink:href="#BitstreamVeraSans-Roman-72"/>
       <use x="268.701171875" xlink:href="#BitstreamVeraSans-Roman-5f"/>
       <use x="318.701171875" xlink:href="#BitstreamVeraSans-Roman-43"/>
       <use x="388.525390625" xlink:href="#BitstreamVeraSans-Roman-6f"/>
       <use x="449.70703125" xlink:href="#BitstreamVeraSans-Roman-6e"/>
       <use x="513.0859375" xlink:href="#BitstreamVeraSans-Roman-67"/>
       <use x="576.5625" xlink:href="#BitstreamVeraSans-Roman-6f"/>
       <use x="637.744140625" xlink:href="#BitstreamVeraSans-Roman-5f"/>
       <use x="687.744140625" xlink:href="#BitstreamVeraSans-Roman-6c"/>
       <use x="715.52734375" xlink:href="#BitstreamVeraSans-Roman-61"/>
       <use x="776.806640625" xlink:href="#BitstreamVeraSans-Roman-6e"/>
       <use x="840.185546875" xlink:href="#BitstreamVeraSans-Roman-67"/>
       <use x="903.662109375" xlink:href="#BitstreamVeraSans-Roman-75"/>
       <use x="967.041015625" xlink:href="#BitstreamVeraSans-Roman-61"/>
       <use x="1028.3203125" xlink:href="#BitstreamVeraSans-Roman-67"/>
       <use x="1091.796875" xlink:href="#BitstreamVeraSans-Roman-65"/>
       <use x="1153.3203125" xlink:href="#BitstreamVeraSans-Roman-73"/>
       <use x="1205.419921875" xlink:href="#BitstreamVeraSans-Roman-5f"/>
       <use x="1255.419921875" xlink:href="#BitstreamVeraSans-Roman-61"/>
       <use x="1316.69921875" xlink:href="#BitstreamVeraSans-Roman-6e"/>
       <use x="1380.078125" xlink:href="#BitstreamVeraSans-Roman-64"/>
       <use x="1443.5546875" xlink:href="#BitstreamVeraSans-Roman-5f"/>
       <use x="1493.5546875" xlink:href="#BitstreamVeraSans-Roman-6f"/>
       <use x="1554.736328125" xlink:href="#BitstreamVeraSans-Roman-74"/>
       <use x="1593.9453125" xlink:href="#BitstreamVeraSans-Roman-68"/>
       <use x="1657.32421875" xlink:href="#BitstreamVeraSans-Roman-65"/>
       <use x="1718.84765625" xlink:href="#BitstreamVeraSans-Roman-72"/>
       <use x="1759.9609375" xlink:href="#BitstreamVeraSans-Roman-5f"/>
       <use x="1809.9609375" xlink:href="#BitstreamVeraSans-Roman-41"/>
       <use x="1878.322265625" xlink:href="#BitstreamVeraSans-Roman-66"/>
       <use x="1913.52734375" xlink:href="#BitstreamVeraSans-Roman-72"/>
       <use x="1954.640625" xlink:href="#BitstreamVeraSans-Roman-69"/>
       <use x="1982.423828125" xlink:href="#BitstreamVeraSans-Roman-63"/>
       <use x="2037.404296875" xlink:href="#BitstreamVeraSans-Roman-61"/>
       <use x="2098.68359375" xlink:href="#BitstreamVeraSans-Roman-6e"/>
      </g>
     </g>
    </g>
   </g>
   <g id="matplotlib.axis_2">
    <g id="ytick_1">
     <g id="line2d_26">
      <defs>
       <path d="M 0 0 
L 4 0 
" id="m70def9bc33" style="stroke:#000000;stroke-width:0.5;"/>
      </defs>
      <g>
       <use style="stroke:#000000;stroke-width:0.5;" x="288.0" xlink:href="#m70def9bc33" y="788.168807484"/>
      </g>
     </g>
     <g id="text_26">
      <!-- False -->
      <g transform="translate(281.504375 803.772557484)rotate(-90.0)scale(0.12 -0.12)">
       <use xlink:href="#BitstreamVeraSans-Roman-46"/>
       <use x="57.37890625" xlink:href="#BitstreamVeraSans-Roman-61"/>
       <use x="118.658203125" xlink:href="#BitstreamVeraSans-Roman-6c"/>
       <use x="146.44140625" xlink:href="#BitstreamVeraSans-Roman-73"/>
       <use x="198.541015625" xlink:href="#BitstreamVeraSans-Roman-65"/>
      </g>
     </g>
    </g>
    <g id="ytick_2">
     <g id="line2d_27">
      <g>
       <use style="stroke:#000000;stroke-width:0.5;" x="288.0" xlink:href="#m70def9bc33" y="311.751265956"/>
      </g>
     </g>
     <g id="text_27">
      <!-- True -->
      <g transform="translate(281.504375 325.363765956)rotate(-90.0)scale(0.12 -0.12)">
       <use xlink:href="#BitstreamVeraSans-Roman-54"/>
       <use x="60.865234375" xlink:href="#BitstreamVeraSans-Roman-72"/>
       <use x="101.978515625" xlink:href="#BitstreamVeraSans-Roman-75"/>
       <use x="165.357421875" xlink:href="#BitstreamVeraSans-Roman-65"/>
      </g>
     </g>
    </g>
   </g>
   <g id="text_28">
    <!-- mtnno -->
    <g transform="translate(1157.432625 113.71)scale(0.144 -0.144)">
     <use xlink:href="#BitstreamVeraSans-Roman-6d"/>
     <use x="97.412109375" xlink:href="#BitstreamVeraSans-Roman-74"/>
     <use x="136.62109375" xlink:href="#BitstreamVeraSans-Roman-6e"/>
     <use x="200.0" xlink:href="#BitstreamVeraSans-Roman-6e"/>
     <use x="263.37890625" xlink:href="#BitstreamVeraSans-Roman-6f"/>
    </g>
   </g>
  </g>
  <g id="axes_2">
   <g id="patch_57">
    <path d="M 288 118.71 
L 2073.6 118.71 
" style="fill:none;stroke:#000000;stroke-linecap:square;stroke-linejoin:miter;"/>
   </g>
   <g id="patch_58">
    <path d="M 288 1068.39 
L 288 118.71 
" style="fill:none;stroke:#000000;stroke-linecap:square;stroke-linejoin:miter;"/>
   </g>
   <g id="patch_59">
    <path d="M 2073.6 1068.39 
L 2073.6 118.71 
" style="fill:none;stroke:#000000;stroke-linecap:square;stroke-linejoin:miter;"/>
   </g>
   <g id="patch_60">
    <path d="M 288 1068.39 
L 2073.6 1068.39 
" style="fill:none;stroke:#000000;stroke-linecap:square;stroke-linejoin:miter;"/>
   </g>
   <g id="matplotlib.axis_3"/>
  </g>
  <g id="axes_3">
   <g id="patch_61">
    <path d="M 288 118.71 
L 2073.6 118.71 
" style="fill:none;stroke:#000000;stroke-linecap:square;stroke-linejoin:miter;"/>
   </g>
   <g id="patch_62">
    <path d="M 288 1068.39 
L 288 118.71 
" style="fill:none;stroke:#000000;stroke-linecap:square;stroke-linejoin:miter;"/>
   </g>
   <g id="patch_63">
    <path d="M 2073.6 1068.39 
L 2073.6 118.71 
" style="fill:none;stroke:#000000;stroke-linecap:square;stroke-linejoin:miter;"/>
   </g>
   <g id="patch_64">
    <path d="M 288 1068.39 
L 2073.6 1068.39 
" style="fill:none;stroke:#000000;stroke-linecap:square;stroke-linejoin:miter;"/>
   </g>
   <g id="matplotlib.axis_4"/>
  </g>
 </g>
 <defs>
  <clipPath id="p1adad40be5">
   <rect height="949.68" width="1785.6" x="288.0" y="118.71"/>
  </clipPath>
 </defs>
</svg>
