<?xml version="1.0" encoding="utf-8" standalone="no"?>
<!DOCTYPE svg PUBLIC "-//W3C//DTD SVG 1.1//EN"
  "http://www.w3.org/Graphics/SVG/1.1/DTD/svg11.dtd">
<!-- Created with matplotlib (http://matplotlib.org/) -->
<svg height="1187pt" version="1.1" viewBox="0 0 2304 1187" width="2304pt" xmlns="http://www.w3.org/2000/svg" xmlns:xlink="http://www.w3.org/1999/xlink">
 <defs>
  <style type="text/css">
*{stroke-linecap:butt;stroke-linejoin:round;stroke-miterlimit:100000;}
  </style>
 </defs>
 <g id="figure_1">
  <g id="patch_1">
   <path d="M 0 1187.1 
L 2304 1187.1 
L 2304 0 
L 0 0 
z
" style="fill:#ffffff;"/>
  </g>
  <g id="axes_1">
   <g id="patch_2">
    <path d="M 288 1068.39 
L 2073.6 1068.39 
L 2073.6 118.71 
L 288 118.71 
z
" style="fill:#ffffff;"/>
   </g>
   <g id="patch_3">
    <path clip-path="url(#p0cbb20ce2e)" d="M 288 1068.39 
L 357.548875 1068.39 
L 357.548875 504.331096 
L 288 504.331096 
z
" style="fill:#804040;"/>
   </g>
   <g id="patch_4">
    <path clip-path="url(#p0cbb20ce2e)" d="M 288 501.176013 
L 357.548875 501.176013 
L 357.548875 118.71 
L 288 118.71 
z
" style="fill:#802020;"/>
   </g>
   <g id="patch_5">
    <path clip-path="url(#p0cbb20ce2e)" d="M 366.092416 1068.39 
L 371.792063 1068.39 
L 371.792063 504.852044 
L 366.092416 504.852044 
z
" style="fill:#806340;"/>
   </g>
   <g id="patch_6">
    <path clip-path="url(#p0cbb20ce2e)" d="M 366.092416 501.696961 
L 371.792063 501.696961 
L 371.792063 118.71 
L 366.092416 118.71 
z
" style="fill:#805420;"/>
   </g>
   <g id="patch_7">
    <path clip-path="url(#p0cbb20ce2e)" d="M 380.335604 1068.39 
L 698.362745 1068.39 
L 698.362745 629.299709 
L 380.335604 629.299709 
z
" style="fill:#7a8040;"/>
   </g>
   <g id="patch_8">
    <path clip-path="url(#p0cbb20ce2e)" d="M 380.335604 626.144626 
L 698.362745 626.144626 
L 698.362745 118.71 
L 380.335604 118.71 
z
" style="fill:#778020;"/>
   </g>
   <g id="patch_9">
    <path clip-path="url(#p0cbb20ce2e)" d="M 706.906285 1068.39 
L 1010.239537 1068.39 
L 1010.239537 512.832201 
L 706.906285 512.832201 
z
" style="fill:#578040;"/>
   </g>
   <g id="patch_10">
    <path clip-path="url(#p0cbb20ce2e)" d="M 706.906285 509.677118 
L 1010.239537 509.677118 
L 1010.239537 118.71 
L 706.906285 118.71 
z
" style="fill:#438020;"/>
   </g>
   <g id="patch_11">
    <path clip-path="url(#p0cbb20ce2e)" d="M 1018.783078 1068.39 
L 1229.801812 1068.39 
L 1229.801812 674.263231 
L 1018.783078 674.263231 
z
" style="fill:#40804b;"/>
   </g>
   <g id="patch_12">
    <path clip-path="url(#p0cbb20ce2e)" d="M 1018.783078 671.108148 
L 1229.801812 671.108148 
L 1229.801812 118.71 
L 1018.783078 118.71 
z
" style="fill:#208031;"/>
   </g>
   <g id="patch_13">
    <path clip-path="url(#p0cbb20ce2e)" d="M 1238.345352 1068.39 
L 1269.314534 1068.39 
L 1269.314534 353.461605 
L 1238.345352 353.461605 
z
" style="fill:#40806e;"/>
   </g>
   <g id="patch_14">
    <path clip-path="url(#p0cbb20ce2e)" d="M 1238.345352 350.306522 
L 1269.314534 350.306522 
L 1269.314534 118.71 
L 1238.345352 118.71 
z
" style="fill:#208065;"/>
   </g>
   <g id="patch_15">
    <path clip-path="url(#p0cbb20ce2e)" d="M 1277.858075 1068.39 
L 1430.101255 1068.39 
L 1430.101255 581.91593 
L 1277.858075 581.91593 
z
" style="fill:#406e80;"/>
   </g>
   <g id="patch_16">
    <path clip-path="url(#p0cbb20ce2e)" d="M 1277.858075 578.760847 
L 1430.101255 578.760847 
L 1430.101255 118.71 
L 1277.858075 118.71 
z
" style="fill:#206580;"/>
   </g>
   <g id="patch_17">
    <path clip-path="url(#p0cbb20ce2e)" d="M 1438.644795 1068.39 
L 1612.236943 1068.39 
L 1612.236943 449.888332 
L 1438.644795 449.888332 
z
" style="fill:#404b80;"/>
   </g>
   <g id="patch_18">
    <path clip-path="url(#p0cbb20ce2e)" d="M 1438.644795 446.733249 
L 1612.236943 446.733249 
L 1612.236943 118.71 
L 1438.644795 118.71 
z
" style="fill:#203180;"/>
   </g>
   <g id="patch_19">
    <path clip-path="url(#p0cbb20ce2e)" d="M 1620.780484 1068.39 
L 1773.814366 1068.39 
L 1773.814366 631.500996 
L 1620.780484 631.500996 
z
" style="fill:#574080;"/>
   </g>
   <g id="patch_20">
    <path clip-path="url(#p0cbb20ce2e)" d="M 1620.780484 628.345913 
L 1773.814366 628.345913 
L 1773.814366 118.71 
L 1620.780484 118.71 
z
" style="fill:#432080;"/>
   </g>
   <g id="patch_21">
    <path clip-path="url(#p0cbb20ce2e)" d="M 1782.357907 1068.39 
L 2073.6 1068.39 
L 2073.6 546.51642 
L 1782.357907 546.51642 
z
" style="fill:#7a4080;"/>
   </g>
   <g id="patch_22">
    <path clip-path="url(#p0cbb20ce2e)" d="M 1782.357907 543.361337 
L 2073.6 543.361337 
L 2073.6 118.71 
L 1782.357907 118.71 
z
" style="fill:#772080;"/>
   </g>
   <g id="patch_23">
    <path d="M 288 118.71 
L 2073.6 118.71 
" style="fill:none;stroke:#000000;stroke-linecap:square;stroke-linejoin:miter;"/>
   </g>
   <g id="patch_24">
    <path d="M 288 1068.39 
L 288 118.71 
" style="fill:none;stroke:#000000;stroke-linecap:square;stroke-linejoin:miter;"/>
   </g>
   <g id="patch_25">
    <path d="M 2073.6 1068.39 
L 2073.6 118.71 
" style="fill:none;stroke:#000000;stroke-linecap:square;stroke-linejoin:miter;"/>
   </g>
   <g id="patch_26">
    <path d="M 288 1068.39 
L 2073.6 1068.39 
" style="fill:none;stroke:#000000;stroke-linecap:square;stroke-linejoin:miter;"/>
   </g>
   <g id="matplotlib.axis_1">
    <g id="xtick_1">
     <g id="line2d_1">
      <defs>
       <path d="M 0 0 
L 0 -4 
" id="m2e77c03b0b" style="stroke:#000000;stroke-width:0.5;"/>
      </defs>
      <g>
       <use style="stroke:#000000;stroke-width:0.5;" x="1697.29742521" xlink:href="#m2e77c03b0b" y="1068.39"/>
      </g>
     </g>
     <g id="text_1">
      <!-- Mathematics__computer_and_physical_sciences -->
      <defs>
       <path d="M 34.28125 27.484375 
Q 23.390625 27.484375 19.1875 25 
Q 14.984375 22.515625 14.984375 16.5 
Q 14.984375 11.71875 18.140625 8.90625 
Q 21.296875 6.109375 26.703125 6.109375 
Q 34.1875 6.109375 38.703125 11.40625 
Q 43.21875 16.703125 43.21875 25.484375 
L 43.21875 27.484375 
z
M 52.203125 31.203125 
L 52.203125 0 
L 43.21875 0 
L 43.21875 8.296875 
Q 40.140625 3.328125 35.546875 0.953125 
Q 30.953125 -1.421875 24.3125 -1.421875 
Q 15.921875 -1.421875 10.953125 3.296875 
Q 6 8.015625 6 15.921875 
Q 6 25.140625 12.171875 29.828125 
Q 18.359375 34.515625 30.609375 34.515625 
L 43.21875 34.515625 
L 43.21875 35.40625 
Q 43.21875 41.609375 39.140625 45 
Q 35.0625 48.390625 27.6875 48.390625 
Q 23 48.390625 18.546875 47.265625 
Q 14.109375 46.140625 10.015625 43.890625 
L 10.015625 52.203125 
Q 14.9375 54.109375 19.578125 55.046875 
Q 24.21875 56 28.609375 56 
Q 40.484375 56 46.34375 49.84375 
Q 52.203125 43.703125 52.203125 31.203125 
" id="BitstreamVeraSans-Roman-61"/>
       <path d="M 54.890625 33.015625 
L 54.890625 0 
L 45.90625 0 
L 45.90625 32.71875 
Q 45.90625 40.484375 42.875 44.328125 
Q 39.84375 48.1875 33.796875 48.1875 
Q 26.515625 48.1875 22.3125 43.546875 
Q 18.109375 38.921875 18.109375 30.90625 
L 18.109375 0 
L 9.078125 0 
L 9.078125 54.6875 
L 18.109375 54.6875 
L 18.109375 46.1875 
Q 21.34375 51.125 25.703125 53.5625 
Q 30.078125 56 35.796875 56 
Q 45.21875 56 50.046875 50.171875 
Q 54.890625 44.34375 54.890625 33.015625 
" id="BitstreamVeraSans-Roman-6e"/>
       <path d="M 8.5 21.578125 
L 8.5 54.6875 
L 17.484375 54.6875 
L 17.484375 21.921875 
Q 17.484375 14.15625 20.5 10.265625 
Q 23.53125 6.390625 29.59375 6.390625 
Q 36.859375 6.390625 41.078125 11.03125 
Q 45.3125 15.671875 45.3125 23.6875 
L 45.3125 54.6875 
L 54.296875 54.6875 
L 54.296875 0 
L 45.3125 0 
L 45.3125 8.40625 
Q 42.046875 3.421875 37.71875 1 
Q 33.40625 -1.421875 27.6875 -1.421875 
Q 18.265625 -1.421875 13.375 4.4375 
Q 8.5 10.296875 8.5 21.578125 
" id="BitstreamVeraSans-Roman-75"/>
       <path d="M 9.421875 54.6875 
L 18.40625 54.6875 
L 18.40625 0 
L 9.421875 0 
z
M 9.421875 75.984375 
L 18.40625 75.984375 
L 18.40625 64.59375 
L 9.421875 64.59375 
z
" id="BitstreamVeraSans-Roman-69"/>
       <path d="M 44.28125 53.078125 
L 44.28125 44.578125 
Q 40.484375 46.53125 36.375 47.5 
Q 32.28125 48.484375 27.875 48.484375 
Q 21.1875 48.484375 17.84375 46.4375 
Q 14.5 44.390625 14.5 40.28125 
Q 14.5 37.15625 16.890625 35.375 
Q 19.28125 33.59375 26.515625 31.984375 
L 29.59375 31.296875 
Q 39.15625 29.25 43.1875 25.515625 
Q 47.21875 21.78125 47.21875 15.09375 
Q 47.21875 7.46875 41.1875 3.015625 
Q 35.15625 -1.421875 24.609375 -1.421875 
Q 20.21875 -1.421875 15.453125 -0.5625 
Q 10.6875 0.296875 5.421875 2 
L 5.421875 11.28125 
Q 10.40625 8.6875 15.234375 7.390625 
Q 20.0625 6.109375 24.8125 6.109375 
Q 31.15625 6.109375 34.5625 8.28125 
Q 37.984375 10.453125 37.984375 14.40625 
Q 37.984375 18.0625 35.515625 20.015625 
Q 33.0625 21.96875 24.703125 23.78125 
L 21.578125 24.515625 
Q 13.234375 26.265625 9.515625 29.90625 
Q 5.8125 33.546875 5.8125 39.890625 
Q 5.8125 47.609375 11.28125 51.796875 
Q 16.75 56 26.8125 56 
Q 31.78125 56 36.171875 55.265625 
Q 40.578125 54.546875 44.28125 53.078125 
" id="BitstreamVeraSans-Roman-73"/>
       <path d="M 56.203125 29.59375 
L 56.203125 25.203125 
L 14.890625 25.203125 
Q 15.484375 15.921875 20.484375 11.0625 
Q 25.484375 6.203125 34.421875 6.203125 
Q 39.59375 6.203125 44.453125 7.46875 
Q 49.3125 8.734375 54.109375 11.28125 
L 54.109375 2.78125 
Q 49.265625 0.734375 44.1875 -0.34375 
Q 39.109375 -1.421875 33.890625 -1.421875 
Q 20.796875 -1.421875 13.15625 6.1875 
Q 5.515625 13.8125 5.515625 26.8125 
Q 5.515625 40.234375 12.765625 48.109375 
Q 20.015625 56 32.328125 56 
Q 43.359375 56 49.78125 48.890625 
Q 56.203125 41.796875 56.203125 29.59375 
M 47.21875 32.234375 
Q 47.125 39.59375 43.09375 43.984375 
Q 39.0625 48.390625 32.421875 48.390625 
Q 24.90625 48.390625 20.390625 44.140625 
Q 15.875 39.890625 15.1875 32.171875 
z
" id="BitstreamVeraSans-Roman-65"/>
       <path d="M 52 44.1875 
Q 55.375 50.25 60.0625 53.125 
Q 64.75 56 71.09375 56 
Q 79.640625 56 84.28125 50.015625 
Q 88.921875 44.046875 88.921875 33.015625 
L 88.921875 0 
L 79.890625 0 
L 79.890625 32.71875 
Q 79.890625 40.578125 77.09375 44.375 
Q 74.3125 48.1875 68.609375 48.1875 
Q 61.625 48.1875 57.5625 43.546875 
Q 53.515625 38.921875 53.515625 30.90625 
L 53.515625 0 
L 44.484375 0 
L 44.484375 32.71875 
Q 44.484375 40.625 41.703125 44.40625 
Q 38.921875 48.1875 33.109375 48.1875 
Q 26.21875 48.1875 22.15625 43.53125 
Q 18.109375 38.875 18.109375 30.90625 
L 18.109375 0 
L 9.078125 0 
L 9.078125 54.6875 
L 18.109375 54.6875 
L 18.109375 46.1875 
Q 21.1875 51.21875 25.484375 53.609375 
Q 29.78125 56 35.6875 56 
Q 41.65625 56 45.828125 52.96875 
Q 50 49.953125 52 44.1875 
" id="BitstreamVeraSans-Roman-6d"/>
       <path d="M 9.421875 75.984375 
L 18.40625 75.984375 
L 18.40625 0 
L 9.421875 0 
z
" id="BitstreamVeraSans-Roman-6c"/>
       <path d="M 18.3125 70.21875 
L 18.3125 54.6875 
L 36.8125 54.6875 
L 36.8125 47.703125 
L 18.3125 47.703125 
L 18.3125 18.015625 
Q 18.3125 11.328125 20.140625 9.421875 
Q 21.96875 7.515625 27.59375 7.515625 
L 36.8125 7.515625 
L 36.8125 0 
L 27.59375 0 
Q 17.1875 0 13.234375 3.875 
Q 9.28125 7.765625 9.28125 18.015625 
L 9.28125 47.703125 
L 2.6875 47.703125 
L 2.6875 54.6875 
L 9.28125 54.6875 
L 9.28125 70.21875 
z
" id="BitstreamVeraSans-Roman-74"/>
       <path d="M 41.109375 46.296875 
Q 39.59375 47.171875 37.8125 47.578125 
Q 36.03125 48 33.890625 48 
Q 26.265625 48 22.1875 43.046875 
Q 18.109375 38.09375 18.109375 28.8125 
L 18.109375 0 
L 9.078125 0 
L 9.078125 54.6875 
L 18.109375 54.6875 
L 18.109375 46.1875 
Q 20.953125 51.171875 25.484375 53.578125 
Q 30.03125 56 36.53125 56 
Q 37.453125 56 38.578125 55.875 
Q 39.703125 55.765625 41.0625 55.515625 
z
" id="BitstreamVeraSans-Roman-72"/>
       <path d="M 9.8125 72.90625 
L 24.515625 72.90625 
L 43.109375 23.296875 
L 61.8125 72.90625 
L 76.515625 72.90625 
L 76.515625 0 
L 66.890625 0 
L 66.890625 64.015625 
L 48.09375 14.015625 
L 38.1875 14.015625 
L 19.390625 64.015625 
L 19.390625 0 
L 9.8125 0 
z
" id="BitstreamVeraSans-Roman-4d"/>
       <path d="M 48.78125 52.59375 
L 48.78125 44.1875 
Q 44.96875 46.296875 41.140625 47.34375 
Q 37.3125 48.390625 33.40625 48.390625 
Q 24.65625 48.390625 19.8125 42.84375 
Q 14.984375 37.3125 14.984375 27.296875 
Q 14.984375 17.28125 19.8125 11.734375 
Q 24.65625 6.203125 33.40625 6.203125 
Q 37.3125 6.203125 41.140625 7.25 
Q 44.96875 8.296875 48.78125 10.40625 
L 48.78125 2.09375 
Q 45.015625 0.34375 40.984375 -0.53125 
Q 36.96875 -1.421875 32.421875 -1.421875 
Q 20.0625 -1.421875 12.78125 6.34375 
Q 5.515625 14.109375 5.515625 27.296875 
Q 5.515625 40.671875 12.859375 48.328125 
Q 20.21875 56 33.015625 56 
Q 37.15625 56 41.109375 55.140625 
Q 45.0625 54.296875 48.78125 52.59375 
" id="BitstreamVeraSans-Roman-63"/>
       <path d="M 50.984375 -16.609375 
L 50.984375 -23.578125 
L -0.984375 -23.578125 
L -0.984375 -16.609375 
z
" id="BitstreamVeraSans-Roman-5f"/>
       <path d="M 18.109375 8.203125 
L 18.109375 -20.796875 
L 9.078125 -20.796875 
L 9.078125 54.6875 
L 18.109375 54.6875 
L 18.109375 46.390625 
Q 20.953125 51.265625 25.265625 53.625 
Q 29.59375 56 35.59375 56 
Q 45.5625 56 51.78125 48.09375 
Q 58.015625 40.1875 58.015625 27.296875 
Q 58.015625 14.40625 51.78125 6.484375 
Q 45.5625 -1.421875 35.59375 -1.421875 
Q 29.59375 -1.421875 25.265625 0.953125 
Q 20.953125 3.328125 18.109375 8.203125 
M 48.6875 27.296875 
Q 48.6875 37.203125 44.609375 42.84375 
Q 40.53125 48.484375 33.40625 48.484375 
Q 26.265625 48.484375 22.1875 42.84375 
Q 18.109375 37.203125 18.109375 27.296875 
Q 18.109375 17.390625 22.1875 11.75 
Q 26.265625 6.109375 33.40625 6.109375 
Q 40.53125 6.109375 44.609375 11.75 
Q 48.6875 17.390625 48.6875 27.296875 
" id="BitstreamVeraSans-Roman-70"/>
       <path d="M 54.890625 33.015625 
L 54.890625 0 
L 45.90625 0 
L 45.90625 32.71875 
Q 45.90625 40.484375 42.875 44.328125 
Q 39.84375 48.1875 33.796875 48.1875 
Q 26.515625 48.1875 22.3125 43.546875 
Q 18.109375 38.921875 18.109375 30.90625 
L 18.109375 0 
L 9.078125 0 
L 9.078125 75.984375 
L 18.109375 75.984375 
L 18.109375 46.1875 
Q 21.34375 51.125 25.703125 53.5625 
Q 30.078125 56 35.796875 56 
Q 45.21875 56 50.046875 50.171875 
Q 54.890625 44.34375 54.890625 33.015625 
" id="BitstreamVeraSans-Roman-68"/>
       <path d="M 30.609375 48.390625 
Q 23.390625 48.390625 19.1875 42.75 
Q 14.984375 37.109375 14.984375 27.296875 
Q 14.984375 17.484375 19.15625 11.84375 
Q 23.34375 6.203125 30.609375 6.203125 
Q 37.796875 6.203125 41.984375 11.859375 
Q 46.1875 17.53125 46.1875 27.296875 
Q 46.1875 37.015625 41.984375 42.703125 
Q 37.796875 48.390625 30.609375 48.390625 
M 30.609375 56 
Q 42.328125 56 49.015625 48.375 
Q 55.71875 40.765625 55.71875 27.296875 
Q 55.71875 13.875 49.015625 6.21875 
Q 42.328125 -1.421875 30.609375 -1.421875 
Q 18.84375 -1.421875 12.171875 6.21875 
Q 5.515625 13.875 5.515625 27.296875 
Q 5.515625 40.765625 12.171875 48.375 
Q 18.84375 56 30.609375 56 
" id="BitstreamVeraSans-Roman-6f"/>
       <path d="M 45.40625 46.390625 
L 45.40625 75.984375 
L 54.390625 75.984375 
L 54.390625 0 
L 45.40625 0 
L 45.40625 8.203125 
Q 42.578125 3.328125 38.25 0.953125 
Q 33.9375 -1.421875 27.875 -1.421875 
Q 17.96875 -1.421875 11.734375 6.484375 
Q 5.515625 14.40625 5.515625 27.296875 
Q 5.515625 40.1875 11.734375 48.09375 
Q 17.96875 56 27.875 56 
Q 33.9375 56 38.25 53.625 
Q 42.578125 51.265625 45.40625 46.390625 
M 14.796875 27.296875 
Q 14.796875 17.390625 18.875 11.75 
Q 22.953125 6.109375 30.078125 6.109375 
Q 37.203125 6.109375 41.296875 11.75 
Q 45.40625 17.390625 45.40625 27.296875 
Q 45.40625 37.203125 41.296875 42.84375 
Q 37.203125 48.484375 30.078125 48.484375 
Q 22.953125 48.484375 18.875 42.84375 
Q 14.796875 37.203125 14.796875 27.296875 
" id="BitstreamVeraSans-Roman-64"/>
       <path d="M 32.171875 -5.078125 
Q 28.375 -14.84375 24.75 -17.8125 
Q 21.140625 -20.796875 15.09375 -20.796875 
L 7.90625 -20.796875 
L 7.90625 -13.28125 
L 13.1875 -13.28125 
Q 16.890625 -13.28125 18.9375 -11.515625 
Q 21 -9.765625 23.484375 -3.21875 
L 25.09375 0.875 
L 2.984375 54.6875 
L 12.5 54.6875 
L 29.59375 11.921875 
L 46.6875 54.6875 
L 56.203125 54.6875 
z
" id="BitstreamVeraSans-Roman-79"/>
      </defs>
      <g transform="translate(1700.44180021 1360.7725)rotate(-90.0)scale(0.12 -0.12)">
       <use xlink:href="#BitstreamVeraSans-Roman-4d"/>
       <use x="86.279296875" xlink:href="#BitstreamVeraSans-Roman-61"/>
       <use x="147.55859375" xlink:href="#BitstreamVeraSans-Roman-74"/>
       <use x="186.767578125" xlink:href="#BitstreamVeraSans-Roman-68"/>
       <use x="250.146484375" xlink:href="#BitstreamVeraSans-Roman-65"/>
       <use x="311.669921875" xlink:href="#BitstreamVeraSans-Roman-6d"/>
       <use x="409.08203125" xlink:href="#BitstreamVeraSans-Roman-61"/>
       <use x="470.361328125" xlink:href="#BitstreamVeraSans-Roman-74"/>
       <use x="509.5703125" xlink:href="#BitstreamVeraSans-Roman-69"/>
       <use x="537.353515625" xlink:href="#BitstreamVeraSans-Roman-63"/>
       <use x="592.333984375" xlink:href="#BitstreamVeraSans-Roman-73"/>
       <use x="644.43359375" xlink:href="#BitstreamVeraSans-Roman-5f"/>
       <use x="694.43359375" xlink:href="#BitstreamVeraSans-Roman-5f"/>
       <use x="744.43359375" xlink:href="#BitstreamVeraSans-Roman-63"/>
       <use x="799.4140625" xlink:href="#BitstreamVeraSans-Roman-6f"/>
       <use x="860.595703125" xlink:href="#BitstreamVeraSans-Roman-6d"/>
       <use x="958.0078125" xlink:href="#BitstreamVeraSans-Roman-70"/>
       <use x="1021.484375" xlink:href="#BitstreamVeraSans-Roman-75"/>
       <use x="1084.86328125" xlink:href="#BitstreamVeraSans-Roman-74"/>
       <use x="1124.072265625" xlink:href="#BitstreamVeraSans-Roman-65"/>
       <use x="1185.595703125" xlink:href="#BitstreamVeraSans-Roman-72"/>
       <use x="1226.708984375" xlink:href="#BitstreamVeraSans-Roman-5f"/>
       <use x="1276.708984375" xlink:href="#BitstreamVeraSans-Roman-61"/>
       <use x="1337.98828125" xlink:href="#BitstreamVeraSans-Roman-6e"/>
       <use x="1401.3671875" xlink:href="#BitstreamVeraSans-Roman-64"/>
       <use x="1464.84375" xlink:href="#BitstreamVeraSans-Roman-5f"/>
       <use x="1514.84375" xlink:href="#BitstreamVeraSans-Roman-70"/>
       <use x="1578.3203125" xlink:href="#BitstreamVeraSans-Roman-68"/>
       <use x="1641.69921875" xlink:href="#BitstreamVeraSans-Roman-79"/>
       <use x="1700.87890625" xlink:href="#BitstreamVeraSans-Roman-73"/>
       <use x="1752.978515625" xlink:href="#BitstreamVeraSans-Roman-69"/>
       <use x="1780.76171875" xlink:href="#BitstreamVeraSans-Roman-63"/>
       <use x="1835.7421875" xlink:href="#BitstreamVeraSans-Roman-61"/>
       <use x="1897.021484375" xlink:href="#BitstreamVeraSans-Roman-6c"/>
       <use x="1924.8046875" xlink:href="#BitstreamVeraSans-Roman-5f"/>
       <use x="1974.8046875" xlink:href="#BitstreamVeraSans-Roman-73"/>
       <use x="2026.904296875" xlink:href="#BitstreamVeraSans-Roman-63"/>
       <use x="2081.884765625" xlink:href="#BitstreamVeraSans-Roman-69"/>
       <use x="2109.66796875" xlink:href="#BitstreamVeraSans-Roman-65"/>
       <use x="2171.19140625" xlink:href="#BitstreamVeraSans-Roman-6e"/>
       <use x="2234.5703125" xlink:href="#BitstreamVeraSans-Roman-63"/>
       <use x="2289.55078125" xlink:href="#BitstreamVeraSans-Roman-65"/>
       <use x="2351.07421875" xlink:href="#BitstreamVeraSans-Roman-73"/>
      </g>
     </g>
    </g>
    <g id="xtick_2">
     <g id="line2d_2">
      <g>
       <use style="stroke:#000000;stroke-width:0.5;" x="368.94223966" xlink:href="#m2e77c03b0b" y="1068.39"/>
      </g>
     </g>
     <g id="text_2">
      <!-- Applied_science_technologies_and_trades -->
      <defs>
       <path d="M 34.1875 63.1875 
L 20.796875 26.90625 
L 47.609375 26.90625 
z
M 28.609375 72.90625 
L 39.796875 72.90625 
L 67.578125 0 
L 57.328125 0 
L 50.6875 18.703125 
L 17.828125 18.703125 
L 11.1875 0 
L 0.78125 0 
z
" id="BitstreamVeraSans-Roman-41"/>
       <path d="M 45.40625 27.984375 
Q 45.40625 37.75 41.375 43.109375 
Q 37.359375 48.484375 30.078125 48.484375 
Q 22.859375 48.484375 18.828125 43.109375 
Q 14.796875 37.75 14.796875 27.984375 
Q 14.796875 18.265625 18.828125 12.890625 
Q 22.859375 7.515625 30.078125 7.515625 
Q 37.359375 7.515625 41.375 12.890625 
Q 45.40625 18.265625 45.40625 27.984375 
M 54.390625 6.78125 
Q 54.390625 -7.171875 48.1875 -13.984375 
Q 42 -20.796875 29.203125 -20.796875 
Q 24.46875 -20.796875 20.265625 -20.09375 
Q 16.0625 -19.390625 12.109375 -17.921875 
L 12.109375 -9.1875 
Q 16.0625 -11.328125 19.921875 -12.34375 
Q 23.78125 -13.375 27.78125 -13.375 
Q 36.625 -13.375 41.015625 -8.765625 
Q 45.40625 -4.15625 45.40625 5.171875 
L 45.40625 9.625 
Q 42.625 4.78125 38.28125 2.390625 
Q 33.9375 0 27.875 0 
Q 17.828125 0 11.671875 7.65625 
Q 5.515625 15.328125 5.515625 27.984375 
Q 5.515625 40.671875 11.671875 48.328125 
Q 17.828125 56 27.875 56 
Q 33.9375 56 38.28125 53.609375 
Q 42.625 51.21875 45.40625 46.390625 
L 45.40625 54.6875 
L 54.390625 54.6875 
z
" id="BitstreamVeraSans-Roman-67"/>
      </defs>
      <g transform="translate(372.08661466 1323.98125)rotate(-90.0)scale(0.12 -0.12)">
       <use xlink:href="#BitstreamVeraSans-Roman-41"/>
       <use x="68.408203125" xlink:href="#BitstreamVeraSans-Roman-70"/>
       <use x="131.884765625" xlink:href="#BitstreamVeraSans-Roman-70"/>
       <use x="195.361328125" xlink:href="#BitstreamVeraSans-Roman-6c"/>
       <use x="223.14453125" xlink:href="#BitstreamVeraSans-Roman-69"/>
       <use x="250.927734375" xlink:href="#BitstreamVeraSans-Roman-65"/>
       <use x="312.451171875" xlink:href="#BitstreamVeraSans-Roman-64"/>
       <use x="375.927734375" xlink:href="#BitstreamVeraSans-Roman-5f"/>
       <use x="425.927734375" xlink:href="#BitstreamVeraSans-Roman-73"/>
       <use x="478.02734375" xlink:href="#BitstreamVeraSans-Roman-63"/>
       <use x="533.0078125" xlink:href="#BitstreamVeraSans-Roman-69"/>
       <use x="560.791015625" xlink:href="#BitstreamVeraSans-Roman-65"/>
       <use x="622.314453125" xlink:href="#BitstreamVeraSans-Roman-6e"/>
       <use x="685.693359375" xlink:href="#BitstreamVeraSans-Roman-63"/>
       <use x="740.673828125" xlink:href="#BitstreamVeraSans-Roman-65"/>
       <use x="802.197265625" xlink:href="#BitstreamVeraSans-Roman-5f"/>
       <use x="852.197265625" xlink:href="#BitstreamVeraSans-Roman-74"/>
       <use x="891.40625" xlink:href="#BitstreamVeraSans-Roman-65"/>
       <use x="952.9296875" xlink:href="#BitstreamVeraSans-Roman-63"/>
       <use x="1007.91015625" xlink:href="#BitstreamVeraSans-Roman-68"/>
       <use x="1071.2890625" xlink:href="#BitstreamVeraSans-Roman-6e"/>
       <use x="1134.66796875" xlink:href="#BitstreamVeraSans-Roman-6f"/>
       <use x="1195.849609375" xlink:href="#BitstreamVeraSans-Roman-6c"/>
       <use x="1223.6328125" xlink:href="#BitstreamVeraSans-Roman-6f"/>
       <use x="1284.814453125" xlink:href="#BitstreamVeraSans-Roman-67"/>
       <use x="1348.291015625" xlink:href="#BitstreamVeraSans-Roman-69"/>
       <use x="1376.07421875" xlink:href="#BitstreamVeraSans-Roman-65"/>
       <use x="1437.59765625" xlink:href="#BitstreamVeraSans-Roman-73"/>
       <use x="1489.697265625" xlink:href="#BitstreamVeraSans-Roman-5f"/>
       <use x="1539.697265625" xlink:href="#BitstreamVeraSans-Roman-61"/>
       <use x="1600.9765625" xlink:href="#BitstreamVeraSans-Roman-6e"/>
       <use x="1664.35546875" xlink:href="#BitstreamVeraSans-Roman-64"/>
       <use x="1727.83203125" xlink:href="#BitstreamVeraSans-Roman-5f"/>
       <use x="1777.83203125" xlink:href="#BitstreamVeraSans-Roman-74"/>
       <use x="1817.041015625" xlink:href="#BitstreamVeraSans-Roman-72"/>
       <use x="1858.154296875" xlink:href="#BitstreamVeraSans-Roman-61"/>
       <use x="1919.43359375" xlink:href="#BitstreamVeraSans-Roman-64"/>
       <use x="1982.91015625" xlink:href="#BitstreamVeraSans-Roman-65"/>
       <use x="2044.43359375" xlink:href="#BitstreamVeraSans-Roman-73"/>
      </g>
     </g>
    </g>
    <g id="xtick_3">
     <g id="line2d_3">
      <g>
       <use style="stroke:#000000;stroke-width:0.5;" x="1353.97966474" xlink:href="#m2e77c03b0b" y="1068.39"/>
      </g>
     </g>
     <g id="text_3">
      <!-- Health_professions_and_related_technologies -->
      <defs>
       <path d="M 9.8125 72.90625 
L 19.671875 72.90625 
L 19.671875 43.015625 
L 55.515625 43.015625 
L 55.515625 72.90625 
L 65.375 72.90625 
L 65.375 0 
L 55.515625 0 
L 55.515625 34.71875 
L 19.671875 34.71875 
L 19.671875 0 
L 9.8125 0 
z
" id="BitstreamVeraSans-Roman-48"/>
       <path d="M 37.109375 75.984375 
L 37.109375 68.5 
L 28.515625 68.5 
Q 23.6875 68.5 21.796875 66.546875 
Q 19.921875 64.59375 19.921875 59.515625 
L 19.921875 54.6875 
L 34.71875 54.6875 
L 34.71875 47.703125 
L 19.921875 47.703125 
L 19.921875 0 
L 10.890625 0 
L 10.890625 47.703125 
L 2.296875 47.703125 
L 2.296875 54.6875 
L 10.890625 54.6875 
L 10.890625 58.5 
Q 10.890625 67.625 15.140625 71.796875 
Q 19.390625 75.984375 28.609375 75.984375 
z
" id="BitstreamVeraSans-Roman-66"/>
      </defs>
      <g transform="translate(1357.12403974 1346.11375)rotate(-90.0)scale(0.12 -0.12)">
       <use xlink:href="#BitstreamVeraSans-Roman-48"/>
       <use x="75.1953125" xlink:href="#BitstreamVeraSans-Roman-65"/>
       <use x="136.71875" xlink:href="#BitstreamVeraSans-Roman-61"/>
       <use x="197.998046875" xlink:href="#BitstreamVeraSans-Roman-6c"/>
       <use x="225.78125" xlink:href="#BitstreamVeraSans-Roman-74"/>
       <use x="264.990234375" xlink:href="#BitstreamVeraSans-Roman-68"/>
       <use x="328.369140625" xlink:href="#BitstreamVeraSans-Roman-5f"/>
       <use x="378.369140625" xlink:href="#BitstreamVeraSans-Roman-70"/>
       <use x="441.845703125" xlink:href="#BitstreamVeraSans-Roman-72"/>
       <use x="482.927734375" xlink:href="#BitstreamVeraSans-Roman-6f"/>
       <use x="544.109375" xlink:href="#BitstreamVeraSans-Roman-66"/>
       <use x="579.314453125" xlink:href="#BitstreamVeraSans-Roman-65"/>
       <use x="640.837890625" xlink:href="#BitstreamVeraSans-Roman-73"/>
       <use x="692.9375" xlink:href="#BitstreamVeraSans-Roman-73"/>
       <use x="745.037109375" xlink:href="#BitstreamVeraSans-Roman-69"/>
       <use x="772.8203125" xlink:href="#BitstreamVeraSans-Roman-6f"/>
       <use x="834.001953125" xlink:href="#BitstreamVeraSans-Roman-6e"/>
       <use x="897.380859375" xlink:href="#BitstreamVeraSans-Roman-73"/>
       <use x="949.48046875" xlink:href="#BitstreamVeraSans-Roman-5f"/>
       <use x="999.48046875" xlink:href="#BitstreamVeraSans-Roman-61"/>
       <use x="1060.759765625" xlink:href="#BitstreamVeraSans-Roman-6e"/>
       <use x="1124.138671875" xlink:href="#BitstreamVeraSans-Roman-64"/>
       <use x="1187.615234375" xlink:href="#BitstreamVeraSans-Roman-5f"/>
       <use x="1237.615234375" xlink:href="#BitstreamVeraSans-Roman-72"/>
       <use x="1278.697265625" xlink:href="#BitstreamVeraSans-Roman-65"/>
       <use x="1340.220703125" xlink:href="#BitstreamVeraSans-Roman-6c"/>
       <use x="1368.00390625" xlink:href="#BitstreamVeraSans-Roman-61"/>
       <use x="1429.283203125" xlink:href="#BitstreamVeraSans-Roman-74"/>
       <use x="1468.4921875" xlink:href="#BitstreamVeraSans-Roman-65"/>
       <use x="1530.015625" xlink:href="#BitstreamVeraSans-Roman-64"/>
       <use x="1593.4921875" xlink:href="#BitstreamVeraSans-Roman-5f"/>
       <use x="1643.4921875" xlink:href="#BitstreamVeraSans-Roman-74"/>
       <use x="1682.701171875" xlink:href="#BitstreamVeraSans-Roman-65"/>
       <use x="1744.224609375" xlink:href="#BitstreamVeraSans-Roman-63"/>
       <use x="1799.205078125" xlink:href="#BitstreamVeraSans-Roman-68"/>
       <use x="1862.583984375" xlink:href="#BitstreamVeraSans-Roman-6e"/>
       <use x="1925.962890625" xlink:href="#BitstreamVeraSans-Roman-6f"/>
       <use x="1987.14453125" xlink:href="#BitstreamVeraSans-Roman-6c"/>
       <use x="2014.927734375" xlink:href="#BitstreamVeraSans-Roman-6f"/>
       <use x="2076.109375" xlink:href="#BitstreamVeraSans-Roman-67"/>
       <use x="2139.5859375" xlink:href="#BitstreamVeraSans-Roman-69"/>
       <use x="2167.369140625" xlink:href="#BitstreamVeraSans-Roman-65"/>
       <use x="2228.892578125" xlink:href="#BitstreamVeraSans-Roman-73"/>
      </g>
     </g>
    </g>
    <g id="xtick_4">
     <g id="line2d_4">
      <g>
       <use style="stroke:#000000;stroke-width:0.5;" x="1525.44086935" xlink:href="#m2e77c03b0b" y="1068.39"/>
      </g>
     </g>
     <g id="text_4">
      <!-- Humanities_and_related_fields -->
      <g transform="translate(1528.58524435 1256.1025)rotate(-90.0)scale(0.12 -0.12)">
       <use xlink:href="#BitstreamVeraSans-Roman-48"/>
       <use x="75.1953125" xlink:href="#BitstreamVeraSans-Roman-75"/>
       <use x="138.57421875" xlink:href="#BitstreamVeraSans-Roman-6d"/>
       <use x="235.986328125" xlink:href="#BitstreamVeraSans-Roman-61"/>
       <use x="297.265625" xlink:href="#BitstreamVeraSans-Roman-6e"/>
       <use x="360.64453125" xlink:href="#BitstreamVeraSans-Roman-69"/>
       <use x="388.427734375" xlink:href="#BitstreamVeraSans-Roman-74"/>
       <use x="427.63671875" xlink:href="#BitstreamVeraSans-Roman-69"/>
       <use x="455.419921875" xlink:href="#BitstreamVeraSans-Roman-65"/>
       <use x="516.943359375" xlink:href="#BitstreamVeraSans-Roman-73"/>
       <use x="569.04296875" xlink:href="#BitstreamVeraSans-Roman-5f"/>
       <use x="619.04296875" xlink:href="#BitstreamVeraSans-Roman-61"/>
       <use x="680.322265625" xlink:href="#BitstreamVeraSans-Roman-6e"/>
       <use x="743.701171875" xlink:href="#BitstreamVeraSans-Roman-64"/>
       <use x="807.177734375" xlink:href="#BitstreamVeraSans-Roman-5f"/>
       <use x="857.177734375" xlink:href="#BitstreamVeraSans-Roman-72"/>
       <use x="898.259765625" xlink:href="#BitstreamVeraSans-Roman-65"/>
       <use x="959.783203125" xlink:href="#BitstreamVeraSans-Roman-6c"/>
       <use x="987.56640625" xlink:href="#BitstreamVeraSans-Roman-61"/>
       <use x="1048.845703125" xlink:href="#BitstreamVeraSans-Roman-74"/>
       <use x="1088.0546875" xlink:href="#BitstreamVeraSans-Roman-65"/>
       <use x="1149.578125" xlink:href="#BitstreamVeraSans-Roman-64"/>
       <use x="1213.0546875" xlink:href="#BitstreamVeraSans-Roman-5f"/>
       <use x="1263.0546875" xlink:href="#BitstreamVeraSans-Roman-66"/>
       <use x="1298.259765625" xlink:href="#BitstreamVeraSans-Roman-69"/>
       <use x="1326.04296875" xlink:href="#BitstreamVeraSans-Roman-65"/>
       <use x="1387.56640625" xlink:href="#BitstreamVeraSans-Roman-6c"/>
       <use x="1415.349609375" xlink:href="#BitstreamVeraSans-Roman-64"/>
       <use x="1478.826171875" xlink:href="#BitstreamVeraSans-Roman-73"/>
      </g>
     </g>
    </g>
    <g id="xtick_5">
     <g id="line2d_5">
      <g>
       <use style="stroke:#000000;stroke-width:0.5;" x="1124.2924448" xlink:href="#m2e77c03b0b" y="1068.39"/>
      </g>
     </g>
     <g id="text_5">
      <!-- Engineering_and_applied_sciences -->
      <defs>
       <path d="M 9.8125 72.90625 
L 55.90625 72.90625 
L 55.90625 64.59375 
L 19.671875 64.59375 
L 19.671875 43.015625 
L 54.390625 43.015625 
L 54.390625 34.71875 
L 19.671875 34.71875 
L 19.671875 8.296875 
L 56.78125 8.296875 
L 56.78125 0 
L 9.8125 0 
z
" id="BitstreamVeraSans-Roman-45"/>
      </defs>
      <g transform="translate(1127.4368198 1280.633125)rotate(-90.0)scale(0.12 -0.12)">
       <use xlink:href="#BitstreamVeraSans-Roman-45"/>
       <use x="63.18359375" xlink:href="#BitstreamVeraSans-Roman-6e"/>
       <use x="126.5625" xlink:href="#BitstreamVeraSans-Roman-67"/>
       <use x="190.0390625" xlink:href="#BitstreamVeraSans-Roman-69"/>
       <use x="217.822265625" xlink:href="#BitstreamVeraSans-Roman-6e"/>
       <use x="281.201171875" xlink:href="#BitstreamVeraSans-Roman-65"/>
       <use x="342.724609375" xlink:href="#BitstreamVeraSans-Roman-65"/>
       <use x="404.248046875" xlink:href="#BitstreamVeraSans-Roman-72"/>
       <use x="445.361328125" xlink:href="#BitstreamVeraSans-Roman-69"/>
       <use x="473.14453125" xlink:href="#BitstreamVeraSans-Roman-6e"/>
       <use x="536.5234375" xlink:href="#BitstreamVeraSans-Roman-67"/>
       <use x="600.0" xlink:href="#BitstreamVeraSans-Roman-5f"/>
       <use x="650.0" xlink:href="#BitstreamVeraSans-Roman-61"/>
       <use x="711.279296875" xlink:href="#BitstreamVeraSans-Roman-6e"/>
       <use x="774.658203125" xlink:href="#BitstreamVeraSans-Roman-64"/>
       <use x="838.134765625" xlink:href="#BitstreamVeraSans-Roman-5f"/>
       <use x="888.134765625" xlink:href="#BitstreamVeraSans-Roman-61"/>
       <use x="949.4140625" xlink:href="#BitstreamVeraSans-Roman-70"/>
       <use x="1012.890625" xlink:href="#BitstreamVeraSans-Roman-70"/>
       <use x="1076.3671875" xlink:href="#BitstreamVeraSans-Roman-6c"/>
       <use x="1104.150390625" xlink:href="#BitstreamVeraSans-Roman-69"/>
       <use x="1131.93359375" xlink:href="#BitstreamVeraSans-Roman-65"/>
       <use x="1193.45703125" xlink:href="#BitstreamVeraSans-Roman-64"/>
       <use x="1256.93359375" xlink:href="#BitstreamVeraSans-Roman-5f"/>
       <use x="1306.93359375" xlink:href="#BitstreamVeraSans-Roman-73"/>
       <use x="1359.033203125" xlink:href="#BitstreamVeraSans-Roman-63"/>
       <use x="1414.013671875" xlink:href="#BitstreamVeraSans-Roman-69"/>
       <use x="1441.796875" xlink:href="#BitstreamVeraSans-Roman-65"/>
       <use x="1503.3203125" xlink:href="#BitstreamVeraSans-Roman-6e"/>
       <use x="1566.69921875" xlink:href="#BitstreamVeraSans-Roman-63"/>
       <use x="1621.6796875" xlink:href="#BitstreamVeraSans-Roman-65"/>
       <use x="1683.203125" xlink:href="#BitstreamVeraSans-Roman-73"/>
      </g>
     </g>
    </g>
    <g id="xtick_6">
     <g id="line2d_6">
      <g>
       <use style="stroke:#000000;stroke-width:0.5;" x="322.774437672" xlink:href="#m2e77c03b0b" y="1068.39"/>
      </g>
     </g>
     <g id="text_6">
      <!-- Agricultural__biological__nutritional__and_food_sciences -->
      <defs>
       <path d="M 48.6875 27.296875 
Q 48.6875 37.203125 44.609375 42.84375 
Q 40.53125 48.484375 33.40625 48.484375 
Q 26.265625 48.484375 22.1875 42.84375 
Q 18.109375 37.203125 18.109375 27.296875 
Q 18.109375 17.390625 22.1875 11.75 
Q 26.265625 6.109375 33.40625 6.109375 
Q 40.53125 6.109375 44.609375 11.75 
Q 48.6875 17.390625 48.6875 27.296875 
M 18.109375 46.390625 
Q 20.953125 51.265625 25.265625 53.625 
Q 29.59375 56 35.59375 56 
Q 45.5625 56 51.78125 48.09375 
Q 58.015625 40.1875 58.015625 27.296875 
Q 58.015625 14.40625 51.78125 6.484375 
Q 45.5625 -1.421875 35.59375 -1.421875 
Q 29.59375 -1.421875 25.265625 0.953125 
Q 20.953125 3.328125 18.109375 8.203125 
L 18.109375 0 
L 9.078125 0 
L 9.078125 75.984375 
L 18.109375 75.984375 
z
" id="BitstreamVeraSans-Roman-62"/>
      </defs>
      <g transform="translate(325.918812672 1409.5225)rotate(-90.0)scale(0.12 -0.12)">
       <use xlink:href="#BitstreamVeraSans-Roman-41"/>
       <use x="68.408203125" xlink:href="#BitstreamVeraSans-Roman-67"/>
       <use x="131.884765625" xlink:href="#BitstreamVeraSans-Roman-72"/>
       <use x="172.998046875" xlink:href="#BitstreamVeraSans-Roman-69"/>
       <use x="200.78125" xlink:href="#BitstreamVeraSans-Roman-63"/>
       <use x="255.76171875" xlink:href="#BitstreamVeraSans-Roman-75"/>
       <use x="319.140625" xlink:href="#BitstreamVeraSans-Roman-6c"/>
       <use x="346.923828125" xlink:href="#BitstreamVeraSans-Roman-74"/>
       <use x="386.1328125" xlink:href="#BitstreamVeraSans-Roman-75"/>
       <use x="449.51171875" xlink:href="#BitstreamVeraSans-Roman-72"/>
       <use x="490.625" xlink:href="#BitstreamVeraSans-Roman-61"/>
       <use x="551.904296875" xlink:href="#BitstreamVeraSans-Roman-6c"/>
       <use x="579.6875" xlink:href="#BitstreamVeraSans-Roman-5f"/>
       <use x="629.6875" xlink:href="#BitstreamVeraSans-Roman-5f"/>
       <use x="679.6875" xlink:href="#BitstreamVeraSans-Roman-62"/>
       <use x="743.1640625" xlink:href="#BitstreamVeraSans-Roman-69"/>
       <use x="770.947265625" xlink:href="#BitstreamVeraSans-Roman-6f"/>
       <use x="832.12890625" xlink:href="#BitstreamVeraSans-Roman-6c"/>
       <use x="859.912109375" xlink:href="#BitstreamVeraSans-Roman-6f"/>
       <use x="921.09375" xlink:href="#BitstreamVeraSans-Roman-67"/>
       <use x="984.5703125" xlink:href="#BitstreamVeraSans-Roman-69"/>
       <use x="1012.353515625" xlink:href="#BitstreamVeraSans-Roman-63"/>
       <use x="1067.333984375" xlink:href="#BitstreamVeraSans-Roman-61"/>
       <use x="1128.61328125" xlink:href="#BitstreamVeraSans-Roman-6c"/>
       <use x="1156.396484375" xlink:href="#BitstreamVeraSans-Roman-5f"/>
       <use x="1206.396484375" xlink:href="#BitstreamVeraSans-Roman-5f"/>
       <use x="1256.396484375" xlink:href="#BitstreamVeraSans-Roman-6e"/>
       <use x="1319.775390625" xlink:href="#BitstreamVeraSans-Roman-75"/>
       <use x="1383.154296875" xlink:href="#BitstreamVeraSans-Roman-74"/>
       <use x="1422.36328125" xlink:href="#BitstreamVeraSans-Roman-72"/>
       <use x="1463.4765625" xlink:href="#BitstreamVeraSans-Roman-69"/>
       <use x="1491.259765625" xlink:href="#BitstreamVeraSans-Roman-74"/>
       <use x="1530.46875" xlink:href="#BitstreamVeraSans-Roman-69"/>
       <use x="1558.251953125" xlink:href="#BitstreamVeraSans-Roman-6f"/>
       <use x="1619.43359375" xlink:href="#BitstreamVeraSans-Roman-6e"/>
       <use x="1682.8125" xlink:href="#BitstreamVeraSans-Roman-61"/>
       <use x="1744.091796875" xlink:href="#BitstreamVeraSans-Roman-6c"/>
       <use x="1771.875" xlink:href="#BitstreamVeraSans-Roman-5f"/>
       <use x="1821.875" xlink:href="#BitstreamVeraSans-Roman-5f"/>
       <use x="1871.875" xlink:href="#BitstreamVeraSans-Roman-61"/>
       <use x="1933.154296875" xlink:href="#BitstreamVeraSans-Roman-6e"/>
       <use x="1996.533203125" xlink:href="#BitstreamVeraSans-Roman-64"/>
       <use x="2060.009765625" xlink:href="#BitstreamVeraSans-Roman-5f"/>
       <use x="2110.009765625" xlink:href="#BitstreamVeraSans-Roman-66"/>
       <use x="2145.21484375" xlink:href="#BitstreamVeraSans-Roman-6f"/>
       <use x="2206.396484375" xlink:href="#BitstreamVeraSans-Roman-6f"/>
       <use x="2267.578125" xlink:href="#BitstreamVeraSans-Roman-64"/>
       <use x="2331.0546875" xlink:href="#BitstreamVeraSans-Roman-5f"/>
       <use x="2381.0546875" xlink:href="#BitstreamVeraSans-Roman-73"/>
       <use x="2433.154296875" xlink:href="#BitstreamVeraSans-Roman-63"/>
       <use x="2488.134765625" xlink:href="#BitstreamVeraSans-Roman-69"/>
       <use x="2515.91796875" xlink:href="#BitstreamVeraSans-Roman-65"/>
       <use x="2577.44140625" xlink:href="#BitstreamVeraSans-Roman-6e"/>
       <use x="2640.8203125" xlink:href="#BitstreamVeraSans-Roman-63"/>
       <use x="2695.80078125" xlink:href="#BitstreamVeraSans-Roman-65"/>
       <use x="2757.32421875" xlink:href="#BitstreamVeraSans-Roman-73"/>
      </g>
     </g>
    </g>
    <g id="xtick_7">
     <g id="line2d_7">
      <g>
       <use style="stroke:#000000;stroke-width:0.5;" x="858.572911265" xlink:href="#m2e77c03b0b" y="1068.39"/>
      </g>
     </g>
     <g id="text_7">
      <!-- Educational__recreational_and_counselling_services -->
      <defs>
       <path d="M 2.984375 54.6875 
L 12.5 54.6875 
L 29.59375 8.796875 
L 46.6875 54.6875 
L 56.203125 54.6875 
L 35.6875 0 
L 23.484375 0 
z
" id="BitstreamVeraSans-Roman-76"/>
      </defs>
      <g transform="translate(861.717286265 1384.89625)rotate(-90.0)scale(0.12 -0.12)">
       <use xlink:href="#BitstreamVeraSans-Roman-45"/>
       <use x="63.18359375" xlink:href="#BitstreamVeraSans-Roman-64"/>
       <use x="126.66015625" xlink:href="#BitstreamVeraSans-Roman-75"/>
       <use x="190.0390625" xlink:href="#BitstreamVeraSans-Roman-63"/>
       <use x="245.01953125" xlink:href="#BitstreamVeraSans-Roman-61"/>
       <use x="306.298828125" xlink:href="#BitstreamVeraSans-Roman-74"/>
       <use x="345.5078125" xlink:href="#BitstreamVeraSans-Roman-69"/>
       <use x="373.291015625" xlink:href="#BitstreamVeraSans-Roman-6f"/>
       <use x="434.47265625" xlink:href="#BitstreamVeraSans-Roman-6e"/>
       <use x="497.8515625" xlink:href="#BitstreamVeraSans-Roman-61"/>
       <use x="559.130859375" xlink:href="#BitstreamVeraSans-Roman-6c"/>
       <use x="586.9140625" xlink:href="#BitstreamVeraSans-Roman-5f"/>
       <use x="636.9140625" xlink:href="#BitstreamVeraSans-Roman-5f"/>
       <use x="686.9140625" xlink:href="#BitstreamVeraSans-Roman-72"/>
       <use x="727.99609375" xlink:href="#BitstreamVeraSans-Roman-65"/>
       <use x="789.51953125" xlink:href="#BitstreamVeraSans-Roman-63"/>
       <use x="844.5" xlink:href="#BitstreamVeraSans-Roman-72"/>
       <use x="885.58203125" xlink:href="#BitstreamVeraSans-Roman-65"/>
       <use x="947.10546875" xlink:href="#BitstreamVeraSans-Roman-61"/>
       <use x="1008.384765625" xlink:href="#BitstreamVeraSans-Roman-74"/>
       <use x="1047.59375" xlink:href="#BitstreamVeraSans-Roman-69"/>
       <use x="1075.376953125" xlink:href="#BitstreamVeraSans-Roman-6f"/>
       <use x="1136.55859375" xlink:href="#BitstreamVeraSans-Roman-6e"/>
       <use x="1199.9375" xlink:href="#BitstreamVeraSans-Roman-61"/>
       <use x="1261.216796875" xlink:href="#BitstreamVeraSans-Roman-6c"/>
       <use x="1289.0" xlink:href="#BitstreamVeraSans-Roman-5f"/>
       <use x="1339.0" xlink:href="#BitstreamVeraSans-Roman-61"/>
       <use x="1400.279296875" xlink:href="#BitstreamVeraSans-Roman-6e"/>
       <use x="1463.658203125" xlink:href="#BitstreamVeraSans-Roman-64"/>
       <use x="1527.134765625" xlink:href="#BitstreamVeraSans-Roman-5f"/>
       <use x="1577.134765625" xlink:href="#BitstreamVeraSans-Roman-63"/>
       <use x="1632.115234375" xlink:href="#BitstreamVeraSans-Roman-6f"/>
       <use x="1693.296875" xlink:href="#BitstreamVeraSans-Roman-75"/>
       <use x="1756.67578125" xlink:href="#BitstreamVeraSans-Roman-6e"/>
       <use x="1820.0546875" xlink:href="#BitstreamVeraSans-Roman-73"/>
       <use x="1872.154296875" xlink:href="#BitstreamVeraSans-Roman-65"/>
       <use x="1933.677734375" xlink:href="#BitstreamVeraSans-Roman-6c"/>
       <use x="1961.4609375" xlink:href="#BitstreamVeraSans-Roman-6c"/>
       <use x="1989.244140625" xlink:href="#BitstreamVeraSans-Roman-69"/>
       <use x="2017.02734375" xlink:href="#BitstreamVeraSans-Roman-6e"/>
       <use x="2080.40625" xlink:href="#BitstreamVeraSans-Roman-67"/>
       <use x="2143.8828125" xlink:href="#BitstreamVeraSans-Roman-5f"/>
       <use x="2193.8828125" xlink:href="#BitstreamVeraSans-Roman-73"/>
       <use x="2245.982421875" xlink:href="#BitstreamVeraSans-Roman-65"/>
       <use x="2307.505859375" xlink:href="#BitstreamVeraSans-Roman-72"/>
       <use x="2348.619140625" xlink:href="#BitstreamVeraSans-Roman-76"/>
       <use x="2407.798828125" xlink:href="#BitstreamVeraSans-Roman-69"/>
       <use x="2435.58203125" xlink:href="#BitstreamVeraSans-Roman-63"/>
       <use x="2490.5625" xlink:href="#BitstreamVeraSans-Roman-65"/>
       <use x="2552.0859375" xlink:href="#BitstreamVeraSans-Roman-73"/>
      </g>
     </g>
    </g>
    <g id="xtick_8">
     <g id="line2d_8">
      <g>
       <use style="stroke:#000000;stroke-width:0.5;" x="1927.97895357" xlink:href="#m2e77c03b0b" y="1068.39"/>
      </g>
     </g>
     <g id="text_8">
      <!-- Social_sciences_and_related_fields -->
      <defs>
       <path d="M 53.515625 70.515625 
L 53.515625 60.890625 
Q 47.90625 63.578125 42.921875 64.890625 
Q 37.9375 66.21875 33.296875 66.21875 
Q 25.25 66.21875 20.875 63.09375 
Q 16.5 59.96875 16.5 54.203125 
Q 16.5 49.359375 19.40625 46.890625 
Q 22.3125 44.4375 30.421875 42.921875 
L 36.375 41.703125 
Q 47.40625 39.59375 52.65625 34.296875 
Q 57.90625 29 57.90625 20.125 
Q 57.90625 9.515625 50.796875 4.046875 
Q 43.703125 -1.421875 29.984375 -1.421875 
Q 24.8125 -1.421875 18.96875 -0.25 
Q 13.140625 0.921875 6.890625 3.21875 
L 6.890625 13.375 
Q 12.890625 10.015625 18.65625 8.296875 
Q 24.421875 6.59375 29.984375 6.59375 
Q 38.421875 6.59375 43.015625 9.90625 
Q 47.609375 13.234375 47.609375 19.390625 
Q 47.609375 24.75 44.3125 27.78125 
Q 41.015625 30.8125 33.5 32.328125 
L 27.484375 33.5 
Q 16.453125 35.6875 11.515625 40.375 
Q 6.59375 45.0625 6.59375 53.421875 
Q 6.59375 63.09375 13.40625 68.65625 
Q 20.21875 74.21875 32.171875 74.21875 
Q 37.3125 74.21875 42.625 73.28125 
Q 47.953125 72.359375 53.515625 70.515625 
" id="BitstreamVeraSans-Roman-53"/>
      </defs>
      <g transform="translate(1931.12332857 1280.80375)rotate(-90.0)scale(0.12 -0.12)">
       <use xlink:href="#BitstreamVeraSans-Roman-53"/>
       <use x="63.4765625" xlink:href="#BitstreamVeraSans-Roman-6f"/>
       <use x="124.658203125" xlink:href="#BitstreamVeraSans-Roman-63"/>
       <use x="179.638671875" xlink:href="#BitstreamVeraSans-Roman-69"/>
       <use x="207.421875" xlink:href="#BitstreamVeraSans-Roman-61"/>
       <use x="268.701171875" xlink:href="#BitstreamVeraSans-Roman-6c"/>
       <use x="296.484375" xlink:href="#BitstreamVeraSans-Roman-5f"/>
       <use x="346.484375" xlink:href="#BitstreamVeraSans-Roman-73"/>
       <use x="398.583984375" xlink:href="#BitstreamVeraSans-Roman-63"/>
       <use x="453.564453125" xlink:href="#BitstreamVeraSans-Roman-69"/>
       <use x="481.34765625" xlink:href="#BitstreamVeraSans-Roman-65"/>
       <use x="542.87109375" xlink:href="#BitstreamVeraSans-Roman-6e"/>
       <use x="606.25" xlink:href="#BitstreamVeraSans-Roman-63"/>
       <use x="661.23046875" xlink:href="#BitstreamVeraSans-Roman-65"/>
       <use x="722.75390625" xlink:href="#BitstreamVeraSans-Roman-73"/>
       <use x="774.853515625" xlink:href="#BitstreamVeraSans-Roman-5f"/>
       <use x="824.853515625" xlink:href="#BitstreamVeraSans-Roman-61"/>
       <use x="886.1328125" xlink:href="#BitstreamVeraSans-Roman-6e"/>
       <use x="949.51171875" xlink:href="#BitstreamVeraSans-Roman-64"/>
       <use x="1012.98828125" xlink:href="#BitstreamVeraSans-Roman-5f"/>
       <use x="1062.98828125" xlink:href="#BitstreamVeraSans-Roman-72"/>
       <use x="1104.0703125" xlink:href="#BitstreamVeraSans-Roman-65"/>
       <use x="1165.59375" xlink:href="#BitstreamVeraSans-Roman-6c"/>
       <use x="1193.376953125" xlink:href="#BitstreamVeraSans-Roman-61"/>
       <use x="1254.65625" xlink:href="#BitstreamVeraSans-Roman-74"/>
       <use x="1293.865234375" xlink:href="#BitstreamVeraSans-Roman-65"/>
       <use x="1355.388671875" xlink:href="#BitstreamVeraSans-Roman-64"/>
       <use x="1418.865234375" xlink:href="#BitstreamVeraSans-Roman-5f"/>
       <use x="1468.865234375" xlink:href="#BitstreamVeraSans-Roman-66"/>
       <use x="1504.0703125" xlink:href="#BitstreamVeraSans-Roman-69"/>
       <use x="1531.853515625" xlink:href="#BitstreamVeraSans-Roman-65"/>
       <use x="1593.376953125" xlink:href="#BitstreamVeraSans-Roman-6c"/>
       <use x="1621.16015625" xlink:href="#BitstreamVeraSans-Roman-64"/>
       <use x="1684.63671875" xlink:href="#BitstreamVeraSans-Roman-73"/>
      </g>
     </g>
    </g>
    <g id="xtick_9">
     <g id="line2d_9">
      <g>
       <use style="stroke:#000000;stroke-width:0.5;" x="1253.82994316" xlink:href="#m2e77c03b0b" y="1068.39"/>
      </g>
     </g>
     <g id="text_9">
      <!-- Fine_and_applied_arts -->
      <defs>
       <path d="M 9.8125 72.90625 
L 51.703125 72.90625 
L 51.703125 64.59375 
L 19.671875 64.59375 
L 19.671875 43.109375 
L 48.578125 43.109375 
L 48.578125 34.8125 
L 19.671875 34.8125 
L 19.671875 0 
L 9.8125 0 
z
" id="BitstreamVeraSans-Roman-46"/>
      </defs>
      <g transform="translate(1256.97431816 1205.68)rotate(-90.0)scale(0.12 -0.12)">
       <use xlink:href="#BitstreamVeraSans-Roman-46"/>
       <use x="57.41015625" xlink:href="#BitstreamVeraSans-Roman-69"/>
       <use x="85.193359375" xlink:href="#BitstreamVeraSans-Roman-6e"/>
       <use x="148.572265625" xlink:href="#BitstreamVeraSans-Roman-65"/>
       <use x="210.095703125" xlink:href="#BitstreamVeraSans-Roman-5f"/>
       <use x="260.095703125" xlink:href="#BitstreamVeraSans-Roman-61"/>
       <use x="321.375" xlink:href="#BitstreamVeraSans-Roman-6e"/>
       <use x="384.75390625" xlink:href="#BitstreamVeraSans-Roman-64"/>
       <use x="448.23046875" xlink:href="#BitstreamVeraSans-Roman-5f"/>
       <use x="498.23046875" xlink:href="#BitstreamVeraSans-Roman-61"/>
       <use x="559.509765625" xlink:href="#BitstreamVeraSans-Roman-70"/>
       <use x="622.986328125" xlink:href="#BitstreamVeraSans-Roman-70"/>
       <use x="686.462890625" xlink:href="#BitstreamVeraSans-Roman-6c"/>
       <use x="714.24609375" xlink:href="#BitstreamVeraSans-Roman-69"/>
       <use x="742.029296875" xlink:href="#BitstreamVeraSans-Roman-65"/>
       <use x="803.552734375" xlink:href="#BitstreamVeraSans-Roman-64"/>
       <use x="867.029296875" xlink:href="#BitstreamVeraSans-Roman-5f"/>
       <use x="917.029296875" xlink:href="#BitstreamVeraSans-Roman-61"/>
       <use x="978.30859375" xlink:href="#BitstreamVeraSans-Roman-72"/>
       <use x="1019.421875" xlink:href="#BitstreamVeraSans-Roman-74"/>
       <use x="1058.630859375" xlink:href="#BitstreamVeraSans-Roman-73"/>
      </g>
     </g>
    </g>
    <g id="xtick_10">
     <g id="line2d_10">
      <g>
       <use style="stroke:#000000;stroke-width:0.5;" x="539.349174248" xlink:href="#m2e77c03b0b" y="1068.39"/>
      </g>
     </g>
     <g id="text_10">
      <!-- Commerce__management_and_business_administration -->
      <defs>
       <path d="M 64.40625 67.28125 
L 64.40625 56.890625 
Q 59.421875 61.53125 53.78125 63.8125 
Q 48.140625 66.109375 41.796875 66.109375 
Q 29.296875 66.109375 22.65625 58.46875 
Q 16.015625 50.828125 16.015625 36.375 
Q 16.015625 21.96875 22.65625 14.328125 
Q 29.296875 6.6875 41.796875 6.6875 
Q 48.140625 6.6875 53.78125 8.984375 
Q 59.421875 11.28125 64.40625 15.921875 
L 64.40625 5.609375 
Q 59.234375 2.09375 53.4375 0.328125 
Q 47.65625 -1.421875 41.21875 -1.421875 
Q 24.65625 -1.421875 15.125 8.703125 
Q 5.609375 18.84375 5.609375 36.375 
Q 5.609375 53.953125 15.125 64.078125 
Q 24.65625 74.21875 41.21875 74.21875 
Q 47.75 74.21875 53.53125 72.484375 
Q 59.328125 70.75 64.40625 67.28125 
" id="BitstreamVeraSans-Roman-43"/>
      </defs>
      <g transform="translate(542.493549248 1410.206875)rotate(-90.0)scale(0.12 -0.12)">
       <use xlink:href="#BitstreamVeraSans-Roman-43"/>
       <use x="69.82421875" xlink:href="#BitstreamVeraSans-Roman-6f"/>
       <use x="131.005859375" xlink:href="#BitstreamVeraSans-Roman-6d"/>
       <use x="228.41796875" xlink:href="#BitstreamVeraSans-Roman-6d"/>
       <use x="325.830078125" xlink:href="#BitstreamVeraSans-Roman-65"/>
       <use x="387.353515625" xlink:href="#BitstreamVeraSans-Roman-72"/>
       <use x="428.435546875" xlink:href="#BitstreamVeraSans-Roman-63"/>
       <use x="483.416015625" xlink:href="#BitstreamVeraSans-Roman-65"/>
       <use x="544.939453125" xlink:href="#BitstreamVeraSans-Roman-5f"/>
       <use x="594.939453125" xlink:href="#BitstreamVeraSans-Roman-5f"/>
       <use x="644.939453125" xlink:href="#BitstreamVeraSans-Roman-6d"/>
       <use x="742.3515625" xlink:href="#BitstreamVeraSans-Roman-61"/>
       <use x="803.630859375" xlink:href="#BitstreamVeraSans-Roman-6e"/>
       <use x="867.009765625" xlink:href="#BitstreamVeraSans-Roman-61"/>
       <use x="928.2890625" xlink:href="#BitstreamVeraSans-Roman-67"/>
       <use x="991.765625" xlink:href="#BitstreamVeraSans-Roman-65"/>
       <use x="1053.2890625" xlink:href="#BitstreamVeraSans-Roman-6d"/>
       <use x="1150.701171875" xlink:href="#BitstreamVeraSans-Roman-65"/>
       <use x="1212.224609375" xlink:href="#BitstreamVeraSans-Roman-6e"/>
       <use x="1275.603515625" xlink:href="#BitstreamVeraSans-Roman-74"/>
       <use x="1314.8125" xlink:href="#BitstreamVeraSans-Roman-5f"/>
       <use x="1364.8125" xlink:href="#BitstreamVeraSans-Roman-61"/>
       <use x="1426.091796875" xlink:href="#BitstreamVeraSans-Roman-6e"/>
       <use x="1489.470703125" xlink:href="#BitstreamVeraSans-Roman-64"/>
       <use x="1552.947265625" xlink:href="#BitstreamVeraSans-Roman-5f"/>
       <use x="1602.947265625" xlink:href="#BitstreamVeraSans-Roman-62"/>
       <use x="1666.423828125" xlink:href="#BitstreamVeraSans-Roman-75"/>
       <use x="1729.802734375" xlink:href="#BitstreamVeraSans-Roman-73"/>
       <use x="1781.90234375" xlink:href="#BitstreamVeraSans-Roman-69"/>
       <use x="1809.685546875" xlink:href="#BitstreamVeraSans-Roman-6e"/>
       <use x="1873.064453125" xlink:href="#BitstreamVeraSans-Roman-65"/>
       <use x="1934.587890625" xlink:href="#BitstreamVeraSans-Roman-73"/>
       <use x="1986.6875" xlink:href="#BitstreamVeraSans-Roman-73"/>
       <use x="2038.787109375" xlink:href="#BitstreamVeraSans-Roman-5f"/>
       <use x="2088.787109375" xlink:href="#BitstreamVeraSans-Roman-61"/>
       <use x="2150.06640625" xlink:href="#BitstreamVeraSans-Roman-64"/>
       <use x="2213.54296875" xlink:href="#BitstreamVeraSans-Roman-6d"/>
       <use x="2310.955078125" xlink:href="#BitstreamVeraSans-Roman-69"/>
       <use x="2338.73828125" xlink:href="#BitstreamVeraSans-Roman-6e"/>
       <use x="2402.1171875" xlink:href="#BitstreamVeraSans-Roman-69"/>
       <use x="2429.900390625" xlink:href="#BitstreamVeraSans-Roman-73"/>
       <use x="2482.0" xlink:href="#BitstreamVeraSans-Roman-74"/>
       <use x="2521.208984375" xlink:href="#BitstreamVeraSans-Roman-72"/>
       <use x="2562.322265625" xlink:href="#BitstreamVeraSans-Roman-61"/>
       <use x="2623.6015625" xlink:href="#BitstreamVeraSans-Roman-74"/>
       <use x="2662.810546875" xlink:href="#BitstreamVeraSans-Roman-69"/>
       <use x="2690.59375" xlink:href="#BitstreamVeraSans-Roman-6f"/>
       <use x="2751.775390625" xlink:href="#BitstreamVeraSans-Roman-6e"/>
      </g>
     </g>
    </g>
   </g>
   <g id="matplotlib.axis_2">
    <g id="ytick_1">
     <g id="line2d_11">
      <defs>
       <path d="M 0 0 
L 4 0 
" id="m7baf4a0008" style="stroke:#000000;stroke-width:0.5;"/>
      </defs>
      <g>
       <use style="stroke:#000000;stroke-width:0.5;" x="288.0" xlink:href="#m7baf4a0008" y="786.360548196"/>
      </g>
     </g>
     <g id="text_11">
      <!-- False -->
      <g transform="translate(281.504375 801.964298196)rotate(-90.0)scale(0.12 -0.12)">
       <use xlink:href="#BitstreamVeraSans-Roman-46"/>
       <use x="57.37890625" xlink:href="#BitstreamVeraSans-Roman-61"/>
       <use x="118.658203125" xlink:href="#BitstreamVeraSans-Roman-6c"/>
       <use x="146.44140625" xlink:href="#BitstreamVeraSans-Roman-73"/>
       <use x="198.541015625" xlink:href="#BitstreamVeraSans-Roman-65"/>
      </g>
     </g>
    </g>
    <g id="ytick_2">
     <g id="line2d_12">
      <g>
       <use style="stroke:#000000;stroke-width:0.5;" x="288.0" xlink:href="#m7baf4a0008" y="309.943006668"/>
      </g>
     </g>
     <g id="text_12">
      <!-- True -->
      <defs>
       <path d="M -0.296875 72.90625 
L 61.375 72.90625 
L 61.375 64.59375 
L 35.5 64.59375 
L 35.5 0 
L 25.59375 0 
L 25.59375 64.59375 
L -0.296875 64.59375 
z
" id="BitstreamVeraSans-Roman-54"/>
      </defs>
      <g transform="translate(281.504375 323.555506668)rotate(-90.0)scale(0.12 -0.12)">
       <use xlink:href="#BitstreamVeraSans-Roman-54"/>
       <use x="60.865234375" xlink:href="#BitstreamVeraSans-Roman-72"/>
       <use x="101.978515625" xlink:href="#BitstreamVeraSans-Roman-75"/>
       <use x="165.357421875" xlink:href="#BitstreamVeraSans-Roman-65"/>
      </g>
     </g>
    </g>
   </g>
   <g id="text_13">
    <!-- mfs -->
    <g transform="translate(1167.501375 113.71)scale(0.144 -0.144)">
     <use xlink:href="#BitstreamVeraSans-Roman-6d"/>
     <use x="97.412109375" xlink:href="#BitstreamVeraSans-Roman-66"/>
     <use x="132.6171875" xlink:href="#BitstreamVeraSans-Roman-73"/>
    </g>
   </g>
  </g>
  <g id="axes_2">
   <g id="patch_27">
    <path d="M 288 118.71 
L 2073.6 118.71 
" style="fill:none;stroke:#000000;stroke-linecap:square;stroke-linejoin:miter;"/>
   </g>
   <g id="patch_28">
    <path d="M 288 1068.39 
L 288 118.71 
" style="fill:none;stroke:#000000;stroke-linecap:square;stroke-linejoin:miter;"/>
   </g>
   <g id="patch_29">
    <path d="M 2073.6 1068.39 
L 2073.6 118.71 
" style="fill:none;stroke:#000000;stroke-linecap:square;stroke-linejoin:miter;"/>
   </g>
   <g id="patch_30">
    <path d="M 288 1068.39 
L 2073.6 1068.39 
" style="fill:none;stroke:#000000;stroke-linecap:square;stroke-linejoin:miter;"/>
   </g>
   <g id="matplotlib.axis_3"/>
  </g>
  <g id="axes_3">
   <g id="patch_31">
    <path d="M 288 118.71 
L 2073.6 118.71 
" style="fill:none;stroke:#000000;stroke-linecap:square;stroke-linejoin:miter;"/>
   </g>
   <g id="patch_32">
    <path d="M 288 1068.39 
L 288 118.71 
" style="fill:none;stroke:#000000;stroke-linecap:square;stroke-linejoin:miter;"/>
   </g>
   <g id="patch_33">
    <path d="M 2073.6 1068.39 
L 2073.6 118.71 
" style="fill:none;stroke:#000000;stroke-linecap:square;stroke-linejoin:miter;"/>
   </g>
   <g id="patch_34">
    <path d="M 288 1068.39 
L 2073.6 1068.39 
" style="fill:none;stroke:#000000;stroke-linecap:square;stroke-linejoin:miter;"/>
   </g>
   <g id="matplotlib.axis_4"/>
  </g>
 </g>
 <defs>
  <clipPath id="p0cbb20ce2e">
   <rect height="949.68" width="1785.6" x="288.0" y="118.71"/>
  </clipPath>
 </defs>
</svg>
