<?xml version="1.0" encoding="utf-8" standalone="no"?>
<!DOCTYPE svg PUBLIC "-//W3C//DTD SVG 1.1//EN"
  "http://www.w3.org/Graphics/SVG/1.1/DTD/svg11.dtd">
<!-- Created with matplotlib (http://matplotlib.org/) -->
<svg height="1187pt" version="1.1" viewBox="0 0 2304 1187" width="2304pt" xmlns="http://www.w3.org/2000/svg" xmlns:xlink="http://www.w3.org/1999/xlink">
 <defs>
  <style type="text/css">
*{stroke-linecap:butt;stroke-linejoin:round;stroke-miterlimit:100000;}
  </style>
 </defs>
 <g id="figure_1">
  <g id="patch_1">
   <path d="M 0 1187.1 
L 2304 1187.1 
L 2304 0 
L 0 0 
z
" style="fill:#ffffff;"/>
  </g>
  <g id="axes_1">
   <g id="patch_2">
    <path d="M 288 1068.39 
L 2073.6 1068.39 
L 2073.6 118.71 
L 288 118.71 
z
" style="fill:#ffffff;"/>
   </g>
   <g id="patch_3">
    <path clip-path="url(#p073b31d74d)" d="M 288 1068.39 
L 403.674929 1068.39 
L 403.674929 440.084737 
L 288 440.084737 
z
" style="fill:#804040;"/>
   </g>
   <g id="patch_4">
    <path clip-path="url(#p073b31d74d)" d="M 288 436.929653 
L 403.674929 436.929653 
L 403.674929 118.71 
L 288 118.71 
z
" style="fill:#802020;"/>
   </g>
   <g id="patch_5">
    <path clip-path="url(#p073b31d74d)" d="M 409.962253 1068.39 
L 410.39867 1068.39 
L 410.39867 384.788671 
L 409.962253 384.788671 
z
" style="fill:#804440;"/>
   </g>
   <g id="patch_6">
    <path clip-path="url(#p073b31d74d)" d="M 409.962253 381.633588 
L 410.39867 381.633588 
L 410.39867 118.71 
L 409.962253 118.71 
z
" style="fill:#802720;"/>
   </g>
   <g id="patch_7">
    <path clip-path="url(#p073b31d74d)" d="M 416.685994 1068.39 
L 417.316375 1068.39 
L 417.316375 340.29391 
L 416.685994 340.29391 
z
" style="fill:#804940;"/>
   </g>
   <g id="patch_8">
    <path clip-path="url(#p073b31d74d)" d="M 416.685994 337.138827 
L 417.316375 337.138827 
L 417.316375 118.71 
L 416.685994 118.71 
z
" style="fill:#802d20;"/>
   </g>
   <g id="patch_9">
    <path clip-path="url(#p073b31d74d)" d="M 423.603699 1068.39 
L 424.23408 1068.39 
L 424.23408 158.269888 
L 423.603699 158.269888 
z
" style="fill:#804d40;"/>
   </g>
   <g id="patch_10">
    <path clip-path="url(#p073b31d74d)" d="M 423.603699 155.114804 
L 424.23408 155.114804 
L 424.23408 118.71 
L 423.603699 118.71 
z
" style="fill:#803420;"/>
   </g>
   <g id="patch_11">
    <path clip-path="url(#p073b31d74d)" d="M 430.521404 1068.39 
L 431.563958 1068.39 
L 431.563958 319.974949 
L 430.521404 319.974949 
z
" style="fill:#805240;"/>
   </g>
   <g id="patch_12">
    <path clip-path="url(#p073b31d74d)" d="M 430.521404 316.819866 
L 431.563958 316.819866 
L 431.563958 118.71 
L 430.521404 118.71 
z
" style="fill:#803b20;"/>
   </g>
   <g id="patch_13">
    <path clip-path="url(#p073b31d74d)" d="M 437.851282 1068.39 
L 439.76667 1068.39 
L 439.76667 349.510316 
L 437.851282 349.510316 
z
" style="fill:#805640;"/>
   </g>
   <g id="patch_14">
    <path clip-path="url(#p073b31d74d)" d="M 437.851282 346.355233 
L 439.76667 346.355233 
L 439.76667 118.71 
L 437.851282 118.71 
z
" style="fill:#804120;"/>
   </g>
   <g id="patch_15">
    <path clip-path="url(#p073b31d74d)" d="M 446.053994 1068.39 
L 447.096548 1068.39 
L 447.096548 341.987157 
L 446.053994 341.987157 
z
" style="fill:#805a40;"/>
   </g>
   <g id="patch_16">
    <path clip-path="url(#p073b31d74d)" d="M 446.053994 338.832074 
L 447.096548 338.832074 
L 447.096548 118.71 
L 446.053994 118.71 
z
" style="fill:#804820;"/>
   </g>
   <g id="patch_17">
    <path clip-path="url(#p073b31d74d)" d="M 453.383872 1068.39 
L 454.305198 1068.39 
L 454.305198 370.950588 
L 453.383872 370.950588 
z
" style="fill:#805f40;"/>
   </g>
   <g id="patch_18">
    <path clip-path="url(#p073b31d74d)" d="M 453.383872 367.795504 
L 454.305198 367.795504 
L 454.305198 118.71 
L 453.383872 118.71 
z
" style="fill:#804f20;"/>
   </g>
   <g id="patch_19">
    <path clip-path="url(#p073b31d74d)" d="M 460.592522 1068.39 
L 462.895837 1068.39 
L 462.895837 450.657949 
L 460.592522 450.657949 
z
" style="fill:#806340;"/>
   </g>
   <g id="patch_20">
    <path clip-path="url(#p073b31d74d)" d="M 460.592522 447.502866 
L 462.895837 447.502866 
L 462.895837 118.71 
L 460.592522 118.71 
z
" style="fill:#805520;"/>
   </g>
   <g id="patch_21">
    <path clip-path="url(#p073b31d74d)" d="M 469.183161 1068.39 
L 469.765051 1068.39 
L 469.765051 397.93485 
L 469.183161 397.93485 
z
" style="fill:#806840;"/>
   </g>
   <g id="patch_22">
    <path clip-path="url(#p073b31d74d)" d="M 469.183161 394.779767 
L 469.765051 394.779767 
L 469.765051 118.71 
L 469.183161 118.71 
z
" style="fill:#805c20;"/>
   </g>
   <g id="patch_23">
    <path clip-path="url(#p073b31d74d)" d="M 476.052375 1068.39 
L 480.974197 1068.39 
L 480.974197 373.650036 
L 476.052375 373.650036 
z
" style="fill:#806c40;"/>
   </g>
   <g id="patch_24">
    <path clip-path="url(#p073b31d74d)" d="M 476.052375 370.494953 
L 480.974197 370.494953 
L 480.974197 118.71 
L 476.052375 118.71 
z
" style="fill:#806320;"/>
   </g>
   <g id="patch_25">
    <path clip-path="url(#p073b31d74d)" d="M 487.261521 1068.39 
L 487.503975 1068.39 
L 487.503975 500.47505 
L 487.261521 500.47505 
z
" style="fill:#807140;"/>
   </g>
   <g id="patch_26">
    <path clip-path="url(#p073b31d74d)" d="M 487.261521 497.319967 
L 487.503975 497.319967 
L 487.503975 118.71 
L 487.261521 118.71 
z
" style="fill:#806920;"/>
   </g>
   <g id="patch_27">
    <path clip-path="url(#p073b31d74d)" d="M 493.791299 1068.39 
L 495.585461 1068.39 
L 495.585461 326.519119 
L 493.791299 326.519119 
z
" style="fill:#807540;"/>
   </g>
   <g id="patch_28">
    <path clip-path="url(#p073b31d74d)" d="M 493.791299 323.364036 
L 495.585461 323.364036 
L 495.585461 118.71 
L 493.791299 118.71 
z
" style="fill:#807020;"/>
   </g>
   <g id="patch_29">
    <path clip-path="url(#p073b31d74d)" d="M 501.872785 1068.39 
L 502.090993 1068.39 
L 502.090993 121.865083 
L 501.872785 121.865083 
z
" style="fill:#807a40;"/>
   </g>
   <g id="patch_30">
    <path clip-path="url(#p073b31d74d)" d="M 501.872785 118.71 
L 502.090993 118.71 
L 502.090993 118.71 
L 501.872785 118.71 
z
" style="fill:#807720;"/>
   </g>
   <g id="patch_31">
    <path clip-path="url(#p073b31d74d)" d="M 508.378317 1068.39 
L 509.493607 1068.39 
L 509.493607 265.901483 
L 508.378317 265.901483 
z
" style="fill:#807e40;"/>
   </g>
   <g id="patch_32">
    <path clip-path="url(#p073b31d74d)" d="M 508.378317 262.7464 
L 509.493607 262.7464 
L 509.493607 118.71 
L 508.378317 118.71 
z
" style="fill:#807d20;"/>
   </g>
   <g id="patch_33">
    <path clip-path="url(#p073b31d74d)" d="M 515.780931 1068.39 
L 520.339071 1068.39 
L 520.339071 298.079828 
L 515.780931 298.079828 
z
" style="fill:#7d8040;"/>
   </g>
   <g id="patch_34">
    <path clip-path="url(#p073b31d74d)" d="M 515.780931 294.924745 
L 520.339071 294.924745 
L 520.339071 118.71 
L 515.780931 118.71 
z
" style="fill:#7b8020;"/>
   </g>
   <g id="patch_35">
    <path clip-path="url(#p073b31d74d)" d="M 526.626395 1068.39 
L 529.511601 1068.39 
L 529.511601 280.944901 
L 526.626395 280.944901 
z
" style="fill:#788040;"/>
   </g>
   <g id="patch_36">
    <path clip-path="url(#p073b31d74d)" d="M 526.626395 277.789818 
L 529.511601 277.789818 
L 529.511601 118.71 
L 526.626395 118.71 
z
" style="fill:#748020;"/>
   </g>
   <g id="patch_37">
    <path clip-path="url(#p073b31d74d)" d="M 535.798925 1068.39 
L 536.308079 1068.39 
L 536.308079 212.010313 
L 535.798925 212.010313 
z
" style="fill:#748040;"/>
   </g>
   <g id="patch_38">
    <path clip-path="url(#p073b31d74d)" d="M 535.798925 208.85523 
L 536.308079 208.85523 
L 536.308079 118.71 
L 535.798925 118.71 
z
" style="fill:#6e8020;"/>
   </g>
   <g id="patch_39">
    <path clip-path="url(#p073b31d74d)" d="M 542.595402 1068.39 
L 544.632018 1068.39 
L 544.632018 257.082928 
L 542.595402 257.082928 
z
" style="fill:#6f8040;"/>
   </g>
   <g id="patch_40">
    <path clip-path="url(#p073b31d74d)" d="M 542.595402 253.927845 
L 544.632018 253.927845 
L 544.632018 118.71 
L 542.595402 118.71 
z
" style="fill:#678020;"/>
   </g>
   <g id="patch_41">
    <path clip-path="url(#p073b31d74d)" d="M 550.919342 1068.39 
L 551.234533 1068.39 
L 551.234533 194.674692 
L 550.919342 194.674692 
z
" style="fill:#6b8040;"/>
   </g>
   <g id="patch_42">
    <path clip-path="url(#p073b31d74d)" d="M 550.919342 191.519609 
L 551.234533 191.519609 
L 551.234533 118.71 
L 550.919342 118.71 
z
" style="fill:#608020;"/>
   </g>
   <g id="patch_43">
    <path clip-path="url(#p073b31d74d)" d="M 557.521857 1068.39 
L 571.099295 1068.39 
L 571.099295 299.338505 
L 557.521857 299.338505 
z
" style="fill:#668040;"/>
   </g>
   <g id="patch_44">
    <path clip-path="url(#p073b31d74d)" d="M 557.521857 296.183422 
L 571.099295 296.183422 
L 571.099295 118.71 
L 557.521857 118.71 
z
" style="fill:#5a8020;"/>
   </g>
   <g id="patch_45">
    <path clip-path="url(#p073b31d74d)" d="M 577.386619 1068.39 
L 579.762671 1068.39 
L 579.762671 286.058181 
L 577.386619 286.058181 
z
" style="fill:#628040;"/>
   </g>
   <g id="patch_46">
    <path clip-path="url(#p073b31d74d)" d="M 577.386619 282.903098 
L 579.762671 282.903098 
L 579.762671 118.71 
L 577.386619 118.71 
z
" style="fill:#538020;"/>
   </g>
   <g id="patch_47">
    <path clip-path="url(#p073b31d74d)" d="M 586.049995 1068.39 
L 587.480475 1068.39 
L 587.480475 234.164649 
L 586.049995 234.164649 
z
" style="fill:#5d8040;"/>
   </g>
   <g id="patch_48">
    <path clip-path="url(#p073b31d74d)" d="M 586.049995 231.009566 
L 587.480475 231.009566 
L 587.480475 118.71 
L 586.049995 118.71 
z
" style="fill:#4c8020;"/>
   </g>
   <g id="patch_49">
    <path clip-path="url(#p073b31d74d)" d="M 593.767799 1068.39 
L 595.392243 1068.39 
L 595.392243 178.374033 
L 593.767799 178.374033 
z
" style="fill:#598040;"/>
   </g>
   <g id="patch_50">
    <path clip-path="url(#p073b31d74d)" d="M 593.767799 175.21895 
L 595.392243 175.21895 
L 595.392243 118.71 
L 593.767799 118.71 
z
" style="fill:#468020;"/>
   </g>
   <g id="patch_51">
    <path clip-path="url(#p073b31d74d)" d="M 601.679567 1068.39 
L 608.274323 1068.39 
L 608.274323 295.858634 
L 601.679567 295.858634 
z
" style="fill:#558040;"/>
   </g>
   <g id="patch_52">
    <path clip-path="url(#p073b31d74d)" d="M 601.679567 292.703551 
L 608.274323 292.703551 
L 608.274323 118.71 
L 601.679567 118.71 
z
" style="fill:#3f8020;"/>
   </g>
   <g id="patch_53">
    <path clip-path="url(#p073b31d74d)" d="M 614.561647 1068.39 
L 623.435473 1068.39 
L 623.435473 352.030978 
L 614.561647 352.030978 
z
" style="fill:#508040;"/>
   </g>
   <g id="patch_54">
    <path clip-path="url(#p073b31d74d)" d="M 614.561647 348.875895 
L 623.435473 348.875895 
L 623.435473 118.71 
L 614.561647 118.71 
z
" style="fill:#388020;"/>
   </g>
   <g id="patch_55">
    <path clip-path="url(#p073b31d74d)" d="M 629.722797 1068.39 
L 630.716859 1068.39 
L 630.716859 283.466898 
L 629.722797 283.466898 
z
" style="fill:#4c8040;"/>
   </g>
   <g id="patch_56">
    <path clip-path="url(#p073b31d74d)" d="M 629.722797 280.311815 
L 630.716859 280.311815 
L 630.716859 118.71 
L 629.722797 118.71 
z
" style="fill:#328020;"/>
   </g>
   <g id="patch_57">
    <path clip-path="url(#p073b31d74d)" d="M 637.004183 1068.39 
L 638.531645 1068.39 
L 638.531645 257.082928 
L 637.004183 257.082928 
z
" style="fill:#478040;"/>
   </g>
   <g id="patch_58">
    <path clip-path="url(#p073b31d74d)" d="M 637.004183 253.927845 
L 638.531645 253.927845 
L 638.531645 118.71 
L 637.004183 118.71 
z
" style="fill:#2b8020;"/>
   </g>
   <g id="patch_59">
    <path clip-path="url(#p073b31d74d)" d="M 644.818969 1068.39 
L 651.340988 1068.39 
L 651.340988 311.873802 
L 644.818969 311.873802 
z
" style="fill:#438040;"/>
   </g>
   <g id="patch_60">
    <path clip-path="url(#p073b31d74d)" d="M 644.818969 308.718719 
L 651.340988 308.718719 
L 651.340988 118.71 
L 644.818969 118.71 
z
" style="fill:#248020;"/>
   </g>
   <g id="patch_61">
    <path clip-path="url(#p073b31d74d)" d="M 657.628312 1068.39 
L 658.525393 1068.39 
L 658.525393 249.773856 
L 657.628312 249.773856 
z
" style="fill:#408041;"/>
   </g>
   <g id="patch_62">
    <path clip-path="url(#p073b31d74d)" d="M 657.628312 246.618773 
L 658.525393 246.618773 
L 658.525393 118.71 
L 657.628312 118.71 
z
" style="fill:#208022;"/>
   </g>
   <g id="patch_63">
    <path clip-path="url(#p073b31d74d)" d="M 664.812717 1068.39 
L 689.785506 1068.39 
L 689.785506 396.632996 
L 664.812717 396.632996 
z
" style="fill:#408046;"/>
   </g>
   <g id="patch_64">
    <path clip-path="url(#p073b31d74d)" d="M 664.812717 393.477913 
L 689.785506 393.477913 
L 689.785506 118.71 
L 664.812717 118.71 
z
" style="fill:#208029;"/>
   </g>
   <g id="patch_65">
    <path clip-path="url(#p073b31d74d)" d="M 696.07283 1068.39 
L 697.091138 1068.39 
L 697.091138 324.691851 
L 696.07283 324.691851 
z
" style="fill:#40804a;"/>
   </g>
   <g id="patch_66">
    <path clip-path="url(#p073b31d74d)" d="M 696.07283 321.536768 
L 697.091138 321.536768 
L 697.091138 118.71 
L 696.07283 118.71 
z
" style="fill:#20802f;"/>
   </g>
   <g id="patch_67">
    <path clip-path="url(#p073b31d74d)" d="M 703.378462 1068.39 
L 715.161739 1068.39 
L 715.161739 427.635478 
L 703.378462 427.635478 
z
" style="fill:#40804f;"/>
   </g>
   <g id="patch_68">
    <path clip-path="url(#p073b31d74d)" d="M 703.378462 424.480395 
L 715.161739 424.480395 
L 715.161739 118.71 
L 703.378462 118.71 
z
" style="fill:#208036;"/>
   </g>
   <g id="patch_69">
    <path clip-path="url(#p073b31d74d)" d="M 721.449063 1068.39 
L 724.69795 1068.39 
L 724.69795 340.837265 
L 721.449063 340.837265 
z
" style="fill:#408053;"/>
   </g>
   <g id="patch_70">
    <path clip-path="url(#p073b31d74d)" d="M 721.449063 337.682182 
L 724.69795 337.682182 
L 724.69795 118.71 
L 721.449063 118.71 
z
" style="fill:#20803d;"/>
   </g>
   <g id="patch_71">
    <path clip-path="url(#p073b31d74d)" d="M 730.985274 1068.39 
L 733.385571 1068.39 
L 733.385571 427.812531 
L 730.985274 427.812531 
z
" style="fill:#408057;"/>
   </g>
   <g id="patch_72">
    <path clip-path="url(#p073b31d74d)" d="M 730.985274 424.657448 
L 733.385571 424.657448 
L 733.385571 118.71 
L 730.985274 118.71 
z
" style="fill:#208043;"/>
   </g>
   <g id="patch_73">
    <path clip-path="url(#p073b31d74d)" d="M 739.672895 1068.39 
L 841.770385 1068.39 
L 841.770385 474.086538 
L 739.672895 474.086538 
z
" style="fill:#40805c;"/>
   </g>
   <g id="patch_74">
    <path clip-path="url(#p073b31d74d)" d="M 739.672895 470.931454 
L 841.770385 470.931454 
L 841.770385 118.71 
L 739.672895 118.71 
z
" style="fill:#20804a;"/>
   </g>
   <g id="patch_75">
    <path clip-path="url(#p073b31d74d)" d="M 848.057709 1068.39 
L 862.071566 1068.39 
L 862.071566 491.959601 
L 848.057709 491.959601 
z
" style="fill:#408060;"/>
   </g>
   <g id="patch_76">
    <path clip-path="url(#p073b31d74d)" d="M 848.057709 488.804518 
L 862.071566 488.804518 
L 862.071566 118.71 
L 848.057709 118.71 
z
" style="fill:#208051;"/>
   </g>
   <g id="patch_77">
    <path clip-path="url(#p073b31d74d)" d="M 868.35889 1068.39 
L 904.848256 1068.39 
L 904.848256 540.725943 
L 868.35889 540.725943 
z
" style="fill:#408065;"/>
   </g>
   <g id="patch_78">
    <path clip-path="url(#p073b31d74d)" d="M 868.35889 537.57086 
L 904.848256 537.57086 
L 904.848256 118.71 
L 868.35889 118.71 
z
" style="fill:#208057;"/>
   </g>
   <g id="patch_79">
    <path clip-path="url(#p073b31d74d)" d="M 911.13558 1068.39 
L 976.210304 1068.39 
L 976.210304 558.451464 
L 911.13558 558.451464 
z
" style="fill:#408069;"/>
   </g>
   <g id="patch_80">
    <path clip-path="url(#p073b31d74d)" d="M 911.13558 555.296381 
L 976.210304 555.296381 
L 976.210304 118.71 
L 911.13558 118.71 
z
" style="fill:#20805e;"/>
   </g>
   <g id="patch_81">
    <path clip-path="url(#p073b31d74d)" d="M 982.497628 1068.39 
L 987.176996 1068.39 
L 987.176996 484.781372 
L 982.497628 484.781372 
z
" style="fill:#40806e;"/>
   </g>
   <g id="patch_82">
    <path clip-path="url(#p073b31d74d)" d="M 982.497628 481.626289 
L 987.176996 481.626289 
L 987.176996 118.71 
L 982.497628 118.71 
z
" style="fill:#208065;"/>
   </g>
   <g id="patch_83">
    <path clip-path="url(#p073b31d74d)" d="M 993.464319 1068.39 
L 1393.659326 1068.39 
L 1393.659326 558.369849 
L 993.464319 558.369849 
z
" style="fill:#408072;"/>
   </g>
   <g id="patch_84">
    <path clip-path="url(#p073b31d74d)" d="M 993.464319 555.214766 
L 1393.659326 555.214766 
L 1393.659326 118.71 
L 993.464319 118.71 
z
" style="fill:#20806b;"/>
   </g>
   <g id="patch_85">
    <path clip-path="url(#p073b31d74d)" d="M 1399.94665 1068.39 
L 1402.831855 1068.39 
L 1402.831855 503.656646 
L 1399.94665 503.656646 
z
" style="fill:#408077;"/>
   </g>
   <g id="patch_86">
    <path clip-path="url(#p073b31d74d)" d="M 1399.94665 500.501563 
L 1402.831855 500.501563 
L 1402.831855 118.71 
L 1399.94665 118.71 
z
" style="fill:#208072;"/>
   </g>
   <g id="patch_87">
    <path clip-path="url(#p073b31d74d)" d="M 1409.119179 1068.39 
L 1423.884644 1068.39 
L 1423.884644 561.711637 
L 1409.119179 561.711637 
z
" style="fill:#40807b;"/>
   </g>
   <g id="patch_88">
    <path clip-path="url(#p073b31d74d)" d="M 1409.119179 558.556554 
L 1423.884644 558.556554 
L 1423.884644 118.71 
L 1409.119179 118.71 
z
" style="fill:#208079;"/>
   </g>
   <g id="patch_89">
    <path clip-path="url(#p073b31d74d)" d="M 1430.171968 1068.39 
L 1436.209079 1068.39 
L 1436.209079 589.425584 
L 1430.171968 589.425584 
z
" style="fill:#408080;"/>
   </g>
   <g id="patch_90">
    <path clip-path="url(#p073b31d74d)" d="M 1430.171968 586.270501 
L 1436.209079 586.270501 
L 1436.209079 118.71 
L 1430.171968 118.71 
z
" style="fill:#208080;"/>
   </g>
   <g id="patch_91">
    <path clip-path="url(#p073b31d74d)" d="M 1442.496403 1068.39 
L 1454.86157 1068.39 
L 1454.86157 550.585192 
L 1442.496403 550.585192 
z
" style="fill:#407b80;"/>
   </g>
   <g id="patch_92">
    <path clip-path="url(#p073b31d74d)" d="M 1442.496403 547.430109 
L 1454.86157 547.430109 
L 1454.86157 118.71 
L 1442.496403 118.71 
z
" style="fill:#207980;"/>
   </g>
   <g id="patch_93">
    <path clip-path="url(#p073b31d74d)" d="M 1461.148894 1068.39 
L 1542.952963 1068.39 
L 1542.952963 698.364403 
L 1461.148894 698.364403 
z
" style="fill:#407780;"/>
   </g>
   <g id="patch_94">
    <path clip-path="url(#p073b31d74d)" d="M 1461.148894 695.20932 
L 1542.952963 695.20932 
L 1542.952963 118.71 
L 1461.148894 118.71 
z
" style="fill:#207280;"/>
   </g>
   <g id="patch_95">
    <path clip-path="url(#p073b31d74d)" d="M 1549.240287 1068.39 
L 1554.622771 1068.39 
L 1554.622771 671.872805 
L 1549.240287 671.872805 
z
" style="fill:#407280;"/>
   </g>
   <g id="patch_96">
    <path clip-path="url(#p073b31d74d)" d="M 1549.240287 668.717722 
L 1554.622771 668.717722 
L 1554.622771 118.71 
L 1549.240287 118.71 
z
" style="fill:#206b80;"/>
   </g>
   <g id="patch_97">
    <path clip-path="url(#p073b31d74d)" d="M 1560.910095 1068.39 
L 1564.377191 1068.39 
L 1564.377191 658.008567 
L 1560.910095 658.008567 
z
" style="fill:#406e80;"/>
   </g>
   <g id="patch_98">
    <path clip-path="url(#p073b31d74d)" d="M 1560.910095 654.853484 
L 1564.377191 654.853484 
L 1564.377191 118.71 
L 1560.910095 118.71 
z
" style="fill:#206580;"/>
   </g>
   <g id="patch_99">
    <path clip-path="url(#p073b31d74d)" d="M 1570.664515 1068.39 
L 1586.884705 1068.39 
L 1586.884705 595.834959 
L 1570.664515 595.834959 
z
" style="fill:#406980;"/>
   </g>
   <g id="patch_100">
    <path clip-path="url(#p073b31d74d)" d="M 1570.664515 592.679876 
L 1586.884705 592.679876 
L 1586.884705 118.71 
L 1570.664515 118.71 
z
" style="fill:#205e80;"/>
   </g>
   <g id="patch_101">
    <path clip-path="url(#p073b31d74d)" d="M 1593.172029 1068.39 
L 1594.844964 1068.39 
L 1594.844964 698.010685 
L 1593.172029 698.010685 
z
" style="fill:#406580;"/>
   </g>
   <g id="patch_102">
    <path clip-path="url(#p073b31d74d)" d="M 1593.172029 694.855602 
L 1594.844964 694.855602 
L 1594.844964 118.71 
L 1593.172029 118.71 
z
" style="fill:#205780;"/>
   </g>
   <g id="patch_103">
    <path clip-path="url(#p073b31d74d)" d="M 1601.132287 1068.39 
L 1718.74685 1068.39 
L 1718.74685 752.491455 
L 1601.132287 752.491455 
z
" style="fill:#406080;"/>
   </g>
   <g id="patch_104">
    <path clip-path="url(#p073b31d74d)" d="M 1601.132287 749.336372 
L 1718.74685 749.336372 
L 1718.74685 118.71 
L 1601.132287 118.71 
z
" style="fill:#205180;"/>
   </g>
   <g id="patch_105">
    <path clip-path="url(#p073b31d74d)" d="M 1725.034174 1068.39 
L 1726.100973 1068.39 
L 1726.100973 616.639471 
L 1725.034174 616.639471 
z
" style="fill:#405c80;"/>
   </g>
   <g id="patch_106">
    <path clip-path="url(#p073b31d74d)" d="M 1725.034174 613.484388 
L 1726.100973 613.484388 
L 1726.100973 118.71 
L 1725.034174 118.71 
z
" style="fill:#204a80;"/>
   </g>
   <g id="patch_107">
    <path clip-path="url(#p073b31d74d)" d="M 1732.388297 1068.39 
L 1736.994928 1068.39 
L 1736.994928 694.761743 
L 1732.388297 694.761743 
z
" style="fill:#405780;"/>
   </g>
   <g id="patch_108">
    <path clip-path="url(#p073b31d74d)" d="M 1732.388297 691.60666 
L 1736.994928 691.60666 
L 1736.994928 118.71 
L 1732.388297 118.71 
z
" style="fill:#204380;"/>
   </g>
   <g id="patch_109">
    <path clip-path="url(#p073b31d74d)" d="M 1743.282252 1068.39 
L 1744.639996 1068.39 
L 1744.639996 662.736464 
L 1743.282252 662.736464 
z
" style="fill:#405380;"/>
   </g>
   <g id="patch_110">
    <path clip-path="url(#p073b31d74d)" d="M 1743.282252 659.581381 
L 1744.639996 659.581381 
L 1744.639996 118.71 
L 1743.282252 118.71 
z
" style="fill:#203d80;"/>
   </g>
   <g id="patch_111">
    <path clip-path="url(#p073b31d74d)" d="M 1750.92732 1068.39 
L 1752.6245 1068.39 
L 1752.6245 676.258249 
L 1750.92732 676.258249 
z
" style="fill:#404f80;"/>
   </g>
   <g id="patch_112">
    <path clip-path="url(#p073b31d74d)" d="M 1750.92732 673.103166 
L 1752.6245 673.103166 
L 1752.6245 118.71 
L 1750.92732 118.71 
z
" style="fill:#203680;"/>
   </g>
   <g id="patch_113">
    <path clip-path="url(#p073b31d74d)" d="M 1758.911824 1068.39 
L 1782.914796 1068.39 
L 1782.914796 756.706037 
L 1758.911824 756.706037 
z
" style="fill:#404a80;"/>
   </g>
   <g id="patch_114">
    <path clip-path="url(#p073b31d74d)" d="M 1758.911824 753.550954 
L 1782.914796 753.550954 
L 1782.914796 118.71 
L 1758.911824 118.71 
z
" style="fill:#202f80;"/>
   </g>
   <g id="patch_115">
    <path clip-path="url(#p073b31d74d)" d="M 1789.20212 1068.39 
L 1792.354025 1068.39 
L 1792.354025 653.375229 
L 1789.20212 653.375229 
z
" style="fill:#404680;"/>
   </g>
   <g id="patch_116">
    <path clip-path="url(#p073b31d74d)" d="M 1789.20212 650.220146 
L 1792.354025 650.220146 
L 1792.354025 118.71 
L 1789.20212 118.71 
z
" style="fill:#202980;"/>
   </g>
   <g id="patch_117">
    <path clip-path="url(#p073b31d74d)" d="M 1798.641349 1068.39 
L 1799.635411 1068.39 
L 1799.635411 583.584555 
L 1798.641349 583.584555 
z
" style="fill:#404180;"/>
   </g>
   <g id="patch_118">
    <path clip-path="url(#p073b31d74d)" d="M 1798.641349 580.429472 
L 1799.635411 580.429472 
L 1799.635411 118.71 
L 1798.641349 118.71 
z
" style="fill:#202280;"/>
   </g>
   <g id="patch_119">
    <path clip-path="url(#p073b31d74d)" d="M 1805.922735 1068.39 
L 1807.838124 1068.39 
L 1807.838124 684.987502 
L 1805.922735 684.987502 
z
" style="fill:#434080;"/>
   </g>
   <g id="patch_120">
    <path clip-path="url(#p073b31d74d)" d="M 1805.922735 681.832419 
L 1807.838124 681.832419 
L 1807.838124 118.71 
L 1805.922735 118.71 
z
" style="fill:#242080;"/>
   </g>
   <g id="patch_121">
    <path clip-path="url(#p073b31d74d)" d="M 1814.125448 1068.39 
L 1814.513375 1068.39 
L 1814.513375 595.127542 
L 1814.125448 595.127542 
z
" style="fill:#474080;"/>
   </g>
   <g id="patch_122">
    <path clip-path="url(#p073b31d74d)" d="M 1814.125448 591.972458 
L 1814.513375 591.972458 
L 1814.513375 118.71 
L 1814.125448 118.71 
z
" style="fill:#2b2080;"/>
   </g>
   <g id="patch_123">
    <path clip-path="url(#p073b31d74d)" d="M 1820.800699 1068.39 
L 1882.578045 1068.39 
L 1882.578045 767.121669 
L 1820.800699 767.121669 
z
" style="fill:#4c4080;"/>
   </g>
   <g id="patch_124">
    <path clip-path="url(#p073b31d74d)" d="M 1820.800699 763.966586 
L 1882.578045 763.966586 
L 1882.578045 118.71 
L 1820.800699 118.71 
z
" style="fill:#322080;"/>
   </g>
   <g id="patch_125">
    <path clip-path="url(#p073b31d74d)" d="M 1888.865369 1068.39 
L 1889.204805 1068.39 
L 1889.204805 662.736464 
L 1888.865369 662.736464 
z
" style="fill:#504080;"/>
   </g>
   <g id="patch_126">
    <path clip-path="url(#p073b31d74d)" d="M 1888.865369 659.581381 
L 1889.204805 659.581381 
L 1889.204805 118.71 
L 1888.865369 118.71 
z
" style="fill:#382080;"/>
   </g>
   <g id="patch_127">
    <path clip-path="url(#p073b31d74d)" d="M 1895.492129 1068.39 
L 1896.316473 1068.39 
L 1896.316473 539.449605 
L 1895.492129 539.449605 
z
" style="fill:#554080;"/>
   </g>
   <g id="patch_128">
    <path clip-path="url(#p073b31d74d)" d="M 1895.492129 536.294522 
L 1896.316473 536.294522 
L 1896.316473 118.71 
L 1895.492129 118.71 
z
" style="fill:#3f2080;"/>
   </g>
   <g id="patch_129">
    <path clip-path="url(#p073b31d74d)" d="M 1902.603797 1068.39 
L 1903.040215 1068.39 
L 1903.040215 595.127542 
L 1902.603797 595.127542 
z
" style="fill:#594080;"/>
   </g>
   <g id="patch_130">
    <path clip-path="url(#p073b31d74d)" d="M 1902.603797 591.972458 
L 1903.040215 591.972458 
L 1903.040215 118.71 
L 1902.603797 118.71 
z
" style="fill:#462080;"/>
   </g>
   <g id="patch_131">
    <path clip-path="url(#p073b31d74d)" d="M 1909.327539 1068.39 
L 1910.151883 1068.39 
L 1910.151883 678.644446 
L 1909.327539 678.644446 
z
" style="fill:#5d4080;"/>
   </g>
   <g id="patch_132">
    <path clip-path="url(#p073b31d74d)" d="M 1909.327539 675.489363 
L 1910.151883 675.489363 
L 1910.151883 118.71 
L 1909.327539 118.71 
z
" style="fill:#4c2080;"/>
   </g>
   <g id="patch_133">
    <path clip-path="url(#p073b31d74d)" d="M 1916.439207 1068.39 
L 1923.955289 1068.39 
L 1923.955289 741.686238 
L 1916.439207 741.686238 
z
" style="fill:#624080;"/>
   </g>
   <g id="patch_134">
    <path clip-path="url(#p073b31d74d)" d="M 1916.439207 738.531155 
L 1923.955289 738.531155 
L 1923.955289 118.71 
L 1916.439207 118.71 
z
" style="fill:#532080;"/>
   </g>
   <g id="patch_135">
    <path clip-path="url(#p073b31d74d)" d="M 1930.242613 1068.39 
L 1930.509313 1068.39 
L 1930.509313 810.246841 
L 1930.242613 810.246841 
z
" style="fill:#664080;"/>
   </g>
   <g id="patch_136">
    <path clip-path="url(#p073b31d74d)" d="M 1930.242613 807.091758 
L 1930.509313 807.091758 
L 1930.509313 118.71 
L 1930.242613 118.71 
z
" style="fill:#5a2080;"/>
   </g>
   <g id="patch_137">
    <path clip-path="url(#p073b31d74d)" d="M 1936.796637 1068.39 
L 1937.039091 1068.39 
L 1937.039091 500.47505 
L 1936.796637 500.47505 
z
" style="fill:#6b4080;"/>
   </g>
   <g id="patch_138">
    <path clip-path="url(#p073b31d74d)" d="M 1936.796637 497.319967 
L 1937.039091 497.319967 
L 1937.039091 118.71 
L 1936.796637 118.71 
z
" style="fill:#602080;"/>
   </g>
   <g id="patch_139">
    <path clip-path="url(#p073b31d74d)" d="M 1943.326415 1068.39 
L 1943.835569 1068.39 
L 1943.835569 707.809079 
L 1943.326415 707.809079 
z
" style="fill:#6f4080;"/>
   </g>
   <g id="patch_140">
    <path clip-path="url(#p073b31d74d)" d="M 1943.326415 704.653996 
L 1943.835569 704.653996 
L 1943.835569 118.71 
L 1943.326415 118.71 
z
" style="fill:#672080;"/>
   </g>
   <g id="patch_141">
    <path clip-path="url(#p073b31d74d)" d="M 1950.122893 1068.39 
L 1950.389593 1068.39 
L 1950.389593 552.103682 
L 1950.122893 552.103682 
z
" style="fill:#744080;"/>
   </g>
   <g id="patch_142">
    <path clip-path="url(#p073b31d74d)" d="M 1950.122893 548.948599 
L 1950.389593 548.948599 
L 1950.389593 118.71 
L 1950.122893 118.71 
z
" style="fill:#6e2080;"/>
   </g>
   <g id="patch_143">
    <path clip-path="url(#p073b31d74d)" d="M 1956.676917 1068.39 
L 1967.732831 1068.39 
L 1967.732831 721.746006 
L 1956.676917 721.746006 
z
" style="fill:#784080;"/>
   </g>
   <g id="patch_144">
    <path clip-path="url(#p073b31d74d)" d="M 1956.676917 718.590923 
L 1967.732831 718.590923 
L 1967.732831 118.71 
L 1956.676917 118.71 
z
" style="fill:#742080;"/>
   </g>
   <g id="patch_145">
    <path clip-path="url(#p073b31d74d)" d="M 1974.020155 1068.39 
L 1974.117137 1068.39 
L 1974.117137 831.758771 
L 1974.020155 831.758771 
z
" style="fill:#7d4080;"/>
   </g>
   <g id="patch_146">
    <path clip-path="url(#p073b31d74d)" d="M 1974.020155 828.603688 
L 1974.117137 828.603688 
L 1974.117137 118.71 
L 1974.020155 118.71 
z
" style="fill:#7b2080;"/>
   </g>
   <g id="patch_147">
    <path clip-path="url(#p073b31d74d)" d="M 1980.404461 1068.39 
L 1981.665223 1068.39 
L 1981.665223 649.734748 
L 1980.404461 649.734748 
z
" style="fill:#80407e;"/>
   </g>
   <g id="patch_148">
    <path clip-path="url(#p073b31d74d)" d="M 1980.404461 646.579665 
L 1981.665223 646.579665 
L 1981.665223 118.71 
L 1980.404461 118.71 
z
" style="fill:#80207d;"/>
   </g>
   <g id="patch_149">
    <path clip-path="url(#p073b31d74d)" d="M 1987.952547 1068.39 
L 1988.073774 1068.39 
L 1988.073774 311.170066 
L 1987.952547 311.170066 
z
" style="fill:#80407a;"/>
   </g>
   <g id="patch_150">
    <path clip-path="url(#p073b31d74d)" d="M 1987.952547 308.014983 
L 1988.073774 308.014983 
L 1988.073774 118.71 
L 1987.952547 118.71 
z
" style="fill:#802077;"/>
   </g>
   <g id="patch_151">
    <path clip-path="url(#p073b31d74d)" d="M 1994.361098 1068.39 
L 1994.45808 1068.39 
L 1994.45808 358.496312 
L 1994.361098 358.496312 
z
" style="fill:#804075;"/>
   </g>
   <g id="patch_152">
    <path clip-path="url(#p073b31d74d)" d="M 1994.361098 355.341229 
L 1994.45808 355.341229 
L 1994.45808 118.71 
L 1994.361098 118.71 
z
" style="fill:#802070;"/>
   </g>
   <g id="patch_153">
    <path clip-path="url(#p073b31d74d)" d="M 2000.745403 1068.39 
L 2003.388155 1068.39 
L 2003.388155 738.408836 
L 2000.745403 738.408836 
z
" style="fill:#804071;"/>
   </g>
   <g id="patch_154">
    <path clip-path="url(#p073b31d74d)" d="M 2000.745403 735.253753 
L 2003.388155 735.253753 
L 2003.388155 118.71 
L 2000.745403 118.71 
z
" style="fill:#802069;"/>
   </g>
   <g id="patch_155">
    <path clip-path="url(#p073b31d74d)" d="M 2009.675479 1068.39 
L 2009.966424 1068.39 
L 2009.966424 595.127542 
L 2009.675479 595.127542 
z
" style="fill:#80406c;"/>
   </g>
   <g id="patch_156">
    <path clip-path="url(#p073b31d74d)" d="M 2009.675479 591.972458 
L 2009.966424 591.972458 
L 2009.966424 118.71 
L 2009.675479 118.71 
z
" style="fill:#802063;"/>
   </g>
   <g id="patch_157">
    <path clip-path="url(#p073b31d74d)" d="M 2016.253748 1068.39 
L 2016.544693 1068.39 
L 2016.544693 752.881694 
L 2016.253748 752.881694 
z
" style="fill:#804068;"/>
   </g>
   <g id="patch_158">
    <path clip-path="url(#p073b31d74d)" d="M 2016.253748 749.726611 
L 2016.544693 749.726611 
L 2016.544693 118.71 
L 2016.253748 118.71 
z
" style="fill:#80205c;"/>
   </g>
   <g id="patch_159">
    <path clip-path="url(#p073b31d74d)" d="M 2022.832017 1068.39 
L 2023.147208 1068.39 
L 2023.147208 849.961173 
L 2022.832017 849.961173 
z
" style="fill:#804063;"/>
   </g>
   <g id="patch_160">
    <path clip-path="url(#p073b31d74d)" d="M 2022.832017 846.80609 
L 2023.147208 846.80609 
L 2023.147208 118.71 
L 2022.832017 118.71 
z
" style="fill:#802055;"/>
   </g>
   <g id="patch_161">
    <path clip-path="url(#p073b31d74d)" d="M 2029.434531 1068.39 
L 2029.458777 1068.39 
L 2029.458777 121.865083 
L 2029.434531 121.865083 
z
" style="fill:#80405f;"/>
   </g>
   <g id="patch_162">
    <path clip-path="url(#p073b31d74d)" d="M 2029.434531 118.71 
L 2029.458777 118.71 
L 2029.458777 118.71 
L 2029.434531 118.71 
z
" style="fill:#80204f;"/>
   </g>
   <g id="patch_163">
    <path clip-path="url(#p073b31d74d)" d="M 2035.746101 1068.39 
L 2042.437839 1068.39 
L 2042.437839 629.421923 
L 2035.746101 629.421923 
z
" style="fill:#80405a;"/>
   </g>
   <g id="patch_164">
    <path clip-path="url(#p073b31d74d)" d="M 2035.746101 626.26684 
L 2042.437839 626.26684 
L 2042.437839 118.71 
L 2035.746101 118.71 
z
" style="fill:#802048;"/>
   </g>
   <g id="patch_165">
    <path clip-path="url(#p073b31d74d)" d="M 2048.725162 1068.39 
L 2048.749408 1068.39 
L 2048.749408 121.865083 
L 2048.725162 121.865083 
z
" style="fill:#804056;"/>
   </g>
   <g id="patch_166">
    <path clip-path="url(#p073b31d74d)" d="M 2048.725162 118.71 
L 2048.749408 118.71 
L 2048.749408 118.71 
L 2048.725162 118.71 
z
" style="fill:#802041;"/>
   </g>
   <g id="patch_167">
    <path clip-path="url(#p073b31d74d)" d="M 2055.036732 1068.39 
L 2055.133714 1068.39 
L 2055.133714 358.496312 
L 2055.036732 358.496312 
z
" style="fill:#804052;"/>
   </g>
   <g id="patch_168">
    <path clip-path="url(#p073b31d74d)" d="M 2055.036732 355.341229 
L 2055.133714 355.341229 
L 2055.133714 118.71 
L 2055.036732 118.71 
z
" style="fill:#80203b;"/>
   </g>
   <g id="patch_169">
    <path clip-path="url(#p073b31d74d)" d="M 2061.421037 1068.39 
L 2061.445283 1068.39 
L 2061.445283 121.865083 
L 2061.421037 121.865083 
z
" style="fill:#80404d;"/>
   </g>
   <g id="patch_170">
    <path clip-path="url(#p073b31d74d)" d="M 2061.421037 118.71 
L 2061.445283 118.71 
L 2061.445283 118.71 
L 2061.421037 118.71 
z
" style="fill:#802034;"/>
   </g>
   <g id="patch_171">
    <path clip-path="url(#p073b31d74d)" d="M 2067.732607 1068.39 
L 2073.6 1068.39 
L 2073.6 606.861321 
L 2067.732607 606.861321 
z
" style="fill:#804049;"/>
   </g>
   <g id="patch_172">
    <path clip-path="url(#p073b31d74d)" d="M 2067.732607 603.706238 
L 2073.6 603.706238 
L 2073.6 118.71 
L 2067.732607 118.71 
z
" style="fill:#80202d;"/>
   </g>
   <g id="patch_173">
    <path d="M 2073.6 1068.39 
L 2073.6 118.71 
" style="fill:none;stroke:#000000;stroke-linecap:square;stroke-linejoin:miter;"/>
   </g>
   <g id="patch_174">
    <path d="M 288 118.71 
L 2073.6 118.71 
" style="fill:none;stroke:#000000;stroke-linecap:square;stroke-linejoin:miter;"/>
   </g>
   <g id="patch_175">
    <path d="M 288 1068.39 
L 2073.6 1068.39 
" style="fill:none;stroke:#000000;stroke-linecap:square;stroke-linejoin:miter;"/>
   </g>
   <g id="patch_176">
    <path d="M 288 1068.39 
L 288 118.71 
" style="fill:none;stroke:#000000;stroke-linecap:square;stroke-linejoin:miter;"/>
   </g>
   <g id="matplotlib.axis_1">
    <g id="xtick_1">
     <g id="line2d_1">
      <defs>
       <path d="M 0 0 
L 0 -4 
" id="m401ab3a941" style="stroke:#000000;stroke-width:0.5;"/>
      </defs>
      <g>
       <use style="stroke:#000000;stroke-width:0.5;" x="417.001184897" xlink:href="#m401ab3a941" y="1068.39"/>
      </g>
     </g>
     <g id="text_1">
      <!-- 2 -->
      <defs>
       <path d="M 19.1875 8.296875 
L 53.609375 8.296875 
L 53.609375 0 
L 7.328125 0 
L 7.328125 8.296875 
Q 12.9375 14.109375 22.625 23.890625 
Q 32.328125 33.6875 34.8125 36.53125 
Q 39.546875 41.84375 41.421875 45.53125 
Q 43.3125 49.21875 43.3125 52.78125 
Q 43.3125 58.59375 39.234375 62.25 
Q 35.15625 65.921875 28.609375 65.921875 
Q 23.96875 65.921875 18.8125 64.3125 
Q 13.671875 62.703125 7.8125 59.421875 
L 7.8125 69.390625 
Q 13.765625 71.78125 18.9375 73 
Q 24.125 74.21875 28.421875 74.21875 
Q 39.75 74.21875 46.484375 68.546875 
Q 53.21875 62.890625 53.21875 53.421875 
Q 53.21875 48.921875 51.53125 44.890625 
Q 49.859375 40.875 45.40625 35.40625 
Q 44.1875 33.984375 37.640625 27.21875 
Q 31.109375 20.453125 19.1875 8.296875 
" id="BitstreamVeraSans-Roman-32"/>
      </defs>
      <g transform="translate(420.312434897 1080.025)rotate(-90.0)scale(0.12 -0.12)">
       <use xlink:href="#BitstreamVeraSans-Roman-32"/>
      </g>
     </g>
    </g>
    <g id="xtick_2">
     <g id="line2d_2">
      <g>
       <use style="stroke:#000000;stroke-width:0.5;" x="2029.4466542" xlink:href="#m401ab3a941" y="1068.39"/>
      </g>
     </g>
     <g id="text_2">
      <!-- 79 -->
      <defs>
       <path d="M 10.984375 1.515625 
L 10.984375 10.5 
Q 14.703125 8.734375 18.5 7.8125 
Q 22.3125 6.890625 25.984375 6.890625 
Q 35.75 6.890625 40.890625 13.453125 
Q 46.046875 20.015625 46.78125 33.40625 
Q 43.953125 29.203125 39.59375 26.953125 
Q 35.25 24.703125 29.984375 24.703125 
Q 19.046875 24.703125 12.671875 31.3125 
Q 6.296875 37.9375 6.296875 49.421875 
Q 6.296875 60.640625 12.9375 67.421875 
Q 19.578125 74.21875 30.609375 74.21875 
Q 43.265625 74.21875 49.921875 64.515625 
Q 56.59375 54.828125 56.59375 36.375 
Q 56.59375 19.140625 48.40625 8.859375 
Q 40.234375 -1.421875 26.421875 -1.421875 
Q 22.703125 -1.421875 18.890625 -0.6875 
Q 15.09375 0.046875 10.984375 1.515625 
M 30.609375 32.421875 
Q 37.25 32.421875 41.125 36.953125 
Q 45.015625 41.5 45.015625 49.421875 
Q 45.015625 57.28125 41.125 61.84375 
Q 37.25 66.40625 30.609375 66.40625 
Q 23.96875 66.40625 20.09375 61.84375 
Q 16.21875 57.28125 16.21875 49.421875 
Q 16.21875 41.5 20.09375 36.953125 
Q 23.96875 32.421875 30.609375 32.421875 
" id="BitstreamVeraSans-Roman-39"/>
       <path d="M 8.203125 72.90625 
L 55.078125 72.90625 
L 55.078125 68.703125 
L 28.609375 0 
L 18.3125 0 
L 43.21875 64.59375 
L 8.203125 64.59375 
z
" id="BitstreamVeraSans-Roman-37"/>
      </defs>
      <g transform="translate(2032.7579042 1087.66)rotate(-90.0)scale(0.12 -0.12)">
       <use xlink:href="#BitstreamVeraSans-Roman-37"/>
       <use x="63.623046875" xlink:href="#BitstreamVeraSans-Roman-39"/>
      </g>
     </g>
    </g>
    <g id="xtick_3">
     <g id="line2d_3">
      <g>
       <use style="stroke:#000000;stroke-width:0.5;" x="1920.19724827" xlink:href="#m401ab3a941" y="1068.39"/>
      </g>
     </g>
     <g id="text_3">
      <!-- 65 -->
      <defs>
       <path d="M 33.015625 40.375 
Q 26.375 40.375 22.484375 35.828125 
Q 18.609375 31.296875 18.609375 23.390625 
Q 18.609375 15.53125 22.484375 10.953125 
Q 26.375 6.390625 33.015625 6.390625 
Q 39.65625 6.390625 43.53125 10.953125 
Q 47.40625 15.53125 47.40625 23.390625 
Q 47.40625 31.296875 43.53125 35.828125 
Q 39.65625 40.375 33.015625 40.375 
M 52.59375 71.296875 
L 52.59375 62.3125 
Q 48.875 64.0625 45.09375 64.984375 
Q 41.3125 65.921875 37.59375 65.921875 
Q 27.828125 65.921875 22.671875 59.328125 
Q 17.53125 52.734375 16.796875 39.40625 
Q 19.671875 43.65625 24.015625 45.921875 
Q 28.375 48.1875 33.59375 48.1875 
Q 44.578125 48.1875 50.953125 41.515625 
Q 57.328125 34.859375 57.328125 23.390625 
Q 57.328125 12.15625 50.6875 5.359375 
Q 44.046875 -1.421875 33.015625 -1.421875 
Q 20.359375 -1.421875 13.671875 8.265625 
Q 6.984375 17.96875 6.984375 36.375 
Q 6.984375 53.65625 15.1875 63.9375 
Q 23.390625 74.21875 37.203125 74.21875 
Q 40.921875 74.21875 44.703125 73.484375 
Q 48.484375 72.75 52.59375 71.296875 
" id="BitstreamVeraSans-Roman-36"/>
       <path d="M 10.796875 72.90625 
L 49.515625 72.90625 
L 49.515625 64.59375 
L 19.828125 64.59375 
L 19.828125 46.734375 
Q 21.96875 47.46875 24.109375 47.828125 
Q 26.265625 48.1875 28.421875 48.1875 
Q 40.625 48.1875 47.75 41.5 
Q 54.890625 34.8125 54.890625 23.390625 
Q 54.890625 11.625 47.5625 5.09375 
Q 40.234375 -1.421875 26.90625 -1.421875 
Q 22.3125 -1.421875 17.546875 -0.640625 
Q 12.796875 0.140625 7.71875 1.703125 
L 7.71875 11.625 
Q 12.109375 9.234375 16.796875 8.0625 
Q 21.484375 6.890625 26.703125 6.890625 
Q 35.15625 6.890625 40.078125 11.328125 
Q 45.015625 15.765625 45.015625 23.390625 
Q 45.015625 31 40.078125 35.4375 
Q 35.15625 39.890625 26.703125 39.890625 
Q 22.75 39.890625 18.8125 39.015625 
Q 14.890625 38.140625 10.796875 36.28125 
z
" id="BitstreamVeraSans-Roman-35"/>
      </defs>
      <g transform="translate(1923.50849827 1087.66)rotate(-90.0)scale(0.12 -0.12)">
       <use xlink:href="#BitstreamVeraSans-Roman-36"/>
       <use x="63.623046875" xlink:href="#BitstreamVeraSans-Roman-35"/>
      </g>
     </g>
    </g>
    <g id="xtick_4">
     <g id="line2d_4">
      <g>
       <use style="stroke:#000000;stroke-width:0.5;" x="543.613710398" xlink:href="#m401ab3a941" y="1068.39"/>
      </g>
     </g>
     <g id="text_4">
      <!-- 18 -->
      <defs>
       <path d="M 12.40625 8.296875 
L 28.515625 8.296875 
L 28.515625 63.921875 
L 10.984375 60.40625 
L 10.984375 69.390625 
L 28.421875 72.90625 
L 38.28125 72.90625 
L 38.28125 8.296875 
L 54.390625 8.296875 
L 54.390625 0 
L 12.40625 0 
z
" id="BitstreamVeraSans-Roman-31"/>
       <path d="M 31.78125 34.625 
Q 24.75 34.625 20.71875 30.859375 
Q 16.703125 27.09375 16.703125 20.515625 
Q 16.703125 13.921875 20.71875 10.15625 
Q 24.75 6.390625 31.78125 6.390625 
Q 38.8125 6.390625 42.859375 10.171875 
Q 46.921875 13.96875 46.921875 20.515625 
Q 46.921875 27.09375 42.890625 30.859375 
Q 38.875 34.625 31.78125 34.625 
M 21.921875 38.8125 
Q 15.578125 40.375 12.03125 44.71875 
Q 8.5 49.078125 8.5 55.328125 
Q 8.5 64.0625 14.71875 69.140625 
Q 20.953125 74.21875 31.78125 74.21875 
Q 42.671875 74.21875 48.875 69.140625 
Q 55.078125 64.0625 55.078125 55.328125 
Q 55.078125 49.078125 51.53125 44.71875 
Q 48 40.375 41.703125 38.8125 
Q 48.828125 37.15625 52.796875 32.3125 
Q 56.78125 27.484375 56.78125 20.515625 
Q 56.78125 9.90625 50.3125 4.234375 
Q 43.84375 -1.421875 31.78125 -1.421875 
Q 19.734375 -1.421875 13.25 4.234375 
Q 6.78125 9.90625 6.78125 20.515625 
Q 6.78125 27.484375 10.78125 32.3125 
Q 14.796875 37.15625 21.921875 38.8125 
M 18.3125 54.390625 
Q 18.3125 48.734375 21.84375 45.5625 
Q 25.390625 42.390625 31.78125 42.390625 
Q 38.140625 42.390625 41.71875 45.5625 
Q 45.3125 48.734375 45.3125 54.390625 
Q 45.3125 60.0625 41.71875 63.234375 
Q 38.140625 66.40625 31.78125 66.40625 
Q 25.390625 66.40625 21.84375 63.234375 
Q 18.3125 60.0625 18.3125 54.390625 
" id="BitstreamVeraSans-Roman-38"/>
      </defs>
      <g transform="translate(546.924960398 1087.66)rotate(-90.0)scale(0.12 -0.12)">
       <use xlink:href="#BitstreamVeraSans-Roman-31"/>
       <use x="63.623046875" xlink:href="#BitstreamVeraSans-Roman-38"/>
      </g>
     </g>
    </g>
    <g id="xtick_5">
     <g id="line2d_5">
      <g>
       <use style="stroke:#000000;stroke-width:0.5;" x="886.603572942" xlink:href="#m401ab3a941" y="1068.39"/>
      </g>
     </g>
     <g id="text_5">
      <!-- 37 -->
      <defs>
       <path d="M 40.578125 39.3125 
Q 47.65625 37.796875 51.625 33 
Q 55.609375 28.21875 55.609375 21.1875 
Q 55.609375 10.40625 48.1875 4.484375 
Q 40.765625 -1.421875 27.09375 -1.421875 
Q 22.515625 -1.421875 17.65625 -0.515625 
Q 12.796875 0.390625 7.625 2.203125 
L 7.625 11.71875 
Q 11.71875 9.328125 16.59375 8.109375 
Q 21.484375 6.890625 26.8125 6.890625 
Q 36.078125 6.890625 40.9375 10.546875 
Q 45.796875 14.203125 45.796875 21.1875 
Q 45.796875 27.640625 41.28125 31.265625 
Q 36.765625 34.90625 28.71875 34.90625 
L 20.21875 34.90625 
L 20.21875 43.015625 
L 29.109375 43.015625 
Q 36.375 43.015625 40.234375 45.921875 
Q 44.09375 48.828125 44.09375 54.296875 
Q 44.09375 59.90625 40.109375 62.90625 
Q 36.140625 65.921875 28.71875 65.921875 
Q 24.65625 65.921875 20.015625 65.03125 
Q 15.375 64.15625 9.8125 62.3125 
L 9.8125 71.09375 
Q 15.4375 72.65625 20.34375 73.4375 
Q 25.25 74.21875 29.59375 74.21875 
Q 40.828125 74.21875 47.359375 69.109375 
Q 53.90625 64.015625 53.90625 55.328125 
Q 53.90625 49.265625 50.4375 45.09375 
Q 46.96875 40.921875 40.578125 39.3125 
" id="BitstreamVeraSans-Roman-33"/>
      </defs>
      <g transform="translate(889.914822942 1087.66)rotate(-90.0)scale(0.12 -0.12)">
       <use xlink:href="#BitstreamVeraSans-Roman-33"/>
       <use x="63.623046875" xlink:href="#BitstreamVeraSans-Roman-37"/>
      </g>
     </g>
    </g>
    <g id="xtick_6">
     <g id="line2d_6">
      <g>
       <use style="stroke:#000000;stroke-width:0.5;" x="345.837464398" xlink:href="#m401ab3a941" y="1068.39"/>
      </g>
     </g>
     <g id="text_6">
      <!-- 0 -->
      <defs>
       <path d="M 31.78125 66.40625 
Q 24.171875 66.40625 20.328125 58.90625 
Q 16.5 51.421875 16.5 36.375 
Q 16.5 21.390625 20.328125 13.890625 
Q 24.171875 6.390625 31.78125 6.390625 
Q 39.453125 6.390625 43.28125 13.890625 
Q 47.125 21.390625 47.125 36.375 
Q 47.125 51.421875 43.28125 58.90625 
Q 39.453125 66.40625 31.78125 66.40625 
M 31.78125 74.21875 
Q 44.046875 74.21875 50.515625 64.515625 
Q 56.984375 54.828125 56.984375 36.375 
Q 56.984375 17.96875 50.515625 8.265625 
Q 44.046875 -1.421875 31.78125 -1.421875 
Q 19.53125 -1.421875 13.0625 8.265625 
Q 6.59375 17.96875 6.59375 36.375 
Q 6.59375 54.828125 13.0625 64.515625 
Q 19.53125 74.21875 31.78125 74.21875 
" id="BitstreamVeraSans-Roman-30"/>
      </defs>
      <g transform="translate(349.148714398 1080.025)rotate(-90.0)scale(0.12 -0.12)">
       <use xlink:href="#BitstreamVeraSans-Roman-30"/>
      </g>
     </g>
    </g>
    <g id="xtick_7">
     <g id="line2d_7">
      <g>
       <use style="stroke:#000000;stroke-width:0.5;" x="1851.68937177" xlink:href="#m401ab3a941" y="1068.39"/>
      </g>
     </g>
     <g id="text_7">
      <!-- 60 -->
      <g transform="translate(1855.00062177 1087.66)rotate(-90.0)scale(0.12 -0.12)">
       <use xlink:href="#BitstreamVeraSans-Roman-36"/>
       <use x="63.623046875" xlink:href="#BitstreamVeraSans-Roman-30"/>
      </g>
     </g>
    </g>
    <g id="xtick_8">
     <g id="line2d_8">
      <g>
       <use style="stroke:#000000;stroke-width:0.5;" x="630.219827805" xlink:href="#m401ab3a941" y="1068.39"/>
      </g>
     </g>
     <g id="text_8">
      <!-- 26 -->
      <g transform="translate(633.531077805 1087.66)rotate(-90.0)scale(0.12 -0.12)">
       <use xlink:href="#BitstreamVeraSans-Roman-32"/>
       <use x="63.623046875" xlink:href="#BitstreamVeraSans-Roman-36"/>
      </g>
     </g>
    </g>
    <g id="xtick_9">
     <g id="line2d_9">
      <g>
       <use style="stroke:#000000;stroke-width:0.5;" x="1930.37596314" xlink:href="#m401ab3a941" y="1068.39"/>
      </g>
     </g>
     <g id="text_9">
      <!-- 66 -->
      <g transform="translate(1933.68721314 1087.66)rotate(-90.0)scale(0.12 -0.12)">
       <use xlink:href="#BitstreamVeraSans-Roman-36"/>
       <use x="63.623046875" xlink:href="#BitstreamVeraSans-Roman-36"/>
      </g>
     </g>
    </g>
    <g id="xtick_10">
     <g id="line2d_10">
      <g>
       <use style="stroke:#000000;stroke-width:0.5;" x="1502.05092843" xlink:href="#m401ab3a941" y="1068.39"/>
      </g>
     </g>
     <g id="text_10">
      <!-- 45 -->
      <defs>
       <path d="M 37.796875 64.3125 
L 12.890625 25.390625 
L 37.796875 25.390625 
z
M 35.203125 72.90625 
L 47.609375 72.90625 
L 47.609375 25.390625 
L 58.015625 25.390625 
L 58.015625 17.1875 
L 47.609375 17.1875 
L 47.609375 0 
L 37.796875 0 
L 37.796875 17.1875 
L 4.890625 17.1875 
L 4.890625 26.703125 
z
" id="BitstreamVeraSans-Roman-34"/>
      </defs>
      <g transform="translate(1505.36217843 1087.66)rotate(-90.0)scale(0.12 -0.12)">
       <use xlink:href="#BitstreamVeraSans-Roman-34"/>
       <use x="63.623046875" xlink:href="#BitstreamVeraSans-Roman-35"/>
      </g>
     </g>
    </g>
    <g id="xtick_11">
     <g id="line2d_11">
      <g>
       <use style="stroke:#000000;stroke-width:0.5;" x="1734.69161252" xlink:href="#m401ab3a941" y="1068.39"/>
      </g>
     </g>
     <g id="text_11">
      <!-- 52 -->
      <g transform="translate(1738.00286252 1087.66)rotate(-90.0)scale(0.12 -0.12)">
       <use xlink:href="#BitstreamVeraSans-Roman-35"/>
       <use x="63.623046875" xlink:href="#BitstreamVeraSans-Roman-32"/>
      </g>
     </g>
    </g>
    <g id="xtick_12">
     <g id="line2d_12">
      <g>
       <use style="stroke:#000000;stroke-width:0.5;" x="1981.03484172" xlink:href="#m401ab3a941" y="1068.39"/>
      </g>
     </g>
     <g id="text_12">
      <!-- 72 -->
      <g transform="translate(1984.34609172 1087.66)rotate(-90.0)scale(0.12 -0.12)">
       <use xlink:href="#BitstreamVeraSans-Roman-37"/>
       <use x="63.623046875" xlink:href="#BitstreamVeraSans-Roman-32"/>
      </g>
     </g>
    </g>
    <g id="xtick_13">
     <g id="line2d_13">
      <g>
       <use style="stroke:#000000;stroke-width:0.5;" x="508.935962094" xlink:href="#m401ab3a941" y="1068.39"/>
      </g>
     </g>
     <g id="text_13">
      <!-- 14 -->
      <g transform="translate(512.247212094 1087.66)rotate(-90.0)scale(0.12 -0.12)">
       <use xlink:href="#BitstreamVeraSans-Roman-31"/>
       <use x="63.623046875" xlink:href="#BitstreamVeraSans-Roman-34"/>
      </g>
     </g>
    </g>
    <g id="xtick_14">
     <g id="line2d_14">
      <g>
       <use style="stroke:#000000;stroke-width:0.5;" x="528.068997791" xlink:href="#m401ab3a941" y="1068.39"/>
      </g>
     </g>
     <g id="text_14">
      <!-- 16 -->
      <g transform="translate(531.380247791 1087.66)rotate(-90.0)scale(0.12 -0.12)">
       <use xlink:href="#BitstreamVeraSans-Roman-31"/>
       <use x="63.623046875" xlink:href="#BitstreamVeraSans-Roman-36"/>
      </g>
     </g>
    </g>
    <g id="xtick_15">
     <g id="line2d_15">
      <g>
       <use style="stroke:#000000;stroke-width:0.5;" x="494.688379793" xlink:href="#m401ab3a941" y="1068.39"/>
      </g>
     </g>
     <g id="text_15">
      <!-- 12 -->
      <g transform="translate(497.999629793 1087.66)rotate(-90.0)scale(0.12 -0.12)">
       <use xlink:href="#BitstreamVeraSans-Roman-31"/>
       <use x="63.623046875" xlink:href="#BitstreamVeraSans-Roman-32"/>
      </g>
     </g>
    </g>
    <g id="xtick_16">
     <g id="line2d_16">
      <g>
       <use style="stroke:#000000;stroke-width:0.5;" x="1743.96112389" xlink:href="#m401ab3a941" y="1068.39"/>
      </g>
     </g>
     <g id="text_16">
      <!-- 53 -->
      <g transform="translate(1747.27237389 1087.66)rotate(-90.0)scale(0.12 -0.12)">
       <use xlink:href="#BitstreamVeraSans-Roman-35"/>
       <use x="63.623046875" xlink:href="#BitstreamVeraSans-Roman-33"/>
      </g>
     </g>
    </g>
    <g id="xtick_17">
     <g id="line2d_17">
      <g>
       <use style="stroke:#000000;stroke-width:0.5;" x="943.672942235" xlink:href="#m401ab3a941" y="1068.39"/>
      </g>
     </g>
     <g id="text_17">
      <!-- 38 -->
      <g transform="translate(946.984192235 1087.66)rotate(-90.0)scale(0.12 -0.12)">
       <use xlink:href="#BitstreamVeraSans-Roman-33"/>
       <use x="63.623046875" xlink:href="#BitstreamVeraSans-Roman-38"/>
      </g>
     </g>
    </g>
    <g id="xtick_18">
     <g id="line2d_18">
      <g>
       <use style="stroke:#000000;stroke-width:0.5;" x="637.767913916" xlink:href="#m401ab3a941" y="1068.39"/>
      </g>
     </g>
     <g id="text_18">
      <!-- 27 -->
      <g transform="translate(641.079163916 1087.66)rotate(-90.0)scale(0.12 -0.12)">
       <use xlink:href="#BitstreamVeraSans-Roman-32"/>
       <use x="63.623046875" xlink:href="#BitstreamVeraSans-Roman-37"/>
      </g>
     </g>
    </g>
    <g id="xtick_19">
     <g id="line2d_19">
      <g>
       <use style="stroke:#000000;stroke-width:0.5;" x="1448.67898665" xlink:href="#m401ab3a941" y="1068.39"/>
      </g>
     </g>
     <g id="text_19">
      <!-- 44 -->
      <g transform="translate(1451.99023665 1087.66)rotate(-90.0)scale(0.12 -0.12)">
       <use xlink:href="#BitstreamVeraSans-Roman-34"/>
       <use x="63.623046875" xlink:href="#BitstreamVeraSans-Roman-34"/>
      </g>
     </g>
    </g>
    <g id="xtick_20">
     <g id="line2d_20">
      <g>
       <use style="stroke:#000000;stroke-width:0.5;" x="1806.88042964" xlink:href="#m401ab3a941" y="1068.39"/>
      </g>
     </g>
     <g id="text_20">
      <!-- 58 -->
      <g transform="translate(1810.19167964 1087.66)rotate(-90.0)scale(0.12 -0.12)">
       <use xlink:href="#BitstreamVeraSans-Roman-35"/>
       <use x="63.623046875" xlink:href="#BitstreamVeraSans-Roman-38"/>
      </g>
     </g>
    </g>
    <g id="xtick_21">
     <g id="line2d_21">
      <g>
       <use style="stroke:#000000;stroke-width:0.5;" x="2048.73728516" xlink:href="#m401ab3a941" y="1068.39"/>
      </g>
     </g>
     <g id="text_21">
      <!-- 81 -->
      <g transform="translate(2052.04853516 1087.66)rotate(-90.0)scale(0.12 -0.12)">
       <use xlink:href="#BitstreamVeraSans-Roman-38"/>
       <use x="63.623046875" xlink:href="#BitstreamVeraSans-Roman-31"/>
      </g>
     </g>
    </g>
    <g id="xtick_22">
     <g id="line2d_22">
      <g>
       <use style="stroke:#000000;stroke-width:0.5;" x="1889.03508678" xlink:href="#m401ab3a941" y="1068.39"/>
      </g>
     </g>
     <g id="text_22">
      <!-- 61 -->
      <g transform="translate(1892.34633678 1087.66)rotate(-90.0)scale(0.12 -0.12)">
       <use xlink:href="#BitstreamVeraSans-Roman-36"/>
       <use x="63.623046875" xlink:href="#BitstreamVeraSans-Roman-31"/>
      </g>
     </g>
    </g>
    <g id="xtick_23">
     <g id="line2d_23">
      <g>
       <use style="stroke:#000000;stroke-width:0.5;" x="1943.58099211" xlink:href="#m401ab3a941" y="1068.39"/>
      </g>
     </g>
     <g id="text_23">
      <!-- 68 -->
      <g transform="translate(1946.89224211 1087.66)rotate(-90.0)scale(0.12 -0.12)">
       <use xlink:href="#BitstreamVeraSans-Roman-36"/>
       <use x="63.623046875" xlink:href="#BitstreamVeraSans-Roman-38"/>
      </g>
     </g>
    </g>
    <g id="xtick_24">
     <g id="line2d_24">
      <g>
       <use style="stroke:#000000;stroke-width:0.5;" x="1988.01316031" xlink:href="#m401ab3a941" y="1068.39"/>
      </g>
     </g>
     <g id="text_24">
      <!-- 73 -->
      <g transform="translate(1991.32441031 1087.66)rotate(-90.0)scale(0.12 -0.12)">
       <use xlink:href="#BitstreamVeraSans-Roman-37"/>
       <use x="63.623046875" xlink:href="#BitstreamVeraSans-Roman-33"/>
      </g>
     </g>
    </g>
    <g id="xtick_25">
     <g id="line2d_25">
      <g>
       <use style="stroke:#000000;stroke-width:0.5;" x="2055.08522267" xlink:href="#m401ab3a941" y="1068.39"/>
      </g>
     </g>
     <g id="text_25">
      <!-- 82 -->
      <g transform="translate(2058.39647267 1087.66)rotate(-90.0)scale(0.12 -0.12)">
       <use xlink:href="#BitstreamVeraSans-Roman-38"/>
       <use x="63.623046875" xlink:href="#BitstreamVeraSans-Roman-32"/>
      </g>
     </g>
    </g>
    <g id="xtick_26">
     <g id="line2d_26">
      <g>
       <use style="stroke:#000000;stroke-width:0.5;" x="453.844534677" xlink:href="#m401ab3a941" y="1068.39"/>
      </g>
     </g>
     <g id="text_26">
      <!-- 7 -->
      <g transform="translate(457.155784677 1080.025)rotate(-90.0)scale(0.12 -0.12)">
       <use xlink:href="#BitstreamVeraSans-Roman-37"/>
      </g>
     </g>
    </g>
    <g id="xtick_27">
     <g id="line2d_27">
      <g>
       <use style="stroke:#000000;stroke-width:0.5;" x="423.918889924" xlink:href="#m401ab3a941" y="1068.39"/>
      </g>
     </g>
     <g id="text_27">
      <!-- 3 -->
      <g transform="translate(427.230139924 1080.025)rotate(-90.0)scale(0.12 -0.12)">
       <use xlink:href="#BitstreamVeraSans-Roman-33"/>
      </g>
     </g>
    </g>
    <g id="xtick_28">
     <g id="line2d_28">
      <g>
       <use style="stroke:#000000;stroke-width:0.5;" x="431.042681075" xlink:href="#m401ab3a941" y="1068.39"/>
      </g>
     </g>
     <g id="text_28">
      <!-- 4 -->
      <g transform="translate(434.353931075 1080.025)rotate(-90.0)scale(0.12 -0.12)">
       <use xlink:href="#BitstreamVeraSans-Roman-34"/>
      </g>
     </g>
    </g>
    <g id="xtick_29">
     <g id="line2d_29">
      <g>
       <use style="stroke:#000000;stroke-width:0.5;" x="1562.64364307" xlink:href="#m401ab3a941" y="1068.39"/>
      </g>
     </g>
     <g id="text_29">
      <!-- 47 -->
      <g transform="translate(1565.95489307 1087.66)rotate(-90.0)scale(0.12 -0.12)">
       <use xlink:href="#BitstreamVeraSans-Roman-34"/>
       <use x="63.623046875" xlink:href="#BitstreamVeraSans-Roman-37"/>
      </g>
     </g>
    </g>
    <g id="xtick_30">
     <g id="line2d_30">
      <g>
       <use style="stroke:#000000;stroke-width:0.5;" x="677.299111653" xlink:href="#m401ab3a941" y="1068.39"/>
      </g>
     </g>
     <g id="text_30">
      <!-- 30 -->
      <g transform="translate(680.610361653 1087.66)rotate(-90.0)scale(0.12 -0.12)">
       <use xlink:href="#BitstreamVeraSans-Roman-33"/>
       <use x="63.623046875" xlink:href="#BitstreamVeraSans-Roman-30"/>
      </g>
     </g>
    </g>
    <g id="xtick_31">
     <g id="line2d_31">
      <g>
       <use style="stroke:#000000;stroke-width:0.5;" x="984.837311886" xlink:href="#m401ab3a941" y="1068.39"/>
      </g>
     </g>
     <g id="text_31">
      <!-- 39 -->
      <g transform="translate(988.148561886 1087.66)rotate(-90.0)scale(0.12 -0.12)">
       <use xlink:href="#BitstreamVeraSans-Roman-33"/>
       <use x="63.623046875" xlink:href="#BitstreamVeraSans-Roman-39"/>
      </g>
     </g>
    </g>
    <g id="xtick_32">
     <g id="line2d_32">
      <g>
       <use style="stroke:#000000;stroke-width:0.5;" x="2022.98961227" xlink:href="#m401ab3a941" y="1068.39"/>
      </g>
     </g>
     <g id="text_32">
      <!-- 78 -->
      <g transform="translate(2026.30086227 1087.66)rotate(-90.0)scale(0.12 -0.12)">
       <use xlink:href="#BitstreamVeraSans-Roman-37"/>
       <use x="63.623046875" xlink:href="#BitstreamVeraSans-Roman-38"/>
      </g>
     </g>
    </g>
    <g id="xtick_33">
     <g id="line2d_33">
      <g>
       <use style="stroke:#000000;stroke-width:0.5;" x="501.981888927" xlink:href="#m401ab3a941" y="1068.39"/>
      </g>
     </g>
     <g id="text_33">
      <!-- 13 -->
      <g transform="translate(505.293138927 1087.66)rotate(-90.0)scale(0.12 -0.12)">
       <use xlink:href="#BitstreamVeraSans-Roman-31"/>
       <use x="63.623046875" xlink:href="#BitstreamVeraSans-Roman-33"/>
      </g>
     </g>
    </g>
    <g id="xtick_34">
     <g id="line2d_34">
      <g>
       <use style="stroke:#000000;stroke-width:0.5;" x="855.064637524" xlink:href="#m401ab3a941" y="1068.39"/>
      </g>
     </g>
     <g id="text_34">
      <!-- 36 -->
      <g transform="translate(858.375887524 1087.66)rotate(-90.0)scale(0.12 -0.12)">
       <use xlink:href="#BitstreamVeraSans-Roman-33"/>
       <use x="63.623046875" xlink:href="#BitstreamVeraSans-Roman-36"/>
      </g>
     </g>
    </g>
    <g id="xtick_35">
     <g id="line2d_35">
      <g>
       <use style="stroke:#000000;stroke-width:0.5;" x="446.575270969" xlink:href="#m401ab3a941" y="1068.39"/>
      </g>
     </g>
     <g id="text_35">
      <!-- 6 -->
      <g transform="translate(449.886520969 1080.025)rotate(-90.0)scale(0.12 -0.12)">
       <use xlink:href="#BitstreamVeraSans-Roman-36"/>
      </g>
     </g>
    </g>
    <g id="xtick_36">
     <g id="line2d_36">
      <g>
       <use style="stroke:#000000;stroke-width:0.5;" x="709.270100566" xlink:href="#m401ab3a941" y="1068.39"/>
      </g>
     </g>
     <g id="text_36">
      <!-- 32 -->
      <g transform="translate(712.581350566 1087.66)rotate(-90.0)scale(0.12 -0.12)">
       <use xlink:href="#BitstreamVeraSans-Roman-33"/>
       <use x="63.623046875" xlink:href="#BitstreamVeraSans-Roman-32"/>
      </g>
     </g>
    </g>
    <g id="xtick_37">
     <g id="line2d_37">
      <g>
       <use style="stroke:#000000;stroke-width:0.5;" x="1799.13838012" xlink:href="#m401ab3a941" y="1068.39"/>
      </g>
     </g>
     <g id="text_37">
      <!-- 57 -->
      <g transform="translate(1802.44963012 1087.66)rotate(-90.0)scale(0.12 -0.12)">
       <use xlink:href="#BitstreamVeraSans-Roman-35"/>
       <use x="63.623046875" xlink:href="#BitstreamVeraSans-Roman-37"/>
      </g>
     </g>
    </g>
    <g id="xtick_38">
     <g id="line2d_38">
      <g>
       <use style="stroke:#000000;stroke-width:0.5;" x="536.053501574" xlink:href="#m401ab3a941" y="1068.39"/>
      </g>
     </g>
     <g id="text_38">
      <!-- 17 -->
      <g transform="translate(539.364751574 1087.66)rotate(-90.0)scale(0.12 -0.12)">
       <use xlink:href="#BitstreamVeraSans-Roman-31"/>
       <use x="63.623046875" xlink:href="#BitstreamVeraSans-Roman-37"/>
      </g>
     </g>
    </g>
    <g id="xtick_39">
     <g id="line2d_39">
      <g>
       <use style="stroke:#000000;stroke-width:0.5;" x="518.060000912" xlink:href="#m401ab3a941" y="1068.39"/>
      </g>
     </g>
     <g id="text_39">
      <!-- 15 -->
      <g transform="translate(521.371250912 1087.66)rotate(-90.0)scale(0.12 -0.12)">
       <use xlink:href="#BitstreamVeraSans-Roman-31"/>
       <use x="63.623046875" xlink:href="#BitstreamVeraSans-Roman-35"/>
      </g>
     </g>
    </g>
    <g id="xtick_40">
     <g id="line2d_40">
      <g>
       <use style="stroke:#000000;stroke-width:0.5;" x="1193.56182258" xlink:href="#m401ab3a941" y="1068.39"/>
      </g>
     </g>
     <g id="text_40">
      <!-- 40 -->
      <g transform="translate(1196.87307258 1087.66)rotate(-90.0)scale(0.12 -0.12)">
       <use xlink:href="#BitstreamVeraSans-Roman-34"/>
       <use x="63.623046875" xlink:href="#BitstreamVeraSans-Roman-30"/>
      </g>
     </g>
    </g>
    <g id="xtick_41">
     <g id="line2d_41">
      <g>
       <use style="stroke:#000000;stroke-width:0.5;" x="1790.77807223" xlink:href="#m401ab3a941" y="1068.39"/>
      </g>
     </g>
     <g id="text_41">
      <!-- 56 -->
      <g transform="translate(1794.08932223 1087.66)rotate(-90.0)scale(0.12 -0.12)">
       <use xlink:href="#BitstreamVeraSans-Roman-35"/>
       <use x="63.623046875" xlink:href="#BitstreamVeraSans-Roman-36"/>
      </g>
     </g>
    </g>
    <g id="xtick_42">
     <g id="line2d_42">
      <g>
       <use style="stroke:#000000;stroke-width:0.5;" x="438.808976022" xlink:href="#m401ab3a941" y="1068.39"/>
      </g>
     </g>
     <g id="text_42">
      <!-- 5 -->
      <g transform="translate(442.120226022 1080.025)rotate(-90.0)scale(0.12 -0.12)">
       <use xlink:href="#BitstreamVeraSans-Roman-35"/>
      </g>
     </g>
    </g>
    <g id="xtick_43">
     <g id="line2d_43">
      <g>
       <use style="stroke:#000000;stroke-width:0.5;" x="1401.3892525" xlink:href="#m401ab3a941" y="1068.39"/>
      </g>
     </g>
     <g id="text_43">
      <!-- 41 -->
      <g transform="translate(1404.7005025 1087.66)rotate(-90.0)scale(0.12 -0.12)">
       <use xlink:href="#BitstreamVeraSans-Roman-34"/>
       <use x="63.623046875" xlink:href="#BitstreamVeraSans-Roman-31"/>
      </g>
     </g>
    </g>
    <g id="xtick_44">
     <g id="line2d_44">
      <g>
       <use style="stroke:#000000;stroke-width:0.5;" x="2002.0667792" xlink:href="#m401ab3a941" y="1068.39"/>
      </g>
     </g>
     <g id="text_44">
      <!-- 75 -->
      <g transform="translate(2005.3780292 1087.66)rotate(-90.0)scale(0.12 -0.12)">
       <use xlink:href="#BitstreamVeraSans-Roman-37"/>
       <use x="63.623046875" xlink:href="#BitstreamVeraSans-Roman-35"/>
      </g>
     </g>
    </g>
    <g id="xtick_45">
     <g id="line2d_45">
      <g>
       <use style="stroke:#000000;stroke-width:0.5;" x="1994.40958868" xlink:href="#m401ab3a941" y="1068.39"/>
      </g>
     </g>
     <g id="text_45">
      <!-- 74 -->
      <g transform="translate(1997.72083868 1087.66)rotate(-90.0)scale(0.12 -0.12)">
       <use xlink:href="#BitstreamVeraSans-Roman-37"/>
       <use x="63.623046875" xlink:href="#BitstreamVeraSans-Roman-34"/>
      </g>
     </g>
    </g>
    <g id="xtick_46">
     <g id="line2d_46">
      <g>
       <use style="stroke:#000000;stroke-width:0.5;" x="2039.09196968" xlink:href="#m401ab3a941" y="1068.39"/>
      </g>
     </g>
     <g id="text_46">
      <!-- 80 -->
      <g transform="translate(2042.40321968 1087.66)rotate(-90.0)scale(0.12 -0.12)">
       <use xlink:href="#BitstreamVeraSans-Roman-38"/>
       <use x="63.623046875" xlink:href="#BitstreamVeraSans-Roman-30"/>
      </g>
     </g>
    </g>
    <g id="xtick_47">
     <g id="line2d_47">
      <g>
       <use style="stroke:#000000;stroke-width:0.5;" x="790.721640346" xlink:href="#m401ab3a941" y="1068.39"/>
      </g>
     </g>
     <g id="text_47">
      <!-- 35 -->
      <g transform="translate(794.032890346 1087.66)rotate(-90.0)scale(0.12 -0.12)">
       <use xlink:href="#BitstreamVeraSans-Roman-33"/>
       <use x="63.623046875" xlink:href="#BitstreamVeraSans-Roman-35"/>
      </g>
     </g>
    </g>
    <g id="xtick_48">
     <g id="line2d_48">
      <g>
       <use style="stroke:#000000;stroke-width:0.5;" x="2070.66630342" xlink:href="#m401ab3a941" y="1068.39"/>
      </g>
     </g>
     <g id="text_48">
      <!-- 98 -->
      <g transform="translate(2073.97755342 1087.66)rotate(-90.0)scale(0.12 -0.12)">
       <use xlink:href="#BitstreamVeraSans-Roman-39"/>
       <use x="63.623046875" xlink:href="#BitstreamVeraSans-Roman-38"/>
      </g>
     </g>
    </g>
    <g id="xtick_49">
     <g id="line2d_49">
      <g>
       <use style="stroke:#000000;stroke-width:0.5;" x="1416.50191161" xlink:href="#m401ab3a941" y="1068.39"/>
      </g>
     </g>
     <g id="text_49">
      <!-- 42 -->
      <g transform="translate(1419.81316161 1087.66)rotate(-90.0)scale(0.12 -0.12)">
       <use xlink:href="#BitstreamVeraSans-Roman-34"/>
       <use x="63.623046875" xlink:href="#BitstreamVeraSans-Roman-32"/>
      </g>
     </g>
    </g>
    <g id="xtick_50">
     <g id="line2d_50">
      <g>
       <use style="stroke:#000000;stroke-width:0.5;" x="1962.20487385" xlink:href="#m401ab3a941" y="1068.39"/>
      </g>
     </g>
     <g id="text_50">
      <!-- 70 -->
      <g transform="translate(1965.51612385 1087.66)rotate(-90.0)scale(0.12 -0.12)">
       <use xlink:href="#BitstreamVeraSans-Roman-37"/>
       <use x="63.623046875" xlink:href="#BitstreamVeraSans-Roman-30"/>
      </g>
     </g>
    </g>
    <g id="xtick_51">
     <g id="line2d_51">
      <g>
       <use style="stroke:#000000;stroke-width:0.5;" x="487.382747945" xlink:href="#m401ab3a941" y="1068.39"/>
      </g>
     </g>
     <g id="text_51">
      <!-- 11 -->
      <g transform="translate(490.693997945 1087.66)rotate(-90.0)scale(0.12 -0.12)">
       <use xlink:href="#BitstreamVeraSans-Roman-31"/>
       <use x="63.623046875" xlink:href="#BitstreamVeraSans-Roman-31"/>
      </g>
     </g>
    </g>
    <g id="xtick_52">
     <g id="line2d_52">
      <g>
       <use style="stroke:#000000;stroke-width:0.5;" x="1594.00849633" xlink:href="#m401ab3a941" y="1068.39"/>
      </g>
     </g>
     <g id="text_52">
      <!-- 49 -->
      <g transform="translate(1597.31974633 1087.66)rotate(-90.0)scale(0.12 -0.12)">
       <use xlink:href="#BitstreamVeraSans-Roman-34"/>
       <use x="63.623046875" xlink:href="#BitstreamVeraSans-Roman-39"/>
      </g>
     </g>
    </g>
    <g id="xtick_53">
     <g id="line2d_53">
      <g>
       <use style="stroke:#000000;stroke-width:0.5;" x="1902.82200598" xlink:href="#m401ab3a941" y="1068.39"/>
      </g>
     </g>
     <g id="text_53">
      <!-- 63 -->
      <g transform="translate(1906.13325598 1087.66)rotate(-90.0)scale(0.12 -0.12)">
       <use xlink:href="#BitstreamVeraSans-Roman-36"/>
       <use x="63.623046875" xlink:href="#BitstreamVeraSans-Roman-33"/>
      </g>
     </g>
    </g>
    <g id="xtick_54">
     <g id="line2d_54">
      <g>
       <use style="stroke:#000000;stroke-width:0.5;" x="648.079978622" xlink:href="#m401ab3a941" y="1068.39"/>
      </g>
     </g>
     <g id="text_54">
      <!-- 28 -->
      <g transform="translate(651.391228622 1087.66)rotate(-90.0)scale(0.12 -0.12)">
       <use xlink:href="#BitstreamVeraSans-Roman-32"/>
       <use x="63.623046875" xlink:href="#BitstreamVeraSans-Roman-38"/>
      </g>
     </g>
    </g>
    <g id="xtick_55">
     <g id="line2d_55">
      <g>
       <use style="stroke:#000000;stroke-width:0.5;" x="578.57464528" xlink:href="#m401ab3a941" y="1068.39"/>
      </g>
     </g>
     <g id="text_55">
      <!-- 21 -->
      <g transform="translate(581.88589528 1087.66)rotate(-90.0)scale(0.12 -0.12)">
       <use xlink:href="#BitstreamVeraSans-Roman-32"/>
       <use x="63.623046875" xlink:href="#BitstreamVeraSans-Roman-31"/>
      </g>
     </g>
    </g>
    <g id="xtick_56">
     <g id="line2d_56">
      <g>
       <use style="stroke:#000000;stroke-width:0.5;" x="1578.77461009" xlink:href="#m401ab3a941" y="1068.39"/>
      </g>
     </g>
     <g id="text_56">
      <!-- 48 -->
      <g transform="translate(1582.08586009 1087.66)rotate(-90.0)scale(0.12 -0.12)">
       <use xlink:href="#BitstreamVeraSans-Roman-34"/>
       <use x="63.623046875" xlink:href="#BitstreamVeraSans-Roman-38"/>
      </g>
     </g>
    </g>
    <g id="xtick_57">
     <g id="line2d_57">
      <g>
       <use style="stroke:#000000;stroke-width:0.5;" x="551.076937516" xlink:href="#m401ab3a941" y="1068.39"/>
      </g>
     </g>
     <g id="text_57">
      <!-- 19 -->
      <g transform="translate(554.388187516 1087.66)rotate(-90.0)scale(0.12 -0.12)">
       <use xlink:href="#BitstreamVeraSans-Roman-31"/>
       <use x="63.623046875" xlink:href="#BitstreamVeraSans-Roman-39"/>
      </g>
     </g>
    </g>
    <g id="xtick_58">
     <g id="line2d_58">
      <g>
       <use style="stroke:#000000;stroke-width:0.5;" x="1936.91786406" xlink:href="#m401ab3a941" y="1068.39"/>
      </g>
     </g>
     <g id="text_58">
      <!-- 67 -->
      <g transform="translate(1940.22911406 1087.66)rotate(-90.0)scale(0.12 -0.12)">
       <use xlink:href="#BitstreamVeraSans-Roman-36"/>
       <use x="63.623046875" xlink:href="#BitstreamVeraSans-Roman-37"/>
      </g>
     </g>
    </g>
    <g id="xtick_59">
     <g id="line2d_59">
      <g>
       <use style="stroke:#000000;stroke-width:0.5;" x="1433.19052343" xlink:href="#m401ab3a941" y="1068.39"/>
      </g>
     </g>
     <g id="text_59">
      <!-- 43 -->
      <g transform="translate(1436.50177343 1087.66)rotate(-90.0)scale(0.12 -0.12)">
       <use xlink:href="#BitstreamVeraSans-Roman-34"/>
       <use x="63.623046875" xlink:href="#BitstreamVeraSans-Roman-33"/>
      </g>
     </g>
    </g>
    <g id="xtick_60">
     <g id="line2d_60">
      <g>
       <use style="stroke:#000000;stroke-width:0.5;" x="604.976944685" xlink:href="#m401ab3a941" y="1068.39"/>
      </g>
     </g>
     <g id="text_60">
      <!-- 24 -->
      <g transform="translate(608.288194685 1087.66)rotate(-90.0)scale(0.12 -0.12)">
       <use xlink:href="#BitstreamVeraSans-Roman-32"/>
       <use x="63.623046875" xlink:href="#BitstreamVeraSans-Roman-34"/>
      </g>
     </g>
    </g>
    <g id="xtick_61">
     <g id="line2d_61">
      <g>
       <use style="stroke:#000000;stroke-width:0.5;" x="1770.91330957" xlink:href="#m401ab3a941" y="1068.39"/>
      </g>
     </g>
     <g id="text_61">
      <!-- 55 -->
      <g transform="translate(1774.22455957 1087.66)rotate(-90.0)scale(0.12 -0.12)">
       <use xlink:href="#BitstreamVeraSans-Roman-35"/>
       <use x="63.623046875" xlink:href="#BitstreamVeraSans-Roman-35"/>
      </g>
     </g>
    </g>
    <g id="xtick_62">
     <g id="line2d_62">
      <g>
       <use style="stroke:#000000;stroke-width:0.5;" x="1751.77590969" xlink:href="#m401ab3a941" y="1068.39"/>
      </g>
     </g>
     <g id="text_62">
      <!-- 54 -->
      <g transform="translate(1755.08715969 1087.66)rotate(-90.0)scale(0.12 -0.12)">
       <use xlink:href="#BitstreamVeraSans-Roman-35"/>
       <use x="63.623046875" xlink:href="#BitstreamVeraSans-Roman-34"/>
      </g>
     </g>
    </g>
    <g id="xtick_63">
     <g id="line2d_63">
      <g>
       <use style="stroke:#000000;stroke-width:0.5;" x="732.185422763" xlink:href="#m401ab3a941" y="1068.39"/>
      </g>
     </g>
     <g id="text_63">
      <!-- 34 -->
      <g transform="translate(735.496672763 1087.66)rotate(-90.0)scale(0.12 -0.12)">
       <use xlink:href="#BitstreamVeraSans-Roman-33"/>
       <use x="63.623046875" xlink:href="#BitstreamVeraSans-Roman-34"/>
      </g>
     </g>
    </g>
    <g id="xtick_64">
     <g id="line2d_64">
      <g>
       <use style="stroke:#000000;stroke-width:0.5;" x="1950.25624287" xlink:href="#m401ab3a941" y="1068.39"/>
      </g>
     </g>
     <g id="text_64">
      <!-- 69 -->
      <g transform="translate(1953.56749287 1087.66)rotate(-90.0)scale(0.12 -0.12)">
       <use xlink:href="#BitstreamVeraSans-Roman-36"/>
       <use x="63.623046875" xlink:href="#BitstreamVeraSans-Roman-39"/>
      </g>
     </g>
    </g>
    <g id="xtick_65">
     <g id="line2d_65">
      <g>
       <use style="stroke:#000000;stroke-width:0.5;" x="410.180461576" xlink:href="#m401ab3a941" y="1068.39"/>
      </g>
     </g>
     <g id="text_65">
      <!-- 1 -->
      <g transform="translate(413.491711576 1080.025)rotate(-90.0)scale(0.12 -0.12)">
       <use xlink:href="#BitstreamVeraSans-Roman-31"/>
      </g>
     </g>
    </g>
    <g id="xtick_66">
     <g id="line2d_66">
      <g>
       <use style="stroke:#000000;stroke-width:0.5;" x="2061.43316018" xlink:href="#m401ab3a941" y="1068.39"/>
      </g>
     </g>
     <g id="text_66">
      <!-- 83 -->
      <g transform="translate(2064.74441018 1087.66)rotate(-90.0)scale(0.12 -0.12)">
       <use xlink:href="#BitstreamVeraSans-Roman-38"/>
       <use x="63.623046875" xlink:href="#BitstreamVeraSans-Roman-33"/>
      </g>
     </g>
    </g>
    <g id="xtick_67">
     <g id="line2d_67">
      <g>
       <use style="stroke:#000000;stroke-width:0.5;" x="461.744179468" xlink:href="#m401ab3a941" y="1068.39"/>
      </g>
     </g>
     <g id="text_67">
      <!-- 8 -->
      <g transform="translate(465.055429468 1080.025)rotate(-90.0)scale(0.12 -0.12)">
       <use xlink:href="#BitstreamVeraSans-Roman-38"/>
      </g>
     </g>
    </g>
    <g id="xtick_68">
     <g id="line2d_68">
      <g>
       <use style="stroke:#000000;stroke-width:0.5;" x="1551.93152883" xlink:href="#m401ab3a941" y="1068.39"/>
      </g>
     </g>
     <g id="text_68">
      <!-- 46 -->
      <g transform="translate(1555.24277883 1087.66)rotate(-90.0)scale(0.12 -0.12)">
       <use xlink:href="#BitstreamVeraSans-Roman-34"/>
       <use x="63.623046875" xlink:href="#BitstreamVeraSans-Roman-36"/>
      </g>
     </g>
    </g>
    <g id="xtick_69">
     <g id="line2d_69">
      <g>
       <use style="stroke:#000000;stroke-width:0.5;" x="1909.73971101" xlink:href="#m401ab3a941" y="1068.39"/>
      </g>
     </g>
     <g id="text_69">
      <!-- 64 -->
      <g transform="translate(1913.05096101 1087.66)rotate(-90.0)scale(0.12 -0.12)">
       <use xlink:href="#BitstreamVeraSans-Roman-36"/>
       <use x="63.623046875" xlink:href="#BitstreamVeraSans-Roman-34"/>
      </g>
     </g>
    </g>
    <g id="xtick_70">
     <g id="line2d_70">
      <g>
       <use style="stroke:#000000;stroke-width:0.5;" x="1814.31941133" xlink:href="#m401ab3a941" y="1068.39"/>
      </g>
     </g>
     <g id="text_70">
      <!-- 59 -->
      <g transform="translate(1817.63066133 1087.66)rotate(-90.0)scale(0.12 -0.12)">
       <use xlink:href="#BitstreamVeraSans-Roman-35"/>
       <use x="63.623046875" xlink:href="#BitstreamVeraSans-Roman-39"/>
      </g>
     </g>
    </g>
    <g id="xtick_71">
     <g id="line2d_71">
      <g>
       <use style="stroke:#000000;stroke-width:0.5;" x="1725.5675737" xlink:href="#m401ab3a941" y="1068.39"/>
      </g>
     </g>
     <g id="text_71">
      <!-- 51 -->
      <g transform="translate(1728.8788237 1087.66)rotate(-90.0)scale(0.12 -0.12)">
       <use xlink:href="#BitstreamVeraSans-Roman-35"/>
       <use x="63.623046875" xlink:href="#BitstreamVeraSans-Roman-31"/>
      </g>
     </g>
    </g>
    <g id="xtick_72">
     <g id="line2d_72">
      <g>
       <use style="stroke:#000000;stroke-width:0.5;" x="1659.93956893" xlink:href="#m401ab3a941" y="1068.39"/>
      </g>
     </g>
     <g id="text_72">
      <!-- 50 -->
      <g transform="translate(1663.25081893 1087.66)rotate(-90.0)scale(0.12 -0.12)">
       <use xlink:href="#BitstreamVeraSans-Roman-35"/>
       <use x="63.623046875" xlink:href="#BitstreamVeraSans-Roman-30"/>
      </g>
     </g>
    </g>
    <g id="xtick_73">
     <g id="line2d_73">
      <g>
       <use style="stroke:#000000;stroke-width:0.5;" x="469.474106276" xlink:href="#m401ab3a941" y="1068.39"/>
      </g>
     </g>
     <g id="text_73">
      <!-- 9 -->
      <g transform="translate(472.785356276 1080.025)rotate(-90.0)scale(0.12 -0.12)">
       <use xlink:href="#BitstreamVeraSans-Roman-39"/>
      </g>
     </g>
    </g>
    <g id="xtick_74">
     <g id="line2d_74">
      <g>
       <use style="stroke:#000000;stroke-width:0.5;" x="594.580020987" xlink:href="#m401ab3a941" y="1068.39"/>
      </g>
     </g>
     <g id="text_74">
      <!-- 23 -->
      <g transform="translate(597.891270987 1087.66)rotate(-90.0)scale(0.12 -0.12)">
       <use xlink:href="#BitstreamVeraSans-Roman-32"/>
       <use x="63.623046875" xlink:href="#BitstreamVeraSans-Roman-33"/>
      </g>
     </g>
    </g>
    <g id="xtick_75">
     <g id="line2d_75">
      <g>
       <use style="stroke:#000000;stroke-width:0.5;" x="478.513286103" xlink:href="#m401ab3a941" y="1068.39"/>
      </g>
     </g>
     <g id="text_75">
      <!-- 10 -->
      <g transform="translate(481.824536103 1087.66)rotate(-90.0)scale(0.12 -0.12)">
       <use xlink:href="#BitstreamVeraSans-Roman-31"/>
       <use x="63.623046875" xlink:href="#BitstreamVeraSans-Roman-30"/>
      </g>
     </g>
    </g>
    <g id="xtick_76">
     <g id="line2d_76">
      <g>
       <use style="stroke:#000000;stroke-width:0.5;" x="723.073506658" xlink:href="#m401ab3a941" y="1068.39"/>
      </g>
     </g>
     <g id="text_76">
      <!-- 33 -->
      <g transform="translate(726.384756658 1087.66)rotate(-90.0)scale(0.12 -0.12)">
       <use xlink:href="#BitstreamVeraSans-Roman-33"/>
       <use x="63.623046875" xlink:href="#BitstreamVeraSans-Roman-33"/>
      </g>
     </g>
    </g>
    <g id="xtick_77">
     <g id="line2d_77">
      <g>
       <use style="stroke:#000000;stroke-width:0.5;" x="564.31057609" xlink:href="#m401ab3a941" y="1068.39"/>
      </g>
     </g>
     <g id="text_77">
      <!-- 20 -->
      <g transform="translate(567.62182609 1087.66)rotate(-90.0)scale(0.12 -0.12)">
       <use xlink:href="#BitstreamVeraSans-Roman-32"/>
       <use x="63.623046875" xlink:href="#BitstreamVeraSans-Roman-30"/>
      </g>
     </g>
    </g>
    <g id="xtick_78">
     <g id="line2d_78">
      <g>
       <use style="stroke:#000000;stroke-width:0.5;" x="1974.06864584" xlink:href="#m401ab3a941" y="1068.39"/>
      </g>
     </g>
     <g id="text_78">
      <!-- 71 -->
      <g transform="translate(1977.37989584 1087.66)rotate(-90.0)scale(0.12 -0.12)">
       <use xlink:href="#BitstreamVeraSans-Roman-37"/>
       <use x="63.623046875" xlink:href="#BitstreamVeraSans-Roman-31"/>
      </g>
     </g>
    </g>
    <g id="xtick_79">
     <g id="line2d_79">
      <g>
       <use style="stroke:#000000;stroke-width:0.5;" x="2016.3992205" xlink:href="#m401ab3a941" y="1068.39"/>
      </g>
     </g>
     <g id="text_79">
      <!-- 77 -->
      <g transform="translate(2019.7104705 1087.66)rotate(-90.0)scale(0.12 -0.12)">
       <use xlink:href="#BitstreamVeraSans-Roman-37"/>
       <use x="63.623046875" xlink:href="#BitstreamVeraSans-Roman-37"/>
      </g>
     </g>
    </g>
    <g id="xtick_80">
     <g id="line2d_80">
      <g>
       <use style="stroke:#000000;stroke-width:0.5;" x="658.076852787" xlink:href="#m401ab3a941" y="1068.39"/>
      </g>
     </g>
     <g id="text_80">
      <!-- 29 -->
      <g transform="translate(661.388102787 1087.66)rotate(-90.0)scale(0.12 -0.12)">
       <use xlink:href="#BitstreamVeraSans-Roman-32"/>
       <use x="63.623046875" xlink:href="#BitstreamVeraSans-Roman-39"/>
      </g>
     </g>
    </g>
    <g id="xtick_81">
     <g id="line2d_81">
      <g>
       <use style="stroke:#000000;stroke-width:0.5;" x="618.998559613" xlink:href="#m401ab3a941" y="1068.39"/>
      </g>
     </g>
     <g id="text_81">
      <!-- 25 -->
      <g transform="translate(622.309809613 1087.66)rotate(-90.0)scale(0.12 -0.12)">
       <use xlink:href="#BitstreamVeraSans-Roman-32"/>
       <use x="63.623046875" xlink:href="#BitstreamVeraSans-Roman-35"/>
      </g>
     </g>
    </g>
    <g id="xtick_82">
     <g id="line2d_82">
      <g>
       <use style="stroke:#000000;stroke-width:0.5;" x="2009.82095144" xlink:href="#m401ab3a941" y="1068.39"/>
      </g>
     </g>
     <g id="text_82">
      <!-- 76 -->
      <g transform="translate(2013.13220144 1087.66)rotate(-90.0)scale(0.12 -0.12)">
       <use xlink:href="#BitstreamVeraSans-Roman-37"/>
       <use x="63.623046875" xlink:href="#BitstreamVeraSans-Roman-36"/>
      </g>
     </g>
    </g>
    <g id="xtick_83">
     <g id="line2d_83">
      <g>
       <use style="stroke:#000000;stroke-width:0.5;" x="586.765235187" xlink:href="#m401ab3a941" y="1068.39"/>
      </g>
     </g>
     <g id="text_83">
      <!-- 22 -->
      <g transform="translate(590.076485187 1087.66)rotate(-90.0)scale(0.12 -0.12)">
       <use xlink:href="#BitstreamVeraSans-Roman-32"/>
       <use x="63.623046875" xlink:href="#BitstreamVeraSans-Roman-32"/>
      </g>
     </g>
    </g>
    <g id="xtick_84">
     <g id="line2d_84">
      <g>
       <use style="stroke:#000000;stroke-width:0.5;" x="1895.90430096" xlink:href="#m401ab3a941" y="1068.39"/>
      </g>
     </g>
     <g id="text_84">
      <!-- 62 -->
      <g transform="translate(1899.21555096 1087.66)rotate(-90.0)scale(0.12 -0.12)">
       <use xlink:href="#BitstreamVeraSans-Roman-36"/>
       <use x="63.623046875" xlink:href="#BitstreamVeraSans-Roman-32"/>
      </g>
     </g>
    </g>
    <g id="xtick_85">
     <g id="line2d_85">
      <g>
       <use style="stroke:#000000;stroke-width:0.5;" x="696.581984084" xlink:href="#m401ab3a941" y="1068.39"/>
      </g>
     </g>
     <g id="text_85">
      <!-- 31 -->
      <g transform="translate(699.893234084 1087.66)rotate(-90.0)scale(0.12 -0.12)">
       <use xlink:href="#BitstreamVeraSans-Roman-33"/>
       <use x="63.623046875" xlink:href="#BitstreamVeraSans-Roman-31"/>
      </g>
     </g>
    </g>
   </g>
   <g id="matplotlib.axis_2">
    <g id="ytick_1">
     <g id="line2d_86">
      <defs>
       <path d="M 0 0 
L 4 0 
" id="m580b0e1147" style="stroke:#000000;stroke-width:0.5;"/>
      </defs>
      <g>
       <use style="stroke:#000000;stroke-width:0.5;" x="288.0" xlink:href="#m580b0e1147" y="754.237368271"/>
      </g>
     </g>
     <g id="text_86">
      <!-- False -->
      <defs>
       <path d="M 9.421875 75.984375 
L 18.40625 75.984375 
L 18.40625 0 
L 9.421875 0 
z
" id="BitstreamVeraSans-Roman-6c"/>
       <path d="M 9.8125 72.90625 
L 51.703125 72.90625 
L 51.703125 64.59375 
L 19.671875 64.59375 
L 19.671875 43.109375 
L 48.578125 43.109375 
L 48.578125 34.8125 
L 19.671875 34.8125 
L 19.671875 0 
L 9.8125 0 
z
" id="BitstreamVeraSans-Roman-46"/>
       <path d="M 34.28125 27.484375 
Q 23.390625 27.484375 19.1875 25 
Q 14.984375 22.515625 14.984375 16.5 
Q 14.984375 11.71875 18.140625 8.90625 
Q 21.296875 6.109375 26.703125 6.109375 
Q 34.1875 6.109375 38.703125 11.40625 
Q 43.21875 16.703125 43.21875 25.484375 
L 43.21875 27.484375 
z
M 52.203125 31.203125 
L 52.203125 0 
L 43.21875 0 
L 43.21875 8.296875 
Q 40.140625 3.328125 35.546875 0.953125 
Q 30.953125 -1.421875 24.3125 -1.421875 
Q 15.921875 -1.421875 10.953125 3.296875 
Q 6 8.015625 6 15.921875 
Q 6 25.140625 12.171875 29.828125 
Q 18.359375 34.515625 30.609375 34.515625 
L 43.21875 34.515625 
L 43.21875 35.40625 
Q 43.21875 41.609375 39.140625 45 
Q 35.0625 48.390625 27.6875 48.390625 
Q 23 48.390625 18.546875 47.265625 
Q 14.109375 46.140625 10.015625 43.890625 
L 10.015625 52.203125 
Q 14.9375 54.109375 19.578125 55.046875 
Q 24.21875 56 28.609375 56 
Q 40.484375 56 46.34375 49.84375 
Q 52.203125 43.703125 52.203125 31.203125 
" id="BitstreamVeraSans-Roman-61"/>
       <path d="M 56.203125 29.59375 
L 56.203125 25.203125 
L 14.890625 25.203125 
Q 15.484375 15.921875 20.484375 11.0625 
Q 25.484375 6.203125 34.421875 6.203125 
Q 39.59375 6.203125 44.453125 7.46875 
Q 49.3125 8.734375 54.109375 11.28125 
L 54.109375 2.78125 
Q 49.265625 0.734375 44.1875 -0.34375 
Q 39.109375 -1.421875 33.890625 -1.421875 
Q 20.796875 -1.421875 13.15625 6.1875 
Q 5.515625 13.8125 5.515625 26.8125 
Q 5.515625 40.234375 12.765625 48.109375 
Q 20.015625 56 32.328125 56 
Q 43.359375 56 49.78125 48.890625 
Q 56.203125 41.796875 56.203125 29.59375 
M 47.21875 32.234375 
Q 47.125 39.59375 43.09375 43.984375 
Q 39.0625 48.390625 32.421875 48.390625 
Q 24.90625 48.390625 20.390625 44.140625 
Q 15.875 39.890625 15.1875 32.171875 
z
" id="BitstreamVeraSans-Roman-65"/>
       <path d="M 44.28125 53.078125 
L 44.28125 44.578125 
Q 40.484375 46.53125 36.375 47.5 
Q 32.28125 48.484375 27.875 48.484375 
Q 21.1875 48.484375 17.84375 46.4375 
Q 14.5 44.390625 14.5 40.28125 
Q 14.5 37.15625 16.890625 35.375 
Q 19.28125 33.59375 26.515625 31.984375 
L 29.59375 31.296875 
Q 39.15625 29.25 43.1875 25.515625 
Q 47.21875 21.78125 47.21875 15.09375 
Q 47.21875 7.46875 41.1875 3.015625 
Q 35.15625 -1.421875 24.609375 -1.421875 
Q 20.21875 -1.421875 15.453125 -0.5625 
Q 10.6875 0.296875 5.421875 2 
L 5.421875 11.28125 
Q 10.40625 8.6875 15.234375 7.390625 
Q 20.0625 6.109375 24.8125 6.109375 
Q 31.15625 6.109375 34.5625 8.28125 
Q 37.984375 10.453125 37.984375 14.40625 
Q 37.984375 18.0625 35.515625 20.015625 
Q 33.0625 21.96875 24.703125 23.78125 
L 21.578125 24.515625 
Q 13.234375 26.265625 9.515625 29.90625 
Q 5.8125 33.546875 5.8125 39.890625 
Q 5.8125 47.609375 11.28125 51.796875 
Q 16.75 56 26.8125 56 
Q 31.78125 56 36.171875 55.265625 
Q 40.578125 54.546875 44.28125 53.078125 
" id="BitstreamVeraSans-Roman-73"/>
      </defs>
      <g transform="translate(281.504375 769.841118271)rotate(-90.0)scale(0.12 -0.12)">
       <use xlink:href="#BitstreamVeraSans-Roman-46"/>
       <use x="57.37890625" xlink:href="#BitstreamVeraSans-Roman-61"/>
       <use x="118.658203125" xlink:href="#BitstreamVeraSans-Roman-6c"/>
       <use x="146.44140625" xlink:href="#BitstreamVeraSans-Roman-73"/>
       <use x="198.541015625" xlink:href="#BitstreamVeraSans-Roman-65"/>
      </g>
     </g>
    </g>
    <g id="ytick_2">
     <g id="line2d_87">
      <g>
       <use style="stroke:#000000;stroke-width:0.5;" x="288.0" xlink:href="#m580b0e1147" y="277.819826743"/>
      </g>
     </g>
     <g id="text_87">
      <!-- True -->
      <defs>
       <path d="M -0.296875 72.90625 
L 61.375 72.90625 
L 61.375 64.59375 
L 35.5 64.59375 
L 35.5 0 
L 25.59375 0 
L 25.59375 64.59375 
L -0.296875 64.59375 
z
" id="BitstreamVeraSans-Roman-54"/>
       <path d="M 8.5 21.578125 
L 8.5 54.6875 
L 17.484375 54.6875 
L 17.484375 21.921875 
Q 17.484375 14.15625 20.5 10.265625 
Q 23.53125 6.390625 29.59375 6.390625 
Q 36.859375 6.390625 41.078125 11.03125 
Q 45.3125 15.671875 45.3125 23.6875 
L 45.3125 54.6875 
L 54.296875 54.6875 
L 54.296875 0 
L 45.3125 0 
L 45.3125 8.40625 
Q 42.046875 3.421875 37.71875 1 
Q 33.40625 -1.421875 27.6875 -1.421875 
Q 18.265625 -1.421875 13.375 4.4375 
Q 8.5 10.296875 8.5 21.578125 
" id="BitstreamVeraSans-Roman-75"/>
       <path d="M 41.109375 46.296875 
Q 39.59375 47.171875 37.8125 47.578125 
Q 36.03125 48 33.890625 48 
Q 26.265625 48 22.1875 43.046875 
Q 18.109375 38.09375 18.109375 28.8125 
L 18.109375 0 
L 9.078125 0 
L 9.078125 54.6875 
L 18.109375 54.6875 
L 18.109375 46.1875 
Q 20.953125 51.171875 25.484375 53.578125 
Q 30.03125 56 36.53125 56 
Q 37.453125 56 38.578125 55.875 
Q 39.703125 55.765625 41.0625 55.515625 
z
" id="BitstreamVeraSans-Roman-72"/>
      </defs>
      <g transform="translate(281.504375 291.432326743)rotate(-90.0)scale(0.12 -0.12)">
       <use xlink:href="#BitstreamVeraSans-Roman-54"/>
       <use x="60.865234375" xlink:href="#BitstreamVeraSans-Roman-72"/>
       <use x="101.978515625" xlink:href="#BitstreamVeraSans-Roman-75"/>
       <use x="165.357421875" xlink:href="#BitstreamVeraSans-Roman-65"/>
      </g>
     </g>
    </g>
   </g>
   <g id="text_88">
    <!-- hrswrk -->
    <defs>
     <path d="M 54.890625 33.015625 
L 54.890625 0 
L 45.90625 0 
L 45.90625 32.71875 
Q 45.90625 40.484375 42.875 44.328125 
Q 39.84375 48.1875 33.796875 48.1875 
Q 26.515625 48.1875 22.3125 43.546875 
Q 18.109375 38.921875 18.109375 30.90625 
L 18.109375 0 
L 9.078125 0 
L 9.078125 75.984375 
L 18.109375 75.984375 
L 18.109375 46.1875 
Q 21.34375 51.125 25.703125 53.5625 
Q 30.078125 56 35.796875 56 
Q 45.21875 56 50.046875 50.171875 
Q 54.890625 44.34375 54.890625 33.015625 
" id="BitstreamVeraSans-Roman-68"/>
     <path d="M 4.203125 54.6875 
L 13.1875 54.6875 
L 24.421875 12.015625 
L 35.59375 54.6875 
L 46.1875 54.6875 
L 57.421875 12.015625 
L 68.609375 54.6875 
L 77.59375 54.6875 
L 63.28125 0 
L 52.6875 0 
L 40.921875 44.828125 
L 29.109375 0 
L 18.5 0 
z
" id="BitstreamVeraSans-Roman-77"/>
     <path d="M 9.078125 75.984375 
L 18.109375 75.984375 
L 18.109375 31.109375 
L 44.921875 54.6875 
L 56.390625 54.6875 
L 27.390625 29.109375 
L 57.625 0 
L 45.90625 0 
L 18.109375 26.703125 
L 18.109375 0 
L 9.078125 0 
z
" id="BitstreamVeraSans-Roman-6b"/>
    </defs>
    <g transform="translate(1156.509 113.71)scale(0.144 -0.144)">
     <use xlink:href="#BitstreamVeraSans-Roman-68"/>
     <use x="63.37890625" xlink:href="#BitstreamVeraSans-Roman-72"/>
     <use x="104.4921875" xlink:href="#BitstreamVeraSans-Roman-73"/>
     <use x="156.591796875" xlink:href="#BitstreamVeraSans-Roman-77"/>
     <use x="238.37890625" xlink:href="#BitstreamVeraSans-Roman-72"/>
     <use x="279.4921875" xlink:href="#BitstreamVeraSans-Roman-6b"/>
    </g>
   </g>
  </g>
  <g id="axes_2">
   <g id="patch_177">
    <path d="M 2073.6 1068.39 
L 2073.6 118.71 
" style="fill:none;stroke:#000000;stroke-linecap:square;stroke-linejoin:miter;"/>
   </g>
   <g id="patch_178">
    <path d="M 288 118.71 
L 2073.6 118.71 
" style="fill:none;stroke:#000000;stroke-linecap:square;stroke-linejoin:miter;"/>
   </g>
   <g id="patch_179">
    <path d="M 288 1068.39 
L 2073.6 1068.39 
" style="fill:none;stroke:#000000;stroke-linecap:square;stroke-linejoin:miter;"/>
   </g>
   <g id="patch_180">
    <path d="M 288 1068.39 
L 288 118.71 
" style="fill:none;stroke:#000000;stroke-linecap:square;stroke-linejoin:miter;"/>
   </g>
   <g id="matplotlib.axis_3"/>
  </g>
  <g id="axes_3">
   <g id="patch_181">
    <path d="M 2073.6 1068.39 
L 2073.6 118.71 
" style="fill:none;stroke:#000000;stroke-linecap:square;stroke-linejoin:miter;"/>
   </g>
   <g id="patch_182">
    <path d="M 288 118.71 
L 2073.6 118.71 
" style="fill:none;stroke:#000000;stroke-linecap:square;stroke-linejoin:miter;"/>
   </g>
   <g id="patch_183">
    <path d="M 288 1068.39 
L 2073.6 1068.39 
" style="fill:none;stroke:#000000;stroke-linecap:square;stroke-linejoin:miter;"/>
   </g>
   <g id="patch_184">
    <path d="M 288 1068.39 
L 288 118.71 
" style="fill:none;stroke:#000000;stroke-linecap:square;stroke-linejoin:miter;"/>
   </g>
   <g id="matplotlib.axis_4"/>
  </g>
 </g>
 <defs>
  <clipPath id="p073b31d74d">
   <rect height="949.68" width="1785.6" x="288.0" y="118.71"/>
  </clipPath>
 </defs>
</svg>
